<svg width="17" height="17" viewBox="0 0 17 17" fill="none" xmlns="http://www.w3.org/2000/svg">
<path d="M17 3.6428C17 2.9987 16.7441 2.38099 16.2887 1.92554C15.8332 1.4701 15.2155 1.21423 14.5714 1.21423H13.9643V0.624163C13.9643 0.297445 13.7131 0.0170205 13.3864 0.000703519C13.3043 -0.00325171 13.2222 0.00950106 13.1452 0.0381892C13.0682 0.0668773 12.9978 0.110904 12.9383 0.1676C12.8788 0.224296 12.8314 0.292482 12.7991 0.368027C12.7667 0.443571 12.75 0.524901 12.75 0.607087V1.21423H4.25V0.624163C4.25 0.297445 3.99879 0.0170205 3.67208 0.000703519C3.58998 -0.00325171 3.50794 0.00950106 3.43093 0.0381892C3.35391 0.0668773 3.28352 0.110904 3.22402 0.1676C3.16452 0.224296 3.11715 0.292482 3.08478 0.368027C3.05242 0.443571 3.03572 0.524901 3.03571 0.607087V1.21423H2.42857C1.78447 1.21423 1.16676 1.4701 0.711312 1.92554C0.255867 2.38099 0 2.9987 0 3.6428V4.09816C0 4.13842 0.0159917 4.17702 0.044457 4.20549C0.0729224 4.23395 0.11153 4.24994 0.151786 4.24994H16.8482C16.8885 4.24994 16.9271 4.23395 16.9555 4.20549C16.984 4.17702 17 4.13842 17 4.09816V3.6428Z" fill="#00856E"/>
<path d="M0 14.5714C0 15.2155 0.255867 15.8332 0.711312 16.2886C1.16676 16.7441 1.78447 16.9999 2.42857 16.9999H14.5714C15.2155 16.9999 15.8332 16.7441 16.2887 16.2886C16.7441 15.8332 17 15.2155 17 14.5714V5.57807C17 5.54788 16.988 5.51893 16.9667 5.49758C16.9453 5.47623 16.9164 5.46423 16.8862 5.46423H0.113839C0.0836472 5.46423 0.0546918 5.47623 0.0333428 5.49758C0.0119938 5.51893 0 5.54788 0 5.57807V14.5714ZM13.0536 6.67852C13.2337 6.67852 13.4098 6.73193 13.5595 6.832C13.7093 6.93207 13.826 7.07431 13.895 7.24072C13.9639 7.40713 13.9819 7.59024 13.9468 7.76691C13.9116 7.94357 13.8249 8.10584 13.6975 8.23321C13.5702 8.36057 13.4079 8.44731 13.2312 8.48245C13.0546 8.51759 12.8715 8.49955 12.7051 8.43062C12.5386 8.36169 12.3964 8.24497 12.2963 8.0952C12.1963 7.94543 12.1429 7.76936 12.1429 7.58923C12.1429 7.3477 12.2388 7.11605 12.4096 6.94526C12.5804 6.77447 12.812 6.67852 13.0536 6.67852ZM13.0536 9.71423C13.2337 9.71423 13.4098 9.76765 13.5595 9.86772C13.7093 9.96779 13.826 10.11 13.895 10.2764C13.9639 10.4428 13.9819 10.626 13.9468 10.8026C13.9116 10.9793 13.8249 11.1416 13.6975 11.2689C13.5702 11.3963 13.4079 11.483 13.2312 11.5182C13.0546 11.5533 12.8715 11.5353 12.7051 11.4663C12.5386 11.3974 12.3964 11.2807 12.2963 11.1309C12.1963 10.9811 12.1429 10.8051 12.1429 10.6249C12.1429 10.3834 12.2388 10.1518 12.4096 9.98098C12.5804 9.81018 12.812 9.71423 13.0536 9.71423ZM10.0179 6.67852C10.198 6.67852 10.3741 6.73193 10.5238 6.832C10.6736 6.93207 10.7903 7.07431 10.8592 7.24072C10.9282 7.40713 10.9462 7.59024 10.9111 7.76691C10.8759 7.94357 10.7892 8.10584 10.6618 8.23321C10.5345 8.36057 10.3722 8.44731 10.1955 8.48245C10.0189 8.51759 9.83575 8.49955 9.66934 8.43062C9.50293 8.36169 9.3607 8.24497 9.26063 8.0952C9.16056 7.94543 9.10714 7.76936 9.10714 7.58923C9.10714 7.3477 9.20309 7.11605 9.37389 6.94526C9.54468 6.77447 9.77632 6.67852 10.0179 6.67852ZM10.0179 9.71423C10.198 9.71423 10.3741 9.76765 10.5238 9.86772C10.6736 9.96779 10.7903 10.11 10.8592 10.2764C10.9282 10.4428 10.9462 10.626 10.9111 10.8026C10.8759 10.9793 10.7892 11.1416 10.6618 11.2689C10.5345 11.3963 10.3722 11.483 10.1955 11.5182C10.0189 11.5533 9.83575 11.5353 9.66934 11.4663C9.50293 11.3974 9.3607 11.2807 9.26063 11.1309C9.16056 10.9811 9.10714 10.8051 9.10714 10.6249C9.10714 10.3834 9.20309 10.1518 9.37389 9.98098C9.54468 9.81018 9.77632 9.71423 10.0179 9.71423ZM10.0179 12.7499C10.198 12.7499 10.3741 12.8034 10.5238 12.9034C10.6736 13.0035 10.7903 13.1457 10.8592 13.3121C10.9282 13.4786 10.9462 13.6617 10.9111 13.8383C10.8759 14.015 10.7892 14.1773 10.6618 14.3046C10.5345 14.432 10.3722 14.5187 10.1955 14.5539C10.0189 14.589 9.83575 14.571 9.66934 14.5021C9.50293 14.4331 9.3607 14.3164 9.26063 14.1666C9.16056 14.0169 9.10714 13.8408 9.10714 13.6607C9.10714 13.4191 9.20309 13.1875 9.37389 13.0167C9.54468 12.8459 9.77632 12.7499 10.0179 12.7499ZM6.98214 9.71423C7.16227 9.71423 7.33834 9.76765 7.48811 9.86772C7.63787 9.96779 7.7546 10.11 7.82353 10.2764C7.89246 10.4428 7.9105 10.626 7.87536 10.8026C7.84022 10.9793 7.75348 11.1416 7.62612 11.2689C7.49875 11.3963 7.33648 11.483 7.15981 11.5182C6.98315 11.5533 6.80004 11.5353 6.63363 11.4663C6.46722 11.3974 6.32498 11.2807 6.22491 11.1309C6.12484 10.9811 6.07143 10.8051 6.07143 10.6249C6.07143 10.3834 6.16738 10.1518 6.33817 9.98098C6.50896 9.81018 6.74061 9.71423 6.98214 9.71423ZM6.98214 12.7499C7.16227 12.7499 7.33834 12.8034 7.48811 12.9034C7.63787 13.0035 7.7546 13.1457 7.82353 13.3121C7.89246 13.4786 7.9105 13.6617 7.87536 13.8383C7.84022 14.015 7.75348 14.1773 7.62612 14.3046C7.49875 14.432 7.33648 14.5187 7.15981 14.5539C6.98315 14.589 6.80004 14.571 6.63363 14.5021C6.46722 14.4331 6.32498 14.3164 6.22491 14.1666C6.12484 14.0169 6.07143 13.8408 6.07143 13.6607C6.07143 13.4191 6.16738 13.1875 6.33817 13.0167C6.50896 12.8459 6.74061 12.7499 6.98214 12.7499ZM3.94643 9.71423C4.12655 9.71423 4.30263 9.76765 4.45239 9.86772C4.60216 9.96779 4.71889 10.11 4.78782 10.2764C4.85675 10.4428 4.87478 10.626 4.83964 10.8026C4.8045 10.9793 4.71777 11.1416 4.5904 11.2689C4.46304 11.3963 4.30076 11.483 4.1241 11.5182C3.94744 11.5533 3.76432 11.5353 3.59791 11.4663C3.4315 11.3974 3.28927 11.2807 3.1892 11.1309C3.08913 10.9811 3.03571 10.8051 3.03571 10.6249C3.03571 10.3834 3.13166 10.1518 3.30246 9.98098C3.47325 9.81018 3.70489 9.71423 3.94643 9.71423ZM3.94643 12.7499C4.12655 12.7499 4.30263 12.8034 4.45239 12.9034C4.60216 13.0035 4.71889 13.1457 4.78782 13.3121C4.85675 13.4786 4.87478 13.6617 4.83964 13.8383C4.8045 14.015 4.71777 14.1773 4.5904 14.3046C4.46304 14.432 4.30076 14.5187 4.1241 14.5539C3.94744 14.589 3.76432 14.571 3.59791 14.5021C3.4315 14.4331 3.28927 14.3164 3.1892 14.1666C3.08913 14.0169 3.03571 13.8408 3.03571 13.6607C3.03571 13.4191 3.13166 13.1875 3.30246 13.0167C3.47325 12.8459 3.70489 12.7499 3.94643 12.7499Z" fill="#00856E"/>
</svg>
