<svg width="76" height="76" viewBox="0 0 76 76" fill="none" xmlns="http://www.w3.org/2000/svg">
    <rect id="r53" width="76" height="76" rx="5" fill="#DDECE9" />
    <defs>
        <linearGradient id="lg0" x1="68" y1="56.8125" x2="43.0256" y2="7.40656"
            gradientUnits="userSpaceOnUse">
            <stop stop-color="#09A085" />
            <stop offset="1" stop-color="#9CBEB8" />
        </linearGradient>
        <linearGradient id="lg1" x1="-1.22025" y1="30.4855" x2="50.5307" y2="77.1043"
            gradientUnits="userSpaceOnUse">
            <stop stop-color="#EEEEEE" />
            <stop offset="1" stop-color="#D8D8D8" stop-opacity="0" />
        </linearGradient>
        <linearGradient id="lg2" x1="40.1325" y1="24.0124" x2="75.2971" y2="44.1839"
            gradientUnits="userSpaceOnUse">
            <stop stop-color="#EEEEEE" />
            <stop offset="1" stop-color="#D8D8D8" stop-opacity="0" />
        </linearGradient>
        <linearGradient id="lg3" x1="2.22469" y1="31.5184" x2="36.0797" y2="77.032"
            gradientUnits="userSpaceOnUse">
            <stop stop-color="#EEEEEE" />
            <stop offset="1" stop-color="#D8D8D8" stop-opacity="0" />
        </linearGradient>
        <linearGradient id="lg4" x1="72.5662" y1="32.4872" x2="44.8026" y2="72.3159"
            gradientUnits="userSpaceOnUse">
            <stop stop-color="#EEEEEE" />
            <stop offset="1" stop-color="#D8D8D8" stop-opacity="0" />
        </linearGradient>
    </defs>
    <path id="rc2"
        d="M64.0625 19.3125H11.9375C9.76288 19.3125 8 21.0754 8 23.25V52.875C8 55.0496 9.76288 56.8125 11.9375 56.8125H64.0625C66.2371 56.8125 68 55.0496 68 52.875V23.25C68 21.0754 66.2371 19.3125 64.0625 19.3125Z"
        fill="url(#lg0)" />
    <path id="p2c1" style="mix-blend-mode:soft-light" opacity="0.5" fill-rule="evenodd"
        clip-rule="evenodd" d="M29.8793 75.9365L71.0737 11.4773L0.669809 55.3451L29.8793 75.9365Z"
        fill="url(#lg1)" />
    <path id="p2c2" style="mix-blend-mode:soft-light" opacity="0.5" fill-rule="evenodd"
        clip-rule="evenodd"
        d="M41.0748 59.5957L76.1733 30.6829C73.3876 26.321 70.5972 22.7479 67.8022 19.9635C65.0072 17.1791 58.9005 13.5683 49.4821 9.13101L41.0748 59.5957Z"
        fill="url(#lg2)" />
    <path id="p2c3" style="mix-blend-mode:soft-light" opacity="0.5" fill-rule="evenodd"
        clip-rule="evenodd" d="M75.5176 62.395L56.617 18.6054H4.14087L75.5176 62.395Z"
        fill="url(#lg3)" />
    <path id="p2c4" style="mix-blend-mode:multiply" opacity="0.5" fill-rule="evenodd"
        clip-rule="evenodd" d="M7.09424 58.335L70.8545 21.6774V58.335H7.09424Z" fill="url(#lg4)" />
    <path id="card_type"
        d="M13.722 30.5398C13.9945 30.5398 14.208 30.6049 14.3625 30.735C14.517 30.8651 14.5943 31.0441 14.5943 31.2718C14.5943 31.4995 14.517 31.6785 14.3625 31.8086C14.208 31.9367 13.9945 32.0008 13.722 32.0008H13.1486V32.6748H12.9229V30.5398H13.722ZM13.7159 31.8025C13.9274 31.8025 14.089 31.7568 14.2008 31.6653C14.3127 31.5717 14.3686 31.4406 14.3686 31.2718C14.3686 31.099 14.3127 30.9668 14.2008 30.8753C14.089 30.7818 13.9274 30.735 13.7159 30.735H13.1486V31.8025H13.7159ZM15.1243 30.4117H15.3409V32.6748H15.1243V30.4117ZM16.5625 31.0583C16.772 31.0583 16.9326 31.1112 17.0444 31.2169C17.1563 31.3206 17.2122 31.4751 17.2122 31.6805V32.6748H17.0048V32.4247C16.956 32.5081 16.8838 32.5731 16.7882 32.6199C16.6947 32.6667 16.5829 32.6901 16.4527 32.6901C16.2738 32.6901 16.1315 32.6474 16.0257 32.562C15.92 32.4766 15.8671 32.3637 15.8671 32.2234C15.8671 32.0872 15.9159 31.9774 16.0135 31.894C16.1132 31.8106 16.2708 31.769 16.4863 31.769H16.9956V31.6714C16.9956 31.5331 16.957 31.4284 16.8797 31.3572C16.8025 31.284 16.6896 31.2474 16.5412 31.2474C16.4395 31.2474 16.3419 31.2647 16.2484 31.2993C16.1549 31.3318 16.0745 31.3775 16.0074 31.4365L15.9098 31.2749C15.9912 31.2057 16.0888 31.1529 16.2026 31.1163C16.3165 31.0776 16.4365 31.0583 16.5625 31.0583ZM16.4863 32.5193C16.6083 32.5193 16.713 32.4918 16.8004 32.4369C16.8879 32.38 16.9529 32.2986 16.9956 32.1929V31.9306H16.4924C16.2179 31.9306 16.0806 32.0262 16.0806 32.2173C16.0806 32.3108 16.1162 32.3851 16.1874 32.44C16.2586 32.4928 16.3582 32.5193 16.4863 32.5193ZM18.7032 32.5772C18.6625 32.6138 18.6117 32.6423 18.5507 32.6626C18.4917 32.6809 18.4297 32.6901 18.3646 32.6901C18.2142 32.6901 18.0983 32.6494 18.0169 32.5681C17.9356 32.4867 17.8949 32.3718 17.8949 32.2234V31.2535H17.6082V31.0705H17.8949V30.7198H18.1115V31.0705H18.5995V31.2535H18.1115V32.2112C18.1115 32.3068 18.1349 32.38 18.1816 32.4308C18.2304 32.4796 18.2996 32.504 18.389 32.504C18.4338 32.504 18.4765 32.4969 18.5171 32.4827C18.5598 32.4684 18.5964 32.4481 18.6269 32.4217L18.7032 32.5772ZM19.1553 31.0705H19.3719V32.6748H19.1553V31.0705ZM19.2651 30.7198C19.2204 30.7198 19.1828 30.7045 19.1523 30.674C19.1218 30.6435 19.1065 30.6069 19.1065 30.5642C19.1065 30.5235 19.1218 30.488 19.1523 30.4575C19.1828 30.427 19.2204 30.4117 19.2651 30.4117C19.3099 30.4117 19.3475 30.427 19.378 30.4575C19.4085 30.4859 19.4237 30.5205 19.4237 30.5612C19.4237 30.6059 19.4085 30.6435 19.378 30.674C19.3475 30.7045 19.3099 30.7198 19.2651 30.7198ZM20.8498 31.0583C21.0511 31.0583 21.2107 31.1173 21.3286 31.2352C21.4486 31.3511 21.5086 31.5209 21.5086 31.7446V32.6748H21.292V31.7659C21.292 31.5992 21.2503 31.4721 21.167 31.3847C21.0836 31.2972 20.9647 31.2535 20.8101 31.2535C20.6373 31.2535 20.5 31.3054 20.3984 31.4091C20.2987 31.5107 20.2489 31.652 20.2489 31.833V32.6748H20.0324V31.0705H20.2398V31.3664C20.2987 31.2688 20.3801 31.1935 20.4838 31.1407C20.5895 31.0858 20.7115 31.0583 20.8498 31.0583ZM23.6001 31.0705V32.6748H23.3927V32.382C23.3358 32.4796 23.2575 32.5559 23.1579 32.6108C23.0583 32.6636 22.9444 32.6901 22.8163 32.6901C22.6069 32.6901 22.4411 32.6321 22.3191 32.5162C22.1992 32.3983 22.1392 32.2265 22.1392 32.0008V31.0705H22.3557V31.9794C22.3557 32.1482 22.3974 32.2763 22.4808 32.3637C22.5642 32.4511 22.6831 32.4949 22.8376 32.4949C23.0064 32.4949 23.1396 32.444 23.2372 32.3424C23.3348 32.2387 23.3836 32.0953 23.3836 31.9123V31.0705H23.6001ZM26.2654 31.0583C26.4667 31.0583 26.6243 31.1163 26.7381 31.2322C26.854 31.3481 26.912 31.5189 26.912 31.7446V32.6748H26.6954V31.7659C26.6954 31.5992 26.6548 31.4721 26.5734 31.3847C26.4941 31.2972 26.3813 31.2535 26.2349 31.2535C26.0681 31.2535 25.937 31.3054 25.8414 31.4091C25.7459 31.5107 25.6981 31.652 25.6981 31.833V32.6748H25.4815V31.7659C25.4815 31.5992 25.4409 31.4721 25.3595 31.3847C25.2802 31.2972 25.1664 31.2535 25.0179 31.2535C24.8532 31.2535 24.7221 31.3054 24.6245 31.4091C24.5289 31.5107 24.4811 31.652 24.4811 31.833V32.6748H24.2646V31.0705H24.472V31.3633C24.5289 31.2657 24.6082 31.1905 24.7099 31.1376C24.8115 31.0847 24.9285 31.0583 25.0606 31.0583C25.1948 31.0583 25.3107 31.0868 25.4083 31.1437C25.508 31.2006 25.5822 31.285 25.631 31.3969C25.6899 31.2911 25.7743 31.2088 25.8841 31.1498C25.996 31.0888 26.123 31.0583 26.2654 31.0583Z"
        fill="white" />
    <path id="dots"
        d="M13.1974 50.2308C13.1059 50.2308 13.0215 50.2094 12.9442 50.1668C12.867 50.122 12.806 50.061 12.7612 49.9838C12.7185 49.9065 12.6972 49.8201 12.6972 49.7245C12.6972 49.6289 12.7185 49.5435 12.7612 49.4683C12.806 49.391 12.866 49.331 12.9412 49.2883C13.0185 49.2456 13.1039 49.2243 13.1974 49.2243C13.2909 49.2243 13.3763 49.2456 13.4536 49.2883C13.5309 49.331 13.5919 49.391 13.6366 49.4683C13.6813 49.5435 13.7037 49.6289 13.7037 49.7245C13.7037 49.8201 13.6813 49.9065 13.6366 49.9838C13.5919 50.061 13.5309 50.122 13.4536 50.1668C13.3763 50.2094 13.2909 50.2308 13.1974 50.2308ZM15.4787 50.2308C15.3872 50.2308 15.3028 50.2094 15.2255 50.1668C15.1483 50.122 15.0873 50.061 15.0425 49.9838C14.9998 49.9065 14.9785 49.8201 14.9785 49.7245C14.9785 49.6289 14.9998 49.5435 15.0425 49.4683C15.0873 49.391 15.1472 49.331 15.2225 49.2883C15.2997 49.2456 15.3851 49.2243 15.4787 49.2243C15.5722 49.2243 15.6576 49.2456 15.7349 49.2883C15.8121 49.331 15.8731 49.391 15.9179 49.4683C15.9626 49.5435 15.985 49.6289 15.985 49.7245C15.985 49.8201 15.9626 49.9065 15.9179 49.9838C15.8731 50.061 15.8121 50.122 15.7349 50.1668C15.6576 50.2094 15.5722 50.2308 15.4787 50.2308ZM17.76 50.2308C17.6685 50.2308 17.5841 50.2094 17.5068 50.1668C17.4295 50.122 17.3685 50.061 17.3238 49.9838C17.2811 49.9065 17.2598 49.8201 17.2598 49.7245C17.2598 49.6289 17.2811 49.5435 17.3238 49.4683C17.3685 49.391 17.4285 49.331 17.5038 49.2883C17.581 49.2456 17.6664 49.2243 17.76 49.2243C17.8535 49.2243 17.9389 49.2456 18.0162 49.2883C18.0934 49.331 18.1544 49.391 18.1992 49.4683C18.2439 49.5435 18.2663 49.6289 18.2663 49.7245C18.2663 49.8201 18.2439 49.9065 18.1992 49.9838C18.1544 50.061 18.0934 50.122 18.0162 50.1668C17.9389 50.2094 17.8535 50.2308 17.76 50.2308ZM20.0412 50.2308C19.9497 50.2308 19.8654 50.2094 19.7881 50.1668C19.7108 50.122 19.6498 50.061 19.6051 49.9838C19.5624 49.9065 19.541 49.8201 19.541 49.7245C19.541 49.6289 19.5624 49.5435 19.6051 49.4683C19.6498 49.391 19.7098 49.331 19.785 49.2883C19.8623 49.2456 19.9477 49.2243 20.0412 49.2243C20.1348 49.2243 20.2202 49.2456 20.2974 49.2883C20.3747 49.331 20.4357 49.391 20.4804 49.4683C20.5252 49.5435 20.5475 49.6289 20.5475 49.7245C20.5475 49.8201 20.5252 49.9065 20.4804 49.9838C20.4357 50.061 20.3747 50.122 20.2974 50.1668C20.2202 50.2094 20.1348 50.2308 20.0412 50.2308Z"
        fill="white" />
    <path id="0212"
        d="M23.2119 51.0025C22.9618 51.0025 22.7706 50.908 22.6385 50.7189C22.5083 50.5278 22.4433 50.2543 22.4433 49.8984C22.4433 49.5365 22.5083 49.263 22.6385 49.078C22.7706 48.8909 22.9618 48.7974 23.2119 48.7974C23.464 48.7974 23.6551 48.8909 23.7853 49.078C23.9154 49.263 23.9805 49.5355 23.9805 49.8954C23.9805 50.2533 23.9144 50.5278 23.7822 50.7189C23.6521 50.908 23.462 51.0025 23.2119 51.0025ZM23.2119 50.7402C23.3664 50.7402 23.4813 50.6721 23.5565 50.5359C23.6318 50.3997 23.6694 50.1862 23.6694 49.8954C23.6694 49.6046 23.6318 49.3932 23.5565 49.261C23.4833 49.1268 23.3684 49.0597 23.2119 49.0597C23.0573 49.0597 22.9425 49.1268 22.8672 49.261C22.792 49.3952 22.7544 49.6067 22.7544 49.8954C22.7544 50.1862 22.792 50.3997 22.8672 50.5359C22.9425 50.6721 23.0573 50.7402 23.2119 50.7402ZM24.6899 50.9751V50.7402L25.4067 49.9716C25.5063 49.8639 25.5775 49.7663 25.6202 49.6788C25.6649 49.5914 25.6873 49.503 25.6873 49.4135C25.6873 49.1817 25.5511 49.0658 25.2786 49.0658C25.0712 49.0658 24.8851 49.1441 24.7204 49.3006L24.6076 49.0597C24.6889 48.9804 24.7926 48.9174 24.9187 48.8706C25.0448 48.8218 25.1759 48.7974 25.3121 48.7974C25.5338 48.7974 25.7036 48.8482 25.8215 48.9499C25.9415 49.0516 26.0014 49.1969 26.0014 49.386C26.0014 49.5141 25.9699 49.6392 25.9069 49.7612C25.8459 49.8832 25.7493 50.0133 25.6171 50.1516L25.0864 50.7097H26.0868V50.9751H24.6899ZM26.9213 50.9751V50.7097H27.4093V49.1908L27.0281 49.4287L26.9 49.1939L27.5008 48.8248H27.7235V50.7097H28.181V50.9751H26.9213ZM28.9576 50.9751V50.7402L29.6743 49.9716C29.7739 49.8639 29.8451 49.7663 29.8878 49.6788C29.9325 49.5914 29.9549 49.503 29.9549 49.4135C29.9549 49.1817 29.8187 49.0658 29.5462 49.0658C29.3388 49.0658 29.1528 49.1441 28.9881 49.3006L28.8752 49.0597C28.9565 48.9804 29.0602 48.9174 29.1863 48.8706C29.3124 48.8218 29.4435 48.7974 29.5798 48.7974C29.8014 48.7974 29.9712 48.8482 30.0891 48.9499C30.2091 49.0516 30.2691 49.1969 30.2691 49.386C30.2691 49.5141 30.2375 49.6392 30.1745 49.7612C30.1135 49.8832 30.0169 50.0133 29.8848 50.1516L29.3541 50.7097H30.3545V50.9751H28.9576Z"
        fill="white" />
    <path id="cardish/visa" fill-rule="evenodd" clip-rule="evenodd"
        d="M22.5635 23.7679L22.4036 24.7171C21.9244 24.4458 20.8337 24.3816 20.8337 24.8812C20.8337 25.0798 21.0805 25.2163 21.3779 25.3809C21.829 25.6305 22.3966 25.9445 22.3966 26.637C22.3966 27.7435 21.2436 28.1502 20.4794 28.1502C19.7153 28.1502 19.2152 27.9005 19.2152 27.9005L19.3818 26.9082C19.8402 27.2864 21.2296 27.3938 21.2296 26.7941C21.2296 26.5422 20.9562 26.3936 20.639 26.2213C20.2014 25.9835 19.6806 25.7005 19.6806 25.0384C19.6806 23.8249 21.0004 23.5752 21.5562 23.5752C22.0703 23.5752 22.5635 23.7679 22.5635 23.7679ZM25.2719 28.0741H26.3003L25.4037 23.6542H24.5033C24.0876 23.6542 23.9863 23.9835 23.9863 23.9835L22.3161 28.0741H23.4835L23.717 27.4175H25.1407L25.2719 28.0741ZM24.0396 26.5106L24.628 24.8566L24.9591 26.5106H24.0396ZM15.3954 26.6942L16.4631 23.6543H17.6684L15.8866 28.0742H14.7197L13.7467 24.2344C13.1151 23.8445 12.5752 23.7291 12.5752 23.7291L12.596 23.6543H14.3611C14.8467 23.6543 14.8923 24.0524 14.8923 24.0524L15.2692 26.0399L15.269 26.0396L15.3954 26.6942ZM17.4052 28.0741H18.5252L19.2252 23.6543H18.1052L17.4052 28.0741Z"
        fill="white" />
</svg>
