<svg width="130" height="130" viewBox="0 0 130 130" fill="none" xmlns="http://www.w3.org/2000/svg">
<g clip-path="url(#clip0)">
<path d="M65 0C52.1442 0 39.5772 3.81218 28.888 10.9545C18.1988 18.0968 9.86756 28.2484 4.94786 40.1256C0.0281634 52.0028 -1.25905 65.0721 1.24899 77.6809C3.75703 90.2896 9.94767 101.872 19.0381 110.962C28.1285 120.052 39.7104 126.243 52.3192 128.751C64.9279 131.259 77.9973 129.972 89.8745 125.052C101.752 120.132 111.903 111.801 119.046 101.112C126.188 90.4229 130 77.8558 130 65C129.996 47.7623 123.146 31.2319 110.957 19.043C98.7681 6.85411 82.2377 0.00448005 65 0V0ZM121.225 87.7773L102.727 90.9727C104.835 83.2071 105.981 75.2121 106.14 67.1671H125.613C125.367 74.2409 123.882 81.2167 121.225 87.7773ZM4.38753 67.1671H23.8602C23.9923 75.2142 25.1389 83.2125 27.2727 90.9727L8.77503 87.7773C6.11846 81.2167 4.63345 74.2409 4.38753 67.1671ZM8.77503 42.2227L27.2727 39.0273C25.1652 46.7929 24.0191 54.7879 23.8602 62.8329H4.38753C4.63345 55.7591 6.11846 48.7833 8.77503 42.2227ZM67.1671 34.775C74.9556 34.8835 82.7243 35.5898 90.4046 36.8875L98.0421 38.22C100.389 46.2127 101.657 54.4833 101.812 62.8121H67.1671V34.775ZM91.13 32.63C83.2099 31.2762 75.1962 30.543 67.1619 30.4369V4.4369C79.5925 5.629 90.3721 17.004 96.4925 33.5569L91.13 32.63ZM62.8329 30.4421C54.8006 30.5479 46.7887 31.2795 38.87 32.63L33.5075 33.5504C39.6279 17.0027 50.4075 5.6277 62.8381 4.4304L62.8329 30.4421ZM39.5954 36.92C47.2737 35.6064 55.0436 34.9001 62.8329 34.8075V62.8329H28.1931C28.3326 54.5028 29.6008 46.2301 31.9631 38.2408L39.5954 36.92ZM28.1931 67.1671H62.8329V95.225C55.0444 95.1165 47.2758 94.4102 39.5954 93.1125L31.9579 91.78C29.613 83.7798 28.3469 75.5024 28.1931 67.1671ZM38.87 97.37C46.7901 98.7242 54.8038 99.4579 62.8381 99.5644V125.564C50.4075 124.372 39.6279 112.997 33.5075 96.4444L38.87 97.37ZM67.1723 99.5644C75.2031 99.4561 83.2132 98.7224 91.13 97.37L96.4925 96.4496C90.3721 112.997 79.5925 124.372 67.1606 125.57V99.5696L67.1723 99.5644ZM90.4046 93.08C82.7263 94.3936 74.9564 95.0999 67.1671 95.1925V67.1671H101.807C101.667 75.4972 100.399 83.7699 98.0369 91.7592L90.4046 93.08ZM106.135 62.8277C106.003 54.7806 104.856 46.7823 102.722 39.0221L121.225 42.2227C123.882 48.7833 125.367 55.7591 125.613 62.8329L106.135 62.8277ZM119.027 37.4504L101.292 34.3954C98.1005 24.0092 92.1468 14.6854 84.0671 7.4204C99.2026 12.4724 111.755 23.2558 119.031 37.4569L119.027 37.4504ZM45.9329 7.4204C37.8357 14.6705 31.8786 23.9995 28.7079 34.3954L10.9954 37.4569C18.2532 23.2517 30.7997 12.4652 45.9329 7.4204ZM10.9694 92.5444L28.7092 95.6046C31.9008 105.991 37.8546 115.315 45.9342 122.58C30.7985 117.528 18.2457 106.745 10.9694 92.5444ZM84.0671 122.574C92.1643 115.324 98.1214 105.995 101.292 95.5994L119.005 92.5392C111.748 106.746 99.201 117.534 84.0671 122.58V122.574Z" fill="#FFC200"/>
<path d="M102.916 129.999C117.873 129.999 129.999 117.873 129.999 102.916C129.999 87.9584 117.873 75.833 102.916 75.833C87.9584 75.833 75.833 87.9584 75.833 102.916C75.833 117.873 87.9584 129.999 102.916 129.999Z" fill="#225AAC"/>
<path d="M102.917 107.44C101.252 107.439 99.6061 107.788 98.085 108.465C96.5639 109.142 95.202 110.13 94.0877 111.367C94.0094 111.456 93.9493 111.56 93.9111 111.672C93.8728 111.784 93.857 111.902 93.8647 112.021C93.8723 112.139 93.9031 112.254 93.9554 112.361C94.0077 112.467 94.0805 112.562 94.1695 112.64C94.2478 112.718 94.3408 112.78 94.4429 112.821C94.5451 112.863 94.6545 112.885 94.765 112.884C95.0212 112.878 95.2647 112.771 95.4422 112.587C96.385 111.538 97.5377 110.7 98.8255 110.126C100.113 109.552 101.507 109.256 102.917 109.256C104.327 109.256 105.721 109.552 107.009 110.126C108.297 110.7 109.45 111.538 110.392 112.587C110.471 112.676 110.566 112.748 110.672 112.8C110.778 112.853 110.894 112.883 111.012 112.891C111.13 112.898 111.249 112.883 111.361 112.844C111.473 112.806 111.577 112.746 111.666 112.668C111.755 112.59 111.827 112.495 111.879 112.388C111.932 112.282 111.962 112.166 111.97 112.048C111.978 111.93 111.962 111.811 111.923 111.699C111.885 111.587 111.825 111.483 111.747 111.395C110.638 110.149 109.278 109.153 107.756 108.471C106.234 107.79 104.585 107.438 102.917 107.44Z" fill="white"/>
<path d="M102.917 82.0898C98.7979 82.0898 94.7712 83.3113 91.3461 85.5999C87.9211 87.8884 85.2516 91.1412 83.6752 94.9469C82.0989 98.7526 81.6864 102.94 82.49 106.98C83.2937 111.02 85.2773 114.732 88.19 117.644C91.1028 120.557 94.8138 122.541 98.8539 123.344C102.894 124.148 107.082 123.735 110.887 122.159C114.693 120.583 117.946 117.913 120.234 114.488C122.523 111.063 123.744 107.036 123.744 102.917C123.738 97.3954 121.542 92.1017 117.637 88.1972C113.733 84.2928 108.439 82.0964 102.917 82.0898ZM102.917 121.93C99.1568 121.93 95.481 120.815 92.3544 118.725C89.2278 116.636 86.7909 113.667 85.3519 110.193C83.9129 106.719 83.5364 102.896 84.27 99.208C85.0036 95.5199 86.8144 92.1322 89.4733 89.4733C92.1322 86.8143 95.5199 85.0035 99.208 84.2699C102.896 83.5363 106.719 83.9129 110.193 85.3519C113.667 86.7909 116.636 89.2278 118.725 92.3544C120.815 95.481 121.93 99.1568 121.93 102.917C121.923 107.958 119.918 112.79 116.354 116.354C112.79 119.918 107.958 121.923 102.917 121.93Z" fill="white"/>
<path d="M113.777 96.5796C113.541 96.582 113.315 96.677 113.148 96.8442C112.981 97.0115 112.886 97.2376 112.884 97.474C112.884 98.1923 112.599 98.8813 112.091 99.3892C111.583 99.8972 110.894 100.183 110.176 100.183C109.457 100.183 108.768 99.8972 108.26 99.3892C107.753 98.8813 107.467 98.1923 107.467 97.474C107.458 97.2428 107.36 97.0241 107.194 96.8637C107.027 96.7033 106.805 96.6137 106.573 96.6137C106.342 96.6137 106.12 96.7033 105.953 96.8637C105.787 97.0241 105.689 97.2428 105.68 97.474C105.68 98.6735 106.156 99.8238 107.004 100.672C107.852 101.52 109.003 101.997 110.202 101.997C111.402 101.997 112.552 101.52 113.4 100.672C114.249 99.8238 114.725 98.6735 114.725 97.474C114.711 97.2322 114.605 97.005 114.429 96.8388C114.253 96.6725 114.02 96.5798 113.777 96.5796Z" fill="white"/>
<path d="M100.209 97.4729C100.209 97.2358 100.115 97.0085 99.9474 96.8409C99.7798 96.6733 99.5525 96.5791 99.3154 96.5791C99.0784 96.5791 98.851 96.6733 98.6834 96.8409C98.5158 97.0085 98.4217 97.2358 98.4217 97.4729C98.4217 98.1912 98.1363 98.8801 97.6283 99.3881C97.1204 99.896 96.4315 100.181 95.7131 100.181C94.9948 100.181 94.3058 99.896 93.7979 99.3881C93.2899 98.8801 93.0045 98.1912 93.0045 97.4729C92.9957 97.2417 92.8977 97.023 92.7311 96.8626C92.5644 96.7022 92.3421 96.6125 92.1108 96.6125C91.8795 96.6125 91.6572 96.7022 91.4905 96.8626C91.3239 97.023 91.2259 97.2417 91.217 97.4729C91.2191 98.6717 91.6963 99.8209 92.544 100.669C93.3917 101.516 94.5409 101.993 95.7397 101.996C96.3312 101.996 96.9169 101.879 97.4627 101.651C98.0086 101.423 98.5037 101.089 98.9195 100.668C99.3352 100.247 99.6633 99.7483 99.8847 99.1998C100.106 98.6513 100.216 98.0643 100.209 97.4729Z" fill="white"/>
</g>
<defs>
<clipPath id="clip0">
<rect width="130" height="130" fill="white"/>
</clipPath>
</defs>
</svg>
