<svg width="12" height="14" viewBox="0 0 12 14" fill="none"
    xmlns="http://www.w3.org/2000/svg">
    <path fill-rule="evenodd" clip-rule="evenodd" d="M1.91989 1.66634V12.333H10.0769V4.77582L7.15042 1.66634H1.91989ZM0.986633 0.674717C1.19255 0.455924 1.47183 0.333008 1.76303 0.333008H7.41031C7.57671 0.333008 7.7363 0.403246 7.85396 0.52827L11.1479 4.02827C11.2656 4.15329 11.3317 4.32286 11.3317 4.49967V12.4997C11.3317 12.6529 11.3033 12.8046 11.2481 12.9461C11.1929 13.0877 11.1121 13.2163 11.0101 13.3246C10.9082 13.433 10.7871 13.5189 10.6539 13.5775C10.5207 13.6362 10.3779 13.6663 10.2337 13.6663H1.76303C1.47183 13.6663 1.19255 13.5434 0.986633 13.3246C0.780719 13.1058 0.665039 12.8091 0.665039 12.4997V1.49967C0.665039 1.19026 0.78072 0.893509 0.986633 0.674717Z" fill="#00856E"/>
    <path fill-rule="evenodd" clip-rule="evenodd" d="M7.45425 0.333008C7.79681 0.333008 8.07452 0.631485 8.07452 0.999674V3.83301H10.7111C11.0537 3.83301 11.3314 4.13148 11.3314 4.49967C11.3314 4.86786 11.0537 5.16634 10.7111 5.16634H7.45425C7.11169 5.16634 6.83398 4.86786 6.83398 4.49967V0.999674C6.83398 0.631485 7.11169 0.333008 7.45425 0.333008Z" fill="#00856E"/>
    <path fill-rule="evenodd" clip-rule="evenodd" d="M3.5332 7.49941C3.5332 7.16804 3.78831 6.89941 4.10301 6.89941H7.90173C8.21642 6.89941 8.47153 7.16804 8.47153 7.49941C8.47153 7.83079 8.21642 8.09941 7.90173 8.09941H4.10301C3.78831 8.09941 3.5332 7.83079 3.5332 7.49941Z" fill="#00856E"/>
    <path fill-rule="evenodd" clip-rule="evenodd" d="M3.5332 9.49941C3.5332 9.16804 3.78831 8.89941 4.10301 8.89941H7.90173C8.21642 8.89941 8.47153 9.16804 8.47153 9.49941C8.47153 9.83079 8.21642 10.0994 7.90173 10.0994H4.10301C3.78831 10.0994 3.5332 9.83079 3.5332 9.49941Z" fill="#00856E"/>
</svg>
