<svg width="14" height="14" viewBox="0 0 14 14" fill="none" xmlns="http://www.w3.org/2000/svg">
    <g clip-path="url(#clip0)">
        <path d="M7.00001 10.4999C6.88043 10.4999 6.7661 10.4509 6.68385 10.3646L3.62135 7.15625C3.35593 6.87859 3.5531 6.41659 3.93751 6.41659H5.54168V3.06242C5.54168 2.6605 5.86893 2.33325 6.27085 2.33325H7.72918C8.1311 2.33325 8.45835 2.6605 8.45835 3.06242V6.41659H10.0625C10.4469 6.41659 10.6441 6.87859 10.3787 7.15625L7.31618 10.3646C7.23393 10.4509 7.1196 10.4999 7.00001 10.4999Z" fill="#9CBEB8"/>
        <path d="M12.25 13.9999H1.74999C0.785159 13.9999 -7.62939e-06 13.2147 -7.62939e-06 12.2499V9.33325C-7.62939e-06 8.36842 0.785159 7.58325 1.74999 7.58325H2.62499C2.94699 7.58325 3.20833 7.84458 3.20833 8.16658C3.20833 8.48858 2.94699 8.74992 2.62499 8.74992H1.74999C1.42858 8.74992 1.16666 9.01183 1.16666 9.33325V12.2499C1.16666 12.5713 1.42858 12.8332 1.74999 12.8332H12.25C12.5714 12.8332 12.8333 12.5713 12.8333 12.2499V9.33325C12.8333 9.01183 12.5714 8.74992 12.25 8.74992H11.375C11.053 8.74992 10.7917 8.48858 10.7917 8.16658C10.7917 7.84458 11.053 7.58325 11.375 7.58325H12.25C13.2148 7.58325 14 8.36842 14 9.33325V12.2499C14 13.2147 13.2148 13.9999 12.25 13.9999Z" fill="#9CBEB8"/>
    </g>
    <defs>
        <clipPath id="clip0">
            <rect width="14" height="14" fill="white"/>
        </clipPath>
    </defs>
</svg>
