<svg width="11" height="6" viewBox="0 0 11 6" fill="none" xmlns="http://www.w3.org/2000/svg">
<path d="M10.8242 0.501473L10.4639 0.166414C10.3505 0.0617758 10.1996 0.00412948 10.0383 0.00412948C9.87719 0.00412948 9.72614 0.0617758 9.61274 0.166414L5.50246 3.96231L1.38744 0.162202C1.27422 0.0575637 1.12317 0 0.962016 0C0.80086 0 0.649721 0.0575637 0.536411 0.162202L0.176001 0.495196C-0.0586672 0.711741 -0.0586672 1.06447 0.176001 1.28102L5.07542 5.82178C5.18864 5.92633 5.33951 6 5.5021 6H5.50398C5.66523 6 5.8161 5.92625 5.92932 5.82178L10.8242 1.29332C10.9376 1.18877 10.9998 1.04523 11 0.896407C11 0.747502 10.9376 0.605946 10.8242 0.501473Z" fill="#225AAC"/>
</svg>
