<svg width="130" height="130" viewBox="0 0 130 130" fill="none"
    xmlns="http://www.w3.org/2000/svg">
    <path d="M107.736 112.993C119.725 101.653 127.207 85.5972 127.207 67.7925C127.207 33.4364 99.3553 5.58521 64.9993 5.58521C30.6432 5.58521 2.79199 33.4364 2.79199 67.7925C2.79199 102.149 30.6432 130 64.9993 130C67.6915 130 70.3438 129.828 72.9458 129.497L107.736 112.993Z" fill="#C1E3DD"/>
    <path d="M100.759 92.8182C100.213 90.8121 100.021 88.7263 100.19 86.6542L101.206 77.0857C101.702 71.0821 100.787 65.067 98.1295 59.6611C91.2626 45.693 92.8381 44.6794 92.6245 30.8164C92.6245 27.9843 90.3287 25.6885 87.4966 25.6885C84.6646 25.6885 82.3687 27.9843 82.3687 30.8164C82.3687 87.1917 82.4736 83.0548 82.126 84.7077V92.0898C82.126 98.3095 77.0659 103.37 70.8462 103.37C66.7154 103.37 52.47 103.37 42.7764 103.37C47.0887 109.367 52.9882 114.063 59.8346 116.906C59.877 116.924 59.9194 116.942 59.9618 116.96C65.2514 119.194 71.1575 123.652 72.1444 129.183L72.2399 129.579C86.1695 127.964 98.6949 121.75 108.259 112.491L100.759 92.8182Z" fill="#F9BA8F"/>
    <path d="M23.7309 25.8682L22.1691 24.4212C19.7613 22.1904 15.9662 22.3351 13.7354 24.7426C11.5045 27.1502 11.6493 30.9456 14.0571 33.1764L23.7312 42.14V25.8682H23.7309Z" fill="#F9BA8F"/>
    <path d="M73.5342 103.613H32.3417C27.4705 103.613 23.5078 99.6498 23.5078 94.7786V8.83416C23.5078 3.96297 27.4705 0 32.3417 0H73.5342C78.4051 0 82.3681 3.96297 82.3681 8.83416V94.7789C82.3681 99.6498 78.4051 103.613 73.5342 103.613Z" fill="#006E5B"/>
    <path d="M46.4303 6.33082H45.5482C44.705 6.33082 44.0215 5.6473 44.0215 4.80408C44.0215 3.96086 44.705 3.27734 45.5482 3.27734H46.4303C47.2735 3.27734 47.957 3.96086 47.957 4.80408C47.957 5.6473 47.2733 6.33082 46.4303 6.33082Z" fill="#025345"/>
    <path d="M60.1169 6.33082H51.641C50.7978 6.33082 50.1143 5.6473 50.1143 4.80408C50.1143 3.96086 50.7978 3.27734 51.641 3.27734H60.1169C60.9601 3.27734 61.6436 3.96086 61.6436 4.80408C61.6436 5.6473 60.9601 6.33082 60.1169 6.33082Z" fill="#025345"/>
    <path d="M73.5342 5.49585H67.3432C66.189 5.49585 65.2536 6.43149 65.2536 7.5855C65.2536 8.92892 64.1544 10.0283 62.811 10.0283H43.0655C41.7221 10.0283 40.6227 8.92917 40.6227 7.5855C40.6227 6.43149 39.687 5.49585 38.533 5.49585H32.3418C30.4984 5.49585 29.0039 6.99034 29.0039 8.8337V94.7784C29.0039 96.6218 30.4984 98.1163 32.3418 98.1163H73.5342C75.3776 98.1163 76.8721 96.6218 76.8721 94.7784C76.8721 85.9377 76.8721 11.1933 76.8721 8.8337C76.8721 6.99034 75.3776 5.49585 73.5342 5.49585Z" fill="white"/>
    <rect x="32" y="78.9998" width="42" height="7" rx="3.5" fill="#FF5C00"/>
    <path d="M61.9876 82.9664H44.4833C44.2142 82.9664 44 82.7522 44 82.4831C44 82.214 44.2197 81.9998 44.4833 81.9998H61.9876C62.2568 81.9998 62.471 82.214 62.471 82.4831C62.471 82.7467 62.2568 82.9664 61.9876 82.9664Z" fill="white"/>
    <rect x="34.5479" y="41.0117" width="18.4347" height="0.449627" fill="#00856E"/>
    <circle cx="52.7579" cy="41.2367" r="0.824318" fill="#225AAC"/>
    <ellipse cx="33.7241" cy="41.2363" rx="1.5737" ry="1.5737" fill="#00856E"/>
    <line x1="33.0498" y1="41.2368" x2="34.3987" y2="41.2368" stroke="white" stroke-width="0.149876"/>
    <path d="M44.5303 34.9671H32.4833C32.2142 34.9671 32 34.7529 32 34.4838C32 34.2147 32.2197 34.0005 32.4833 34.0005H44.5303C44.7994 34.0005 45.0136 34.2147 45.0136 34.4838C45.0136 34.7475 44.7994 34.9671 44.5303 34.9671Z" fill="#BAC4C6"/>
    <path d="M72.4401 20.0102H33.5599C32.6913 20.0102 32 19.3189 32 18.4503C32 17.5817 32.709 16.8904 33.5599 16.8904H72.4401C73.3087 16.8904 74 17.5817 74 18.4503C74 19.3011 73.3087 20.0102 72.4401 20.0102Z" fill="#BAC4C6"/>
    <path d="M39.9876 45.7823H32.4833C32.2142 45.7823 32 45.5681 32 45.299C32 45.0299 32.2197 44.8157 32.4833 44.8157H39.9876C40.2567 44.8157 40.4709 45.0299 40.4709 45.299C40.4709 45.5626 40.2567 45.7823 39.9876 45.7823Z" fill="#BAC4C6"/>
    <path d="M69.9876 57.9667H32.4833C32.2142 57.9667 32 57.7525 32 57.4833C32 57.2142 32.2197 57 32.4833 57H69.9876C70.2568 57 70.471 57.2142 70.471 57.4833C70.471 57.747 70.2568 57.9667 69.9876 57.9667Z" fill="#BAC4C6"/>
    <path d="M69.9876 60.9671H32.4833C32.2142 60.9671 32 60.7529 32 60.4838C32 60.2147 32.2197 60.0005 32.4833 60.0005H69.9876C70.2568 60.0005 70.471 60.2147 70.471 60.4838C70.471 60.7474 70.2568 60.9671 69.9876 60.9671Z" fill="#BAC4C6"/>
    <path d="M69.9876 63.9669H32.4833C32.2142 63.9669 32 63.7527 32 63.4836C32 63.2144 32.2197 63.0002 32.4833 63.0002H69.9876C70.2568 63.0002 70.471 63.2144 70.471 63.4836C70.471 63.7472 70.2568 63.9669 69.9876 63.9669Z" fill="#BAC4C6"/>
    <path d="M32.4146 57.3432C30.4517 59.4615 27.1433 59.5877 25.0249 57.6247L16.2659 49.5089C14.1476 47.5462 14.0214 44.2375 15.9843 42.1192C17.947 40.0008 21.2557 39.8747 23.374 41.8376L32.133 49.9535C34.2514 51.9164 34.3773 55.2248 32.4146 57.3432Z" fill="#F9BA8F"/>
    <path d="M32.4146 85.8683C30.4517 87.9866 27.1433 88.1128 25.0249 86.1499L16.2659 78.034C14.1476 76.0713 14.0214 72.7627 15.9843 70.6443C17.947 68.526 21.2557 68.3998 23.374 70.3628L32.133 78.4786C34.2514 80.4416 34.3773 83.75 32.4146 85.8683Z" fill="#F9BA8F"/>
    <path d="M32.4146 71.6056C30.4517 73.7239 27.1433 73.8501 25.0249 71.8872L16.2659 63.7713C14.1476 61.8084 14.0214 58.5 15.9843 56.3816C17.947 54.2633 21.2557 54.1371 23.374 56.1001L32.133 64.2159C34.2514 66.1789 34.3773 69.4873 32.4146 71.6056Z" fill="#F9BA8F"/>
    <path d="M101.429 25.0281H60.3025C55.9275 25.0281 52.3477 28.6076 52.3477 32.983V65.6378C52.3477 70.0129 55.9272 73.5927 60.3025 73.5927C61.421 73.5927 62.0408 74.877 61.3568 75.7619C60.6283 76.7044 59.8112 77.5834 58.9045 78.3822C57.2128 79.8723 58.1644 82.9273 60.3099 82.9207C65.7625 82.9037 70.8724 80.1362 74.3502 75.6283C75.3277 74.3613 76.8153 73.5927 78.4155 73.5927H101.429C105.805 73.5927 109.384 70.0132 109.384 65.6378V32.983C109.384 28.6076 105.805 25.0281 101.429 25.0281Z" fill="#ED6265"/>
    <path d="M69.7236 60.5344C68.7588 59.5696 68.7588 58.0208 69.7236 57.0559L88.0302 38.7493C88.9951 37.7844 90.5439 37.7844 91.5088 38.7493C92.4736 39.7141 92.4736 41.2629 91.5088 42.2278L73.2021 60.5344C72.2627 61.4739 70.6885 61.4739 69.7236 60.5344Z" fill="white"/>
    <path d="M69.7241 38.7239C70.689 37.759 72.2378 37.759 73.2026 38.7239L91.5093 57.0305C92.4741 57.9954 92.4741 59.5442 91.5093 60.509C90.5444 61.4739 88.9956 61.4739 88.0308 60.509L69.7241 42.2024C68.7847 41.2375 68.7847 39.6887 69.7241 38.7239Z" fill="white"/>
</svg>
