<svg width="44" height="44" viewBox="0 0 44 44" fill="none" xmlns="http://www.w3.org/2000/svg">
<g clip-path="url(#clip0_2749_7665)">
<path d="M39 0H5C2.23858 0 0 2.23858 0 5V39C0 41.7614 2.23858 44 5 44H39C41.7614 44 44 41.7614 44 39V5C44 2.23858 41.7614 0 39 0Z" fill="#F7F7FA"/>
<path d="M26.1031 30.5267C25.9403 30.578 25.808 30.3832 25.9098 30.2396L26.1337 29.9421C26.8765 28.9679 27.1105 27.6041 26.7238 26.2504C26.388 25.0506 25.4824 24.0866 24.3224 23.6662C22.6535 23.0612 21.0458 23.5021 19.9874 24.5173C19.7534 24.7327 19.5397 24.9788 19.3565 25.2557C20.018 23.697 21.5545 22.6099 23.3455 22.6099C24.8108 22.6099 25.9505 23.3277 26.8969 24.3123C27.9348 25.3992 29.0847 25.8812 29.9598 25.8812C31.4556 25.8812 32.3104 25.0916 32.9107 23.9431C32.921 23.9123 32.9311 23.8816 32.9413 23.8508C33.1042 23.338 32.9107 22.733 32.5749 22.733C32.0458 22.733 31.8627 23.5021 30.6517 23.5021C30.3058 23.5021 29.9496 23.4201 29.6342 23.2458C29.044 22.9278 28.6064 22.3433 28.4843 21.687C28.3724 21.0614 28.5962 20.4564 28.5962 20.4564C29.8784 21.3383 31.4455 21.3896 32.8396 20.5898C32.748 19.8924 32.5038 18.426 31.3946 17.4108C30.9163 16.98 30.2854 16.8159 29.624 16.7954V16.7339C29.624 16.0571 29.4408 15.3905 29.0847 14.8265C28.9218 14.5701 28.7285 14.3343 28.5148 14.1189C28.4436 14.0471 28.2909 13.8523 28.1892 13.842C28.1892 8.18134 25.0245 7.1251 24.5258 7.00204C24.4954 6.99178 24.475 7.02255 24.4954 7.04306C25.1873 8.37619 24.3732 9.4427 21.8801 10.7656C19.4787 12.0269 19.1632 14.1087 19.1632 14.1087C19.1632 14.1087 19.0513 12.232 20.771 10.663C19.9874 10.8989 19.5397 11.0322 18.807 11.3911C17.993 11.7911 17.2501 12.3141 16.609 12.9601C15.622 13.9446 14.8995 15.1854 14.4823 16.5083C14.2991 17.0826 14.1465 17.6979 14.1058 18.3131C14.0244 17.585 14.0346 16.8467 14.1465 16.1186C14.2991 15.1649 14.6146 14.242 15.0928 13.4011C15.3371 12.9704 15.6627 12.5909 15.9171 12.1705C15.4185 12.4474 14.9504 12.7653 14.5026 13.1139C12.732 14.4983 11.3685 16.416 10.6256 18.549C9.89296 20.6615 9.81156 22.9689 10.3407 25.1327C11.2769 28.9475 14.1261 32.0649 17.7792 33.3468C17.9115 33.398 18.0439 33.4391 18.1762 33.4801C18.2575 33.5006 18.3288 33.5314 18.4101 33.5518C18.5323 33.5929 18.6646 33.6237 18.7866 33.6544C19.0105 33.716 19.2446 33.7672 19.4787 33.8083C19.5397 33.8185 19.6007 33.8287 19.6618 33.839C19.8043 33.8595 19.9468 33.88 20.0892 33.9006C20.1503 33.9108 20.2113 33.921 20.2723 33.921C20.2723 33.921 20.2723 33.921 20.2826 33.921C20.4962 33.9518 20.71 33.9621 20.9236 33.9826C23.3048 34.1159 25.6554 33.4801 27.6397 32.2392C28.871 31.4701 30.1226 30.5472 30.5601 29.737C30.7026 29.4705 30.1837 28.7629 29.3594 28.7424C29.0847 28.7321 28.6267 28.8756 28.3724 29.05C27.6397 29.5422 27.1512 30.219 26.1031 30.5267ZM15.5813 24.1584C14.5128 28.1373 17.1382 31.0189 17.1484 31.0394C17.128 31.0292 13.0475 28.0963 14.8384 23.3483C16.3648 19.3079 21.7682 19.3489 21.809 19.3489C21.7784 19.3591 16.7312 19.8924 15.5813 24.1584ZM23.9458 19.1028C23.8746 19.113 23.8542 19.0105 23.9154 18.9899C24.6785 18.7234 25.8895 18.2926 26.1744 18.1183C26.3982 17.9747 26.3372 17.6876 26.5 16.7544C26.8256 14.8675 28.179 13.8523 28.1892 13.8523C28.1586 13.9036 26.5 16.9903 27.7924 19.4412C27.8432 19.5437 27.7312 19.636 27.6397 19.5745C26.9681 19.1028 25.2992 18.9182 23.9458 19.1028Z" fill="#FF4700"/>
</g>
<defs>
<clipPath id="clip0_2749_7665">
<rect width="44" height="44" fill="white"/>
</clipPath>
</defs>
</svg>
