<svg width="15" height="15" viewBox="0 0 15 15" fill="none" xmlns="http://www.w3.org/2000/svg">
<path d="M3.33333 7.5H5V9H3.33333V7.5Z" fill="#225AAC"/>
<path d="M3.33333 10.5H5V12H3.33333V10.5Z" fill="#225AAC"/>
<path d="M8.33333 7.5H6.66667V9H8.33333V7.5Z" fill="#225AAC"/>
<path d="M6.66667 10.5H8.33333V12H6.66667V10.5Z" fill="#225AAC"/>
<path d="M11.6667 7.5H10V9H11.6667V7.5Z" fill="#225AAC"/>
<path d="M10 10.5H11.6667V12H10V10.5Z" fill="#225AAC"/>
<path fill-rule="evenodd" clip-rule="evenodd" d="M13.3333 15H1.66667C0.7475 15 0 14.3273 0 13.5V3C0 2.17275 0.7475 1.5 1.66667 1.5H3.33333V0H5V1.5H10V0H11.6667V1.5H13.3333C14.2525 1.5 15 2.17275 15 3V13.5C15 14.3273 14.2525 15 13.3333 15ZM13.3335 4.5L13.3333 3H1.66667V4.5H13.3335ZM13.3336 6L13.3342 13.5H1.66667V6H13.3336Z" fill="#225AAC"/>
</svg>
