<svg width="44" height="44" viewBox="0 0 44 44" fill="none" xmlns="http://www.w3.org/2000/svg">
<rect x="0.5" y="0.5" width="43" height="43" rx="9.5" fill="#F2F4F8" stroke="#E3E7EF"/>
<path fill-rule="evenodd" clip-rule="evenodd" d="M9.50043 20H34.4996C34.4941 16.9587 34.4194 15.3661 33.4017 14.3483C32.3033 13.25 30.5355 13.25 27 13.25H17C13.4645 13.25 11.6967 13.25 10.5983 14.3483C9.58058 15.3661 9.50591 16.9587 9.50043 20ZM34.5 21.5H9.5V24.5C9.5 28.0355 9.5 29.8033 10.5983 30.9016C11.6967 32 13.4645 32 17 32H27C30.5355 32 32.3033 32 33.4017 30.9016C34.5 29.8033 34.5 28.0355 34.5 24.5V21.5ZM15.75 26.25C15.3358 26.25 15 26.5858 15 27C15 27.4142 15.3358 27.75 15.75 27.75H15.7625C16.1767 27.75 16.5125 27.4142 16.5125 27C16.5125 26.5858 16.1767 26.25 15.7625 26.25H15.75Z" fill="#1D2922"/>
</svg>
