<svg width="16" height="16" viewBox="0 0 16 16" fill="none" xmlns="http://www.w3.org/2000/svg">
<g clip-path="url(#clip0_7403_99050)">
<path d="M3.70626 6.84912L2.26428 10.6157V10.616C2.61714 11.9965 3.39274 13.2169 4.49066 14.1374L6.29989 13.473C4.3782 11.7875 3.4297 9.30822 3.70626 6.84912Z" fill="#2A9638"/>
<path d="M1.77475 11.8906L0.669485 14.7767C0.537381 15.1214 0.88173 15.4623 1.23635 15.3318L3.56812 14.4757C2.78601 13.7323 2.17931 12.8464 1.77475 11.8906Z" fill="#2A9638"/>
<path d="M6.79687 6.4978L5.15321 4.88818C3.82055 7.83206 4.73163 11.1969 7.24603 13.1254L9.00036 12.4812C7.45962 10.923 6.62628 8.74813 6.79687 6.4978Z" fill="#2A9638"/>
<path d="M7.65625 7.33984C7.72377 9.16967 8.53753 10.8989 9.91434 12.1451H9.91463L11.2004 11.6731C11.5008 11.5627 11.5829 11.1852 11.3572 10.9641L7.65625 7.33984Z" fill="#2A9638"/>
<path d="M10.8725 8.69467C11.0445 8.86308 11.3233 8.86308 11.4952 8.69467C13.1519 7.07235 14.765 7.57392 14.7811 7.57915C15.0118 7.65444 15.2612 7.53235 15.3381 7.30641C15.415 7.08054 15.2903 6.83626 15.0596 6.76094C14.9728 6.73263 12.9098 6.08976 10.8725 8.08483C10.7005 8.25321 10.7005 8.52629 10.8725 8.69467Z" fill="#2A9638"/>
<path d="M8.0695 5.34048C10.1068 3.34564 9.45013 1.32521 9.42136 1.24012C9.34444 1.01416 9.09491 0.892264 8.86417 0.967584C8.63373 1.0429 8.50896 1.28698 8.58588 1.51294C8.59116 1.52875 9.10343 3.10847 7.44656 4.73073C7.27568 4.89808 7.27395 5.17093 7.44656 5.34048C7.61944 5.50975 7.898 5.50843 8.0695 5.34048Z" fill="#2A9638"/>
<path d="M9.00398 6.25506C8.83201 6.42347 8.83201 6.69649 9.00398 6.8649C9.17436 7.03178 9.45122 7.03397 9.6241 6.86746C9.85158 6.75646 10.5577 7.17279 10.9501 6.78866C11.3382 6.40849 10.9258 5.7311 11.0288 5.49369C11.2716 5.39256 11.963 5.79664 12.3512 5.41653C12.7395 5.03637 12.327 4.35897 12.43 4.12154C12.6731 4.02037 13.3642 4.42452 13.7524 4.04438C14.1406 3.66421 13.7282 2.98681 13.8312 2.74938C14.0729 2.64874 14.7657 3.05196 15.1536 2.67219C15.5458 2.28803 15.1215 1.59534 15.234 1.37372C15.4034 1.20514 15.4025 0.934016 15.2314 0.766442C15.0595 0.598035 14.7806 0.598035 14.6087 0.766442C14.2616 1.10633 14.3295 1.58617 14.3949 1.92922C14.0446 1.8652 13.5546 1.79871 13.2075 2.13857C12.8605 2.47846 12.9284 2.9583 12.9937 3.30135C12.6434 3.23736 12.1534 3.1708 11.8064 3.51072C11.4593 3.85061 11.5272 4.33045 11.5926 4.6735C11.2422 4.60948 10.7523 4.54296 10.4052 4.88285C10.0581 5.22274 10.126 5.70258 10.1914 6.04563C9.84107 5.98167 9.35103 5.91517 9.00398 6.25506Z" fill="#2A9638"/>
<path d="M11.4952 2.59601C11.6672 2.4276 11.6672 2.15458 11.4952 1.98617C11.3233 1.81776 11.0445 1.81776 10.8725 1.98617C10.7005 2.15458 10.7005 2.4276 10.8725 2.59601C11.0445 2.76441 11.3233 2.76441 11.4952 2.59601Z" fill="#2A9638"/>
<path d="M14.2972 5.77163C14.5404 5.77163 14.7375 5.57856 14.7375 5.3404C14.7375 5.10225 14.5404 4.90918 14.2972 4.90918C14.054 4.90918 13.8568 5.10225 13.8568 5.3404C13.8568 5.57856 14.054 5.77163 14.2972 5.77163Z" fill="#2A9638"/>
<path d="M13.3634 9.30404C13.1914 9.47245 13.1914 9.74547 13.3634 9.91387C13.5353 10.0823 13.8141 10.0823 13.9861 9.91387C14.1581 9.74547 14.1581 9.47245 13.9861 9.30404C13.8141 9.13563 13.5353 9.13563 13.3634 9.30404Z" fill="#2A9638"/>
<path d="M7.13587 3.20587C7.30784 3.03746 7.30784 2.76444 7.13587 2.59603C6.9639 2.42762 6.6851 2.42762 6.51313 2.59603C6.34116 2.76441 6.34116 3.03746 6.51313 3.20587C6.6851 3.37428 6.96393 3.37428 7.13587 3.20587Z" fill="#2A9638"/>
</g>
<defs>
<clipPath id="clip0_7403_99050">
<rect width="16" height="16" fill="white"/>
</clipPath>
</defs>
</svg>
