<svg width="50" height="50" viewBox="0 0 50 50" fill="none" xmlns="http://www.w3.org/2000/svg">
<path fill-rule="evenodd" clip-rule="evenodd" d="M0 25C0 38.8071 11.1929 50 25 50C38.8071 50 50 38.8071 50 25C50 11.1929 38.8071 0 25 0C11.1929 0 0 11.1929 0 25ZM45.4545 25C45.4545 36.2967 36.2967 45.4545 25 45.4545C13.7033 45.4545 4.54545 36.2967 4.54545 25C4.54545 13.7033 13.7033 4.54545 25 4.54545C36.2967 4.54545 45.4545 13.7033 45.4545 25Z" fill="#33CC66"/>
<path fill-rule="evenodd" clip-rule="evenodd" d="M21.25 28.0806L34.4822 14.8483L38.0178 18.3839L21.25 35.1516L11.9822 25.8839L15.5178 22.3483L21.25 28.0806Z" fill="#33CC66"/>
</svg>
