<svg width="11" height="14" viewBox="0 0 11 14" fill="none" xmlns="http://www.w3.org/2000/svg">
<rect x="0.6875" y="7" width="8.9375" height="5.6" fill="#00856E"/>
<path d="M6.875 0H1.375C1.01033 0 0.660591 0.1475 0.402728 0.41005C0.144866 0.672601 0 1.0287 0 1.4V12.6C0 12.9713 0.144866 13.3274 0.402728 13.5899C0.660591 13.8525 1.01033 14 1.375 14H9.625C9.98967 14 10.3394 13.8525 10.5973 13.5899C10.8551 13.3274 11 12.9713 11 12.6V4.2L6.875 0ZM3.54406 10.8178C3.25119 11.0656 2.80638 11.1825 2.26256 11.1825C1.936 11.1825 1.70569 11.1615 1.54894 11.1405V8.3608C1.83011 8.31957 2.11394 8.30015 2.398 8.3027C2.926 8.3027 3.26837 8.3993 3.53581 8.6051C3.82456 8.8235 4.00606 9.1721 4.00606 9.6705C4.00606 10.213 3.81219 10.5868 3.54406 10.8178ZM5.59969 11.2C4.77469 11.2 4.29275 10.5658 4.29275 9.7594C4.29275 8.9117 4.82419 8.2782 5.64506 8.2782C6.49825 8.2782 6.96438 8.9285 6.96438 9.7097C6.96369 10.6372 6.41094 11.2 5.59969 11.2ZM8.8 10.6666C8.98906 10.6666 9.19944 10.6239 9.32388 10.5742L9.41875 11.0733C9.30325 11.1321 9.04338 11.1951 8.70581 11.1951C7.74538 11.1951 7.25037 10.5868 7.25037 9.7804C7.25037 8.8151 7.92619 8.2782 8.76769 8.2782C9.09356 8.2782 9.34037 8.3454 9.45175 8.4042L9.32388 8.9124C9.15649 8.84197 8.97698 8.80627 8.79588 8.8074C8.29675 8.8074 7.909 9.114 7.909 9.744C7.909 10.3103 8.239 10.6666 8.8 10.6666ZM6.875 4.9H6.1875V1.4L9.625 4.9H6.875Z" fill="#00856E"/>
</svg>
