<svg width="30" height="30" viewBox="0 0 30 30" fill="none" xmlns="http://www.w3.org/2000/svg">
<g clip-path="url(#clip0_53890_51765)">
<path d="M7.2269 23.9198L1.875 15L7.2269 6.08016C7.3102 5.94134 7.42802 5.82645 7.5689 5.74669C7.70978 5.66692 7.86891 5.625 8.0308 5.625H25.3125C25.5611 5.625 25.7996 5.72377 25.9754 5.89959C26.1512 6.0754 26.25 6.31386 26.25 6.5625V23.4375C26.25 23.6861 26.1512 23.9246 25.9754 24.1004C25.7996 24.2762 25.5611 24.375 25.3125 24.375H8.0308C7.86891 24.375 7.70978 24.3331 7.5689 24.2533C7.42802 24.1735 7.3102 24.0587 7.2269 23.9198V23.9198Z" stroke="#1A231E" stroke-width="1.3" stroke-linecap="round" stroke-linejoin="round"/>
<path d="M18.75 12.1875L13.125 17.8125" stroke="#1A231E" stroke-width="1.3" stroke-linecap="round" stroke-linejoin="round"/>
<path d="M18.75 17.8125L13.125 12.1875" stroke="#1A231E" stroke-width="1.3" stroke-linecap="round" stroke-linejoin="round"/>
</g>
<defs>
<clipPath id="clip0_53890_51765">
<rect width="30" height="30" fill="white"/>
</clipPath>
</defs>
</svg>
