<svg width="38" height="31" viewBox="0 0 38 31" fill="none" xmlns="http://www.w3.org/2000/svg">
<g clip-path="url(#clip0_10195_21726)">
<rect x="38" y="31" width="38" height="31" rx="5" transform="rotate(-180 38 31)" fill="#F7F7FA"/>
</g>
<path d="M20.75 9.16602H17.25C16.6066 9.16602 16.0833 9.68927 16.0833 10.3327V11.4993H13.75V12.666H14.9167V19.666C14.9167 20.3094 15.4399 20.8327 16.0833 20.8327H21.9167C22.5601 20.8327 23.0833 20.3094 23.0833 19.666V12.666H24.25V11.4993H21.9167V10.3327C21.9167 9.68927 21.3934 9.16602 20.75 9.16602ZM17.25 10.3327H20.75V11.4993H17.25V10.3327ZM21.9167 19.666H16.0833V12.666H21.9167V19.666Z" fill="#1D2922"/>
<defs>
<clipPath id="clip0_10195_21726">
<rect x="38" y="31" width="38" height="31" rx="10" transform="rotate(-180 38 31)" fill="white"/>
</clipPath>
</defs>
</svg>
