<svg width="30" height="30" viewBox="0 0 30 30" fill="none" xmlns="http://www.w3.org/2000/svg">
<g clip-path="url(#clip0)">
<path d="M27.1876 3.75003H10.264C9.41713 3.75003 8.62343 4.12543 8.08595 4.78181L0.211511 14.4068C-0.0705036 14.7519 -0.0705036 15.2481 0.211511 15.5932L8.08688 25.2191C8.62334 25.8747 9.41713 26.25 10.264 26.25H27.1875C28.7384 26.25 30 24.9883 30 23.4375V6.56251C30.0001 5.01157 28.7384 3.75003 27.1876 3.75003ZM28.1251 23.4375C28.1251 23.9548 27.7048 24.3749 27.1876 24.3749H10.264C9.98116 24.3749 9.71653 24.2495 9.53799 24.0316L2.14878 14.9999L9.53706 5.96922C9.71653 5.7504 9.98106 5.62495 10.264 5.62495H27.1875C27.7048 5.62495 28.125 6.04522 28.125 6.56242C28.1251 6.56251 28.1251 23.4375 28.1251 23.4375Z" fill="#93A8C6"/>
<path d="M20.8996 9.64963L16.875 13.6743L12.8503 9.64963L11.5247 10.9753L15.5493 15L11.5247 19.0246L12.8503 20.3503L16.875 16.3256L20.8996 20.3503L22.2253 19.0246L18.2006 15L22.2253 10.9753L20.8996 9.64963Z" fill="#93A8C6"/>
</g>
<defs>
<clipPath id="clip0">
<rect width="30" height="30" fill="white"/>
</clipPath>
</defs>
</svg>
