<svg width="30" height="30" viewBox="0 0 30 30" fill="none" xmlns="http://www.w3.org/2000/svg">
<path fill-rule="evenodd" clip-rule="evenodd" d="M15 27.1344C21.7017 27.1344 27.1344 21.7017 27.1344 15C27.1344 8.29834 21.7017 2.86557 15 2.86557C8.29834 2.86557 2.86557 8.29834 2.86557 15C2.86557 21.7017 8.29834 27.1344 15 27.1344ZM15 28.125C22.2487 28.125 28.125 22.2487 28.125 15C28.125 7.75126 22.2487 1.875 15 1.875C7.75126 1.875 1.875 7.75126 1.875 15C1.875 22.2487 7.75126 28.125 15 28.125Z" fill="white"/>
<path fill-rule="evenodd" clip-rule="evenodd" d="M17.2275 21.9521C17.3542 22.2251 17.2357 22.549 16.9628 22.6757C15.7016 23.2614 14.4521 23.3689 13.4283 22.899C12.3898 22.4223 11.7128 21.4116 11.4904 20.0401L12.566 19.8656C12.7457 20.9737 13.2532 21.6197 13.8828 21.9087C14.5271 22.2044 15.4291 22.1865 16.5039 21.6875C16.7768 21.5607 17.1007 21.6792 17.2275 21.9521Z" fill="white"/>
<path fill-rule="evenodd" clip-rule="evenodd" d="M15.743 16.4859V14.2571H16.7336V17.4764H14.0095V16.4859H15.743Z" fill="white"/>
<path d="M21.934 11.7807C21.934 12.3277 21.4905 12.7712 20.9434 12.7712C20.3964 12.7712 19.9529 12.3277 19.9529 11.7807C19.9529 11.2336 20.3964 10.7901 20.9434 10.7901C21.4905 10.7901 21.934 11.2336 21.934 11.7807Z" fill="white"/>
<path d="M10.0473 11.7807C10.0473 12.3277 9.6038 12.7712 9.05673 12.7712C8.50965 12.7712 8.06616 12.3277 8.06616 11.7807C8.06616 11.2336 8.50965 10.7901 9.05673 10.7901C9.6038 10.7901 10.0473 11.2336 10.0473 11.7807Z" fill="white"/>
</svg>
