<svg width="20" height="20" viewBox="0 0 20 20" fill="none" xmlns="http://www.w3.org/2000/svg">
<path fill-rule="evenodd" clip-rule="evenodd" d="M8.22105 3.04929C7.78243 3.37906 7.5 3.84417 7.5 4.5V7.37423L5.5 7.37498V4.5C5.5 3.15583 6.12771 2.12094 7.01916 1.45071C7.88372 0.80069 8.9787 0.5 9.99998 0.5C11.0205 0.5 12.0989 0.799738 12.9487 1.38751C13.8119 1.98453 14.5 2.93291 14.5 4.17971V7.3746L12.5 7.37497V4.17971C12.5 3.7468 12.2779 3.35533 11.8111 3.03242C11.3308 2.70026 10.6591 2.5 9.99998 2.5C9.34156 2.5 8.68654 2.69931 8.22105 3.04929Z" fill="#130E21"/>
<path d="M15.5417 7.37795C15.9283 7.37838 16.299 7.52785 16.5724 7.79355C16.8458 8.05926 16.9996 8.41951 17 8.79528V17.5827C16.9996 17.9584 16.8458 18.3187 16.5724 18.5844C16.299 18.8501 15.9283 18.9996 15.5417 19H4.45833C4.07169 18.9996 3.70102 18.8501 3.42762 18.5844C3.15423 18.3187 3.00044 17.9584 3 17.5827V8.79528C3.00044 8.41951 3.15423 8.05926 3.42762 7.79355C3.70102 7.52785 4.07169 7.37838 4.45833 7.37795H5.98901H15.5417Z" fill="#130E21"/>
</svg>
