<svg width="68" height="65" viewBox="0 0 68 65" fill="none" xmlns="http://www.w3.org/2000/svg">
<path d="M42.536 0.127446C41.4864 0.126317 40.447 0.3455 39.4769 0.772471C38.5068 1.19944 37.6253 1.82582 36.8827 2.61584C36.1399 3.40585 35.5507 4.34401 35.1486 5.37669C34.7463 6.40936 34.5391 7.51633 34.5388 8.63434C34.5377 9.75332 34.7439 10.8615 35.1454 11.8956C35.5469 12.9296 36.1359 13.8691 36.8787 14.6603C37.6216 15.4516 38.5036 16.079 39.4743 16.5067C40.4451 16.9344 41.4856 17.154 42.536 17.1528C43.5857 17.1524 44.6249 16.9318 45.5945 16.5034C46.564 16.0751 47.4448 15.4474 48.1864 14.6563C48.928 13.8652 49.5162 12.9262 49.9169 11.8929C50.3178 10.8596 50.5236 9.75236 50.5226 8.63434C50.5218 6.3784 49.6802 4.21507 48.1825 2.61989C46.6849 1.0247 44.654 0.128202 42.536 0.127446ZM21.995 1.36422C21.1756 1.36419 20.3643 1.53607 19.6072 1.87005C18.8503 2.20404 18.1624 2.69358 17.5831 3.31072C17.0037 3.92788 16.5441 4.66054 16.2305 5.46688C15.917 6.27323 15.7556 7.13745 15.7556 8.01024C15.7556 8.88301 15.917 9.74723 16.2305 10.5536C16.5441 11.3599 17.0037 12.0926 17.5831 12.7097C18.1625 13.3269 18.8503 13.8164 19.6072 14.1503C20.3643 14.4843 21.1756 14.6563 21.995 14.6562C22.8145 14.6562 23.6258 14.4843 24.3827 14.1503C25.1397 13.8163 25.8276 13.3268 26.4069 12.7097C26.9862 12.0925 27.4458 11.3599 27.7594 10.5536C28.073 9.74722 28.2343 8.88299 28.2343 8.01024C28.2343 7.13747 28.073 6.27324 27.7594 5.46691C27.4458 4.66056 26.9864 3.9279 26.4069 3.31076C25.8276 2.69361 25.1397 2.20407 24.3827 1.87008C23.6258 1.5361 22.8145 1.3642 21.995 1.36422ZM8.08384 15.3151C6.77311 15.3172 5.51678 15.8735 4.59098 16.8618C3.66517 17.85 3.14563 19.1895 3.14656 20.5857C3.14565 21.9817 3.66519 23.3212 4.59099 24.3095C5.5168 25.2978 6.77312 25.8541 8.08384 25.8562C8.73376 25.8567 9.3774 25.7207 9.97793 25.4559C10.5785 25.1913 11.1241 24.8031 11.5837 24.3135C12.0433 23.8241 12.4077 23.2428 12.6562 22.6031C12.9047 21.9635 13.0324 21.2779 13.032 20.5857C13.0324 19.8934 12.9047 19.2078 12.6562 18.5681C12.4077 17.9285 12.0433 17.3472 11.5837 16.8576C11.1241 16.3682 10.5785 15.98 9.97794 15.7152C9.37741 15.4506 8.73377 15.3146 8.08384 15.3151ZM57.4346 16.7483C56.1621 16.7482 54.902 17.015 53.7262 17.5336C52.5506 18.0523 51.4823 18.8126 50.5825 19.7711C49.6826 20.7296 48.9689 21.8675 48.4819 23.1197C47.995 24.3721 47.7444 25.7143 47.7445 27.0699C47.7444 28.4253 47.995 29.7675 48.4819 31.0199C48.9689 32.2721 49.6826 33.41 50.5824 34.3685C51.4823 35.327 52.5506 36.0873 53.7262 36.606C54.9019 37.1246 56.1621 37.3915 57.4346 37.3913C58.7072 37.3915 59.9673 37.1246 61.143 36.606C62.3187 36.0873 63.387 35.3269 64.2867 34.3685C65.1866 33.41 65.9004 32.2721 66.3873 31.0199C66.8743 29.7675 67.1248 28.4253 67.1247 27.0699C67.1248 25.7143 66.8743 24.3721 66.3873 23.1197C65.9004 21.8675 65.1866 20.7296 64.2867 19.7711C63.387 18.8127 62.3187 18.0524 61.143 17.5338C59.9673 17.0151 58.7072 16.7482 57.4346 16.7483ZM4.77439 32.1439C4.26257 32.143 3.75559 32.2496 3.28256 32.4578C2.80953 32.6661 2.37972 32.9716 2.0178 33.3571C1.65587 33.7426 1.36895 34.2004 1.17347 34.7042C0.977992 35.2081 0.87781 35.7481 0.878668 36.2933C0.879237 36.8375 0.980472 37.3763 1.17659 37.8788C1.3727 38.3813 1.65986 38.8377 2.02164 39.222C2.38342 39.6063 2.81274 39.9109 3.28507 40.1183C3.75739 40.3258 4.26347 40.4321 4.77439 40.4312C5.80431 40.4299 6.79171 39.9936 7.51996 39.2178C8.24822 38.4421 8.65786 37.3903 8.65901 36.2933C8.65986 35.7492 8.56004 35.2101 8.36527 34.7069C8.17048 34.2039 7.88455 33.7466 7.5238 33.3614C7.16305 32.976 6.73456 32.6701 6.2628 32.4612C5.79105 32.2523 5.28528 32.1445 4.77439 32.1439ZM9.50541 47.551C8.55922 47.5532 7.65238 47.9547 6.98331 48.6673C6.31425 49.3799 5.93746 50.346 5.93537 51.3538C5.93458 52.3637 6.31012 53.3325 6.97949 54.0476C7.64887 54.7629 8.55735 55.1658 9.50541 55.168C9.97576 55.1684 10.4416 55.0701 10.8762 54.8784C11.3108 54.6869 11.7057 54.406 12.0383 54.0518C12.3709 53.6975 12.6346 53.2769 12.8144 52.8139C12.9942 52.351 13.0866 51.8547 13.0862 51.3538C13.0841 50.3439 12.7058 49.3763 12.0345 48.6633C11.3631 47.9503 10.4535 47.5503 9.50541 47.551ZM20.5735 57.8379C20.2057 57.8372 19.8413 57.9138 19.5013 58.0635C19.1613 58.2131 18.8525 58.4327 18.5924 58.7098C18.3323 58.9868 18.1261 59.3158 17.9855 59.6778C17.8451 60.0401 17.7731 60.4281 17.7738 60.82C17.7753 61.6092 18.0712 62.3656 18.5962 62.9227C19.1212 63.4798 19.8325 63.7919 20.5735 63.7904C21.3127 63.7888 22.0211 63.4753 22.5437 62.9186C23.0664 62.3619 23.3606 61.6073 23.3622 60.82C23.3635 60.0306 23.0704 59.2731 22.5476 58.7139C22.0246 58.1547 21.3146 57.8396 20.5735 57.8379ZM31.7284 60.9355C31.4882 60.9363 31.2506 60.9873 31.029 61.0859C30.8075 61.1844 30.6063 61.3286 30.4369 61.5099C30.2677 61.6913 30.1336 61.9065 30.0424 62.143C29.9512 62.3796 29.9047 62.6331 29.9054 62.8888C29.9068 63.4035 30.0991 63.8965 30.4407 64.2604C30.7824 64.6243 31.2453 64.8293 31.7284 64.8307C31.9685 64.8315 32.2065 64.7819 32.4286 64.6848C32.6507 64.5877 32.8527 64.4448 33.023 64.2645C33.1933 64.0841 33.3286 63.8698 33.4212 63.6338C33.5137 63.3978 33.5616 63.1446 33.5622 62.8888C33.5631 62.6321 33.5161 62.3778 33.4243 62.1403C33.3324 61.903 33.1973 61.6874 33.0269 61.5058C32.8564 61.3243 32.654 61.1804 32.4312 61.0825C32.2082 60.9847 31.9695 60.9348 31.7284 60.9355Z" fill="#00856E"/>
</svg>
