<svg width="170" height="158" viewBox="0 0 170 158" fill="none" xmlns="http://www.w3.org/2000/svg">
<path d="M48.6049 15.9751C44.0512 13.4249 39.887 7.9277 36.2969 6.74349C37.4334 4.39028 38.762 2.1348 40.2693 0C43.8587 3.4809 48.0234 9.5942 52.5774 9.23166C51.4406 11.5847 50.1119 13.8402 48.6049 15.9751Z" fill="#AAFFCE"/>
<path opacity="0.5" d="M48.6049 15.9751C44.0512 13.4249 39.887 7.9277 36.2969 6.74349C37.4334 4.39028 38.762 2.1348 40.2693 0C43.8587 3.4809 48.0234 9.5942 52.5774 9.23166C51.4406 11.5847 50.1119 13.8402 48.6049 15.9751Z" fill="white"/>
<path d="M51.4834 10.6862C50.9966 10.6287 50.8498 10.1035 51.1486 9.58305C47.4723 8.7916 44.0696 4.37281 41.0416 1.30127C40.9673 1.39404 40.8738 1.46966 40.7676 1.52296C40.6614 1.57627 40.5449 1.606 40.4261 1.61012C40.3074 1.61424 40.1891 1.59265 40.0794 1.54684C39.9698 1.50102 39.8713 1.43205 39.7908 1.34466C38.8959 2.65879 38.0693 4.01821 37.3145 5.4175C37.5121 5.58693 37.6392 5.82423 37.6706 6.08267C37.702 6.34111 37.6355 6.60194 37.4841 6.81378C40.5126 8.42876 43.9147 12.5044 47.5911 14.9815C47.768 14.7917 48.0018 14.6645 48.2573 14.6191C48.5127 14.5737 48.776 14.6125 49.0075 14.7296L49.0148 14.7331C49.9087 13.4275 50.7351 12.077 51.4908 10.6869L51.4834 10.6862ZM42.9632 9.59742C42.0605 8.75649 41.8508 7.45777 42.4605 6.69243C43.0709 5.92809 44.2715 6.08674 45.174 6.95812C46.0763 7.82341 46.3381 9.07023 45.7276 9.81516C45.1177 10.5576 43.8651 10.4473 42.9632 9.59742Z" fill="#A9E3C0"/>
<path d="M87.6613 36.109C83.4755 38.3656 77.137 38.6478 74.4926 40.8919C73.1641 38.6434 72.0064 36.2983 71.0293 33.8764C75.4953 32.9253 82.323 32.9895 84.1979 29.0935C85.5262 31.3421 86.6839 33.6872 87.6613 36.109Z" fill="#AAFFCE"/>
<path opacity="0.5" d="M87.6613 36.109C83.4755 38.3656 77.137 38.6478 74.4926 40.8919C73.1641 38.6434 72.0064 36.2983 71.0293 33.8764C75.4953 32.9253 82.323 32.9895 84.1979 29.0935C85.5262 31.3421 86.6839 33.6872 87.6613 36.109Z" fill="white"/>
<path d="M84.8328 30.7998C84.556 31.1621 84.0696 30.9856 83.7987 30.4504C81.4249 32.9854 76.3034 33.2572 72.4288 33.9834C72.471 34.0879 72.4897 34.2003 72.4835 34.3128C72.4773 34.4253 72.4464 34.535 72.393 34.6342C72.3395 34.7334 72.2649 34.8195 72.1743 34.8865C72.0838 34.9536 71.9796 34.9998 71.8691 35.0219C72.4385 36.3731 73.1058 37.7946 73.9243 39.3215C74.2923 39.1363 74.8303 39.4258 75.1126 39.9698C77.832 38.4235 82.6808 37.9591 86.392 36.3726C86.3209 36.1354 86.3285 35.8815 86.4137 35.6489C86.4989 35.4164 86.6572 35.2177 86.8648 35.0826L86.871 35.0786C86.3072 33.7313 85.6464 32.3159 84.8368 30.7942L84.8328 30.7998ZM79.9229 37.0945C79.4222 37.2307 78.8892 37.1815 78.4219 36.956C77.9546 36.7305 77.5844 36.3438 77.3796 35.8671C77.063 34.9422 77.7591 34.058 78.8789 33.8168C79.9938 33.5723 81.1073 34.0617 81.4084 34.9758C81.7077 35.8882 81.0254 36.8415 79.9229 37.0945Z" fill="#A9E3C0"/>
<path d="M121.871 6.13289C116.934 7.80025 112.074 9.86046 108.399 13.0716C107.097 11.14 105.754 9.17446 104.531 7.11592C108.643 3.9685 113.446 2.00083 118.003 0.177246C119.305 2.10891 120.649 4.0743 121.871 6.13289Z" fill="#AAFFCE"/>
<path opacity="0.5" d="M121.871 6.13289C116.934 7.80025 112.074 9.86046 108.399 13.0716C107.097 11.14 105.754 9.17446 104.531 7.11592C108.643 3.9685 113.446 2.00083 118.003 0.177246C119.305 2.10891 120.649 4.0743 121.871 6.13289Z" fill="white"/>
<path d="M118.385 1.41098C118.132 1.50404 117.856 1.51191 117.598 1.4334C117.34 1.3549 117.115 1.19431 116.957 0.976074C113.18 2.50452 109.299 4.19457 105.834 6.61575C105.961 6.84933 106.001 7.12058 105.945 7.38069C105.89 7.6408 105.744 7.87269 105.533 8.03464C106.314 9.2953 107.129 10.5248 107.94 11.7382C108.032 11.6586 108.141 11.6 108.258 11.5663C108.376 11.5326 108.499 11.5246 108.619 11.5428C108.74 11.5611 108.855 11.6052 108.957 11.6721C109.06 11.739 109.146 11.8272 109.211 11.9306C112.416 9.4608 116.33 7.71923 120.344 6.27404C120.278 6.17163 120.238 6.0553 120.226 5.93446C120.214 5.81362 120.23 5.69164 120.274 5.57837C120.318 5.46511 120.388 5.36374 120.478 5.28243C120.568 5.20113 120.676 5.14217 120.794 5.11033L120.802 5.10757C120.019 3.84886 119.203 2.6204 118.393 1.40803L118.385 1.41098ZM113.738 7.66728C113.268 7.91722 112.722 7.98541 112.205 7.85885C111.688 7.73229 111.236 7.41984 110.935 6.9811C110.803 6.76238 110.72 6.51833 110.689 6.26501C110.659 6.0117 110.683 5.75485 110.759 5.51137C110.835 5.26789 110.962 5.0433 111.131 4.85238C111.301 4.66146 111.508 4.50853 111.741 4.40365C112.227 4.16853 112.781 4.1163 113.302 4.25654C113.823 4.39678 114.276 4.72009 114.578 5.16722C114.706 5.38245 114.786 5.62285 114.813 5.87194C114.84 6.12104 114.812 6.37294 114.732 6.61039C114.652 6.84785 114.522 7.06523 114.351 7.24765C114.179 7.43007 113.97 7.57322 113.738 7.66728Z" fill="#A9E3C0"/>
<path d="M34.9344 56.8504C31.3353 53.103 25.4917 53.4525 21.8926 49.7051C23.0262 47.636 24.1598 45.5669 25.2934 43.4978C28.8925 47.2452 34.7361 46.8957 38.3353 50.6431C37.2017 52.7122 36.0681 54.7813 34.9344 56.8504Z" fill="#AAFFCE"/>
<path opacity="0.5" d="M34.9344 56.8504C31.3353 53.103 25.4917 53.4525 21.8926 49.7051C23.0262 47.636 24.1598 45.5669 25.2934 43.4978C28.8925 47.2452 34.7361 46.8957 38.3353 50.6431C37.2017 52.7122 36.0681 54.7813 34.9344 56.8504Z" fill="white"/>
<path d="M37.4168 51.5344C37.218 51.3487 37.0834 51.1045 37.0325 50.8371C36.9816 50.5698 37.017 50.2933 37.1337 50.0474C33.8796 47.5251 29.3876 47.2619 26.1353 44.7366C26.0842 44.8459 26.0074 44.9411 25.9114 45.0141C25.8154 45.0871 25.703 45.1357 25.5841 45.1556C25.4651 45.1755 25.3431 45.1662 25.2285 45.1285C25.114 45.0908 25.0103 45.0258 24.9264 44.9391L22.8066 48.8082C23.0052 48.9941 23.1397 49.2383 23.1905 49.5056C23.2414 49.7728 23.2062 50.0493 23.0898 50.2952C26.3423 52.8206 30.8341 53.0838 34.0882 55.6061C34.1393 55.4969 34.2162 55.4017 34.3122 55.3288C34.4082 55.2559 34.5205 55.2073 34.6395 55.1874C34.7584 55.1674 34.8804 55.1767 34.9949 55.2143C35.1095 55.252 35.2132 55.3169 35.2971 55.4034L35.3033 55.4093L37.4231 51.5403L37.4168 51.5344ZM29.1412 51.7725C28.9038 51.6967 28.6866 51.5683 28.5058 51.3968C28.3249 51.2253 28.1852 51.0152 28.0969 50.7821C28.0087 50.5491 27.9743 50.2991 27.9962 50.0508C28.0181 49.8026 28.0958 49.5625 28.2235 49.3485C28.5022 48.88 28.9338 48.5218 29.4457 48.3341C29.9575 48.1464 30.5184 48.1407 31.0339 48.3179C31.2713 48.393 31.4886 48.5207 31.6696 48.6916C31.8507 48.8625 31.9907 49.0721 32.0792 49.3048C32.1678 49.5374 32.2025 49.7871 32.1809 50.0351C32.1593 50.2831 32.0819 50.523 31.9544 50.7369C31.6756 51.2061 31.2438 51.5652 30.7316 51.7538C30.2193 51.9423 29.6578 51.9489 29.1412 51.7725Z" fill="#A9E3C0"/>
<path d="M152.603 37.7778C149.207 41.8781 143.353 39.6683 139.956 42.9574C138.715 40.7074 137.473 38.5436 136.232 36.5372C139.628 32.4368 145.482 34.6468 148.879 31.3577C150.12 33.6076 151.361 35.7715 152.603 37.7778Z" fill="#AAFFCE"/>
<path opacity="0.5" d="M152.603 37.7778C149.207 41.8781 143.353 39.6683 139.956 42.9574C138.715 40.7074 137.473 38.5436 136.232 36.5372C139.628 32.4368 145.482 34.6468 148.879 31.3577C150.12 33.6076 151.361 35.7715 152.603 37.7778Z" fill="white"/>
<path d="M149.317 32.8661C148.938 33.2013 148.378 32.9962 148.098 32.481C144.981 34.4854 140.51 33.3957 137.396 35.9284C137.526 36.1652 137.577 36.4378 137.54 36.7058C137.504 36.9737 137.381 37.2226 137.191 37.4153C137.965 38.7135 138.739 40.0657 139.513 41.4547C139.89 41.1189 140.452 41.3235 140.73 41.838C143.844 39.8294 148.317 40.9196 151.433 38.3915C151.302 38.155 151.251 37.8825 151.288 37.6147C151.325 37.347 151.448 37.0984 151.637 36.9061L151.643 36.9004C150.87 35.6021 150.096 34.2499 149.322 32.861L149.317 32.8661ZM145.314 39.019C144.296 39.1593 143.025 38.4211 142.453 37.3514C141.879 36.2767 142.224 35.2403 143.241 35.0942C144.259 34.9509 145.534 35.6975 146.105 36.7701C146.679 37.8477 146.331 38.8757 145.314 39.019Z" fill="#A9E3C0"/>
<path d="M131.908 69.7872C118.324 95.9784 100.306 119.619 78.6528 139.66L45.3965 114.313C67.0497 94.2715 85.0679 70.6312 98.6521 44.4399L131.908 69.7872Z" fill="#AAFFCE"/>
<path d="M131.909 69.7852C130.791 71.9449 129.64 74.0857 128.455 76.2074C115.322 99.8635 98.5109 121.281 78.6523 139.659C67.568 131.21 56.482 122.761 45.3945 114.313C67.0496 94.2724 85.0685 70.6314 98.6516 44.4387C109.736 52.8875 120.822 61.3363 131.909 69.7852Z" fill="#58D08B"/>
<path d="M103.873 51.2073C103.56 51.8509 103.105 52.415 102.542 52.8572C101.979 53.2993 101.323 53.6081 100.623 53.7601C99.9239 53.9121 99.199 53.9034 98.5034 53.7347C97.8077 53.566 97.1594 53.2417 96.6072 52.7861C84.8146 73.8844 70.0878 93.2026 52.8672 110.163C53.4528 110.575 53.9374 111.114 54.2845 111.74C54.6316 112.366 54.8321 113.062 54.8709 113.777C54.9097 114.492 54.7858 115.206 54.5086 115.866C54.2313 116.526 53.8079 117.114 53.2703 117.587C60.1798 122.853 67.0894 128.119 73.999 133.386C75.1641 132.324 76.6576 131.693 78.2312 131.597C79.8048 131.502 81.3636 131.948 82.6484 132.862C99.869 115.901 114.596 96.583 126.388 75.4848C125.167 74.4883 124.323 73.1036 123.998 71.561C123.673 70.0183 123.886 68.4109 124.602 67.0063L124.625 66.9635C117.715 61.6972 110.805 56.4308 103.896 51.1646L103.873 51.2073ZM100.091 101.41C96.1732 106.535 88.6351 107.359 83.5281 103.466C78.4139 99.5674 77.6651 92.4289 81.5825 87.3029C85.5068 82.1828 92.6067 81.0233 97.7209 84.9219C102.829 88.8132 104.015 96.2897 100.091 101.41Z" fill="#A9E3C0"/>
<path opacity="0.2" d="M128.456 76.207C115.322 99.8632 98.5111 121.281 78.6524 139.659C78.6524 139.659 64.5615 118.161 58.7148 114.165C58.7148 114.165 104.108 97.3195 128.456 76.207Z" fill="black"/>
<path d="M163.652 104.777C141.53 124.299 116.193 139.843 88.7663 150.718C81.4777 138.837 74.189 126.956 66.9004 115.076C94.3275 104.201 119.664 88.6572 141.786 69.1345C149.074 81.0152 156.363 92.8959 163.652 104.777Z" fill="#AAFFCE"/>
<path d="M163.655 104.774C141.531 124.296 116.194 139.839 88.7666 150.715C85.6173 145.582 82.4664 140.447 79.314 135.311V135.306C75.1752 128.565 71.038 121.821 66.9023 115.074C94.3289 104.199 119.665 88.6559 141.786 69.1333C149.074 81.0168 156.363 92.8972 163.655 104.774Z" fill="#58D08B"/>
<path d="M144.213 77.3295C143.688 77.8167 143.06 78.1784 142.376 78.3876C141.691 78.5968 140.968 78.648 140.261 78.5373C139.554 78.4266 138.881 78.1568 138.293 77.7484C137.705 77.34 137.217 76.8036 136.867 76.1794C118.254 91.5992 97.5474 104.3 75.366 113.901C75.7637 114.497 76.021 115.174 76.1188 115.883C76.2165 116.592 76.1521 117.314 75.9303 117.995C75.7085 118.676 75.3352 119.297 74.8384 119.812C74.3417 120.328 73.7345 120.723 73.0625 120.97C77.6055 128.375 82.1486 135.781 86.6916 143.186C88.1615 142.616 89.7821 142.567 91.284 143.046C92.7859 143.525 94.0786 144.503 94.9471 145.819C117.128 136.217 137.835 123.517 156.448 108.097C155.668 106.727 155.381 105.131 155.635 103.575C155.889 102.019 156.667 100.597 157.842 99.5452L157.878 99.5136C153.336 92.1083 148.793 84.7031 144.249 77.2979L144.213 77.3295ZM122.566 122.782C117.062 126.149 109.735 124.196 106.377 118.723C103.015 113.241 104.893 106.313 110.397 102.947C115.904 99.588 122.944 101.069 126.307 106.551C129.666 112.024 128.073 119.424 122.566 122.782Z" fill="#A9E3C0"/>
<path opacity="0.2" d="M163.654 104.774C141.531 124.296 116.194 139.839 88.7661 150.715C85.6168 145.582 82.4659 140.447 79.3135 135.311V135.306L77.6484 111.444C77.6484 111.444 130.135 115.231 163.654 104.774Z" fill="black"/>
<path d="M169.999 150.966C141.28 157.729 111.607 159.466 82.2952 156.1C81.4806 142.186 80.6661 128.271 79.8516 114.357C109.163 117.722 138.837 115.985 167.556 109.223C168.37 123.137 169.185 137.052 169.999 150.966Z" fill="#AAFFCE"/>
<path d="M169.999 150.966C141.28 157.729 111.607 159.466 82.2952 156.1C81.4806 142.186 80.6661 128.271 79.8516 114.357C109.163 117.722 138.837 115.985 167.556 109.223C168.37 123.137 169.185 137.052 169.999 150.966Z" fill="#58D08B"/>
<path d="M165.826 117.593C165.133 117.775 164.409 117.797 163.707 117.658C163.004 117.52 162.343 117.223 161.772 116.792C161.201 116.36 160.735 115.805 160.409 115.167C160.084 114.529 159.908 113.826 159.893 113.111C136.205 117.913 111.955 119.331 87.8685 117.32C87.938 118.032 87.8448 118.751 87.5961 119.422C87.3474 120.094 86.9497 120.7 86.4328 121.195C85.916 121.69 85.2935 122.061 84.6122 122.281C83.931 122.501 83.2088 122.563 82.5 122.463C83.0077 131.136 83.5154 139.809 84.0231 148.482C85.5878 148.674 87.0397 149.395 88.1374 150.527C89.2351 151.658 89.9124 153.131 90.0567 154.701C114.143 156.712 138.393 155.295 162.082 150.492C162.041 148.916 162.542 147.374 163.5 146.122C164.459 144.87 165.817 143.984 167.349 143.612L167.396 143.601C166.888 134.928 166.381 126.256 165.873 117.583L165.826 117.593ZM125.28 147.437C118.839 147.806 113.303 142.624 112.928 136.214C112.553 129.794 117.48 124.574 123.92 124.206C130.361 123.846 135.867 128.476 136.243 134.896C136.62 141.306 131.721 147.077 125.28 147.437Z" fill="#A9E3C0"/>
<path d="M101.658 151.01C101.781 152.43 101.928 153.878 102.1 155.353H2.05469C5.1876 128.91 2.05469 117.445 2.05469 117.445C35.4889 114.928 102.1 117.445 102.1 117.445C102.1 117.445 100.09 130.181 101.444 148.428C101.505 149.275 101.577 150.136 101.658 151.01Z" fill="#58D08B"/>
<path opacity="0.2" d="M102.1 117.445C97.7215 119.49 76.2856 119.778 63.9553 119.013C51.6249 118.249 35.4889 120.582 35.4889 120.582C26.1474 117.357 2.05469 117.445 2.05469 117.445C35.4889 114.928 102.1 117.445 102.1 117.445Z" fill="white"/>
<path d="M2.05469 155.353C5.1876 128.91 2.05469 117.445 2.05469 117.445C2.05469 117.445 21.8872 117.008 35.4889 120.582C35.4889 120.582 35.9434 124.615 35.4889 126.691C35.4889 126.691 51.8521 124.038 66.4327 124.388C66.4327 124.388 43.8912 126.983 35.4889 128.91C35.4889 128.91 22.0096 126.804 13.4806 126.691C13.4806 126.691 31.2157 128.998 35.4889 130.378C35.4889 130.378 40.5618 129.456 43.2139 129.456C43.2139 129.456 36.8654 130.61 35.4889 131.645V138.951C35.4889 138.951 21.3323 139.231 14.2321 138.217C17.6053 138.746 31.3468 140.865 35.4889 140.865C35.4889 140.865 51.1137 140.288 60.1845 140.865C60.1845 140.865 39.5131 142.053 35.4889 143.014H17.745L35.4889 144.504V145.981H43.0959L35.4889 147.296C35.4889 147.296 13.4806 145.894 7.14505 147.296C7.14505 147.296 33.1251 148.476 35.4628 149.394L35.4889 151.583C35.4889 151.583 64.6237 147.733 90.3898 151.041C90.3898 151.041 52.7653 149.551 35.4889 153.737C35.4889 153.737 89.5377 152.561 102.1 155.353H2.05469Z" fill="#5CA37B"/>
<path d="M2.63916 120.582L0 121.505C0 121.505 15.9025 122.054 26.1584 123.623C26.1584 123.623 10.3487 120.811 2.63916 120.582Z" fill="#A9E3C0"/>
<path opacity="0.2" d="M37.8086 123.623L41.83 124.386C41.83 124.386 60.5705 122.355 82.7172 122.103C82.7172 122.103 50.7269 120.556 37.8086 123.623Z" fill="white"/>
<path opacity="0.2" d="M50.502 127.929C50.502 127.929 61.7385 124.866 71.5906 125.015C81.4427 125.164 100.197 123.623 100.197 123.623L100.934 125.015C100.934 125.015 86.2322 125.877 74.0964 125.776C66.1832 125.791 58.2871 126.512 50.502 127.929Z" fill="white"/>
<path opacity="0.2" d="M39.3535 132.51C39.3535 132.51 52.7496 129.658 65.8865 129.917C79.0233 130.177 95.5585 131.205 95.5585 131.205C95.5585 131.205 59.6638 131.214 50.5025 133.115L39.3535 132.51Z" fill="white"/>
<path d="M62.5234 128.361C62.5234 128.361 74.0634 127.411 84.0188 127.929C93.9742 128.448 104.432 128.912 104.432 128.912L100.933 129.9C100.933 129.9 76.9652 127.497 62.5234 128.361Z" fill="#AAFFCE"/>
<path d="M62.5234 128.361C62.5234 128.361 74.0634 127.411 84.0188 127.929C93.9742 128.448 104.432 128.912 104.432 128.912L100.933 129.9C100.933 129.9 76.9652 127.497 62.5234 128.361Z" fill="#5CA37B"/>
<path d="M39.7852 134.93C39.7852 134.93 59.7589 134.681 69.3909 134.2C79.0229 133.72 91.9201 136.391 91.9201 136.391C91.9201 136.391 75.9979 136.054 71.0716 136.831L39.7852 134.93Z" fill="#5CA37B"/>
<path opacity="0.2" d="M37.8086 137.955L50.5018 136.831L77.5532 137.955L50.1559 139.079L37.8086 137.955Z" fill="white"/>
<path opacity="0.2" d="M47.3047 143.918C47.3047 143.918 65.7671 142.192 72.957 142.104C80.1468 142.017 99.5063 140.72 99.5063 140.72L97.3561 143.573C97.3561 143.573 60.9601 142.795 47.3047 143.918Z" fill="white"/>
<path d="M94.1191 134.2L100.933 134.843L102.789 134.2C99.9054 133.931 97.0029 133.931 94.1191 134.2Z" fill="#AAFFCE"/>
<path d="M101.797 119.81L104.433 120.238L101.601 121.713L84.9414 121.361C84.9414 121.361 97.4326 121.198 101.797 119.81Z" fill="#AAFFCE"/>
<path d="M94.1191 134.2L100.933 134.843L102.789 134.2C99.9054 133.931 97.0029 133.931 94.1191 134.2Z" fill="#A9E3C0"/>
<path d="M101.797 119.81L104.433 120.238L101.601 121.713L84.9414 121.361C84.9414 121.361 97.4326 121.198 101.797 119.81Z" fill="#5CA37B"/>
<path d="M101.658 151.01C97.1875 150.717 65.8516 146.78 65.8516 146.78C67.9357 146.535 95.2913 148.157 101.443 148.428C101.505 149.275 101.576 150.136 101.658 151.01Z" fill="#5CA37B"/>
<path d="M54.4785 146.241C54.4785 146.241 83.7771 146.165 92.1605 146.77C100.544 147.375 101.295 146.241 101.295 146.241L105.469 148.257C105.469 148.257 105.684 150.255 94.6875 148.858C83.6907 147.462 54.4785 146.241 54.4785 146.241Z" fill="#A9E3C0"/>
<path d="M30.5372 131.508C30.5372 131.508 13.3762 128.789 3.375 129.483C4.87829 129.825 6.27887 130.519 7.46135 131.508H30.5372Z" fill="#A9E3C0"/>
<path d="M3.35309 138.95C3.74423 138.906 16.1897 140.548 20.9431 140.721L1.58203 141.498L3.35309 138.95Z" fill="#A9E3C0"/>
<path d="M2.65215 149.713L21.4626 150.378L0 151.966L2.65215 149.713Z" fill="#A9E3C0"/>
<path d="M36.9228 116.169C36.9228 116.169 63.6374 120.736 79.1328 102.455L108.323 109.943C108.323 109.943 102.951 121.088 62.61 119.607C22.2691 118.126 36.9228 116.169 36.9228 116.169Z" fill="#AAFFCE"/>
<path d="M36.9228 116.169C36.9228 116.169 63.6374 120.736 79.1328 102.455L108.323 109.943C108.323 109.943 102.951 121.088 62.61 119.607C22.2691 118.126 36.9228 116.169 36.9228 116.169Z" fill="#58D08B"/>
<path d="M52.1777 117.143C52.1777 117.143 68.5105 116.284 77.7442 105.838C78.5895 106.095 79.4924 106.094 80.337 105.834C81.1815 105.574 81.9291 105.068 82.4837 104.38L103.79 110.026C103.79 110.026 101.498 110.833 102.304 113.484C102.304 113.484 74.3277 124.818 52.1777 117.143Z" fill="#A9E3C0"/>
<path d="M72.2454 119.851C72.2454 119.851 8.39607 120.292 4.4375 111.326L32.8688 109.26C38.5121 111.627 44.2879 113.665 50.1671 115.364C56.7429 117.282 64.516 119.099 72.2454 119.851Z" fill="#58D08B"/>
<path d="M72.2454 119.851C72.2454 119.851 70.2398 119.864 66.9104 119.838C53.2518 118.881 37.3081 112.1 37.3081 112.1C31.5492 113.367 27.595 111.099 27.595 111.099L12.0751 111.986C12.1583 112.368 12.1544 112.764 12.0636 113.145C11.9728 113.525 11.7975 113.88 11.5507 114.184C19.5947 116.443 28.268 117.819 35.3419 118.649C20.4117 117.535 6.23763 115.403 4.4375 111.326L32.8688 109.26C32.8688 109.26 52.71 117.946 72.2454 119.851Z" fill="#A9E3C0"/>
<path d="M72.2454 119.85C72.2454 119.85 8.39607 120.292 4.4375 111.326C4.4375 111.326 26.0089 120.646 50.1671 115.363C56.7429 117.281 64.516 119.099 72.2454 119.85Z" fill="#5CA37B"/>
</svg>
