<svg width="44" height="44" viewBox="0 0 44 44" fill="none" xmlns="http://www.w3.org/2000/svg">
<g clip-path="url(#clip0_2712_10560)">
<path d="M38 -1H4C1.23858 -1 -1 1.23858 -1 4V38C-1 40.7614 1.23858 43 4 43H38C40.7614 43 43 40.7614 43 38V4C43 1.23858 40.7614 -1 38 -1Z" fill="#F7F7FA"/>
<path d="M6 14.1074L12.4838 26.7271L16.8725 28.1114C18.9992 28.7387 24.4001 25.4571 18.1691 19.3203C12.8854 14.1074 9.06168 13.4368 6 14.1074Z" fill="#27B993"/>
<path d="M37.6331 7.0285L26.6187 26.8079L22.6236 32.0764C21.2006 34.7214 16.5441 32.967 15.2674 32.0764C13.0454 27.8214 12.1629 26.125 11.9004 25.6089C11.8356 25.4792 11.8078 25.4235 11.8078 25.4204C11.8078 25.4204 11.8265 25.4482 11.8512 25.4977C11.8576 25.5101 11.8667 25.5255 11.8726 25.5378C12.8757 26.057 15.3879 26.0044 17.4004 21.6475C17.7025 20.9955 18.0329 20.2817 18.403 19.5277C21.1251 14.0058 26.02 6.47847 37.6331 7.0285Z" fill="#0FDEA8"/>
<path fill-rule="evenodd" clip-rule="evenodd" d="M26.6191 26.8076L23.6843 32.0761C21.494 35.604 18.2663 37.0586 15.2678 32.0761C13.0458 27.8211 12.1632 26.1247 11.9008 25.6086C11.8853 25.5716 11.8703 25.5345 11.8516 25.4974C11.8269 25.4418 11.8023 25.3861 11.7776 25.3275C13.0303 25.5499 13.87 25.2904 14.3145 25.1018C15.814 24.4561 16.6045 22.9574 17.6568 20.9643L17.6659 20.9489C17.7398 20.8098 17.8078 20.6831 17.8694 20.5626C18.104 20.1238 18.277 19.7994 18.3942 19.5212C18.3975 19.5244 18.4007 19.5275 18.4007 19.5275C20.033 21.0817 21.1999 22.4135 22.1473 23.4981C23.7459 25.3275 24.7302 26.4522 26.2983 26.7427C26.4059 26.7674 26.5141 26.789 26.6191 26.8076Z" fill="#0ED39B"/>
</g>
<defs>
<clipPath id="clip0_2712_10560">
<rect width="44" height="44" fill="white"/>
</clipPath>
</defs>
</svg>
