<svg width="16" height="16" viewBox="0 0 16 16" fill="none"
    xmlns="http://www.w3.org/2000/svg">
    <g clip-path="url(#clip0)">
        <path d="M11.7812 8C11.7812 6.25865 10.5985 4.78872 8.99401 4.35126C10.6121 4.57683 12.076 5.31499 13.22 6.08873C14.5052 6.95787 15.3452 7.8437 15.489 8C15.345 8.15642 14.5051 9.04219 13.22 9.91127C12.076 10.685 10.6121 11.4232 8.99403 11.6487C10.5985 11.2113 11.7812 9.74135 11.7812 8ZM4.21874 8C4.21874 9.74135 5.40148 11.2113 7.00594 11.6487C5.38785 11.4232 3.92401 10.685 2.77996 9.91127C1.49492 9.04219 0.654943 8.15642 0.510978 8C0.654943 7.84358 1.4949 6.95781 2.77993 6.08873C3.92399 5.31499 5.38783 4.57683 7.00596 4.35126C5.40149 4.78872 4.21874 6.25865 4.21874 8Z" fill="#00856E" stroke="#00856E"/>
        <path d="M8.46875 7.0625C8.46875 6.59094 8.70284 6.17609 9.05897 5.92094C8.73941 5.75734 8.38297 5.65625 8 5.65625C6.70772 5.65625 5.65625 6.70772 5.65625 8C5.65625 9.29228 6.70772 10.3438 8 10.3438C9.157 10.3438 10.1146 9.49894 10.3038 8.39506C9.35987 8.69897 8.46875 7.98506 8.46875 7.0625Z" fill="#00856E"/>
    </g>
    <defs>
        <clipPath id="clip0">
            <rect width="16" height="16" fill="white"/>
        </clipPath>
    </defs>
</svg>
