<svg width="14" height="14" viewBox="0 0 14 14" fill="none" xmlns="http://www.w3.org/2000/svg">
<path d="M10.2216 12.9999C7.77682 12.9967 5.43312 12.0222 3.70443 10.2901C1.97574 8.55797 1.00317 6.20962 1 3.76003C1 3.02804 1.2902 2.32603 1.80677 1.80844C2.32334 1.29085 3.02395 1.00007 3.75449 1.00007C3.90919 0.998888 4.06362 1.01296 4.21557 1.04207C4.36246 1.06385 4.50687 1.10002 4.64671 1.15007C4.74506 1.18464 4.8327 1.24435 4.90096 1.32327C4.96923 1.40219 5.01575 1.4976 5.03593 1.60006L5.85629 5.20001C5.8784 5.29772 5.87574 5.39943 5.84854 5.49585C5.82135 5.59227 5.77048 5.68033 5.7006 5.752C5.62275 5.836 5.61677 5.842 4.88024 6.22599C5.47006 7.52249 6.50491 8.56365 7.79641 9.15995C8.18563 8.41596 8.19162 8.40996 8.27545 8.33196C8.34697 8.26194 8.43486 8.21097 8.53109 8.18372C8.62732 8.15648 8.72882 8.15381 8.82635 8.17596L12.4192 8.99795C12.5181 9.02096 12.6097 9.06884 12.6851 9.13706C12.7605 9.20529 12.8174 9.29163 12.8503 9.38795C12.9008 9.53036 12.9389 9.67691 12.9641 9.82594C12.9882 9.97673 13.0002 10.1292 13 10.2819C12.989 11.0108 12.6906 11.7057 12.17 12.2149C11.6495 12.7241 10.949 13.0063 10.2216 12.9999V12.9999ZM3.75449 2.20005C3.34206 2.20163 2.94698 2.36649 2.65535 2.6587C2.36372 2.95091 2.19918 3.34678 2.1976 3.76003C2.19919 5.89185 3.04508 7.9359 4.54952 9.44333C6.05396 10.9508 8.09396 11.7983 10.2216 11.7999C10.634 11.7983 11.0291 11.6335 11.3207 11.3413C11.6123 11.049 11.7769 10.6532 11.7784 10.2399V10.0419L9 9.39995L8.82635 9.72994C8.55688 10.2519 8.35928 10.6299 7.85629 10.4259C6.864 10.0701 5.96329 9.49716 5.2196 8.74888C4.47591 8.0006 3.90792 7.09573 3.55689 6.09999C3.34132 5.632 3.7485 5.416 4.26347 5.14601L4.59281 4.98401L3.9521 2.20005H3.75449Z" fill="#8796AD" stroke="white" stroke-width="0.3"/>
</svg>
