<svg width="14" height="14" viewBox="0 0 14 14" fill="none" xmlns="http://www.w3.org/2000/svg">
<path d="M11.8125 8.94141H2.1875C0.981313 8.94141 0 9.92272 0 11.1289C0 12.3351 0.981313 13.3164 2.1875 13.3164H11.8125C13.0187 13.3164 14 12.3351 14 11.1289C14 9.92272 13.0187 8.94141 11.8125 8.94141ZM11.8125 12.4961H2.1875C1.43363 12.4961 0.820312 11.8828 0.820312 11.1289C0.820312 10.375 1.43363 9.76172 2.1875 9.76172H11.8125C12.5664 9.76172 13.1797 10.375 13.1797 11.1289C13.1797 11.8828 12.5664 12.4961 11.8125 12.4961Z" fill="#93A8C6"/>
<path d="M5.63281 11.8125C6.01035 11.8125 6.31641 11.5064 6.31641 11.1289C6.31641 10.7514 6.01035 10.4453 5.63281 10.4453C5.25527 10.4453 4.94922 10.7514 4.94922 11.1289C4.94922 11.5064 5.25527 11.8125 5.63281 11.8125Z" fill="#93A8C6"/>
<path d="M8.36719 11.8125C8.74473 11.8125 9.05078 11.5064 9.05078 11.1289C9.05078 10.7514 8.74473 10.4453 8.36719 10.4453C7.98965 10.4453 7.68359 10.7514 7.68359 11.1289C7.68359 11.5064 7.98965 11.8125 8.36719 11.8125Z" fill="#93A8C6"/>
<path d="M11.1016 11.8125C11.4791 11.8125 11.7852 11.5064 11.7852 11.1289C11.7852 10.7514 11.4791 10.4453 11.1016 10.4453C10.724 10.4453 10.418 10.7514 10.418 11.1289C10.418 11.5064 10.724 11.8125 11.1016 11.8125Z" fill="#93A8C6"/>
<path d="M2.89844 11.8125C3.27598 11.8125 3.58203 11.5064 3.58203 11.1289C3.58203 10.7514 3.27598 10.4453 2.89844 10.4453C2.5209 10.4453 2.21484 10.7514 2.21484 11.1289C2.21484 11.5064 2.5209 11.8125 2.89844 11.8125Z" fill="#93A8C6"/>
<path d="M9.59766 3.47266H9.05078V2.73438C9.05078 1.60357 8.1308 0.683594 7 0.683594C5.8692 0.683594 4.94922 1.60357 4.94922 2.73438V3.47266H4.40234C4.17583 3.47266 3.99219 3.6563 3.99219 3.88281V7.13672C3.99219 7.36323 4.17583 7.54688 4.40234 7.54688H9.59766C9.82417 7.54688 10.0078 7.36323 10.0078 7.13672V3.88281C10.0078 3.6563 9.82417 3.47266 9.59766 3.47266ZM5.76953 2.73438C5.76953 2.05589 6.32152 1.50391 7 1.50391C7.67848 1.50391 8.23047 2.05589 8.23047 2.73438V3.47266H5.76953V2.73438ZM9.1875 6.72656H4.8125V4.29297C4.85116 4.29297 9.14572 4.29297 9.1875 4.29297V6.72656Z" fill="#93A8C6"/>
<path d="M7.27344 4.83984H6.72656C6.50005 4.83984 6.31641 5.02348 6.31641 5.25C6.31641 5.4285 6.43065 5.57996 6.58984 5.63631V5.79688C6.58984 6.02339 6.77348 6.20703 7 6.20703C7.22652 6.20703 7.41016 6.02339 7.41016 5.79688V5.63631C7.56935 5.57996 7.68359 5.4285 7.68359 5.25C7.68359 5.02348 7.49995 4.83984 7.27344 4.83984Z" fill="#93A8C6"/>
</svg>
