<svg width="30" height="30" viewBox="0 0 30 30" fill="none" xmlns="http://www.w3.org/2000/svg">
<path fill-rule="evenodd" clip-rule="evenodd" d="M15 30C23.2843 30 30 23.2843 30 15C30 6.71573 23.2843 0 15 0C6.71573 0 0 6.71573 0 15C0 23.2843 6.71573 30 15 30ZM13.3929 14.0357V23.8929H16.6071V14.0357H13.3929ZM17.1429 8.25001C17.1429 9.43348 16.1835 10.3929 15 10.3929C13.8165 10.3929 12.8571 9.43348 12.8571 8.25001C12.8571 7.06655 13.8165 6.10716 15 6.10716C16.1835 6.10716 17.1429 7.06655 17.1429 8.25001Z" fill="white"/>
</svg>
