<svg width="128" height="128" viewBox="0 0 128 128" fill="none" xmlns="http://www.w3.org/2000/svg">
<path d="M106.078 111.254C117.883 100.089 125.25 84.28 125.25 66.7493C125.25 32.9218 97.8268 5.49902 63.9993 5.49902C30.1718 5.49902 2.74902 32.9218 2.74902 66.7493C2.74902 100.577 30.1718 128 63.9993 128C66.65 128 69.2615 127.831 71.8235 127.504L106.078 111.254Z" fill="#CCE7E2"/>
<path d="M99.2087 91.39C98.6712 89.4147 98.4817 87.361 98.6487 85.3207L99.6489 75.8995C100.137 69.9882 99.2364 64.0657 96.6194 58.743C89.8582 44.9897 91.4094 43.9917 91.1992 30.342C91.1992 27.5535 88.9387 25.293 86.1502 25.293C83.3617 25.293 81.1012 27.5535 81.1012 30.342C81.1012 85.85 81.2044 81.7767 80.8622 83.4042V90.6727C80.8622 96.7967 75.8799 101.779 69.7559 101.779C65.6887 101.779 51.6624 101.779 42.1179 101.779C46.3639 107.684 52.1727 112.308 58.9137 115.107C58.9554 115.125 58.9972 115.142 59.0389 115.16C64.2472 117.36 70.0624 121.749 71.0342 127.195L71.1282 127.585C84.8434 125.995 97.1762 119.876 106.593 110.76L99.2087 91.39Z" fill="#F9BA8F"/>
<path d="M23.3655 25.4708L21.8278 24.046C19.457 21.8495 15.7203 21.992 13.5238 24.3625C11.3273 26.733 11.4698 30.47 13.8405 32.6665L23.3658 41.4923V25.4708H23.3655Z" fill="#F9BA8F"/>
<path d="M72.4022 102.019H31.8435C27.0473 102.019 23.1455 98.1167 23.1455 93.3205V8.69825C23.1455 3.902 27.0473 0 31.8435 0H72.4022C77.1982 0 81.1002 3.902 81.1002 8.69825V93.3207C81.1002 98.1167 77.1982 102.019 72.4022 102.019Z" fill="#006E5B"/>
<path d="M45.7155 6.23306H44.847C44.0168 6.23306 43.3438 5.56006 43.3438 4.72981C43.3438 3.89956 44.0168 3.22656 44.847 3.22656H45.7155C46.5457 3.22656 47.2188 3.89956 47.2188 4.72981C47.2188 5.56006 46.5455 6.23306 45.7155 6.23306Z" fill="#025345"/>
<path d="M59.1925 6.23306H50.847C50.0168 6.23306 49.3438 5.56006 49.3438 4.72981C49.3438 3.89956 50.0168 3.22656 50.847 3.22656H59.1925C60.0228 3.22656 60.6958 3.89956 60.6958 4.72981C60.6958 5.56006 60.0228 6.23306 59.1925 6.23306Z" fill="#025345"/>
<path d="M72.4026 5.41113H66.3069C65.1704 5.41113 64.2494 6.33238 64.2494 7.46863C64.2494 8.79138 63.1671 9.87388 61.8444 9.87388H42.4026C41.0799 9.87388 39.9974 8.79163 39.9974 7.46863C39.9974 6.33238 39.0761 5.41113 37.9399 5.41113H31.8439C30.0289 5.41113 28.5574 6.88263 28.5574 8.69763V93.3201C28.5574 95.1351 30.0289 96.6066 31.8439 96.6066H72.4026C74.2176 96.6066 75.6891 95.1351 75.6891 93.3201C75.6891 84.6154 75.6891 11.0209 75.6891 8.69763C75.6891 6.88263 74.2176 5.41113 72.4026 5.41113Z" fill="white"/>
<rect x="31.5076" y="77.7842" width="41.3539" height="6.89231" rx="3.44615" fill="#FF5C00"/>
<path d="M61.0341 81.6901H43.7991C43.5341 81.6901 43.3232 81.4792 43.3232 81.2142C43.3232 80.9492 43.5396 80.7383 43.7991 80.7383H61.0341C61.2991 80.7383 61.51 80.9492 61.51 81.2142C61.51 81.4737 61.2991 81.6901 61.0341 81.6901Z" fill="white"/>
<rect x="34.0173" y="40.3809" width="18.1511" height="0.44271" fill="#00856E"/>
<circle cx="51.9469" cy="40.6027" r="0.811636" fill="#225AAC"/>
<ellipse cx="33.207" cy="40.6022" rx="1.54949" ry="1.54949" fill="#00856E"/>
<line x1="32.5427" y1="40.603" x2="33.8709" y2="40.603" stroke="white" stroke-width="0.14757"/>
<path d="M43.845 34.4293H31.9835C31.7185 34.4293 31.5076 34.2184 31.5076 33.9534C31.5076 33.6884 31.7239 33.4775 31.9835 33.4775H43.845C44.11 33.4775 44.3209 33.6884 44.3209 33.9534C44.3209 34.213 44.11 34.4293 43.845 34.4293Z" fill="#BAC4C6"/>
<path d="M71.3255 19.7027H33.0435C32.1882 19.7027 31.5076 19.022 31.5076 18.1668C31.5076 17.3115 32.2057 16.6309 33.0435 16.6309H71.3255C72.1807 16.6309 72.8614 17.3115 72.8614 18.1668C72.8614 19.0045 72.1807 19.7027 71.3255 19.7027Z" fill="#BAC4C6"/>
<path d="M39.3723 45.0787H31.9835C31.7185 45.0787 31.5076 44.8678 31.5076 44.6028C31.5076 44.3379 31.7239 44.127 31.9835 44.127H39.3723C39.6373 44.127 39.8482 44.3379 39.8482 44.6028C39.8482 44.8624 39.6373 45.0787 39.3723 45.0787Z" fill="#BAC4C6"/>
<path d="M68.9108 57.0758H31.9835C31.7185 57.0758 31.5076 56.8649 31.5076 56.5999C31.5076 56.3349 31.7239 56.124 31.9835 56.124H68.9108C69.1758 56.124 69.3867 56.3349 69.3867 56.5999C69.3867 56.8595 69.1758 57.0758 68.9108 57.0758Z" fill="#BAC4C6"/>
<path d="M68.9108 60.0289H31.9835C31.7185 60.0289 31.5076 59.818 31.5076 59.553C31.5076 59.2881 31.7239 59.0771 31.9835 59.0771H68.9108C69.1758 59.0771 69.3867 59.2881 69.3867 59.553C69.3867 59.8126 69.1758 60.0289 68.9108 60.0289Z" fill="#BAC4C6"/>
<path d="M68.9108 62.983H31.9835C31.7185 62.983 31.5076 62.7721 31.5076 62.5071C31.5076 62.2422 31.7239 62.0312 31.9835 62.0312H68.9108C69.1758 62.0312 69.3867 62.2422 69.3867 62.5071C69.3867 62.7667 69.1758 62.983 68.9108 62.983Z" fill="#BAC4C6"/>
<path d="M31.9163 56.4604C29.9835 58.5461 26.726 58.6704 24.6403 56.7376L16.016 48.7466C13.9303 46.8141 13.806 43.5564 15.7388 41.4706C17.6713 39.3849 20.929 39.2606 23.0148 41.1934L31.639 49.1844C33.7248 51.1171 33.8488 54.3746 31.9163 56.4604Z" fill="#F9BA8F"/>
<path d="M31.9148 84.5473C29.9821 86.633 26.7246 86.7573 24.6388 84.8245L16.0146 76.8335C13.9288 74.901 13.8046 71.6433 15.7373 69.5575C17.6698 67.4718 20.9276 67.3475 23.0133 69.2803L31.6376 77.2713C33.7233 79.204 33.8473 82.4615 31.9148 84.5473Z" fill="#F9BA8F"/>
<path d="M31.9163 70.5043C29.9835 72.5901 26.726 72.7143 24.6403 70.7816L16.016 62.7906C13.9303 60.8578 13.806 57.6003 15.7388 55.5146C17.6713 53.4288 20.929 53.3046 23.0148 55.2373L31.639 63.2283C33.7248 65.1611 33.8488 68.4186 31.9163 70.5043Z" fill="#F9BA8F"/>
<path d="M99.8685 24.6436H59.3745C55.0667 24.6436 51.542 28.1681 51.542 32.4761V64.6286C51.542 68.9363 55.0665 72.4611 59.3745 72.4611C60.4757 72.4611 61.086 73.7256 60.4125 74.5968C59.6952 75.5248 58.8907 76.3903 57.998 77.1768C56.3322 78.6441 57.2692 81.6521 59.3817 81.6456C64.7505 81.6288 69.7817 78.9038 73.206 74.4653C74.1685 73.2178 75.6333 72.4611 77.2088 72.4611H99.8685C104.177 72.4611 107.701 68.9366 107.701 64.6286V32.4761C107.701 28.1681 104.177 24.6436 99.8685 24.6436Z" fill="#DE4649"/>
<path d="M68.651 59.6029C67.701 58.6529 67.701 57.1279 68.651 56.1779L86.6759 38.1529C87.6259 37.2029 89.1509 37.2029 90.1009 38.1529C91.0509 39.1029 91.0509 40.6279 90.1009 41.5779L72.076 59.6029C71.151 60.5279 69.601 60.5279 68.651 59.6029Z" fill="white"/>
<path d="M68.6515 38.1275C69.6015 37.1775 71.1265 37.1775 72.0765 38.1275L90.1015 56.1525C91.0515 57.1025 91.0515 58.6275 90.1015 59.5775C89.1515 60.5275 87.6265 60.5275 86.6765 59.5775L68.6515 41.5525C67.7265 40.6025 67.7265 39.0775 68.6515 38.1275Z" fill="white"/>
</svg>
