<svg width="20" height="20" viewBox="0 0 20 20" fill="none" xmlns="http://www.w3.org/2000/svg">
<path fill-rule="evenodd" clip-rule="evenodd" d="M9.9987 0.833984C4.9362 0.833984 0.832031 4.93815 0.832031 10.0007C0.832031 15.0631 4.9362 19.1673 9.9987 19.1673C15.0612 19.1673 19.1654 15.0631 19.1654 10.0007C19.1654 4.93815 15.0612 0.833984 9.9987 0.833984ZM13.972 8.45065C14.0452 8.36702 14.1009 8.2696 14.1359 8.16412C14.1708 8.05865 14.1843 7.94725 14.1756 7.83647C14.1669 7.7257 14.1361 7.61779 14.085 7.51909C14.034 7.42039 13.9637 7.3329 13.8783 7.26177C13.793 7.19063 13.6942 7.13729 13.5879 7.10487C13.4817 7.07245 13.37 7.06162 13.2594 7.07301C13.1489 7.08439 13.0418 7.11777 12.9443 7.17118C12.8469 7.22458 12.7611 7.29694 12.692 7.38398L9.1087 11.6832L7.25453 9.82815C7.09736 9.67635 6.88686 9.59236 6.66836 9.59426C6.44987 9.59615 6.24086 9.68379 6.08635 9.8383C5.93184 9.99281 5.8442 10.2018 5.8423 10.4203C5.8404 10.6388 5.9244 10.8493 6.0762 11.0065L8.5762 13.5065C8.65808 13.5883 8.75611 13.6522 8.86404 13.694C8.97198 13.7359 9.08745 13.7548 9.20309 13.7495C9.31873 13.7443 9.43201 13.715 9.53571 13.6635C9.6394 13.6121 9.73124 13.5396 9.80536 13.4506L13.972 8.45065Z" fill="#12BF6C"/>
</svg>
