<svg width="24" height="24" viewBox="0 0 24 24" fill="none" xmlns="http://www.w3.org/2000/svg">
<g clip-path="url(#clip0_55947_64654)">
<path fill-rule="evenodd" clip-rule="evenodd" d="M13.1537 16C13.0994 16.1185 13.0482 16.2398 13 16.3643V16H13.1537ZM23.9538 16H24V12.1286V11.8714V8H23.9538C23.8454 5.14334 23.4825 2.98178 22.2686 1.73143C20.6083 0.119551 17.4856 0.00810467 13 0.000541681V0H12.1286H11.8714H11V0.000543978C6.52138 0.00812723 3.39149 0.119714 1.73143 1.73143C0.517492 2.98178 0.154584 5.14334 0.0461526 8H0V11.8714V12.1286V16H0.0461526C0.154584 18.8567 0.517492 21.0182 1.73143 22.2686C3.39166 23.8804 6.51444 23.9919 11 23.9995V24H11.8714H12.1286H13V23.9995C17.4856 23.9919 20.6083 23.8804 22.2686 22.2686C23.4825 21.0182 23.8454 18.8567 23.9538 16ZM10.8449 16C10.8998 16.12 10.9514 16.2428 11 16.3688V16H10.8449ZM13 8H13.1537C13.0994 7.88148 13.0482 7.76016 13 7.63574V8ZM11 8H10.8463C10.9006 7.88148 10.9518 7.76016 11 7.63574V8Z" fill="#3C3D3D"/>
<path d="M19.6463 6.27421L17.127 18.1549C16.9368 18.9933 16.4413 19.202 15.7371 18.8072L11.8983 15.9785L10.0463 17.7602C9.84117 17.9653 9.67004 18.1364 9.27471 18.1364L9.55078 14.2273L16.6649 7.79888C16.9744 7.5234 16.5975 7.37016 16.1843 7.64623L7.3893 13.1844L3.60297 11.999C2.77952 11.742 2.76461 11.1756 3.7747 10.7802L18.5843 5.07451C19.27 4.81752 19.8699 5.22716 19.6463 6.27481V6.27421Z" fill="#FEFEFE"/>
</g>
<defs>
<clipPath id="clip0_55947_64654">
<rect width="24" height="24" rx="5.81818" fill="white"/>
</clipPath>
</defs>
</svg>
