<svg width="19" height="18" viewBox="0 0 19 18" fill="none" xmlns="http://www.w3.org/2000/svg">
    <path
        d="M17.8851 7.1454C17.8662 7.05853 17.8291 6.97668 17.776 6.90532C17.723 6.83396 17.6554 6.77473 17.5777 6.73158L15.7202 5.70043C15.6174 5.50115 15.505 5.30618 15.3842 5.11755L15.42 2.99158C15.4215 2.90266 15.404 2.81444 15.3687 2.73283C15.3334 2.65121 15.2811 2.57807 15.2152 2.51829C14.2904 1.67717 13.1949 1.04566 12.0035 0.666942C11.9189 0.639849 11.8294 0.631126 11.7411 0.641355C11.6528 0.651584 11.5677 0.680529 11.4915 0.72626L9.66972 1.81936C9.4456 1.80868 9.2205 1.80849 8.99696 1.81883L7.17369 0.724811C7.09742 0.679061 7.01227 0.650109 6.92393 0.639886C6.83558 0.629664 6.74607 0.638406 6.66137 0.66553C5.47056 1.04591 4.3759 1.67891 3.45222 2.52126C3.38642 2.58104 3.33413 2.65417 3.29884 2.73577C3.26355 2.81737 3.24607 2.90555 3.24756 2.99444L3.28331 5.11865C3.16215 5.30729 3.04943 5.50214 2.94647 5.701L1.08742 6.73303C1.00967 6.7762 0.942019 6.83546 0.888997 6.90685C0.835976 6.97825 0.7988 7.06013 0.779953 7.14704C0.513909 8.36851 0.514768 9.63302 0.782471 10.8541C0.801348 10.941 0.838537 11.0228 0.891557 11.0942C0.944577 11.1656 1.01221 11.2248 1.08994 11.2679L2.94743 12.2991C3.05023 12.4984 3.16257 12.6933 3.28335 12.882L3.24757 15.0079C3.24607 15.0969 3.26356 15.1851 3.29888 15.2667C3.3342 15.3483 3.38653 15.4215 3.45238 15.4812C4.37717 16.3224 5.47269 16.9539 6.66404 17.3326C6.74871 17.3597 6.83818 17.3684 6.92648 17.3582C7.01479 17.3479 7.09989 17.319 7.17613 17.2733L8.99787 16.1802C9.22195 16.1908 9.44701 16.191 9.67063 16.1807L11.4939 17.2747C11.5702 17.3205 11.6553 17.3494 11.7437 17.3596C11.832 17.3699 11.9215 17.3611 12.0062 17.334C13.197 16.9536 14.2917 16.3206 15.2154 15.4783C15.2812 15.4185 15.3335 15.3453 15.3687 15.2638C15.404 15.1822 15.4215 15.094 15.42 15.0051L15.3843 12.8809C15.5054 12.6922 15.6182 12.4974 15.7211 12.2985L17.5802 11.2665C17.6579 11.2233 17.7256 11.1641 17.7786 11.0927C17.8316 11.0213 17.8688 10.9394 17.8876 10.8525C18.1537 9.63101 18.1528 8.3665 17.8851 7.1454ZM12.7713 8.99976C12.7713 9.67964 12.5697 10.3442 12.192 10.9095C11.8143 11.4748 11.2774 11.9154 10.6493 12.1756C10.0211 12.4358 9.32998 12.5038 8.66317 12.3712C7.99637 12.2386 7.38386 11.9112 6.90312 11.4304C6.42238 10.9497 6.09499 10.3372 5.96235 9.67039C5.82971 9.00358 5.89779 8.31241 6.15796 7.68429C6.41814 7.05617 6.85873 6.51931 7.42403 6.14159C7.98932 5.76387 8.65392 5.56227 9.3338 5.56227C10.2452 5.56329 11.1189 5.92579 11.7633 6.57022C12.4078 7.21466 12.7703 8.0884 12.7713 8.99976Z"
        fill="#8E8F96" />
</svg>