<svg width="16" height="13" viewBox="0 0 16 13" fill="none" xmlns="http://www.w3.org/2000/svg">
<path fill-rule="evenodd" clip-rule="evenodd" d="M14.3367 11H2.83667C2.53667 11 2.33667 11.1 2.13667 11.3L0.33667 13V11V1C0.33667 0.4 0.73667 0 1.33667 0H14.3367C14.9367 0 15.3367 0.4 15.3367 1V10C15.3367 10.5 14.9367 11 14.3367 11ZM3.28667 4.09999C3.28667 3.79623 3.53291 3.54999 3.83667 3.54999H11.8367C12.1404 3.54999 12.3867 3.79623 12.3867 4.09999C12.3867 4.40374 12.1404 4.64999 11.8367 4.64999H3.83667C3.53291 4.64999 3.28667 4.40374 3.28667 4.09999ZM5.83667 6.44999C5.53291 6.44999 5.28667 6.69623 5.28667 6.99999C5.28667 7.30374 5.53291 7.54999 5.83667 7.54999H9.83667C10.1404 7.54999 10.3867 7.30374 10.3867 6.99999C10.3867 6.69623 10.1404 6.44999 9.83667 6.44999H5.83667Z" fill="#93A8C6"/>
</svg>
