<svg width="16" height="12" viewBox="0 0 16 12" fill="none" xmlns="http://www.w3.org/2000/svg">
<path d="M1.5794 0H13.7467C14.2503 0 14.6595 0.443955 14.6595 0.990234V3.22486H10.2919C9.9648 3.22486 9.64533 3.29417 9.34563 3.43282C9.05659 3.56485 8.79644 3.75629 8.57433 3.99723C8.35222 4.23819 8.17575 4.52042 8.05405 4.834C7.92778 5.15912 7.86237 5.50571 7.86237 5.86054V6.13946C7.86237 6.49429 7.92626 6.84087 8.05405 7.166C8.17575 7.47958 8.35224 7.76179 8.57433 8.00275C8.79646 8.24371 9.05659 8.43515 9.34563 8.56718C9.64533 8.70417 9.9648 8.77513 10.2919 8.77513H14.6595V11.0098C14.6595 11.556 14.2503 12 13.7467 12H1.5794C1.07586 12 0.666626 11.556 0.666626 11.0098V0.990234C0.666626 0.443972 1.07586 0 1.5794 0Z" fill="#225AAC"/>
<path d="M15.6666 7.04248C15.6666 7.45343 15.3608 7.78516 14.982 7.78516H14.6595H10.2918C9.45357 7.78516 8.77509 7.04908 8.77509 6.13972V5.8608C8.77509 4.95143 9.45358 4.21538 10.2918 4.21538H14.6595H14.982C15.3608 4.21538 15.6666 4.54711 15.6666 4.95805V7.04248ZM10.5398 5.12638C10.0941 5.12638 9.7335 5.5175 9.7335 6.00108C9.7335 6.48465 10.0941 6.87579 10.5398 6.87579C10.9855 6.87579 11.3461 6.48465 11.3461 6.00108C11.3461 5.5175 10.9855 5.12638 10.5398 5.12638Z" fill="#225AAC"/>
</svg>
