<svg width="17" height="13" viewBox="0 0 17 13" fill="none" xmlns="http://www.w3.org/2000/svg">
    <path
        d="M1.03448 -9.53674e-07H14.8241C15.3948 -9.53674e-07 15.8586 0.480951 15.8586 1.07275V3.4936H10.9086C10.5379 3.4936 10.1759 3.56868 9.83621 3.71888C9.50862 3.86192 9.21379 4.06932 8.96207 4.33033C8.71034 4.59137 8.51034 4.89712 8.37241 5.23683C8.22931 5.58905 8.15517 5.96452 8.15517 6.34892V6.65108C8.15517 7.03548 8.22759 7.41095 8.37241 7.76317C8.51034 8.10287 8.71036 8.40861 8.96207 8.66965C9.21381 8.93068 9.50862 9.13808 9.83621 9.28112C10.1759 9.42951 10.5379 9.50639 10.9086 9.50639H15.8586V11.9272C15.8586 12.519 15.3948 13 14.8241 13H1.03448C0.463793 13 0 12.519 0 11.9272V1.07275C0 0.480969 0.463793 -9.53674e-07 1.03448 -9.53674e-07Z"
        fill="#8E8F96" />
    <path
        d="M16.9998 7.62903C16.9998 8.07422 16.6532 8.43359 16.2239 8.43359H15.8584H10.9084C9.9584 8.43359 9.18945 7.63618 9.18945 6.65103V6.34888C9.18945 5.36373 9.95842 4.56633 10.9084 4.56633H15.8584H16.2239C16.6532 4.56633 16.9998 4.92571 16.9998 5.3709V7.62903ZM11.1895 5.55325C10.6843 5.55325 10.2757 5.97697 10.2757 6.50085C10.2757 7.02471 10.6843 7.44845 11.1895 7.44845C11.6946 7.44845 12.1032 7.02471 12.1032 6.50085C12.1032 5.97697 11.6946 5.55325 11.1895 5.55325Z"
        fill="#8E8F96" />
</svg>