<svg width="19" height="18" viewBox="0 0 19 18" fill="none" xmlns="http://www.w3.org/2000/svg">
<path d="M17.8851 7.14565C17.8662 7.05877 17.829 6.97692 17.776 6.90557C17.723 6.83421 17.6553 6.77498 17.5776 6.73183L15.7201 5.70068C15.6173 5.5014 15.505 5.30643 15.3842 5.11779L15.42 2.99182C15.4215 2.9029 15.404 2.81469 15.3687 2.73307C15.3333 2.65145 15.281 2.57831 15.2152 2.51853C14.2904 1.67741 13.1948 1.0459 12.0035 0.667186C11.9188 0.640093 11.8294 0.63137 11.741 0.641599C11.6527 0.651828 11.5676 0.680774 11.4914 0.726504L9.66966 1.81961C9.44555 1.80892 9.22044 1.80873 8.9969 1.81907L7.17363 0.725055C7.09736 0.679305 7.01221 0.650353 6.92387 0.64013C6.83552 0.629908 6.74601 0.63865 6.66131 0.665774C5.4705 1.04616 4.37584 1.67916 3.45216 2.52151C3.38636 2.58129 3.33407 2.65442 3.29878 2.73601C3.26349 2.81761 3.24601 2.9058 3.2475 2.99468L3.28325 5.1189C3.16209 5.30754 3.04937 5.50239 2.94641 5.70125L1.08736 6.73328C1.0096 6.77644 0.941958 6.8357 0.888936 6.9071C0.835915 6.97849 0.798739 7.06038 0.779892 7.14729C0.513848 8.36876 0.514707 9.63327 0.78241 10.8544C0.801287 10.9412 0.838476 11.0231 0.891496 11.0945C0.944516 11.1658 1.01215 11.225 1.08988 11.2682L2.94737 12.2993C3.05017 12.4986 3.16251 12.6936 3.28329 12.8822L3.24751 15.0082C3.24601 15.0971 3.2635 15.1853 3.29882 15.2669C3.33414 15.3486 3.38647 15.4217 3.45232 15.4815C4.37711 16.3226 5.47264 16.9541 6.66398 17.3328C6.74865 17.3599 6.83812 17.3686 6.92642 17.3584C7.01473 17.3482 7.09984 17.3192 7.17607 17.2735L8.99781 16.1804C9.22189 16.1911 9.44695 16.1912 9.67057 16.1809L11.4938 17.275C11.5701 17.3207 11.6553 17.3497 11.7436 17.3599C11.8319 17.3701 11.9215 17.3614 12.0062 17.3342C13.197 16.9539 14.2916 16.3209 15.2153 15.4785C15.2811 15.4187 15.3334 15.3456 15.3687 15.264C15.404 15.1824 15.4215 15.0942 15.42 15.0053L15.3842 12.8811C15.5054 12.6925 15.6181 12.4976 15.7211 12.2988L17.5801 11.2667C17.6579 11.2236 17.7255 11.1643 17.7785 11.0929C17.8316 11.0215 17.8687 10.9396 17.8876 10.8527C18.1536 9.63126 18.1528 8.36675 17.8851 7.14565ZM12.7712 9.00001C12.7712 9.67989 12.5696 10.3445 12.1919 10.9098C11.8142 11.4751 11.2773 11.9157 10.6492 12.1758C10.0211 12.436 9.32993 12.5041 8.66312 12.3715C7.99631 12.2388 7.3838 11.9114 6.90306 11.4307C6.42232 10.9499 6.09493 10.3374 5.96229 9.67064C5.82965 9.00383 5.89773 8.31266 6.1579 7.68454C6.41808 7.05642 6.85867 6.51955 7.42397 6.14184C7.98926 5.76412 8.65387 5.56251 9.33374 5.56251C10.2451 5.56354 11.1188 5.92604 11.7633 6.57047C12.4077 7.2149 12.7702 8.08865 12.7712 9.00001Z" fill="#00947B"/>
</svg>
