<svg width="16" height="18" viewBox="0 0 16 18" fill="none" xmlns="http://www.w3.org/2000/svg">
<path fill-rule="evenodd" clip-rule="evenodd" d="M15.1667 7.22925C15.1667 4.59588 15.1667 3.2792 14.5347 2.33336C14.2611 1.9239 13.9095 1.57233 13.5 1.29874C12.5542 0.666748 11.2375 0.666748 8.60416 0.666748H6.72916C4.09579 0.666748 2.77911 0.666748 1.83327 1.29874C1.4238 1.57233 1.07224 1.9239 0.798645 2.33336C0.166656 3.2792 0.166656 4.59588 0.166656 7.22925C0.166656 9.86261 0.166656 11.1793 0.798645 12.1251C1.07224 12.5346 1.4238 12.8862 1.83327 13.1598C2.65954 13.7119 3.76881 13.7816 5.79166 13.7905V13.7917L7.29398 16.7964C7.44753 17.1035 7.88578 17.1035 8.03933 16.7964L9.54166 13.7917V13.7905C11.5645 13.7816 12.6738 13.7119 13.5 13.1598C13.9095 12.8862 14.2611 12.5346 14.5347 12.1251C15.1667 11.1793 15.1667 9.86261 15.1667 7.22925ZM3.91752 8.16696C4.43529 8.16696 4.85502 7.74723 4.85502 7.22946C4.85502 6.7117 4.43529 6.29196 3.91752 6.29196C3.39975 6.29196 2.98002 6.7117 2.98002 7.22946C2.98002 7.74723 3.39975 8.16696 3.91752 8.16696ZM8.60502 7.22946C8.60502 7.74723 8.18529 8.16696 7.66752 8.16696C7.14975 8.16696 6.73002 7.74723 6.73002 7.22946C6.73002 6.7117 7.14975 6.29196 7.66752 6.29196C8.18529 6.29196 8.60502 6.7117 8.60502 7.22946ZM12.355 7.22946C12.355 7.74723 11.9353 8.16696 11.4175 8.16696C10.8998 8.16696 10.48 7.74723 10.48 7.22946C10.48 6.7117 10.8998 6.29196 11.4175 6.29196C11.9353 6.29196 12.355 6.7117 12.355 7.22946Z" fill="#00947B"/>
</svg>
