<svg width="14" height="14" viewBox="0 0 14 14" fill="none" xmlns="http://www.w3.org/2000/svg">
<path d="M12.25 13.1833H12.35V13.0833V12.5C12.35 11.3905 11.9093 10.3265 11.1247 9.54194C10.3402 8.75741 9.27616 8.31667 8.16667 8.31667H5.83333C4.72384 8.31667 3.6598 8.75741 2.87527 9.54194C2.09074 10.3265 1.65 11.3905 1.65 12.5V13.0833V13.1833H1.75H2.91667H3.01667V13.0833V12.5C3.01667 11.753 3.31342 11.0365 3.84165 10.5083C4.36988 9.98009 5.08631 9.68333 5.83333 9.68333H8.16667C8.91369 9.68333 9.63012 9.98009 10.1583 10.5083C10.6866 11.0365 10.9833 11.753 10.9833 12.5V13.0833V13.1833H11.0833H12.25ZM7 0.9C6.40336 0.9 5.82012 1.07692 5.32403 1.4084C4.82794 1.73988 4.44129 2.21101 4.21296 2.76224C3.98464 3.31346 3.9249 3.92001 4.0413 4.50519C4.1577 5.09036 4.44501 5.62788 4.86689 6.04977C5.28878 6.47166 5.8263 6.75897 6.41148 6.87537C6.99665 6.99177 7.6032 6.93203 8.15443 6.7037C8.70565 6.47538 9.17679 6.08873 9.50827 5.59264C9.83974 5.09655 10.0167 4.51331 10.0167 3.91667C10.0167 3.1166 9.69884 2.3493 9.13311 1.78356C8.56737 1.21783 7.80007 0.9 7 0.9ZM7 5.56667C6.67366 5.56667 6.35465 5.4699 6.08331 5.28859C5.81197 5.10729 5.60048 4.84959 5.4756 4.54809C5.35071 4.2466 5.31804 3.91484 5.3817 3.59477C5.44537 3.2747 5.60252 2.9807 5.83327 2.74994C6.06403 2.51918 6.35803 2.36204 6.6781 2.29837C6.99817 2.23471 7.32993 2.26738 7.63143 2.39227C7.93293 2.51715 8.19062 2.72863 8.37192 2.99998C8.55323 3.27132 8.65 3.59033 8.65 3.91667C8.65 4.35427 8.47616 4.77396 8.16673 5.08339C7.85729 5.39283 7.43761 5.56667 7 5.56667Z" fill="#1D2922" stroke="#1D2922" stroke-width="0.2"/>
</svg>
