<svg width="24" height="24" viewBox="0 0 24 24" fill="none" xmlns="http://www.w3.org/2000/svg">
<g clip-path="url(#clip0_55947_64660)">
<path fill-rule="evenodd" clip-rule="evenodd" d="M13.1537 16C13.0994 16.1185 13.0482 16.2398 13 16.3643V16H13.1537ZM23.9538 16H24V12.1286V11.8714V8H23.9538C23.8454 5.14334 23.4825 2.98178 22.2686 1.73143C20.6083 0.119551 17.4856 0.00810467 13 0.000541681V0H12.1286H11.8714H11V0.000543978C6.52138 0.00812723 3.39149 0.119714 1.73143 1.73143C0.517492 2.98178 0.154584 5.14334 0.0461526 8H0V11.8714V12.1286V16H0.0461526C0.154584 18.8567 0.517492 21.0182 1.73143 22.2686C3.39166 23.8804 6.51444 23.9919 11 23.9995V24H11.8714H12.1286H13V23.9995C17.4856 23.9919 20.6083 23.8804 22.2686 22.2686C23.4825 21.0182 23.8454 18.8567 23.9538 16ZM10.8449 16C10.8998 16.12 10.9514 16.2428 11 16.3688V16H10.8449ZM13 8H13.1537C13.0994 7.88148 13.0482 7.76016 13 7.63574V8ZM11 8H10.8463C10.9006 7.88148 10.9518 7.76016 11 7.63574V8Z" fill="#3C3D3D"/>
<path fill-rule="evenodd" clip-rule="evenodd" d="M19.3228 14.7108C19.3228 14.7108 20.8963 16.2472 21.2855 16.9581C21.2931 16.9684 21.299 16.9797 21.303 16.9918C21.4616 17.2544 21.5006 17.4603 21.4227 17.6123C21.2914 17.8634 20.8467 17.9894 20.6958 18H17.9148C17.7211 18 17.3183 17.95 16.8278 17.6152C16.4532 17.3564 16.0805 16.9302 15.7195 16.5136C15.1804 15.8951 14.7143 15.3582 14.2424 15.3582C14.1828 15.3581 14.1236 15.3679 14.0672 15.3871C13.7101 15.4987 13.2567 16.0018 13.2567 17.342C13.2567 17.7614 12.9219 18 12.6874 18H11.4136C10.9797 18 8.72016 17.8499 6.7166 15.7613C4.26152 13.2042 2.05653 8.0746 2.03512 8.02939C1.89791 7.69748 2.18595 7.51662 2.49733 7.51662H5.30563C5.68221 7.51662 5.80482 7.74174 5.89045 7.94376C5.98971 8.17562 6.35753 9.10303 6.96084 10.1449C7.93781 11.84 8.5382 12.5298 9.01793 12.5298C9.10805 12.5301 9.19666 12.5069 9.27482 12.4625C9.90148 12.1219 9.78471 9.90922 9.75552 9.45321C9.75552 9.3647 9.75455 8.46519 9.43343 8.03035C9.20378 7.71865 8.81261 7.59743 8.57615 7.55317C8.6394 7.46274 8.77368 7.32421 8.94592 7.24243C9.37505 7.03079 10.1506 7 10.9203 7H11.3475C12.1824 7.01154 12.3984 7.06446 12.702 7.14046C13.3131 7.28476 13.3248 7.67632 13.2712 9.00971C13.2557 9.39068 13.2391 9.81975 13.2391 10.3248C13.2391 10.4326 13.2343 10.5528 13.2343 10.675C13.2158 11.359 13.1915 12.1296 13.6799 12.4461C13.7433 12.4851 13.8165 12.5058 13.8911 12.5058C14.0604 12.5058 14.5674 12.5058 15.9423 10.1728C16.5457 9.14247 17.0127 7.92741 17.0448 7.83602C17.0721 7.78503 17.1538 7.64168 17.2531 7.58396C17.3237 7.54682 17.4028 7.52827 17.4827 7.53009H20.7863C21.1464 7.53009 21.3906 7.58396 21.4383 7.71865C21.5181 7.93703 21.4227 8.60373 19.9145 10.6202C19.6605 10.9559 19.4376 11.2465 19.2421 11.5004C17.8749 13.2744 17.8749 13.3639 19.3228 14.7108Z" fill="#FEFEFE"/>
</g>
<defs>
<clipPath id="clip0_55947_64660">
<rect width="24" height="24" rx="5.81818" fill="white"/>
</clipPath>
</defs>
</svg>
