<svg width="20" height="20" viewBox="0 0 20 20" fill="none" xmlns="http://www.w3.org/2000/svg">
<path d="M18.1908 0H1.80916C0.81 0 0 0.81 0 1.80916V18.1908C0 19.19 0.81 20 1.80916 20H18.1908C19.19 20 20 19.19 20 18.1908V1.80916C20 0.81 19.19 0 18.1908 0Z" fill="#225AAC"/>
<path d="M13.1863 10.5017L7.52505 13.2018C7.3742 13.2737 7.19995 13.1637 7.19995 12.9966V7.42776C7.19995 7.25827 7.37878 7.14843 7.52994 7.22504L13.1912 10.0939C13.3595 10.1791 13.3566 10.4205 13.1863 10.5017Z" fill="#225AAC"/>
<path d="M14.4431 4.7998H5.55675C3.81327 4.7998 2.3999 6.21317 2.3999 7.95665V12.3989C2.3999 14.1423 3.81327 15.5557 5.55675 15.5557H14.4431C16.1865 15.5557 17.5999 14.1423 17.5999 12.3989V7.95665C17.5999 6.21317 16.1865 4.7998 14.4431 4.7998ZM12.3081 10.3939L8.15169 12.3762C8.04094 12.4291 7.91301 12.3483 7.91301 12.2256V8.13701C7.91301 8.01257 8.0443 7.93192 8.15528 7.98817L12.3117 10.0944C12.4353 10.1571 12.4331 10.3343 12.3081 10.3939Z" fill="white"/>
</svg>
