<svg width="98" height="98" viewBox="0 0 98 98" fill="none" xmlns="http://www.w3.org/2000/svg">
    <path
        d="M49.0002 0C47.4146 0 46.1292 1.28548 46.1292 2.87109V21.3227C46.1292 22.9083 47.4146 24.1938 49.0002 24.1938C50.5859 24.1938 51.8713 22.9083 51.8713 21.3227V2.87109C51.8713 1.28548 50.5859 0 49.0002 0Z"
        fill="#33CC66" />
    <path opacity="0.3"
        d="M49.0002 73.8062C47.4146 73.8062 46.1292 75.0916 46.1292 76.6772V95.1286C46.1292 96.7142 47.4146 97.9997 49.0002 97.9997C50.5859 97.9997 51.8713 96.7142 51.8713 95.1286V76.6772C51.8713 75.0914 50.5859 73.8062 49.0002 73.8062Z"
        fill="#33CC66" />
    <path opacity="0.9"
        d="M37.6479 23.5953L28.4221 7.61576C27.6293 6.24242 25.8733 5.77194 24.5002 6.56494C23.127 7.35774 22.6565 9.1137 23.4493 10.4868L32.6751 26.4664C33.2068 27.3876 34.1719 27.9023 35.1642 27.9023C35.6513 27.9023 36.1449 27.7783 36.597 27.5172C37.9702 26.7244 38.4407 24.9684 37.6479 23.5953Z"
        fill="#33CC66" />
    <path opacity="0.2"
        d="M74.551 87.5134L65.3254 71.5342C64.5326 70.1609 62.7766 69.6904 61.4035 70.4834C60.0303 71.2762 59.5598 73.0322 60.3527 74.4053L69.5783 90.3845C70.11 91.3057 71.0751 91.8204 72.0673 91.8204C72.5544 91.8204 73.0481 91.6964 73.5002 91.4353C74.8733 90.6425 75.3438 88.8866 74.551 87.5134Z"
        fill="#33CC66" />
    <path opacity="0.8"
        d="M26.4666 32.6753L10.4868 23.4493C9.11332 22.6561 7.35774 23.1268 6.56493 24.5001C5.77213 25.8733 6.2426 27.6292 7.61575 28.422L23.5955 37.6482C24.0476 37.9093 24.5412 38.0333 25.0284 38.0333C26.0206 38.0333 26.9857 37.5184 27.5174 36.5972C28.3102 35.224 27.8397 33.4681 26.4666 32.6753Z"
        fill="#33CC66" />
    <path opacity="0.1"
        d="M90.3845 69.578L74.4052 60.3524C73.0316 59.5596 71.2759 60.0301 70.4833 61.4034C69.6905 62.7767 70.1609 64.5327 71.5341 65.3253L87.5134 74.5509C87.9657 74.812 88.4592 74.936 88.9463 74.936C89.9385 74.936 90.9038 74.4211 91.4353 73.5001C92.2281 72.1266 91.7577 70.3706 90.3845 69.578Z"
        fill="#33CC66" />
    <path opacity="0.7"
        d="M21.3228 46.1294H2.87109C1.28548 46.1294 0 47.4149 0 49.0005C0 50.5861 1.28548 51.8716 2.87109 51.8716H21.3228C22.9085 51.8716 24.1939 50.5861 24.1939 49.0005C24.1939 47.4149 22.9085 46.1294 21.3228 46.1294Z"
        fill="#33CC66" />
    <path opacity="0.05"
        d="M95.1288 46.1294H76.6776C75.092 46.1294 73.8065 47.4149 73.8065 49.0005C73.8065 50.5861 75.092 51.8716 76.6776 51.8716H95.1288C96.7144 51.8716 97.9999 50.5861 97.9999 49.0005C97.9999 47.4149 96.7144 46.1294 95.1288 46.1294Z"
        fill="#33CC66" />
    <path opacity="0.6"
        d="M27.5177 61.4034C26.7249 60.03 24.9693 59.5595 23.5957 60.3525L7.616 69.5783C6.24285 70.3711 5.77237 72.1271 6.56518 73.5002C7.0969 74.4215 8.06198 74.9361 9.05423 74.9361C9.54136 74.9361 10.035 74.8121 10.4871 74.551L26.4668 65.3253C27.84 64.5325 28.3105 62.7765 27.5177 61.4034Z"
        fill="#33CC66" />
    <path opacity="0.5"
        d="M36.597 70.4835C35.2239 69.6903 33.4677 70.161 32.6751 71.5343L23.4493 87.5138C22.6565 88.887 23.127 90.6429 24.5002 91.4358C24.9523 91.6968 25.4459 91.8209 25.933 91.8209C26.9253 91.8209 27.8905 91.306 28.4221 90.3849L37.6479 74.4054C38.4407 73.0322 37.9702 71.2763 36.597 70.4835Z"
        fill="#33CC66" />
    <path
        d="M73.5002 6.56502C72.1268 5.77184 70.3709 6.2425 69.5783 7.61584L60.3527 23.595C59.5597 24.9682 60.0301 26.7241 61.4035 27.5169C61.8556 27.778 62.3492 27.902 62.8363 27.902C63.8286 27.902 64.7937 27.3872 65.3254 26.4661L74.551 10.4869C75.3438 9.11379 74.8733 7.35783 73.5002 6.56502Z"
        fill="#33CC66" />
</svg>
