<svg width="77" height="70" viewBox="0 0 77 70" fill="none" xmlns="http://www.w3.org/2000/svg">
<path d="M48.4198 4.68942e-06C47.1998 -0.00121605 45.9915 0.23591 44.864 0.697833C43.7365 1.15976 42.7118 1.83742 41.8486 2.69211C40.9854 3.54679 40.3004 4.56174 39.833 5.67896C39.3656 6.79618 39.1247 7.99377 39.1243 9.20329C39.1231 10.4139 39.3627 11.6128 39.8294 12.7315C40.2961 13.8502 40.9807 14.8666 41.8441 15.7226C42.7075 16.5786 43.7328 17.2574 44.8611 17.7201C45.9894 18.1828 47.1987 18.4204 48.4198 18.4191C49.6398 18.4187 50.8477 18.18 51.9746 17.7165C53.1015 17.2531 54.1253 16.5741 54.9874 15.7182C55.8495 14.8624 56.533 13.8465 56.9989 12.7286C57.4648 11.6108 57.704 10.4128 57.7028 9.20329C57.7019 6.76267 56.7236 4.42226 54.9829 2.69648C53.2422 0.970713 50.8815 0.000823135 48.4198 4.68942e-06ZM24.5443 1.33803C23.5919 1.33799 22.6488 1.52395 21.7689 1.88527C20.889 2.24659 20.0895 2.77621 19.4161 3.44388C18.7427 4.11154 18.2085 4.90418 17.844 5.77654C17.4796 6.64889 17.292 7.58387 17.2921 8.52809C17.292 9.47231 17.4796 10.4073 17.844 11.2796C18.2085 12.152 18.7427 12.9446 19.4161 13.6123C20.0895 14.28 20.889 14.8096 21.7689 15.1709C22.6488 15.5322 23.5919 15.7182 24.5443 15.7181C25.4966 15.7181 26.4397 15.5322 27.3196 15.1709C28.1995 14.8095 28.9989 14.2799 29.6724 13.6123C30.3458 12.9446 30.88 12.152 31.2444 11.2796C31.6088 10.4073 31.7964 9.4723 31.7964 8.52809C31.7964 7.58388 31.6089 6.64891 31.2444 5.77656C30.88 4.90421 30.3458 4.11158 29.6724 3.44391C28.9989 2.77625 28.1995 2.24663 27.3196 1.8853C26.4397 1.52397 25.4966 1.33801 24.5443 1.33803ZM8.37482 16.4309C6.85132 16.4331 5.39105 17.035 4.31495 18.1042C3.23885 19.1734 2.63498 20.6225 2.63605 22.133C2.63499 23.6434 3.23887 25.0924 4.31497 26.1616C5.39107 27.2308 6.85133 27.8327 8.37482 27.835C9.13025 27.8355 9.87837 27.6884 10.5764 27.402C11.2744 27.1156 11.9087 26.6956 12.4428 26.1661C12.977 25.6365 13.4006 25.0077 13.6895 24.3156C13.9783 23.6236 14.1267 22.8819 14.1262 22.133C14.1267 21.384 13.9783 20.6423 13.6895 19.9502C13.4006 19.2582 12.977 18.6294 12.4428 18.0998C11.9087 17.5702 11.2744 17.1502 10.5764 16.8639C9.87838 16.5775 9.13025 16.4304 8.37482 16.4309ZM65.7369 17.9815C64.2578 17.9813 62.7931 18.2701 61.4266 18.8312C60.06 19.3923 58.8183 20.2148 57.7724 21.2517C56.7265 22.2887 55.8968 23.5197 55.3308 24.8745C54.7649 26.2294 54.4736 27.6815 54.4737 29.1479C54.4736 30.6144 54.7649 32.0665 55.3308 33.4213C55.8968 34.7762 56.7265 36.0072 57.7724 37.0442C58.8183 38.0811 60.06 38.9036 61.4265 39.4647C62.7931 40.0258 64.2578 40.3146 65.7369 40.3144C67.216 40.3146 68.6807 40.0258 70.0473 39.4647C71.4138 38.9036 72.6555 38.081 73.7014 37.0441C74.7473 36.0072 75.5769 34.7762 76.1429 33.4213C76.7089 32.0665 77.0001 30.6144 77 29.1479C77.0001 27.6815 76.7089 26.2294 76.1429 24.8746C75.5769 23.5197 74.7473 22.2887 73.7014 21.2518C72.6555 20.2148 71.4138 19.3923 70.0472 18.8312C68.6807 18.2701 67.216 17.9813 65.7369 17.9815ZM4.52813 34.6374C3.93322 34.6364 3.34396 34.7518 2.79413 34.977C2.2443 35.2022 1.74473 35.5329 1.32405 35.9499C0.903378 36.367 0.569873 36.8623 0.342664 37.4074C0.115455 37.9525 -0.000990216 38.5367 6.3428e-06 39.1265C0.000668316 39.7152 0.118337 40.2981 0.346289 40.8418C0.57424 41.3854 0.908008 41.8792 1.32852 42.2949C1.74903 42.7107 2.24804 43.0402 2.79705 43.2646C3.34605 43.4891 3.93428 43.6041 4.52813 43.6031C5.72524 43.6017 6.87293 43.1296 7.71941 42.2904C8.56588 41.4512 9.04202 40.3133 9.04336 39.1265C9.04435 38.5377 8.92833 37.9546 8.70193 37.4103C8.47553 36.866 8.14318 36.3713 7.72387 35.9545C7.30456 35.5376 6.80651 35.2067 6.25817 34.9807C5.70983 34.7547 5.12196 34.638 4.52813 34.6374ZM10.0272 51.3058C8.92737 51.3082 7.87332 51.7424 7.09564 52.5134C6.31797 53.2844 5.88 54.3295 5.87758 55.4198C5.87667 56.5124 6.31316 57.5606 7.0912 58.3343C7.86923 59.108 8.92519 59.5439 10.0272 59.5463C10.5739 59.5467 11.1153 59.4403 11.6205 59.2331C12.1256 59.0259 12.5846 58.7219 12.9712 58.3387C13.3578 57.9554 13.6643 57.5003 13.8733 56.9995C14.0823 56.4986 14.1897 55.9618 14.1892 55.4198C14.1868 54.3273 13.7471 53.2804 12.9668 52.5091C12.1864 51.7377 11.1291 51.305 10.0272 51.3058ZM22.892 62.4348C22.4645 62.434 22.041 62.5169 21.6458 62.6788C21.2506 62.8406 20.8916 63.0782 20.5893 63.378C20.2869 63.6777 20.0472 64.0336 19.884 64.4254C19.7207 64.8172 19.637 65.237 19.6378 65.6609C19.6396 66.5149 19.9834 67.3332 20.5937 67.9359C21.204 68.5385 22.0307 68.8762 22.892 68.8746C23.7511 68.8728 24.5746 68.5336 25.182 67.9313C25.7895 67.329 26.1316 66.5127 26.1333 65.6609C26.1349 64.807 25.7943 63.9875 25.1865 63.3825C24.5786 62.7775 23.7533 62.4366 22.892 62.4348ZM35.8577 65.786C35.5786 65.7868 35.3024 65.842 35.0448 65.9486C34.7873 66.0552 34.5534 66.2111 34.3566 66.4074C34.1599 66.6036 34.004 66.8364 33.898 67.0924C33.792 67.3483 33.7379 67.6225 33.7388 67.8992C33.7403 68.4559 33.964 68.9894 34.3611 69.383C34.7581 69.7767 35.2962 69.9985 35.8577 70C36.1368 70.0009 36.4134 69.9473 36.6716 69.8422C36.9298 69.7371 37.1646 69.5826 37.3625 69.3875C37.5604 69.1924 37.7177 68.9605 37.8252 68.7052C37.9327 68.4498 37.9885 68.1759 37.9892 67.8992C37.9901 67.6215 37.9356 67.3463 37.8288 67.0895C37.722 66.8327 37.5651 66.5993 37.3669 66.4029C37.1688 66.2065 36.9335 66.0509 36.6745 65.945C36.4155 65.8392 36.1379 65.7851 35.8577 65.786Z" fill="#00856E"/>
</svg>
