<svg width="100" height="129" viewBox="0 0 100 129" fill="none" xmlns="http://www.w3.org/2000/svg">
<path d="M69.3507 112.362C68.6495 112.607 68.0798 111.677 68.518 110.991L69.4822 109.571C72.6813 104.918 73.6893 98.4039 72.024 91.939C70.5778 86.2087 66.6774 81.6049 61.6815 79.5969C54.4944 76.7072 47.5702 78.8132 43.0125 83.6619C42.0045 84.6904 41.0842 85.8659 40.2954 87.1882C43.1439 79.7438 49.7614 74.5523 57.4744 74.5523C63.785 74.5523 68.6933 77.9806 72.769 82.6824C77.239 87.8739 82.1911 90.1758 85.96 90.1758C92.4021 90.1758 96.0833 86.4046 98.669 80.9192C98.7128 80.7723 98.7566 80.6254 98.8004 80.4784C99.5016 78.0296 98.669 75.14 97.2228 75.14C94.9439 75.14 94.1551 78.8132 88.94 78.8132C87.45 78.8132 85.9162 78.4214 84.5576 77.5888C82.0159 76.0705 80.1314 73.2789 79.6055 70.1443C79.1234 67.1568 80.0876 64.2671 80.0876 64.2671C85.6094 68.4791 92.3583 68.724 98.3622 64.9039C97.9678 61.5734 96.916 54.5698 92.1392 49.7211C90.0795 47.6641 87.3624 46.8804 84.5138 46.7825V46.4886C84.5138 43.2561 83.725 40.0727 82.1911 37.3789C81.49 36.1545 80.6573 35.0281 79.737 33.9996C79.4302 33.6567 78.7729 32.7262 78.3346 32.6772C78.3346 5.64204 64.7054 0.597449 62.558 0.00972838C62.4265 -0.0392483 62.3389 0.107679 62.4265 0.205632C65.4065 6.5726 61.9006 11.6662 51.1637 17.9842C40.8213 24.0083 39.4627 33.9506 39.4627 33.9506C39.4627 33.9506 38.9807 24.9878 46.3869 17.4944C43.0125 18.6209 41.0842 19.2576 37.9289 20.9717C34.423 22.8818 31.2238 25.3796 28.4629 28.4652C24.212 33.1669 21.1005 39.0931 19.3037 45.4111C18.5148 48.1538 17.8575 51.0924 17.6822 54.031C17.3316 50.5537 17.3754 47.0274 17.8575 43.55C18.5148 38.9952 19.8734 34.5873 21.9331 30.5712C22.9849 28.5142 24.3872 26.702 25.4828 24.694C23.3355 26.0163 21.3196 27.5346 19.3913 29.1998C11.7659 35.8117 5.89351 44.9703 2.69436 55.1575C-0.460972 65.2467 -0.811559 76.2664 1.46729 86.6005C5.4991 104.82 17.7698 119.709 33.5027 125.831C34.0724 126.076 34.6421 126.272 35.2118 126.468C35.5624 126.566 35.8691 126.712 36.2197 126.81C36.7456 127.006 37.3153 127.153 37.8412 127.3C38.8054 127.594 39.8133 127.839 40.8213 128.035C41.0842 128.084 41.3472 128.133 41.6101 128.182C42.2236 128.28 42.8372 128.378 43.4507 128.476C43.7136 128.525 43.9766 128.574 44.2395 128.574C44.2395 128.574 44.2395 128.574 44.2834 128.574C45.2037 128.72 46.124 128.769 47.0443 128.867C57.2991 129.504 67.4224 126.468 75.9681 120.541C81.2708 116.868 86.6612 112.46 88.5456 108.591C89.1592 107.318 86.9241 103.938 83.3744 103.84C82.1911 103.791 80.2191 104.477 79.1235 105.31C75.9681 107.661 73.8646 110.893 69.3507 112.362ZM24.0367 81.9477C19.4351 100.951 30.7417 114.713 30.7856 114.811C30.6979 114.762 13.1245 100.755 20.8375 78.0786C27.4111 58.7818 50.6817 58.9777 50.857 58.9777C50.7255 59.0266 28.9888 61.5734 24.0367 81.9477ZM60.06 57.8022C59.7532 57.8512 59.6656 57.3614 59.9285 57.2635C63.2153 55.9901 68.4304 53.9331 69.6575 53.1005C70.6216 52.4148 70.3586 51.0434 71.0598 46.5866C72.4622 37.5748 78.2908 32.7262 78.3346 32.7262C78.2032 32.971 71.0598 47.713 76.6255 59.4185C76.8446 59.9082 76.3625 60.349 75.9681 60.0551C73.0757 57.8022 65.8886 56.9207 60.06 57.8022Z" fill="#FF5C00"/>
</svg>
