<svg width="29" height="33" viewBox="0 0 29 33" fill="none" xmlns="http://www.w3.org/2000/svg">
    <path
        d="M19.9922 28.3516C19.7983 28.4122 19.6407 28.1819 19.7619 28.0122L20.0286 27.6606C20.9134 26.5091 21.1922 24.897 20.7316 23.297C20.3316 21.8788 19.2528 20.7394 17.871 20.2424C15.8831 19.5273 13.968 20.0485 12.7073 21.2485C12.4286 21.503 12.174 21.794 11.9558 22.1212C12.7437 20.2788 14.574 18.9939 16.7074 18.9939C18.4528 18.9939 19.8104 19.8424 20.9377 21.0061C22.1741 22.2909 23.5438 22.8606 24.5862 22.8606C26.368 22.8606 27.3862 21.9273 28.1013 20.5697C28.1135 20.5333 28.1256 20.497 28.1377 20.4606C28.3317 19.8545 28.1013 19.1394 27.7013 19.1394C27.071 19.1394 26.8529 20.0485 25.4104 20.0485C24.9983 20.0485 24.5741 19.9515 24.1983 19.7455C23.4953 19.3697 22.9741 18.6788 22.8286 17.903C22.6953 17.1636 22.9619 16.4485 22.9619 16.4485C24.4892 17.4909 26.3559 17.5515 28.0165 16.6061C27.9074 15.7818 27.6165 14.0485 26.2953 12.8485C25.7256 12.3394 24.9741 12.1454 24.1862 12.1212V12.0485C24.1862 11.2485 23.968 10.4606 23.5438 9.7939C23.3498 9.49087 23.1195 9.21208 22.865 8.95753C22.7801 8.87268 22.5983 8.64238 22.4771 8.63026C22.4771 1.93932 18.7074 0.690832 18.1134 0.545376C18.0771 0.533255 18.0528 0.569618 18.0771 0.593861C18.9013 2.16963 17.9316 3.43024 14.9619 4.99388C12.1013 6.48479 11.7255 8.94541 11.7255 8.94541C11.7255 8.94541 11.5922 6.72722 13.6407 4.87267C12.7073 5.15145 12.174 5.30903 11.3013 5.73328C10.3316 6.20601 9.44673 6.82419 8.68309 7.58783C7.50732 8.75147 6.64671 10.2181 6.14974 11.7818C5.93156 12.4606 5.74974 13.1879 5.70125 13.9151C5.60428 13.0545 5.61641 12.1818 5.74974 11.3212C5.93156 10.1939 6.30732 9.10299 6.87702 8.10904C7.16793 7.59995 7.5558 7.15146 7.85883 6.65449C7.26489 6.98177 6.70732 7.35752 6.17398 7.76965C4.06488 9.40602 2.44063 11.6727 1.55578 14.1939C0.683047 16.6909 0.586078 19.4182 1.21638 21.9758C2.33154 26.4849 5.7255 30.1697 10.077 31.6849C10.2346 31.7455 10.3922 31.794 10.5498 31.8425C10.6467 31.8667 10.7316 31.9031 10.8285 31.9273C10.974 31.9758 11.1316 32.0122 11.277 32.0485C11.5437 32.1213 11.8225 32.1819 12.1013 32.2304C12.174 32.2425 12.2467 32.2546 12.3195 32.2667C12.4892 32.291 12.6589 32.3152 12.8286 32.3395C12.9013 32.3516 12.974 32.3637 13.0467 32.3637C13.0467 32.3637 13.0467 32.3637 13.0589 32.3637C13.3134 32.4001 13.568 32.4122 13.8225 32.4364C16.6589 32.594 19.4589 31.8425 21.8225 30.3758C23.2892 29.4667 24.7801 28.3758 25.3013 27.4182C25.471 27.1031 24.8529 26.2667 23.871 26.2425C23.5438 26.2303 22.9983 26.4 22.6953 26.6061C21.8225 27.1879 21.2407 27.9879 19.9922 28.3516ZM7.45883 20.8242C6.1861 25.5273 9.31339 28.9334 9.32551 28.9576C9.30127 28.9455 4.44064 25.4788 6.57398 19.8667C8.39217 15.0909 14.8286 15.1394 14.8771 15.1394C14.8407 15.1515 8.82854 15.7818 7.45883 20.8242ZM17.4225 14.8485C17.3377 14.8606 17.3134 14.7394 17.3862 14.7151C18.2952 14.4 19.7377 13.8909 20.0771 13.6848C20.3437 13.5151 20.271 13.1757 20.465 12.0727C20.8528 9.84238 22.465 8.64238 22.4771 8.64238C22.4407 8.70299 20.465 12.3515 22.0044 15.2485C22.065 15.3697 21.9316 15.4788 21.8225 15.406C21.0225 14.8485 19.0346 14.6303 17.4225 14.8485Z"
        fill="#FF4700" />
</svg>
