<?xml version="1.0" encoding="utf-8"?>
<!-- Generator: Adobe Illustrator 21.0.2, SVG Export Plug-In . SVG Version: 6.00 Build 0)  -->
<svg version="1.1" baseProfile="basic" id="Слой_1"
	 xmlns="http://www.w3.org/2000/svg" xmlns:xlink="http://www.w3.org/1999/xlink" x="0px" y="0px" viewBox="0 0 2363.5 881.8"
	 xml:space="preserve">
<g>
	<g>
		<path fill="#FF4700" class="st0" d="M796.2,516.1c-1.6,0.5-2.9-1.4-1.9-2.8l2.2-2.9c7.3-9.5,9.6-22.8,5.8-36c-3.3-11.7-12.2-21.1-23.6-25.2
			c-16.4-5.9-32.2-1.6-42.6,8.3c-2.3,2.1-4.4,4.5-6.2,7.2c6.5-15.2,21.6-25.8,39.2-25.8c14.4,0,25.6,7,34.9,16.6
			c10.2,10.6,21.5,15.3,30.1,15.3c14.7,0,23.1-7.7,29-18.9c0.1-0.3,0.2-0.6,0.3-0.9c1.6-5-0.3-10.9-3.6-10.9c-5.2,0-7,7.5-18.9,7.5
			c-3.4,0-6.9-0.8-10-2.5c-5.8-3.1-10.1-8.8-11.3-15.2c-1.1-6.1,1.1-12,1.1-12c12.6,8.6,28,9.1,41.7,1.3c-0.9-6.8-3.3-21.1-14.2-31
			c-4.7-4.2-10.9-5.8-17.4-6v-0.6c0-6.6-1.8-13.1-5.3-18.6c-1.6-2.5-3.5-4.8-5.6-6.9c-0.7-0.7-2.2-2.6-3.2-2.7c0,0,0,0,0,0
			c0-55.2-31.1-65.5-36-66.7c-0.3-0.1-0.5,0.2-0.3,0.4c6.8,13-1.2,23.4-25.7,36.3C731.1,335.7,728,356,728,356s-1.1-18.3,15.8-33.6
			c-7.7,2.3-12.1,3.6-19.3,7.1c-8,3.9-15.3,9-21.6,15.3c-9.7,9.6-16.8,21.7-20.9,34.6c-1.8,5.6-3.3,11.6-3.7,17.6
			c-0.8-7.1-0.7-14.3,0.4-21.4c1.5-9.3,4.6-18.3,9.3-26.5c2.4-4.2,5.6-7.9,8.1-12c-4.9,2.7-9.5,5.8-13.9,9.2
			c-17.4,13.5-30.8,32.2-38.1,53c-7.2,20.6-8,43.1-2.8,64.2c9.2,37.2,37.2,67.6,73.1,80.1c0,0,0,0,0,0c1.3,0.5,2.6,0.9,3.9,1.3
			c0.8,0.2,1.5,0.5,2.3,0.7c1.2,0.4,2.5,0.7,3.7,1c2.2,0.6,4.5,1.1,6.8,1.5c0.6,0.1,1.2,0.2,1.8,0.3c1.4,0.2,2.8,0.4,4.2,0.6
			c0.6,0.1,1.2,0.2,1.8,0.2c0,0,0,0,0.1,0c2.1,0.3,4.2,0.4,6.3,0.6c23.4,1.3,46.5-4.9,66-17c12.1-7.5,24.4-16.5,28.7-24.4
			c1.4-2.6-3.7-9.5-11.8-9.7c-2.7-0.1-7.2,1.3-9.7,3C811.3,506.5,806.5,513.1,796.2,516.1z M692.8,454
			c-10.5,38.8,15.3,66.9,15.4,67.1c-0.2-0.1-40.3-28.7-22.7-75c15-39.4,68.1-39,68.5-39C753.7,407.2,704.1,412.4,692.8,454z
			 M775,404.7c-0.7,0.1-0.9-0.9-0.3-1.1c7.5-2.6,19.4-6.8,22.2-8.5c2.2-1.4,1.6-4.2,3.2-13.3c3.2-18.4,16.5-28.3,16.6-28.3
			c-0.3,0.5-16.6,30.6-3.9,54.5c0.5,1-0.6,1.9-1.5,1.3C804.7,404.7,788.3,402.9,775,404.7z"/>
	</g>
	<g>
		<g>
			<path fill="#FF4700" class="st0" d="M974,440.4c5.7,3.2,10.2,7.7,13.5,13.4c3.2,5.7,4.9,12.4,4.9,19.9c0,7.5-1.6,14.2-4.9,19.9
				c-3.2,5.8-7.7,10.3-13.5,13.5c-5.7,3.2-12.2,4.8-19.4,4.8c-5.5,0-10.6-1.1-15.2-3.2c-4.6-2.2-8.4-5.3-11.4-9.4V511h-13V406.5
				h13.5v41.1c3-3.9,6.8-6.9,11.3-8.9c4.5-2,9.4-3,14.8-3C961.8,435.6,968.3,437.2,974,440.4z M966.3,496.7c3.8-2.2,6.8-5.3,9-9.3
				c2.2-4,3.3-8.6,3.3-13.7c0-5.2-1.1-9.7-3.3-13.7c-2.2-4-5.2-7.1-9-9.2c-3.8-2.2-8.1-3.2-12.9-3.2c-4.7,0-9,1.1-12.8,3.2
				c-3.9,2.2-6.9,5.2-9,9.2c-2.2,4-3.2,8.6-3.2,13.7c0,5.2,1.1,9.7,3.2,13.7c2.2,4,5.2,7.1,9,9.3c3.9,2.2,8.1,3.3,12.8,3.3
				C958.2,500,962.5,498.9,966.3,496.7z"/>
			<path fill="#FF4700" class="st0" d="M954.6,513.2c-5.7,0-11-1.1-15.8-3.4c-3.6-1.7-6.8-4-9.5-6.9v9.4h-15.6V405.1h16.2V444
				c2.7-2.8,5.8-5,9.4-6.6c4.7-2.1,9.8-3.1,15.3-3.1c7.4,0,14.2,1.7,20.1,5l0,0c5.9,3.3,10.6,8,14,13.9c3.3,5.9,5,12.8,5,20.5
				c0,7.7-1.7,14.6-5,20.6c-3.3,6-8,10.7-14,14C968.7,511.5,962,513.2,954.6,513.2z M926.6,495l2.4,3.3c2.9,3.9,6.5,7,10.9,9
				c4.4,2.1,9.3,3.1,14.6,3.1c7,0,13.3-1.6,18.8-4.6c5.5-3.1,9.8-7.4,12.9-12.9c3.1-5.5,4.7-12,4.7-19.3c0-7.2-1.6-13.7-4.7-19.2
				c-3.1-5.5-7.5-9.8-12.9-12.9c-5.5-3.1-11.8-4.6-18.8-4.6c-5.1,0-9.9,1-14.2,2.9c-4.3,1.9-7.9,4.8-10.8,8.5l-2.4,3.2v-43.8h-10.8
				v101.9h10.3V495z M953.4,501.3c-4.9,0-9.4-1.2-13.5-3.5c-4.1-2.3-7.3-5.6-9.5-9.8c-2.3-4.2-3.4-9-3.4-14.4
				c0-5.4,1.1-10.2,3.4-14.4c2.3-4.2,5.5-7.5,9.5-9.8c4-2.3,8.6-3.4,13.5-3.4c5,0,9.6,1.1,13.6,3.4c4,2.3,7.2,5.6,9.5,9.7
				c2.3,4.2,3.5,9,3.5,14.4c0,5.4-1.2,10.2-3.5,14.4c-2.3,4.2-5.5,7.5-9.5,9.8C963,500.2,958.4,501.3,953.4,501.3z M953.4,448.8
				c-4.4,0-8.5,1-12.2,3.1c-3.6,2-6.5,5-8.5,8.7c-2,3.8-3.1,8.2-3.1,13.1c0,4.9,1,9.3,3.1,13.1c2,3.8,4.9,6.7,8.5,8.8
				c3.6,2.1,7.7,3.1,12.2,3.1c4.5,0,8.6-1.1,12.2-3.1l0,0c3.6-2.1,6.4-5,8.5-8.8c2.1-3.8,3.1-8.2,3.1-13.1c0-4.9-1.1-9.3-3.1-13.1
				c-2.1-3.8-4.9-6.7-8.5-8.7C962.1,449.8,958,448.8,953.4,448.8z"/>
		</g>
		<g>
			<path fill="#FF4700" class="st0" d="M1069.7,492.2l4.2,10.5c-7.3,6.6-16.7,9.9-28.3,9.9c-12.3,0-22-3.6-29.3-10.7c-7.4-7.1-11-16.7-11-28.6
				c0-11.3,3.5-20.6,10.4-28.1c6.8-7.5,16.3-11.2,28.5-11.2c10,0,18.4,3.2,24.9,9.7c6.7,6.4,10,14.6,10,24.8c0,3.2-0.3,6.3-0.8,9
				h-57.9c0.6,7,3.2,12.6,8,16.6c4.7,4,10.9,6,18.3,6C1056.4,500.1,1064.1,497.5,1069.7,492.2z M1043.4,446.5
				c-6.6,0-12,1.8-16.3,5.5c-4.3,3.7-6.8,8.5-7.6,14.6h45.7c-0.3-6.2-2.4-11.2-6.3-14.7C1055.1,448.3,1049.9,446.5,1043.4,446.5z"/>
			<path fill="#FF4700" class="st0" d="M1045.6,514c-12.6,0-22.8-3.7-30.2-11.1c-7.6-7.4-11.4-17.3-11.4-29.6c0-11.6,3.6-21.3,10.7-29
				c7-7.7,16.9-11.6,29.4-11.6c10.4,0,19.1,3.4,25.9,10.1c6.9,6.6,10.4,15.2,10.4,25.7c0,3.3-0.3,6.4-0.9,9.3l-0.2,1.1h-57.5
				c0.8,6,3.2,10.7,7.3,14.2c4.5,3.8,10.3,5.7,17.5,5.7c9.4,0,16.9-2.5,22.2-7.5l1.4-1.3l5.3,13.2l-0.7,0.6
				C1067.3,510.6,1057.5,514,1045.6,514z M1044.1,435.3c-11.7,0-21,3.6-27.5,10.8c-6.7,7.2-10,16.4-10,27.2
				c0,11.5,3.6,20.8,10.6,27.7c7,6.9,16.5,10.3,28.4,10.3c10.8,0,19.8-3,26.7-8.9l-3.1-7.9c-5.7,4.6-13.3,7-22.6,7
				c-7.8,0-14.2-2.1-19.2-6.3c-5-4.2-7.8-10.1-8.4-17.5l-0.1-1.4h58.3c0.4-2.4,0.6-5,0.6-7.7c0-9.7-3.2-17.7-9.6-23.8
				C1061.8,438.5,1053.7,435.3,1044.1,435.3z M1066.6,468H1018l0.2-1.5c0.8-6.3,3.5-11.5,8.1-15.4c4.5-3.9,10.3-5.8,17.2-5.8
				c6.8,0,12.3,1.9,16.4,5.7c4.1,3.8,6.4,9.1,6.7,15.6L1066.6,468z M1021.1,465.3h42.7c-0.5-5.2-2.5-9.4-5.7-12.4
				c-3.6-3.3-8.5-5-14.6-5c-6.2,0-11.4,1.7-15.5,5.2C1024.3,456.2,1022,460.3,1021.1,465.3z"/>
		</g>
		<g>
			<path fill="#FF4700" class="st0" d="M1113.7,511h-13.4V393.8h13.4V511z"/>
			<path fill="#FF4700" class="st0" d="M1115.1,512.3H1099V392.5h16.1V512.3z M1101.7,509.7h10.7V395.2h-10.7V509.7z"/>
		</g>
		<g>
			<path fill="#FF4700" class="st0" d="M1154.2,511h-13.4V393.8h13.4V511z M1189.1,435.7h16.1l-32.6,35l16.7,17.9c7.6,8.6,13.9,11.9,19.1,9.9
				l-0.2,12.6c-5.1,1.6-10.4,1-15.7-1.8s-10.2-6.9-14.4-12.6l-20.9-24.9L1189.1,435.7z"/>
			<path fill="#FF4700" class="st0" d="M1202.5,513.2c-3.5,0-7.1-0.9-10.7-2.8c-5.5-2.8-10.5-7.2-14.9-13l-21.4-25.5v40.4h-16.1V392.5h16.1v78.9
				l32.9-37h19.8l-33.9,36.3l15.9,17c7.2,8.1,13.1,11.3,17.6,9.5l1.9-0.7l-0.2,15.5l-0.9,0.3
				C1206.5,512.9,1204.5,513.2,1202.5,513.2z M1158.8,471.7l20.2,24.1c4.1,5.6,8.8,9.7,14,12.3c4.7,2.4,9.3,3,13.8,1.9l0.1-9.8
				c-5.4,1-11.5-2.6-18.7-10.8l-17.6-18.8L1202,437h-12.4L1158.8,471.7z M1142.2,509.7h10.7V395.2h-10.7V509.7z"/>
		</g>
		<g>
			<path fill="#FF4700" class="st0" d="M1288.8,511h-13.4v-7.9c-6.4,6.4-14.1,9.5-23.3,9.5c-11.4,0-20.5-3.6-27.3-10.7c-6.7-7.1-10-16.7-10-28.6
				c0-11,4-20.4,12.1-28c8.1-7.6,18.2-11.4,30.3-11.4c12.1,0,22.6,2.8,31.6,8.5V511z M1254.3,500.1c3.9,0,7.8-0.9,11.6-2.8
				c3.9-1.9,7-4.2,9.5-7v-38.8c-5.8-3.2-11.9-4.9-18.4-4.9c-8.3,0-15,2.7-20.3,8c-5.1,5.1-7.7,11.6-7.7,19.4c0,8,2.3,14.4,6.9,19.1
				C1240.5,497.8,1246.6,500.1,1254.3,500.1z"/>
			<path fill="#FF4700" class="st0" d="M1252.2,514c-11.7,0-21.2-3.7-28.3-11.1c-6.9-7.4-10.4-17.3-10.4-29.5c0-11.4,4.2-21.1,12.5-28.9
				c8.4-7.8,18.9-11.7,31.2-11.7c12.3,0,23.1,2.9,32.4,8.7l0.6,0.4v70.5h-16.1v-6.2C1267.9,511.4,1260.6,514,1252.2,514z
				 M1257.2,435.3c-11.6,0-21.5,3.7-29.4,11c-7.7,7.3-11.6,16.4-11.6,27c0,11.5,3.3,20.9,9.7,27.7c6.5,6.8,15.4,10.3,26.3,10.3
				c8.7,0,16.2-3.1,22.3-9.1l2.3-2.3v9.8h10.7v-66.4C1278.8,438,1268.6,435.3,1257.2,435.3z M1254.3,501.5c-8,0-14.6-2.5-19.4-7.4
				c-4.8-4.9-7.2-11.7-7.2-20c0-8.1,2.7-15,8.1-20.4c5.5-5.6,12.6-8.4,21.2-8.4c6.7,0,13.1,1.7,19.1,5l0.7,0.4v40.1l-0.3,0.4
				c-2.6,2.9-5.9,5.4-9.9,7.3C1262.6,500.4,1258.4,501.5,1254.3,501.5z M1257,447.9c-7.8,0-14.3,2.6-19.3,7.6
				c-4.9,4.9-7.3,11.1-7.3,18.5c0,7.6,2.2,13.7,6.5,18.1c4.3,4.4,10.2,6.6,17.5,6.6c3.7,0,7.4-0.9,11-2.7c3.5-1.7,6.4-3.9,8.7-6.3
				v-37.5C1268.7,449.3,1263,447.9,1257,447.9z"/>
		</g>
		<g>
			<path fill="#FF4700" class="st0" d="M1408.7,490.4l6.4,9.7c-6.5,8.4-16.1,12.6-29,12.6c-12.1,0-21.8-3.6-29.3-10.7c-7.4-7.1-11-16.7-11-28.6
				c0-11,3.6-20.4,10.9-28c7.3-7.6,16.3-11.4,27.3-11.4c13.2,0,23,3.3,29.6,9.9l-6.2,10.5c-5.8-5.2-13-7.9-21.6-7.9
				c-7,0-13.1,2.6-18.2,7.7c-5,5-7.5,11.4-7.5,19.1c0,8.1,2.6,14.6,7.7,19.4c5.2,4.9,11.7,7.4,19.4,7.4
				C1395.8,500.1,1403,496.9,1408.7,490.4z"/>
			<path fill="#FF4700" class="st0" d="M1386.1,514c-12.4,0-22.5-3.7-30.2-11.1c-7.6-7.4-11.5-17.3-11.5-29.6c0-11.4,3.8-21.1,11.3-28.9
				c7.5-7.8,17-11.8,28.3-11.8c13.5,0,23.8,3.5,30.6,10.3l0.7,0.7l-7.6,12.9l-1.2-1.1c-5.5-5-12.5-7.5-20.7-7.5
				c-6.6,0-12.5,2.5-17.3,7.3c-4.7,4.7-7.1,10.8-7.1,18.1c0,7.7,2.4,13.9,7.3,18.4c5,4.6,11.2,7,18.5,7c8.3,0,15.2-3.1,20.6-9.3
				l1.2-1.3l7.8,12l-0.6,0.8C1409.4,509.6,1399.3,514,1386.1,514z M1383.9,435.3c-10.5,0-19.4,3.7-26.3,11c-7,7.3-10.5,16.4-10.5,27
				c0,11.5,3.6,20.8,10.6,27.7c7.2,6.9,16.7,10.3,28.4,10.3c11.9,0,21.1-3.8,27.3-11.3l-4.9-7.5c-5.7,5.9-12.9,8.9-21.4,8.9
				c-8,0-14.9-2.6-20.3-7.7c-5.4-5-8.1-11.9-8.1-20.4c0-8,2.7-14.8,7.9-20c5.4-5.4,11.8-8.1,19.2-8.1c8.3,0,15.4,2.4,21.3,7.1
				l4.8-8.3C1405.5,438.3,1396.2,435.3,1383.9,435.3z"/>
		</g>
		<g>
			<path fill="#FF4700" class="st0" d="M1445.8,511h-13.4v-75.3h13.4v8.9c4.5-6.8,10.8-10.2,18.9-10.2c5.2,0,9.1,0.9,11.7,2.8l-4.7,12.6
				c-3.2-1.9-6.6-2.8-10.2-2.8c-6.8,0-12.1,3.6-15.7,10.7V511z"/>
			<path fill="#FF4700" class="st0" d="M1447.2,512.3h-16.1v-78h16.1v6.3c4.5-5,10.4-7.6,17.6-7.6c5.5,0,9.7,1,12.5,3.1l0.8,0.6l-5.6,15l-1.4-0.8
				c-3-1.8-6.2-2.7-9.5-2.7c-6.2,0-10.9,3.2-14.4,9.7V512.3z M1433.8,509.7h10.7v-52.4l0.1-0.3c3.9-7.6,9.6-11.4,16.9-11.4
				c3.3,0,6.5,0.8,9.5,2.3l3.8-10.1c-2.3-1.4-5.7-2-10.1-2c-7.7,0-13.6,3.1-17.8,9.6l-2.5,3.7v-12h-10.7V509.7z"/>
		</g>
		<g>
			<path fill="#FF4700" class="st0" d="M1548.8,492.2l4.2,10.5c-7.3,6.6-16.7,9.9-28.3,9.9c-12.3,0-22-3.6-29.3-10.7c-7.4-7.1-11-16.7-11-28.6
				c0-11.3,3.5-20.6,10.4-28.1c6.8-7.5,16.3-11.2,28.5-11.2c10,0,18.4,3.2,24.9,9.7c6.7,6.4,10,14.6,10,24.8c0,3.2-0.3,6.3-0.8,9
				h-57.9c0.6,7,3.2,12.6,8,16.6c4.7,4,10.9,6,18.3,6C1535.5,500.1,1543.2,497.5,1548.8,492.2z M1522.5,446.5
				c-6.6,0-12,1.8-16.3,5.5c-4.3,3.7-6.8,8.5-7.6,14.6h45.7c-0.3-6.2-2.4-11.2-6.3-14.7C1534.1,448.3,1529,446.5,1522.5,446.5z"/>
			<path fill="#FF4700" class="st0" d="M1524.7,514c-12.6,0-22.8-3.7-30.2-11.1c-7.6-7.4-11.4-17.3-11.4-29.6c0-11.6,3.6-21.3,10.7-29
				c7-7.7,16.9-11.6,29.4-11.6c10.4,0,19.1,3.4,25.9,10.1c6.9,6.6,10.4,15.2,10.4,25.7c0,3.3-0.3,6.4-0.9,9.3l-0.2,1.1h-57.5
				c0.8,6,3.2,10.7,7.3,14.2c4.5,3.8,10.3,5.7,17.5,5.7c9.4,0,16.9-2.5,22.2-7.5l1.4-1.3l5.3,13.2l-0.7,0.6
				C1546.4,510.6,1536.6,514,1524.7,514z M1523.2,435.3c-11.7,0-21,3.6-27.5,10.8c-6.7,7.2-10,16.4-10,27.2
				c0,11.5,3.6,20.8,10.6,27.7c7,6.9,16.5,10.3,28.4,10.3c10.8,0,19.8-3,26.7-8.9l-3.1-7.9c-5.7,4.6-13.3,7-22.6,7
				c-7.8,0-14.2-2.1-19.2-6.3c-5-4.2-7.8-10.1-8.4-17.5l-0.1-1.4h58.3c0.4-2.4,0.6-5,0.6-7.7c0-9.7-3.2-17.7-9.6-23.8
				C1540.9,438.5,1532.8,435.3,1523.2,435.3z M1545.7,468H1497l0.2-1.5c0.8-6.3,3.5-11.5,8.1-15.4c4.5-3.9,10.3-5.8,17.2-5.8
				c6.8,0,12.3,1.9,16.4,5.7c4.1,3.8,6.4,9.1,6.7,15.6L1545.7,468z M1500.1,465.3h42.7c-0.5-5.2-2.5-9.4-5.7-12.4
				c-3.6-3.3-8.5-5-14.6-5c-6.2,0-11.4,1.7-15.5,5.2C1503.4,456.2,1501.1,460.3,1500.1,465.3z"/>
		</g>
		<g>
			<path fill="#FF4700" class="st0" d="M1647.6,406.5V511h-13v-11.8c-3,4.1-6.8,7.3-11.4,9.4c-4.6,2.2-9.7,3.2-15.2,3.2c-7.2,0-13.7-1.6-19.4-4.8
				c-5.7-3.2-10.2-7.7-13.5-13.5c-3.2-5.8-4.9-12.4-4.9-19.9c0-7.5,1.6-14.1,4.9-19.9c3.2-5.7,7.7-10.2,13.5-13.4
				c5.7-3.2,12.2-4.8,19.4-4.8c5.4,0,10.3,1,14.8,3c4.5,2,8.3,5,11.3,8.9v-41.1H1647.6z M1622,496.7c3.9-2.2,6.9-5.3,9-9.3
				c2.2-4,3.2-8.6,3.2-13.7c0-5.2-1.1-9.7-3.2-13.7c-2.2-4-5.2-7.1-9-9.2c-3.9-2.2-8.1-3.2-12.8-3.2c-4.8,0-9.1,1.1-12.9,3.2
				c-3.8,2.2-6.8,5.2-9,9.2c-2.2,4-3.3,8.6-3.3,13.7c0,5.2,1.1,9.7,3.3,13.7c2.2,4,5.2,7.1,9,9.3c3.8,2.2,8.1,3.3,12.9,3.3
				C1613.8,500,1618.1,498.9,1622,496.7z"/>
			<path fill="#FF4700" class="st0" d="M1608,513.2c-7.4,0-14.2-1.7-20.1-5c-5.9-3.3-10.6-8-14-14c-3.3-6-5-12.9-5-20.6c0-7.7,1.7-14.6,5-20.5
				c3.3-5.9,8-10.6,14-13.9c5.9-3.3,12.7-5,20.1-5c5.5,0,10.7,1.1,15.3,3.1c3.6,1.6,6.7,3.8,9.4,6.6v-38.9h16.2v107.2h-15.6v-9.4
				c-2.7,2.9-5.9,5.2-9.5,6.9C1619.1,512,1613.7,513.2,1608,513.2z M1608,437c-7,0-13.3,1.6-18.8,4.6c-5.5,3.1-9.8,7.4-12.9,12.9
				c-3.1,5.5-4.7,12-4.7,19.2c0,7.2,1.6,13.7,4.7,19.3c3.1,5.5,7.5,9.9,12.9,12.9c5.5,3.1,11.8,4.6,18.8,4.6c5.3,0,10.2-1,14.6-3.1
				c4.4-2.1,8-5.1,10.9-9l2.4-3.3v14.6h10.3V407.8h-10.8v43.8l-2.4-3.2c-2.9-3.7-6.5-6.6-10.8-8.5C1618,437.9,1613.2,437,1608,437z
				 M1609.2,501.3c-5,0-9.6-1.2-13.6-3.5c-4-2.3-7.2-5.6-9.5-9.8c-2.3-4.2-3.5-9-3.5-14.4c0-5.4,1.2-10.2,3.5-14.4
				c2.3-4.2,5.5-7.5,9.5-9.7c4-2.3,8.5-3.4,13.6-3.4c4.9,0,9.4,1.1,13.5,3.4c4.1,2.3,7.3,5.6,9.5,9.8c2.3,4.2,3.4,9,3.4,14.4
				c0,5.4-1.1,10.2-3.4,14.4c-2.3,4.2-5.5,7.5-9.5,9.8v0C1618.6,500.2,1614.1,501.3,1609.2,501.3z M1609.2,448.8
				c-4.5,0-8.6,1-12.2,3.1c-3.6,2-6.4,5-8.5,8.7c-2.1,3.8-3.1,8.2-3.1,13.1c0,4.9,1.1,9.3,3.1,13.1c2.1,3.8,4.9,6.7,8.5,8.8
				c3.6,2.1,7.7,3.1,12.2,3.1c4.4,0,8.5-1.1,12.2-3.1v0c3.6-2.1,6.5-5,8.5-8.8c2-3.8,3.1-8.2,3.1-13.1c0-4.9-1-9.3-3.1-13.1
				c-2-3.7-4.9-6.7-8.5-8.7C1617.7,449.8,1613.6,448.8,1609.2,448.8z"/>
		</g>
		<g>
			<path fill="#FF4700" class="st0" d="M1674.5,407.4c0-2.3,0.8-4.3,2.5-5.8c1.7-1.5,3.7-2.3,6.2-2.3c2.3,0,4.3,0.8,5.9,2.3
				c1.6,1.5,2.3,3.4,2.3,5.8c0,2.6-0.8,4.7-2.3,6.3c-1.6,1.6-3.5,2.4-5.9,2.4c-2.5,0-4.5-0.8-6.2-2.4
				C1675.3,412,1674.5,409.9,1674.5,407.4z M1689.6,511h-13.4v-75.3h13.4V511z"/>
			<path fill="#FF4700" class="st0" d="M1690.9,512.3h-16.1v-78h16.1V512.3z M1677.5,509.7h10.7V437h-10.7V509.7z M1683.2,417.4
				c-2.8,0-5.2-0.9-7.1-2.8c-1.9-1.9-2.9-4.3-2.9-7.2c0-2.7,1-5,3-6.8c1.9-1.7,4.3-2.6,7.1-2.6c2.7,0,5,0.9,6.8,2.6
				c1.8,1.8,2.8,4,2.8,6.7c0,2.9-0.9,5.3-2.7,7.2C1688.2,416.5,1685.9,417.4,1683.2,417.4z M1683.2,400.7c-2.1,0-3.9,0.6-5.3,1.9
				c-1.4,1.3-2.1,2.8-2.1,4.8c0,2.2,0.7,3.9,2.1,5.3c1.4,1.4,3.1,2.1,5.3,2.1c2,0,3.6-0.7,4.9-2c1.3-1.4,2-3.1,2-5.3
				c0-2-0.6-3.6-1.9-4.8C1686.8,401.3,1685.2,400.7,1683.2,400.7z"/>
		</g>
		<g>
			<path fill="#FF4700" class="st0" d="M1715.7,482.4v-67.6h13.4v20.9h27.6v12.6h-27.6V481c0,12.5,4.5,18.7,13.4,18.7c4.4,0,8.3-1.4,11.9-4.2
				l4.2,10.4c-5.2,4.2-11.7,6.4-19.3,6.4c-8.1,0-14.1-2.5-17.9-7.4C1717.6,500.1,1715.7,492.5,1715.7,482.4z"/>
			<path fill="#FF4700" class="st0" d="M1739.3,513.7c-8.5,0-14.9-2.7-19-7.9c-4-5.1-6-13-6-23.4v-69h16.1v20.9h27.6v15.2h-27.6V481
				c0,11.7,3.9,17.4,12.1,17.4c4.1,0,7.7-1.3,11.1-3.9l1.4-1.1l5.2,12.9l-0.8,0.6C1753.9,511.4,1747.1,513.7,1739.3,513.7z
				 M1717,416.1v66.3c0,9.8,1.8,17.1,5.4,21.8c3.5,4.5,9.2,6.8,16.9,6.8c6.9,0,12.8-1.8,17.6-5.5l-3.2-7.9
				c-3.4,2.3-7.2,3.4-11.3,3.4c-9.8,0-14.7-6.8-14.7-20.1v-34.1h27.6V437h-27.6v-20.9H1717z"/>
		</g>
	</g>
</g>
</svg>
