<svg width="130" height="130" viewBox="0 0 130 130" fill="none" xmlns="http://www.w3.org/2000/svg">
<g clip-path="url(#clip0)">
<path d="M101.268 0.0042558L4.85059 56.458L33.5854 105.534L130.003 49.0802L101.268 0.0042558Z" fill="#5CA37B"/>
<path d="M93.8437 10.7383L17.8538 55.2266C19.5202 58.0567 18.4886 61.7067 15.5792 63.426L32.7714 92.7586C35.6809 91.0658 39.3574 91.9651 41.0237 94.7952L117.04 50.2805C115.374 47.4504 116.405 43.8003 119.315 42.0811L102.096 12.7485C99.1865 14.4677 95.51 13.5419 93.8437 10.7383Z" fill="#7ED09E"/>
<path d="M77.2271 69.5039C84.5262 65.2302 86.0573 54.2747 80.6468 45.0341C75.2363 35.7936 64.9331 31.7672 57.634 36.041C50.3349 40.3147 48.8038 51.2702 54.2143 60.5108C59.6248 69.7513 69.9279 73.7777 77.2271 69.5039Z" fill="#5CA37B"/>
<path d="M104.874 34.3048C106.787 34.3048 108.338 32.7535 108.338 30.8399C108.338 28.9263 106.787 27.375 104.874 27.375C102.96 27.375 101.409 28.9263 101.409 30.8399C101.409 32.7535 102.96 34.3048 104.874 34.3048Z" fill="#5CA37B"/>
<path d="M29.9674 78.1583C31.881 78.1583 33.4323 76.607 33.4323 74.6934C33.4323 72.7798 31.881 71.2285 29.9674 71.2285C28.0537 71.2285 26.5024 72.7798 26.5024 74.6934C26.5024 76.607 28.0537 78.1583 29.9674 78.1583Z" fill="#3EA69B"/>
<path d="M62.4194 22.7516L43.702 33.7109L72.4368 82.7869L91.1542 71.8276L62.4194 22.7516Z" fill="#FFC700"/>
<path d="M46.5213 32.0701L45.0833 32.9121L73.818 81.9881L75.256 81.1461L46.5213 32.0701Z" fill="white"/>
<path d="M61.0388 23.5516L59.6008 24.3936L88.3355 73.4695L89.7736 72.6275L61.0388 23.5516Z" fill="white"/>
<path d="M117.305 33.685L7.59222 54.7783L18.3287 110.621L128.041 89.5281L117.305 33.685Z" fill="#58D08B"/>
<path d="M20.7885 101.857L13.1181 61.9714C15.3134 61.5482 16.7682 59.4058 16.345 57.2105L110.109 39.1982C110.532 41.3936 112.675 42.8483 114.87 42.4251L122.54 82.3112C120.345 82.7344 118.89 84.8768 119.313 87.0721L25.5494 105.084C25.1262 102.889 22.9838 101.434 20.7885 101.857Z" fill="#A9E3C0"/>
<path d="M71.4756 91.1917C79.7812 89.5949 84.8754 79.7765 82.8539 69.2618C80.8323 58.747 72.4605 51.5177 64.1548 53.1145C55.8492 54.7114 50.755 64.5297 52.7765 75.0445C54.7981 85.5592 63.1699 92.7886 71.4756 91.1917Z" fill="#58D08B"/>
<path d="M110.426 67.42C112.34 67.42 113.891 65.8688 113.891 63.9551C113.891 62.0415 112.34 60.4902 110.426 60.4902C108.512 60.4902 106.961 62.0415 106.961 63.9551C106.961 65.8688 108.512 67.42 110.426 67.42Z" fill="#58D08B"/>
<path d="M25.2054 83.8185C27.119 83.8185 28.6703 82.2672 28.6703 80.3536C28.6703 78.44 27.119 76.8887 25.2054 76.8887C23.2918 76.8887 21.7405 78.44 21.7405 80.3536C21.7405 82.2672 23.2918 83.8185 25.2054 83.8185Z" fill="#3EA69B"/>
<path d="M45.3876 120.452C45.3876 125.715 35.2309 130 22.6938 130C10.1567 130 0 125.742 0 120.452V112.649H45.3611L45.3876 120.452Z" fill="#FFC700"/>
<path d="M22.6938 122.171C35.2272 122.171 45.3876 117.908 45.3876 112.649C45.3876 107.39 35.2272 103.127 22.6938 103.127C10.1604 103.127 0 107.39 0 112.649C0 117.908 10.1604 122.171 22.6938 122.171Z" fill="#FFE33B"/>
<path d="M22.6943 104.979C11.7706 104.979 2.88348 108.417 2.88348 112.649C2.88348 116.881 11.7441 120.319 22.6943 120.319C33.6444 120.319 42.505 116.881 42.505 112.649C42.4786 108.417 33.618 104.979 22.6943 104.979ZM22.6943 119.473C12.9872 119.473 5.10525 116.431 5.10525 112.649C5.10525 108.867 12.9872 105.825 22.6943 105.825C32.4013 105.825 40.2833 108.867 40.2833 112.649C40.2833 116.431 32.4013 119.473 22.6943 119.473Z" fill="#DC8744"/>
<path d="M21.9532 117.966V117.04C18.9379 116.908 16.24 116.458 13.8331 115.638L16.24 114.527C18.0915 115.162 19.9959 115.532 21.9532 115.638V113.152C19.4669 112.914 17.6419 112.623 16.4781 112.252C15.3143 111.882 14.7589 111.327 14.7589 110.586C14.7589 109.846 15.4201 109.237 16.7426 108.788C18.0651 108.311 19.8108 108.073 21.9532 108.021V107.386H24.0691V108.047C26.4761 108.126 28.7772 108.444 30.9461 108.999L28.8036 110.189C27.3489 109.793 25.7884 109.528 24.0956 109.449V111.856H24.2014C26.7406 112.094 28.592 112.385 29.7823 112.781C30.9725 113.178 31.5544 113.734 31.5544 114.501C31.5544 115.241 30.8667 115.85 29.5178 116.326C28.1424 116.802 26.3438 117.04 24.0956 117.093V118.019L21.9532 117.966ZM19.6256 109.713C19.0702 109.898 18.7792 110.137 18.7792 110.427C18.7792 110.718 18.9908 110.93 19.4405 111.115C19.8901 111.274 20.71 111.433 21.9532 111.591V109.369C20.9745 109.396 20.2075 109.502 19.6256 109.713ZM26.5819 115.321C27.1902 115.135 27.5076 114.871 27.5076 114.58C27.5076 114.289 27.2696 114.051 26.7935 113.866C26.3174 113.681 25.4181 113.522 24.0956 113.363V115.664C25.1271 115.638 25.9735 115.506 26.5819 115.321Z" fill="#DC8744"/>
<path d="M45.3876 110.983C45.3876 116.247 35.2309 120.532 22.6938 120.532C10.1567 120.532 0 116.247 0 110.983V103.181H45.3611L45.3876 110.983Z" fill="#FFC700"/>
<path d="M22.6938 112.702C35.2272 112.702 45.3876 108.439 45.3876 103.18C45.3876 97.9213 35.2272 93.6582 22.6938 93.6582C10.1604 93.6582 0 97.9213 0 103.18C0 108.439 10.1604 112.702 22.6938 112.702Z" fill="#FFE33B"/>
<path d="M22.6943 95.5098C11.7706 95.5098 2.88348 98.9482 2.88348 103.18C2.88348 107.412 11.7441 110.851 22.6943 110.851C33.6444 110.851 42.505 107.412 42.505 103.18C42.505 98.9482 33.618 95.5098 22.6943 95.5098ZM22.6943 110.004C12.9872 110.004 5.10525 106.962 5.10525 103.18C5.10525 99.3979 12.9872 96.3561 22.6943 96.3561C32.4013 96.3561 40.2833 99.3979 40.2833 103.18C40.2833 106.962 32.4013 110.004 22.6943 110.004Z" fill="#DC8744"/>
<path d="M21.9532 108.497V107.571C18.9379 107.439 16.24 106.989 13.8331 106.169L16.24 105.058C18.0915 105.693 19.9959 106.063 21.9532 106.169V103.683C19.4669 103.445 17.6419 103.154 16.4781 102.784C15.3143 102.413 14.7589 101.858 14.7589 101.117C14.7589 100.377 15.4201 99.7685 16.7426 99.3188C18.0651 98.8427 19.8108 98.6047 21.9532 98.5518V97.917H24.0691V98.5782C26.4761 98.6576 28.7772 98.975 30.9461 99.5304L28.8036 100.721C27.3489 100.324 25.7884 100.059 24.0956 99.9801V102.387H24.2014C26.7406 102.625 28.592 102.916 29.7823 103.313C30.9725 103.709 31.5544 104.265 31.5544 105.032C31.5544 105.773 30.8667 106.381 29.5178 106.857C28.1424 107.333 26.3438 107.571 24.0956 107.624V108.55L21.9532 108.497ZM19.6256 100.218C19.0702 100.403 18.7792 100.641 18.7792 100.932C18.7792 101.223 18.9908 101.435 19.4405 101.62C19.8901 101.779 20.71 101.937 21.9532 102.096V99.8743C20.9745 99.9272 20.2075 100.033 19.6256 100.218ZM26.5819 105.825C27.1902 105.64 27.5076 105.376 27.5076 105.085C27.5076 104.794 27.2696 104.556 26.7935 104.371C26.3174 104.186 25.4181 104.027 24.0956 103.868V106.169C25.1271 106.143 25.9735 106.037 26.5819 105.825Z" fill="#DC8744"/>
<path d="M45.3876 101.514C45.3876 106.777 35.2309 111.062 22.6938 111.062C10.1567 111.062 0 106.777 0 101.514V93.7109H45.3611L45.3876 101.514Z" fill="#FFC700"/>
<path d="M22.6938 103.233C35.2272 103.233 45.3876 98.9701 45.3876 93.7113C45.3876 88.4525 35.2272 84.1895 22.6938 84.1895C10.1604 84.1895 0 88.4525 0 93.7113C0 98.9701 10.1604 103.233 22.6938 103.233Z" fill="#FFE33B"/>
<path d="M22.6943 86.04C11.7706 86.04 2.88348 89.4785 2.88348 93.7104C2.88348 97.9424 11.7441 101.381 22.6943 101.381C33.6444 101.381 42.505 97.9424 42.505 93.7104C42.505 89.4785 33.618 86.04 22.6943 86.04ZM22.6943 100.534C12.9872 100.534 5.10525 97.4927 5.10525 93.7104C5.10525 89.9281 12.9872 86.8864 22.6943 86.8864C32.4013 86.8864 40.2833 89.9281 40.2833 93.7104C40.2833 97.4663 32.4013 100.534 22.6943 100.534Z" fill="#DC8744"/>
<path d="M21.9532 99.0008V98.075C18.9379 97.9428 16.24 97.4931 13.8331 96.6732L16.24 95.5623C18.0915 96.1971 19.9959 96.5674 21.9532 96.6732V94.1869C19.4669 93.9489 17.6419 93.6579 16.4781 93.2876C15.3143 92.9173 14.7589 92.3619 14.7589 91.6213C14.7589 90.8807 15.4201 90.2724 16.7426 89.8227C18.0651 89.3466 19.8108 89.1086 21.9532 89.0557V88.4209H24.0691V89.0821C26.4761 89.1615 28.7772 89.4789 30.9461 90.0343L28.8036 91.2246C27.3489 90.8278 25.7884 90.5633 24.0956 90.484V92.8909H24.2014C26.7406 93.1289 28.592 93.4199 29.7823 93.8166C30.9725 94.2134 31.5544 94.7688 31.5544 95.5359C31.5544 96.2765 30.8667 96.8848 29.5178 97.3609C28.1424 97.837 26.3438 98.075 24.0956 98.1279V99.0537L21.9532 99.0008ZM19.6256 90.7485C19.0702 90.9336 18.7792 91.1717 18.7792 91.4626C18.7792 91.7536 18.9908 91.9652 19.4405 92.1503C19.8901 92.309 20.71 92.4677 21.9532 92.6264V90.4046C20.9745 90.4575 20.2075 90.5633 19.6256 90.7485ZM26.5819 96.3558C27.1902 96.1706 27.5076 95.9062 27.5076 95.6152C27.5076 95.3243 27.2696 95.0862 26.7935 94.9011C26.3174 94.7159 25.4181 94.5572 24.0956 94.3985V96.6996C25.1271 96.6732 25.9735 96.5674 26.5819 96.3558Z" fill="#DC8744"/>
<path d="M45.3876 92.0448C45.3876 97.3083 35.2309 101.593 22.6938 101.593C10.1567 101.593 0 97.3083 0 92.0448V84.2422H45.3611L45.3876 92.0448Z" fill="#FFC700"/>
<path d="M22.6938 93.7645C35.2272 93.7645 45.3876 89.5014 45.3876 84.2426C45.3876 78.9838 35.2272 74.7207 22.6938 74.7207C10.1604 74.7207 0 78.9838 0 84.2426C0 89.5014 10.1604 93.7645 22.6938 93.7645Z" fill="#FFE33B"/>
<path d="M22.6943 76.5449C11.7706 76.5449 2.88348 79.9834 2.88348 84.2153C2.88348 88.4473 11.7441 91.8857 22.6943 91.8857C33.6444 91.8857 42.505 88.4473 42.505 84.2153C42.4786 79.9834 33.618 76.5449 22.6943 76.5449ZM22.6943 91.0658C12.9872 91.0658 5.10525 88.0241 5.10525 84.2418C5.10525 80.4595 12.9872 77.4178 22.6943 77.4178C32.4013 77.4178 40.2833 80.4595 40.2833 84.2418C40.2833 88.0241 32.4013 91.0658 22.6943 91.0658Z" fill="#FFC700"/>
<path d="M93.2089 120.452C93.2089 125.715 83.0522 130 70.5151 130C57.978 130 47.8213 125.742 47.8213 120.452V112.649H93.1825L93.2089 120.452Z" fill="#FFC700"/>
<path d="M70.5406 122.171C83.074 122.171 93.2344 117.908 93.2344 112.649C93.2344 107.39 83.074 103.127 70.5406 103.127C58.0072 103.127 47.8468 107.39 47.8468 112.649C47.8468 117.908 58.0072 122.171 70.5406 122.171Z" fill="#FFE33B"/>
<path d="M70.5415 104.979C59.6178 104.979 50.7307 108.417 50.7307 112.649C50.7307 116.881 59.5913 120.319 70.5415 120.319C81.4916 120.319 90.3523 116.881 90.3523 112.649C90.3258 108.417 81.4652 104.979 70.5415 104.979ZM70.5415 119.473C60.8345 119.473 52.9525 116.431 52.9525 112.649C52.9525 108.867 60.8345 105.825 70.5415 105.825C80.2485 105.825 88.1305 108.867 88.1305 112.649C88.1305 116.431 80.2485 119.473 70.5415 119.473Z" fill="#DC8744"/>
<path d="M69.8004 117.966V117.04C66.7852 116.908 64.0873 116.458 61.6804 115.638L64.0873 114.527C65.9388 115.162 67.8431 115.532 69.8004 115.638V113.152C67.3141 112.914 65.4891 112.623 64.3253 112.252C63.1615 111.882 62.6061 111.327 62.6061 110.586C62.6061 109.846 63.2673 109.237 64.5898 108.788C65.9123 108.311 67.658 108.073 69.8004 108.021V107.386H71.9164V108.047C74.3233 108.126 76.6245 108.444 78.7933 108.999L76.6509 110.189C75.1962 109.793 73.6356 109.528 71.9429 109.449V111.856H72.0486C74.5878 112.094 76.4393 112.385 77.6295 112.781C78.8198 113.178 79.4017 113.734 79.4017 114.501C79.4017 115.241 78.714 115.85 77.365 116.326C75.9897 116.802 74.1911 117.04 71.9429 117.093V118.019L69.8004 117.966ZM67.4729 109.713C66.9174 109.898 66.6265 110.137 66.6265 110.427C66.6265 110.718 66.8381 110.93 67.2877 111.115C67.7373 111.274 68.5573 111.433 69.8004 111.591V109.369C68.8218 109.396 68.0283 109.502 67.4729 109.713ZM74.4291 115.321C75.0375 115.135 75.3549 114.871 75.3549 114.58C75.3549 114.289 75.1168 114.051 74.6407 113.866C74.1646 113.681 73.2653 113.522 71.9429 113.363V115.664C72.9744 115.638 73.7943 115.506 74.4291 115.321Z" fill="#DC8744"/>
<path d="M93.2089 110.983C93.2089 116.247 83.0522 120.532 70.5151 120.532C57.978 120.532 47.8213 116.273 47.8213 110.983V103.181H93.1825L93.2089 110.983Z" fill="#FFC700"/>
<path d="M70.5406 112.702C83.074 112.702 93.2344 108.439 93.2344 103.18C93.2344 97.9213 83.074 93.6582 70.5406 93.6582C58.0072 93.6582 47.8468 97.9213 47.8468 103.18C47.8468 108.439 58.0072 112.702 70.5406 112.702Z" fill="#FFE33B"/>
<path d="M70.5415 95.5098C59.6178 95.5098 50.7307 98.9482 50.7307 103.18C50.7307 107.412 59.5913 110.851 70.5415 110.851C81.4916 110.851 90.3523 107.412 90.3523 103.18C90.3523 98.9482 81.4652 95.5098 70.5415 95.5098ZM70.5415 110.004C60.8345 110.004 52.9525 106.962 52.9525 103.18C52.9525 99.3979 60.8345 96.3561 70.5415 96.3561C80.2485 96.3561 88.1305 99.3979 88.1305 103.18C88.1305 106.962 80.2485 110.004 70.5415 110.004Z" fill="#FFC700"/>
</g>
<defs>
<clipPath id="clip0">
<rect width="130" height="130" fill="white"/>
</clipPath>
</defs>
</svg>
