<svg width="200" height="233" fill="none" xmlns="http://www.w3.org/2000/svg"><path d="M67.305 198.245c-52.176 3.622-79.837 14.052-61.78 23.296 18.056 9.244 74.99 13.799 127.168 10.172 52.178-3.627 79.839-14.053 61.783-23.297-18.057-9.243-74.992-13.794-127.17-10.171Z" fill="#009E82"/><path d="M49.887 68.682c-2.57 1.517-3.37 1.559-4.128 2.739l2.949-1.601a3.05 3.05 0 0 1 1.18-1.138ZM52.584 84.523l-2.95 1.6c2.36 2.95 6.194 6.11 9.1 5.014.464-.168.885-.463 3.329-1.77-2.823 1.56-7.036-1.727-9.48-4.844Z" fill="#D77D14"/><path d="m48.708 69.82-2.95 1.6c-.041.085-.084.17-.168.254-1.77 3.412.464 9.942 4.002 14.45l2.95-1.601c-2.444-3.118-4.677-7.878-4.635-11.586.042-1.137.253-2.233.8-3.117Z" fill="#E99709"/><path d="M61.102 87.472c2.31-1.396 1.899-6.305-.918-10.964-2.816-4.66-6.972-7.305-9.282-5.91-2.31 1.397-1.899 6.306.918 10.966 2.816 4.66 6.972 7.305 9.282 5.908Z" fill="#FFDF6B"/><path d="M58.777 74.496c-3.286-4.17-7.246-5.56-8.763-3.033-.253.38-.422.843-.506 1.348.084-.21.169-.379.295-.548 1.559-2.485 5.477-1.137 8.763 3.034 2.78 3.539 4.255 7.962 3.665 10.743 1.054-2.654-.379-7.626-3.454-11.544Z" fill="#EB9D35"/><path d="M59.367 73.527c-4.003-5.097-8.806-6.74-10.66-3.707l.127.126-.126-.126c-1.896 3.033-.169 9.606 3.876 14.703 4.002 5.098 8.805 6.74 10.658 3.708 1.896-3.034.169-9.606-3.875-14.704Zm2.57 13.06c-1.56 2.486-5.477 1.138-8.764-3.033-3.286-4.17-4.718-9.605-3.16-12.09 1.56-2.486 5.478-1.138 8.764 3.032 3.286 4.171 4.718 9.606 3.16 12.092Z" fill="#FFDF6B"/><path d="m48.708 69.82 1.306 1.643c-1.559 2.486-.127 7.92 3.16 12.091l-.59.969c-4.045-5.098-5.772-11.67-3.876-14.703Z" fill="#F4EF89"/><path d="m56.584 206.711 2.446-1.263s1.446-7.768-.173-15.27c0 0 10.088-.382 13.205-3.089 3.118-2.707 11.798-9.384 3.84-6.591-7.957 2.792-16.994 7.239-16.994 7.239s.154-7.323-.262-8.422c-.417-1.1 10.06-4.317 9.02-7.071-1.042-2.754-8.63 4.237-8.63 4.237s-1.203-6.401-3.56-11.986c0 0 20.617-6.038 16.144-12.067-4.474-6.029-16.092 9.626-16.092 9.626s-1.393-4.983-3.06-8.733c0 0 17.828-5.037 16.838-10.231-.99-5.194-9.373-4.813-12.352-1.743-2.98 3.07-5.046 9.85-5.046 9.85l-6.63-12.376c-.829-1.546 10.874-4.738 12.914-5.79 2.04-1.053-5.515-8.783-11.559-5.438-6.043 3.345-5.55 5.938-5.55 5.938l-2.277-4.092s16.43-10.02 12.175-14.186c-4.256-4.166-14.518 10.569-14.518 10.569l-3.583-5.612s2.776-12.625-3.347-10.779c-6.123 1.845 2.405 11.365 2.405 11.365s3.41 5.375 3.558 5.763c.146.389-8.535-2.832-10.845 2.293-2.31 5.124 12.519.465 12.519.465s2.371 3.692 3.882 6.163c1.51 2.472 3.316 5.733 3.316 5.733s-4.381-8.7-9.92-3.46c-5.538 5.24-4.081 11.673-2.69 12.92 1.39 1.247 13.51-7.081 13.51-7.081s3.492 5.437 4.549 7.323c1.057 1.887 3.27 8.343 3.573 10.356 0 0-9.913-7.084-16.089-3.377-6.175 3.706-8 4.958-8 4.958s1.711 8.01 7.945 5.671c6.234-2.339 15.844-6.528 15.844-6.528s3.143 6.187 3.255 8.919c.112 2.732.39 7.71.39 7.71s-5.463-12.328-12.251-8.874c-6.788 3.455-8.26 11.402-4.195 11.526 4.066.124 16.587-1.377 16.587-1.377s.877 6.114.293 7.605c-.585 1.49-5.896.045-9.36-1.527-3.465-1.573-12.003-.163-6.228 3.268 5.775 3.431 15.169.337 15.169.337.177.166.696 5.48.696 8.068.001 2.588-.862 9.061-.862 9.061Z" fill="#04A98B"/><path d="M126.51 72.805H69.474c-5.11 0-9.266 3.798-9.266 8.466v119.424c0 4.668 4.156 8.466 9.266 8.466h57.036c5.11 0 9.268-3.798 9.268-8.466V81.271c0-4.668-4.158-8.466-9.268-8.466Z" fill="#058A72"/><path d="M126.511 74.093h-11.175v3.885c0 3.946-3.501 7.147-7.819 7.147H88.162c-4.32 0-7.82-3.199-7.82-7.147v-3.885H69.474c-4.34 0-7.856 3.214-7.856 7.178v119.424c0 3.964 3.517 7.178 7.856 7.178h57.037c4.34 0 7.856-3.214 7.856-7.178V81.271c0-3.967-3.517-7.178-7.856-7.178Z" fill="#047762"/><path d="M121.272 78.428H74.714c-4.339 0-7.856 3.214-7.856 7.178v106.942l59.688-112.251a8.24 8.24 0 0 0-5.274-1.869Z" fill="#C6FFF5"/><path d="m126.546 80.297-59.69 112.251v4.206c0 3.965 3.518 7.178 7.857 7.178h46.559c4.339 0 7.857-3.213 7.857-7.178V85.606c0-2.107-1-3.995-2.583-5.31Z" fill="#6EE8D2"/><path d="M88.162 85.122h19.355c4.318 0 7.819-3.198 7.819-7.147v-3.882H80.343v3.885c0 3.946 3.5 7.144 7.819 7.144Z" fill="#1CB46B"/><path d="M88.162 85.122h19.355c4.318 0 7.819-3.198 7.819-7.147v-3.882H80.343v3.885c0 3.946 3.5 7.144 7.819 7.144Z" fill="#047762"/><path d="M112.426 95.29h79.024a5 5 0 0 1 5 5v50.779a5 5 0 0 1-5 5h-57.406c-5.529 5.07-13.024 11.916-14.917 13.506-2.004 1.684.54-7.111 2.577-13.506h-4.278a5 5 0 0 1-5-5V95.29Z" fill="#C58734"/><path d="M108.876 96.74a5 5 0 0 1 5-5H187.9a5 5 0 0 1 5 5v50.778a5 5 0 0 1-5 5h-57.406c-5.529 5.071-13.024 11.916-14.917 13.507-2.005 1.683.539-7.111 2.577-13.507h-4.278a5 5 0 0 1-5-5V96.74Z" fill="#FFD257"/><path d="M181.639 131.586h-40.683L133.13 105.6h40.683l7.826 25.986Z" fill="#009D81"/><path d="M180.772 135.917h-40.874L133.13 105.6h40.874l6.768 30.317Z" fill="#047762"/><path d="M165.103 137.65h-40.635l8.741-32.05h40.634l-8.74 32.05Z" fill="#06A98B"/><path d="M160.192 135.051h-40.055l13.649-29.451h40.057l-13.651 29.451Z" fill="#57DAA3"/><path d="M153.933 135.051h6.367l10.078-21.655h-40.164l-10.077 21.655h33.796Z" fill="#FFF8F5"/><path d="m133.307 105.6-3.642 7.796h40.534l3.644-7.796h-40.536Z" fill="#35E4C4"/><path d="M167.557 111.663h-32.694l1.09-2.599h32.692l-1.088 2.599Z" fill="#FFF8F5"/><path d="M133.463 118.593h-2.932l1.4-2.599h2.932l-1.4 2.599ZM138.66 118.593h-2.931l1.4-2.599h2.931l-1.4 2.599ZM143.858 118.593h-2.932l1.4-2.599h2.931l-1.399 2.599ZM149.054 118.593h-2.931l1.4-2.599h2.932l-1.401 2.599ZM154.253 118.593h-2.932l1.399-2.599h2.932l-1.399 2.599ZM159.45 118.593h-2.932l1.399-2.599h2.932l-1.399 2.599Z" fill="#35E4C4"/><path d="M164.647 118.593h-2.931l1.399-2.599h2.932l-1.4 2.599Z" fill="#047762"/><path d="M130.865 123.79h-2.932l1.399-2.599h2.932l-1.399 2.599ZM136.062 123.79h-2.932l1.399-2.599h2.932l-1.399 2.599ZM141.259 123.79h-2.932l1.4-2.599h2.932l-1.4 2.599ZM146.457 123.79h-2.932l1.399-2.599h2.932l-1.399 2.599ZM151.654 123.79h-2.932l1.399-2.599h2.932l-1.399 2.599ZM156.851 123.79h-2.932l1.4-2.599h2.932l-1.4 2.599Z" fill="#35E4C4"/><path d="M162.049 123.79h-2.932l1.399-2.599h2.932l-1.399 2.599Z" fill="#047762"/><path d="M128.266 128.987h-2.932l1.399-2.598h2.932l-1.399 2.598ZM133.463 128.987h-2.932l1.4-2.598h2.932l-1.4 2.598ZM138.661 128.987h-2.932l1.399-2.598h2.932l-1.399 2.598ZM143.858 128.987h-2.932l1.4-2.598h2.931l-1.399 2.598ZM149.055 128.987h-2.932l1.4-2.598h2.932l-1.4 2.598ZM154.252 128.987h-2.931l1.4-2.598h2.931l-1.4 2.598Z" fill="#35E4C4"/><path d="M159.449 128.987h-2.931l1.399-2.598h2.932l-1.4 2.598Z" fill="#047762"/><path d="M137.406 108.198a.33.33 0 0 1-.2-.069 3.711 3.711 0 0 1-1.136-1.458 4.054 4.054 0 0 1 .222-3.692 3.586 3.586 0 0 1 1.302-1.285 3.238 3.238 0 0 1 1.713-.424 3.263 3.263 0 0 1 1.684.545c.509.336.93.809 1.222 1.374.292.565.446 1.202.446 1.85 0 .397 0 .814-.167 1.16a4.19 4.19 0 0 1-.743 0c.199-.334.213-.757.213-1.159 0-.518-.123-1.027-.356-1.478a2.913 2.913 0 0 0-.976-1.098 2.605 2.605 0 0 0-1.346-.436c-.475-.017-.946.1-1.368.339a2.874 2.874 0 0 0-1.041 1.026 3.208 3.208 0 0 0-.443 1.45 3.24 3.24 0 0 0 .266 1.5c.206.467.519.868.908 1.165a.372.372 0 0 1 .13.189.412.412 0 0 1 .003.236.379.379 0 0 1-.127.191.325.325 0 0 1-.206.074ZM146.935 108.198a.325.325 0 0 1-.199-.069 3.69 3.69 0 0 1-1.137-1.458 4.052 4.052 0 0 1-.334-1.877c.038-.647.23-1.272.555-1.815a3.575 3.575 0 0 1 1.302-1.284 3.23 3.23 0 0 1 1.713-.425 3.263 3.263 0 0 1 1.684.545c.51.336.93.81 1.223 1.374.292.565.445 1.202.445 1.85 0 .398 0 .815-.166 1.16a4.18 4.18 0 0 1-.742 0c.197-.334.211-.757.211-1.158 0-.518-.122-1.027-.355-1.479a2.922 2.922 0 0 0-.976-1.098 2.608 2.608 0 0 0-1.346-.436c-.476-.017-.947.1-1.369.339a2.859 2.859 0 0 0-1.04 1.027 3.244 3.244 0 0 0-.177 2.95c.206.466.519.868.909 1.164a.383.383 0 0 1 .13.189.404.404 0 0 1-.125.428.328.328 0 0 1-.206.073ZM156.463 108.198a.33.33 0 0 1-.2-.069 3.711 3.711 0 0 1-1.136-1.458 4.054 4.054 0 0 1 .222-3.692 3.591 3.591 0 0 1 1.301-1.285 3.238 3.238 0 0 1 1.713-.424 3.263 3.263 0 0 1 1.685.545c.509.336.93.809 1.222 1.374.292.565.445 1.202.445 1.85 0 .397 0 .814-.167 1.16a4.18 4.18 0 0 1-.742 0c.198-.334.211-.757.211-1.159a3.213 3.213 0 0 0-.355-1.478 2.917 2.917 0 0 0-.976-1.099 2.608 2.608 0 0 0-1.346-.436c-.476-.017-.947.1-1.369.339-.422.24-.78.593-1.04 1.027a3.24 3.24 0 0 0-.177 2.95c.206.467.519.868.909 1.165a.378.378 0 0 1 .13.189.404.404 0 0 1-.124.427.33.33 0 0 1-.206.074ZM166.858 108.198a.325.325 0 0 1-.199-.069 3.7 3.7 0 0 1-1.137-1.458 4.052 4.052 0 0 1-.334-1.877c.038-.647.23-1.272.555-1.815a3.583 3.583 0 0 1 1.302-1.284 3.23 3.23 0 0 1 1.713-.425 3.269 3.269 0 0 1 1.685.545c.509.336.93.81 1.222 1.374.292.565.445 1.202.445 1.85 0 .398 0 .815-.166 1.16a4.18 4.18 0 0 1-.742 0c.197-.334.211-.757.211-1.158a3.22 3.22 0 0 0-.355-1.479 2.922 2.922 0 0 0-.976-1.098 2.608 2.608 0 0 0-1.346-.436c-.476-.017-.947.1-1.369.339-.422.239-.78.593-1.04 1.027a3.244 3.244 0 0 0-.177 2.95c.206.466.519.868.909 1.164a.376.376 0 0 1 .13.189.404.404 0 0 1-.125.428.328.328 0 0 1-.206.073Z" fill="#005B3A"/><path d="m142.091 115.91 4.107-.071s-.691 2.829-4.433 3.465l-4.229-.248s3.822-1.025 4.067-1.872c.114-.438.277-.865.488-1.274ZM149.89 121.112l4.107-.071s-.692 2.828-4.433 3.465l-4.23-.248s3.823-1.025 4.066-1.872c.115-.438.279-.865.49-1.274Z" fill="#06A98B"/><path d="M56.209 200.564s-2.35-14.009 12.168-19.142c0 0-2.35-.302-3.433-.362-.06 0-1.326 0-1.687.06-.904.121-1.145.181-1.325.181-.06 0-.181.06-.482.121-8.133 1.872-12.711 11.231-11.145 19.625a17.39 17.39 0 0 0 2.048 5.616c2.169 3.623 5.663 6.159 9.76 6.642l3.493.362c-2.59-.301-8.313-5.676-9.397-13.103Z" fill="#CF893D"/><path d="M57.233 183.234h7.229c1.144-.724 2.47-1.328 3.975-1.872 0 0-2.349-.302-3.433-.362-.06 0-1.326 0-1.687.06-.904.121-1.145.182-1.325.182-.06 0-.181.06-.482.12a13.024 13.024 0 0 0-4.277 1.872Z" fill="#BC762A"/><path d="M54.28 185.83a17.445 17.445 0 0 0-3.011 5.133h6.265c.723-1.751 1.867-3.503 3.494-5.133H54.28Z" fill="#DA984F"/><path d="M56.33 201.289h-5.965c.362 1.932 1.085 3.744 1.988 5.314 2.169 3.623 5.663 6.159 9.76 6.642l3.493.363c-2.47-.242-7.952-5.254-9.277-12.319Z" fill="#BC762A"/><path d="M65.546 186.736c1.205-.302 2.35-.422 3.494-.302l.361 1.631c1.446 8.333-3.253 16.606-10.481 18.538h-.121c-1.265-1.63-2.229-3.744-2.65-6.099 0-.06 0-.181-.06-.241.12-6.28 3.975-12.017 9.457-13.527Z" fill="#FFDF6B"/><path d="m64.703 181.785.481 2.838c-6.144 1.631-10.18 8.816-8.975 15.942l-2.41.664c-1.506-8.695 3.373-17.391 10.904-19.444Z" fill="#FFDF6B"/><path d="M65.184 184.624c1.025-.302 2.109-.363 3.133-.363.301.664.542 1.389.723 2.174-1.145-.121-2.29 0-3.494.302-5.482 1.51-9.337 7.246-9.398 13.587-1.084-7.065 2.952-14.07 9.036-15.7Z" fill="#FAEC97"/><path d="M65.064 184.622s-.06.061 0 0c-.06.061 0 0 0 0Zm-.12.061h-.06.06Zm-.181.06h-.06.06Zm-.12.06c-.06 0-.06 0 0 0-.06 0-.06 0 0 0Zm-.181 0h-.06c.06.061.06 0 .06 0Zm-.12.061h-.061.06Zm-.121.06s-.06 0 0 0c-.06 0 0 0 0 0Zm-.12.061h-.061.06Zm-.182.06h-.06.06Zm-.12.06s-.06 0 0 0c-.06 0 0 0 0 0Zm-.12.061h-.06.06Zm-.121.06c-.06 0-.06 0 0 0-.06 0-.06 0 0 0Zm-.301.121s-.06 0 0 0c-.06 0 0 0 0 0Zm-.12.06s-.06 0 0 0c-.06 0 0 0 0 0Zm-.121.061s-.06 0-.06.06c0-.06 0-.06.06-.06Zm-.12.06c-.06 0-.06.06 0 0-.06.06-.06 0 0 0Zm-.181.06c0 .061 0 .061 0 0 0 .061 0 .061 0 0Zm-.362.242s-.06 0 0 0c-.06 0 0 0 0 0Zm-.12.06c0 .061-.06.061 0 0-.06.061 0 .061 0 0Zm-.12.121s-.061 0 0 0c-.061 0 0 0 0 0Zm-.121.061s-.06 0 0 0c-.06 0 0 0 0 0Zm-.12.06c0 .06-.061.06 0 0-.061.06 0 .06 0 0Zm-.121.121s-.06 0 0 0c-.06 0 0 0 0 0Zm-.12.06s-.061.06 0 0c-.061.06 0 0 0 0Zm-.121.121s-.06 0 0 0c-.06 0 0 0 0 0Zm-.12.06s-.06.061 0 0c-.06.061 0 0 0 0Zm-.121.121s-.06 0 0 0c-.06 0 0 0 0 0Zm-.12.06s-.06.061 0 0c-.06.061 0 0 0 0Zm-.242.182c0 .06 0 .06 0 0 0 .06 0 .06 0 0Zm-.3.301c-.061 0-.061.061 0 0-.061.061-.061 0 0 0Zm-.121.121s-.06 0 0 0c-.06 0 0 0 0 0Zm-.12.121s-.061 0 0 0c-.061 0 0 0 0 0Zm-.121.06c0 .061 0 .061 0 0 0 .061 0 .061 0 0Zm-.12.121s0 .061 0 0c0 .061 0 0 0 0Zm-.061.121c-.06 0-.06 0 0 0-.06 0-.06 0 0 0Zm-.12.121s-.06 0 0 0c-.06 0 0 0 0 0Zm-.12.06c0 .06 0 .06 0 0 0 .06 0 .06 0 0Zm-.061.121c-.06 0-.06.06 0 0-.06.06-.06 0 0 0Zm-.12.121s-.06.06 0 0c-.06.06 0 0 0 0Zm-.181.241c-.06 0-.06 0 0 0-.06 0-.06 0 0 0Zm7.228-6.944c-.542.06-1.144.121-1.686.302h-.12c-.06 0-.121 0-.181.06l.481 2.838c1.025-.302 2.109-.362 3.133-.362a11.96 11.96 0 0 0-1.626-2.838Zm-10.542 18.9c0-.12-.06-.241-.06-.302.06.061.06.182.06.302Zm0-.302v-.181c-.06.061 0 .121 0 .181Zm.06.544c0-.06 0-.181-.06-.242.06.061.06.182.06.242Zm-2.409.664c0 .061 0 .121.06.181.362 2.053 1.084 3.986 2.048 5.616.964 0 1.988-.121 2.952-.362-1.265-1.631-2.229-3.744-2.65-6.099l-2.41.664Zm2.29-1.57v-.181.181Zm0-.181v-.181.181Zm-.061-.121v-.181.181Zm0-.181v-.181.181Zm0-.181v-.181.181Zm0-.181v-.181.181Zm0-.121v-.181.181Zm0-.181v-.181.181Zm0-.181v-.181c-.06.06 0 .12 0 .181Zm-.06-.181v-.182.182Zm0-.121v-.181.181Zm0-.181v-.483c.06.181 0 .301 0 .483Zm.06-.483v-.484.484Zm0-.484c.06-.905.24-1.811.422-2.657-.181.846-.362 1.752-.422 2.657Zm.422-2.717v-.121c.06.061 0 .121 0 .121Zm.06-.121v-.12.12Zm.06-.181v-.121.121Zm0-.121c0-.06 0-.06.06-.12 0 .06 0 .06-.06.12Zm.06-.181c0-.06 0-.06.06-.121-.06.061-.06.121-.06.121Zm.06-.121v-.12.12Zm.06-.181v-.06.06Zm.061-.12v-.061.061Zm0-.182v-.06c.06 0 .06.06 0 .06Zm.06-.12v-.061c.06 0 0 0 0 .061Zm.06-.182v-.06.06Zm.06-.12v-.061.061Zm.061-.181v-.061.061Zm.06-.121v-.061.061Zm.06-.121c0-.06 0-.06 0 0 0-.06 0-.06 0 0Zm.12-.302c0-.06 0-.06 0 0 0-.06 0-.06 0 0Zm.121-.302v-.06.06Zm.06-.121c0-.06.06-.06 0 0 .06-.06 0-.06 0 0Zm.06-.181c.061 0 .061 0 0 0 .061 0 .061 0 0 0Zm.121-.121s0-.06 0 0c0-.06 0 0 0 0Zm.06-.12s0-.061 0 0c0-.061 0 0 0 0Zm.06-.121c0-.06 0-.06 0 0 0-.06 0-.06 0 0Zm.121-.302c.06 0 .06-.06 0 0 .06-.06.06 0 0 0Zm.12-.121s0-.06 0 0c0-.06 0 0 0 0Zm.061-.121c0-.06 0-.06 0 0 0-.06 0-.06 0 0Zm.06-.181s.06 0 0 0c.06 0 0 0 0 0Zm.241-.362c.06 0 .06-.06 0 0 .06-.06.06 0 0 0Zm.12-.121s0-.06 0 0c0-.06 0 0 0 0Zm.061-.121c0-.06.06-.06 0 0 .06-.06 0-.06 0 0Zm.12-.12c0-.061 0-.061 0 0 0-.061 0-.061 0 0Zm.06-.121c0-.06 0-.06 0 0 0-.06 0-.06 0 0Zm.121-.121c0-.06 0-.06 0 0 0-.06 0-.06 0 0Zm.301-.423s-.06 0 0 0c-.06 0 0 0 0 0Zm.06-.06c0-.06 0-.06 0 0 0-.06 0-.06 0 0Zm-3.132 10.99v.181-.181Z" fill="#FFDF6B"/><path d="M65.245 181.664c7.35-1.63 14.397 3.684 15.843 12.198 1.506 8.695-3.373 17.391-10.964 19.383-7.41 1.993-14.638-3.2-16.265-11.714a16.387 16.387 0 0 0 2.048 5.434c.964 0 1.988-.12 2.952-.362 2.59 3.321 6.687 4.952 10.783 3.865 6.205-1.631 10.241-8.817 8.976-15.942 0-.06 0-.181-.06-.241-1.084-5.797-5.362-9.783-10.301-10.024a14.271 14.271 0 0 0-1.567-2.838c-.481.06-.963.12-1.445.241Z" fill="#FFDF6B"/><path d="M78.618 194.527c0-.061 0-.181-.06-.242-1.084-5.797-5.361-9.782-10.301-10.024.301.664.542 1.389.723 2.174l.361 1.63c1.446 8.334-3.253 16.606-10.482 18.539h-.12c2.59 3.321 6.687 4.951 10.783 3.864 6.325-1.63 10.361-8.816 9.096-15.941Z" fill="#F2D15C"/><path d="M78.618 194.527c0-.061 0-.181-.06-.242-1.084-5.797-5.361-9.782-10.301-10.024 0 .061.06.121.06.181 4.277.906 7.831 4.65 8.795 9.843 0 .061 0 .181.06.242 1.205 7.125-2.83 14.311-8.975 15.941-.663.181-1.266.242-1.928.302 1.084.061 2.168 0 3.313-.302 6.265-1.63 10.301-8.816 9.036-15.941Z" fill="#EB9D35"/><path d="M59.307.29c-2.456-.172-3.01-.518-4.047-.068l2.733.276c.415-.173.899-.242 1.314-.207ZM53.773 12.26l-2.733-.278c.208 3.079 1.349 7.022 3.84 7.645.38.104.83.104 3.078.346-2.663-.277-3.978-4.462-4.185-7.714Z" fill="#D77D14"/><path d="M57.993.533 55.26.256a1.68 1.68 0 0 1-.242.104c-2.767 1.487-4.29 6.953-3.978 11.623l2.733.276c-.208-3.251.484-7.506 2.248-9.996.553-.761 1.176-1.419 1.972-1.73Z" fill="#E99709"/><path d="M58.096 2.228c2.214-.969 4.22 1.798 4.532 6.122.276 4.358-1.245 8.682-3.46 9.65-2.213.97-4.22-1.798-4.53-6.122-.312-4.358 1.245-8.682 3.459-9.65Z" fill="#FFDF6B"/><path d="M62.628 8.385c-.277-4.358-2.318-7.091-4.532-6.123-.345.139-.657.38-.968.658.138-.104.277-.173.45-.243 2.213-.968 4.22 1.8 4.53 6.123.243 3.701-.83 7.368-2.49 8.993 1.938-1.349 3.286-5.361 3.01-9.408Z" fill="#EB9D35"/><path d="M63.492 8.004c-.345-5.292-2.836-8.647-5.5-7.471V.67.533c-2.697 1.176-4.565 6.434-4.22 11.76.347 5.293 2.837 8.648 5.5 7.472 2.699-1.21 4.566-6.468 4.22-11.76ZM59.17 18.035c-2.214.969-4.22-1.798-4.532-6.122-.276-4.358 1.246-8.682 3.46-9.65 2.213-.97 4.22 1.798 4.53 6.122.277 4.358-1.28 8.682-3.458 9.65Z" fill="#FFDF6B"/><path d="m57.993.533.103 1.73c-2.213.968-3.77 5.292-3.459 9.65l-.864.38c-.346-5.326 1.522-10.584 4.22-11.76Z" fill="#F4EF89"/><path d="M79.076 49.137s-1.586-9.434 8.214-12.89c0 0-1.586-.203-2.318-.244-.04 0-.895 0-1.139.04-.61.082-.772.123-.894.123-.04 0-.122.04-.325.08-5.49 1.261-8.58 7.564-7.523 13.175a11.688 11.688 0 0 0 1.383 3.782c1.463 2.44 3.822 4.147 6.587 4.473l2.358.244c-1.748-.163-5.611-3.782-6.343-8.783Z" fill="#E99709"/><path d="M79.727 37.467h4.879c.773-.488 1.667-.895 2.684-1.26 0 0-1.586-.204-2.318-.245-.04 0-.895 0-1.139.041-.61.081-.772.122-.894.122-.04 0-.122.04-.325.081-1.017.244-1.993.692-2.887 1.26Z" fill="#D77D14"/><path d="M77.775 39.215a11.743 11.743 0 0 0-2.033 3.457h4.228c.489-1.18 1.261-2.359 2.359-3.457h-4.554Z" fill="#F7A00A"/><path d="M79.157 49.625h-4.025a11.441 11.441 0 0 0 1.342 3.578c1.463 2.44 3.822 4.148 6.587 4.473l2.358.244c-1.667-.163-5.367-3.538-6.262-8.295Z" fill="#D77D14"/><path d="M85.379 39.825c.813-.203 1.585-.284 2.358-.203l.244 1.098c.976 5.611-2.196 11.182-7.075 12.483h-.082c-.853-1.098-1.504-2.521-1.789-4.107 0-.04 0-.122-.04-.162.081-4.23 2.643-8.092 6.384-9.109Z" fill="#FFDF6B"/><path d="m84.81 36.49.325 1.912c-4.189 1.098-6.913 5.937-6.06 10.735l-1.626.447c-1.016-5.896 2.278-11.71 7.36-13.093Z" fill="#F4EF89"/><path d="M85.135 38.402c.69-.203 1.423-.244 2.114-.244.203.447.366.935.488 1.464-.773-.081-1.545 0-2.358.203-3.741 1.017-6.344 4.88-6.344 9.15-.732-4.758 1.993-9.475 6.1-10.573Z" fill="#FFDF6B"/><path d="M85.053 38.402c-.04 0-.04 0 0 0-.04 0-.04 0 0 0Zm-.122.04h-.04.04Zm-.081.041h-.04.04Zm-.081 0c-.041.041-.041.041 0 0-.041.041-.041.041 0 0Zm-.122.041h-.041.04Zm-.082.04h-.04.04Zm-.081.041c-.04 0-.04 0 0 0-.04 0-.04 0 0 0Zm-.122.041h-.04.04Zm-.081.04h-.041.04Zm-.082.041s-.04 0 0 0c-.04 0 0 0 0 0Zm-.081.041h-.04.04Zm-.285.122s-.04 0 0 0c-.04 0 0 0 0 0Zm-.08.04c-.042 0-.042 0 0 0-.042 0-.042 0 0 0Zm-.082.041s-.04 0-.04.041c0-.04 0-.04.04-.04Zm-.204.082s0 .04 0 0c0 .04 0 0 0 0Zm-.08.04c0 .041 0 .041 0 0 0 .041 0 .041 0 0Zm-.082.082s-.04 0 0 0c-.04 0 0 0 0 0Zm-.082.04s-.04 0 0 0c-.04 0 0 0 0 0Zm-.08.041s-.041.04 0 0c-.041.04 0 0 0 0Zm-.082.081s-.04 0 0 0c-.04 0 0 0 0 0Zm-.082.041c-.04 0-.04 0 0 0-.04 0-.04 0 0 0Zm-.08.04c-.041 0-.041.041 0 0-.041.041-.041 0 0 0Zm-.082.082c-.04 0-.04 0 0 0-.04 0-.04 0 0 0Zm-.081.04c-.041 0-.041 0 0 0-.041 0-.041 0 0 0Zm-.082.082c-.04 0-.04 0 0 0-.04 0-.04 0 0 0Zm-.081.04c-.04 0-.04 0 0 0-.04 0-.04 0 0 0Zm-.081.082s-.041 0 0 0c-.041 0 0 0 0 0Zm-.082.04s-.04 0 0 0c-.04 0 0 0 0 0Zm-.081.082s-.04 0 0 0c-.04 0 0 0 0 0Zm-.081.04s0 .041 0 0c0 .041 0 0 0 0Zm-.163.123c0 .04 0 .04 0 0 0 .04 0 .04 0 0Zm-.081.081s0 .04 0 0c0 .04 0 0 0 0Zm-.041.081c-.04 0-.04 0 0 0-.04 0-.04 0 0 0Zm-.081.04c0 .042-.041.042 0 0-.041.042 0 .042 0 0Zm-.082.082s0 .04 0 0c0 .04 0 0 0 0Zm-.122.163c-.04 0-.04 0 0 0-.04 0-.04 0 0 0Zm-.081.04c0 .041-.04.041 0 0-.04.041 0 .041 0 0Zm-.081.082c0 .04 0 .04 0 0 0 .04 0 .04 0 0Zm-.082.081s0 .04 0 0c0 .04 0 0 0 0Zm-.04.081c-.041 0-.041 0 0 0-.041 0-.041 0 0 0Zm-.204.245s-.04 0 0 0c-.04 0 0 0 0 0Zm4.961-4.758c-.366.04-.772.081-1.138.203h-.081c-.041 0-.082 0-.123.041l.326 1.911c.69-.203 1.423-.244 2.114-.244a8.057 8.057 0 0 0-1.098-1.91Zm-7.116 12.727c0-.081-.04-.162-.04-.203.04.04.04.122.04.203Zm0-.244v-.122c-.04.082-.04.122 0 .122Zm.04.407c0-.04 0-.122-.04-.163.04.04.04.082.04.163Zm-1.626.407c0 .04 0 .08.041.122a11.351 11.351 0 0 0 1.383 3.781c.65 0 1.341-.081 1.992-.244-.854-1.098-1.504-2.52-1.79-4.107l-1.626.448Zm1.546-1.017v-.122.122Zm0-.122v-.122c-.041.04-.041.081 0 .122Zm-.041-.122v-.122.122Zm0-.081v-.122.122Zm0-.122v-.122.122Zm0-.122v-.122.122Zm0-.122v-.122.122Zm-.04-.082v-.122.122Zm0-.122v-.122.122Zm0-.122v-.122.122Zm0-.08v-.123.122Zm0-.123v-.325.325Zm.04-.325v-.325.325Zm0-.325c.04-.61.163-1.22.285-1.79-.163.57-.244 1.18-.285 1.79Zm.285-1.83v-.082.082Zm.04-.082v-.08.08Zm.04-.122v-.08.08Zm0-.08c0-.042 0-.042.042-.082 0 0-.041.04-.041.081Zm.042-.123c0-.04 0-.04.04-.081-.04.04-.04.081-.04.081Zm.04-.081v-.081.08Zm.04-.122v-.04.04Zm0-.081v-.041c.042 0 .042 0 0 .04Zm.042-.123v-.04c.04 0 0 .04 0 .04Zm.04-.08v-.041.04Zm.04-.123v-.04.04Zm.041-.081v-.04.04Zm.041-.122v-.04.04Zm.04-.081v-.041.04Zm.082-.204s0-.04 0 0c0-.04 0 0 0 0Zm.04-.081c0-.04 0-.04 0 0 0-.04 0-.04 0 0Zm.082-.203v-.041.04Zm.04-.082c0-.04 0-.04 0 0 0-.04 0-.04 0 0Zm.041-.122s.041 0 0 0c.041 0 0 0 0 0Zm.041-.081c.04 0 .04-.04 0 0 .04-.04.04 0 0 0Zm.082-.081c0-.041 0-.041 0 0 0-.041 0-.041 0 0Zm.121-.285s.041-.04 0 0c.041-.04 0 0 0 0Zm.082-.081c0-.041 0-.041 0 0 0-.041 0-.041 0 0Zm.122-.285c.04 0 .04 0 0 0 .04 0 .04 0 0 0Zm.081-.081s0-.04 0 0c0-.04 0 0 0 0Zm.04-.082s.041-.04 0 0c.041-.04 0 0 0 0Zm.082-.08c0-.042 0-.042 0 0 0-.042 0-.042 0 0Zm.04-.082c0-.04 0-.04 0 0 0-.04 0-.04 0 0Zm.041-.122c.041 0 .041 0 0 0 .041 0 .041 0 0 0Zm.122-.163c.041 0 .041 0 0 0 .041 0 .041 0 0 0Zm.122-.163c.041 0 .041 0 0 0 .041 0 .041 0 0 0Zm.122-.08c-.04 0-.04 0 0 0-.04 0-.04 0 0 0Zm-2.073 7.359v.122-.122Z" fill="#F4EF89"/><path d="M85.175 36.41c4.961-1.098 9.718 2.48 10.694 8.214 1.017 5.855-2.277 11.71-7.4 13.052-5.002 1.342-9.881-2.155-10.979-7.888a11.02 11.02 0 0 0 1.383 3.66c.65 0 1.341-.082 1.992-.245 1.749 2.237 4.514 3.335 7.279 2.603 4.188-1.098 6.912-5.937 6.058-10.735 0-.04 0-.122-.04-.163-.732-3.903-3.62-6.587-6.954-6.75a9.61 9.61 0 0 0-1.057-1.91c-.325.04-.65.08-.976.162Z" fill="#F4EF89"/><path d="M94.202 45.07c0-.04 0-.121-.04-.162-.732-3.904-3.62-6.587-6.954-6.75.204.447.366.935.488 1.464l.244 1.098c.976 5.611-2.195 11.182-7.075 12.483h-.081c1.748 2.236 4.513 3.334 7.278 2.602 4.27-1.097 6.994-5.936 6.14-10.734Z" fill="#F8D454"/><path d="M94.202 45.07c0-.04 0-.121-.04-.162-.732-3.904-3.62-6.587-6.954-6.75 0 .04.041.081.041.122 2.887.61 5.286 3.131 5.937 6.628 0 .04 0 .122.04.163.814 4.798-1.91 9.637-6.058 10.735-.448.122-.854.162-1.302.203.732.04 1.464 0 2.237-.203 4.229-1.098 6.953-5.937 6.1-10.735Z" fill="#EB9D35"/></svg>