<svg width="200" height="257" fill="none" xmlns="http://www.w3.org/2000/svg"><path d="M67.305 222.002c-52.176 3.621-79.837 14.05-61.78 23.292 18.056 9.243 74.99 13.798 127.168 10.171 52.178-3.626 79.839-14.051 61.783-23.293-18.057-9.243-74.992-13.792-127.17-10.17Z" fill="#009E82"/><path d="M61.925 78.296s1.633-4.698 6.965-3.827c0 0-.672-.489-.996-.69a6.589 6.589 0 0 0-.53-.266c-.298-.115-.382-.137-.438-.168-.018-.01-.065-.012-.168-.044-2.839-.759-5.812 1.325-6.76 4.157a6.08 6.08 0 0 0-.314 2.07c.058 1.478.707 2.846 1.887 3.685l1.015.7c-.718-.537-1.576-3.153-.661-5.617Z" fill="#E99709"/><path d="m65.136 73.136 2.226 1.219c.474-.03.984.008 1.538.095 0 0-.672-.488-.996-.69a6.606 6.606 0 0 0-.529-.266c-.299-.115-.383-.137-.439-.167-.018-.01-.065-.012-.168-.044-.543-.153-1.082-.183-1.632-.147Z" fill="#D77D14"/><path d="M63.81 73.446a6.104 6.104 0 0 0-1.79 1.069l1.928 1.056a5.563 5.563 0 0 1 1.939-.987l-2.078-1.138Z" fill="#F7A00A"/><path d="m61.84 78.54-1.836-1.006a5.948 5.948 0 0 0-.282 1.967c.059 1.478.708 2.846 1.888 3.685l1.014.7c-.72-.49-1.564-2.954-.784-5.347Z" fill="#D77D14"/><path d="M67.125 75.624c.422.11.794.266 1.126.496l-.163.562c-.956 2.803-3.794 4.551-6.344 3.926l-.037-.02a4.916 4.916 0 0 1 .21-2.32c.01-.019.03-.056.022-.085 1.074-1.918 3.226-3.03 5.186-2.56Z" fill="#FFDF6B"/><path d="m67.698 73.96-.319.935c-2.184-.545-4.635.981-5.444 3.383l-.853-.202c.988-2.906 3.953-4.754 6.616-4.115Z" fill="#F4EF89"/><path d="M67.37 74.914c.365.08.71.244 1.024.416a4.021 4.021 0 0 1-.143.79 3.492 3.492 0 0 0-1.126-.496c-1.96-.471-4.112.64-5.178 2.588.854-2.353 3.256-3.834 5.422-3.298Z" fill="#FFDF6B"/><path d="M67.332 74.894c-.018-.01-.018-.01 0 0-.018-.01-.018-.01 0 0Zm-.066-.012-.018-.01.018.01Zm-.047-.002-.018-.01.018.01Zm-.055-.03c-.01.018-.01.018 0 0-.01.018-.01.018 0 0Zm-.048-.002-.018-.01c-.01.018.018.01.018.01Zm-.047-.002-.019-.01.019.01Zm-.113-.014-.019-.01.019.01Zm-.047-.001-.019-.01.019.01Zm-.047-.002c-.02-.01-.02-.01 0 0-.02-.01-.02-.01 0 0Zm-.066-.012-.019-.01.019.01Zm-.095-.004s-.018-.01 0 0c-.018-.01 0 0 0 0Zm-.047-.002c-.019-.01-.019-.01 0 0-.019-.01-.019-.01 0 0Zm-.047-.001c-.019-.01-.019-.01 0 0-.019-.01-.019-.01 0 0Zm-.066-.012s-.019-.01-.029.008l.029-.008Zm-.095-.004s-.028.009 0 0c-.028.009 0 0 0 0Zm-.047-.001c-.01.018-.028.008 0 0-.028.008-.01.018 0 0Zm-.057.016s-.019-.01 0 0c-.019-.01 0 0 0 0Zm-.047-.001c-.019-.01-.019-.01 0 0-.019-.01-.019-.01 0 0Zm-.048-.002c-.018-.01-.028.008 0 0-.028.008-.018-.01 0 0Zm-.057.017c-.019-.01-.019-.01 0 0-.019-.01-.019-.01 0 0Zm-.047-.002c-.019-.01-.019-.01 0 0-.019-.01-.019-.01 0 0Zm-.066-.012s-.01.018 0 0c-.01.018 0 0 0 0Zm-.105.015s-.01.018 0 0c-.01.018 0 0 0 0Zm-.086.025c-.018-.01-.018-.01 0 0-.018-.01-.018-.01 0 0Zm-.057.017c-.019-.01-.019-.01 0 0-.019-.01-.019-.01 0 0Zm-.047-.002c-.02-.01-.03.008 0 0-.03.008-.02-.01 0 0Zm-.058.017c-.019-.01-.019-.01 0 0-.019-.01-.019-.01 0 0Zm-.047-.002s-.029.008 0 0c-.029.008 0 0 0 0Zm-.058.017s-.018-.01 0 0c-.018-.01 0 0 0 0Zm-.047-.002c-.01.019-.01.019 0 0-.01.019-.01.019 0 0Zm-.057.017s-.01.018 0 0c-.01.018 0 0 0 0Zm-.086.025c-.029.008-.029.008 0 0-.029.008-.029.008 0 0Zm-.058.017s-.028.008 0 0c-.028.008 0 0 0 0Zm-.153.06c-.019-.01-.019-.01 0 0-.019-.01-.019-.01 0 0Zm-.048-.002c-.01.019-.028.009 0 0-.028.009-.01.019 0 0Zm-.057.017s-.01.019 0 0c-.01.019 0 0 0 0Zm-.096.044s-.019-.01 0 0c-.019-.01 0 0 0 0Zm-.097.044c-.018-.01-.018-.01 0 0-.018-.01-.018-.01 0 0Zm3.451-.931c-.177-.073-.372-.156-.57-.192l-.018-.01-.019-.01c-.018-.01-.037-.02-.066-.012l-.319.934c.367.08.71.245 1.026.417.014-.378.01-.766-.034-1.127Zm-6.424 4.027c.02-.037.022-.084.032-.103.009.03-.012.066-.032.103Zm.042-.121.03-.056-.03.056Zm-.064.206c.01-.019.03-.056.022-.085-.01.019-.002.047-.022.085Zm-.862-.231c-.01.018-.02.037-.012.066a5.902 5.902 0 0 0-.314 2.07c.297.162.633.297.97.386a4.916 4.916 0 0 1 .21-2.32l-.854-.202Zm.977-.068.03-.056c-.028.009-.02.038-.03.056Zm.012-.066.03-.055-.03.055Zm.03-.055.031-.056-.03.056Zm.02-.037.031-.056-.03.056Zm.031-.056.03-.056-.03.056Zm.03-.056.031-.055c-.028.008-.038.027-.03.055Zm.013-.066.03-.055-.03.055Zm.02-.037.03-.055-.03.055Zm.03-.055Zm.031-.056.03-.055-.03.055Zm.02-.037.03-.056-.03.056Zm.03-.056Zm.082-.148.081-.148c-.012.066-.05.093-.081.148Zm.1-.138c.17-.268.379-.516.577-.745a4.496 4.496 0 0 0-.577.745Zm.587-.764.02-.037-.02.037Zm.038-.026.02-.038-.02.037Zm.031-.056.02-.037c.009.029-.02.037-.02.037Zm.039-.027c.01-.019.01-.019.039-.027-.029.008-.029.008-.04.027Zm.049-.046c.01-.018.01-.018.039-.026-.029.008-.04.026-.04.026Zm.039-.026.02-.038-.02.037Zm.03-.056.01-.019c.019.01-.01.019-.01.019Zm.039-.027.01-.019-.01.019Zm.049-.046.01-.018-.01.018Zm.039-.026.01-.019-.01.019Zm.049-.046.01-.019-.01.02Zm.039-.027.01-.018-.01.018Zm.049-.045.01-.019-.01.019Zm.039-.027.01-.019-.01.019Zm.088-.073s.01-.018 0 0c.01-.018 0 0 0 0Zm.038-.027c.01-.018.01-.018 0 0 .01-.018.01-.018 0 0Zm.088-.072.01-.019-.01.019Zm.04-.027c.01-.019.01-.019 0 0 .01-.019.01-.019 0 0Zm.087-.072s.029-.009 0 0c.029-.009 0 0 0 0Zm.039-.027c.028-.009.028-.009 0 0 .028-.009.028-.009 0 0Zm.145-.09s.01-.018 0 0c.01-.018 0 0 0 0Zm.039-.026c.01-.019.029-.009 0 0 .029-.009.01-.019 0 0Zm.057-.017c.01-.019.01-.019 0 0 .01-.019.01-.019 0 0Zm.088-.073s.019.01 0 0c.019.01 0 0 0 0Zm.058-.016s.01-.019 0 0c.01-.019 0 0 0 0Zm.038-.027s.01-.019 0 0c.01-.019 0 0 0 0Zm.04-.027c.028-.009.028-.009 0 0 .028-.009.028-.009 0 0Zm.057-.017c.01-.019.01-.019 0 0 .01-.019.01-.019 0 0Zm.039-.027c.01-.019.028-.008 0 0 .028-.008.01-.019 0 0Zm.106-.062s.019.01 0 0c.019.01 0 0 0 0Zm.096-.044s.019.01 0 0c.019.01 0 0 0 0Zm.096-.044c.019.01.019.01 0 0 .019.01.019.01 0 0Zm-2.804 2.876-.03.056.03-.056Z" fill="#F4EF89"/><path d="M67.867 74.005c2.537.738 3.813 3.559 2.826 6.417-.999 2.925-3.964 4.772-6.635 4.105-2.617-.637-3.969-3.45-3.037-6.34a5.728 5.728 0 0 0-.284 2.014c.297.163.633.298.97.387.239 1.456 1.226 2.648 2.67 3.005 2.184.545 4.635-.982 5.444-3.383.01-.019.03-.056.022-.084.64-1.964-.005-3.909-1.486-4.816a4.997 4.997 0 0 0-.004-1.135c-.14-.053-.299-.115-.486-.17Z" fill="#FFDF6B"/><path d="M69.84 80.22c.01-.019.03-.056.021-.085.641-1.963-.005-3.908-1.485-4.815a4.018 4.018 0 0 1-.143.79l-.163.562c-.956 2.803-3.794 4.551-6.345 3.926l-.037-.02c.24 1.456 1.226 2.647 2.67 3.004 2.203.556 4.654-.97 5.481-3.362Z" fill="#E9B205"/><path d="M69.84 80.22c.01-.019.03-.056.021-.084.641-1.963-.005-3.909-1.485-4.816-.01.019-.002.048-.012.066 1.164 1 1.629 2.749 1.052 4.506-.01.018-.03.056-.022.084-.827 2.392-3.278 3.918-5.444 3.383a3.751 3.751 0 0 1-.644-.232c.323.2.667.365 1.07.465 2.185.546 4.636-.98 5.463-3.372Z" fill="#EB9D35"/><path d="M68.509 49.812c-2.428 1.433-3.184 1.473-3.9 2.587l2.785-1.512a2.88 2.88 0 0 1 1.115-1.075ZM71.056 64.776 68.27 66.29c2.229 2.786 5.85 5.77 8.596 4.736.438-.16.836-.438 3.144-1.672-2.666 1.473-6.646-1.631-8.954-4.577Z" fill="#D77D14"/><path d="m67.394 50.887-2.786 1.512c-.04.08-.08.16-.159.239-1.671 3.224.438 9.392 3.781 13.65l2.786-1.512c-2.308-2.945-4.418-7.442-4.378-10.944.04-1.075.239-2.11.756-2.945Z" fill="#E99709"/><path d="M79.103 67.563c2.181-1.32 1.794-5.957-.867-10.359-2.66-4.401-6.587-6.9-8.769-5.581-2.182 1.319-1.794 5.956.867 10.358 2.66 4.401 6.586 6.9 8.769 5.581Z" fill="#FFDF6B"/><path d="M76.906 55.304c-3.104-3.94-6.845-5.253-8.278-2.865a3.262 3.262 0 0 0-.478 1.273c.08-.199.16-.358.279-.517 1.472-2.348 5.174-1.074 8.278 2.866 2.627 3.343 4.02 7.522 3.463 10.148.995-2.507-.359-7.203-3.264-10.905Z" fill="#EB9D35"/><path d="M77.463 54.39c-3.78-4.816-8.318-6.369-10.069-3.503l.12.12-.12-.12c-1.79 2.865-.159 9.074 3.662 13.89 3.78 4.815 8.318 6.367 10.069 3.502 1.79-2.866.159-9.074-3.662-13.89Zm2.428 12.337c-1.473 2.348-5.174 1.074-8.278-2.866-3.104-3.94-4.458-9.074-2.985-11.422 1.472-2.348 5.174-1.075 8.278 2.865 3.104 3.94 4.457 9.075 2.985 11.423Z" fill="#FFDF6B"/><path d="m67.394 50.887 1.234 1.552c-1.473 2.348-.12 7.482 2.985 11.422l-.557.915c-3.821-4.815-5.453-11.024-3.662-13.89Z" fill="#F4EF89"/><path d="M93.749 64.622c-1.728-.484-2.08-.814-2.906-.652l1.921.613c.342-.082.682-.057.985.039ZM87.998 72.383l-1.922-.613c-.298 2.25-.073 5.23 1.611 6.035.266.13.57.19 2.153.707-1.85-.576-2.178-3.771-1.842-6.129Z" fill="#D77D14"/><path d="m92.764 64.583-1.921-.613c-.055.017-.109.034-.18.032-2.217.652-4.121 4.338-4.605 7.75l1.922.613c.336-2.358 1.472-5.307 3.099-6.832.51-.455 1.074-.82 1.685-.95Z" fill="#E99709"/><path d="M90.263 77.307c1.566.42 3.525-1.8 4.375-4.96.85-3.162.268-6.066-1.299-6.487-1.567-.42-3.525 1.8-4.375 4.96-.85 3.162-.268 6.066 1.299 6.487Z" fill="#FFDF6B"/><path d="M94.925 70.898c.442-3.16-.602-5.457-2.33-5.064-.27.048-.541.168-.796.342.127-.051.235-.085.36-.1 1.728-.358 2.773 1.903 2.331 5.064-.378 2.68-1.684 5.16-3.136 6.06 1.59-.647 3.15-3.337 3.571-6.302Z" fill="#EB9D35"/><path d="M95.59 70.75c.547-3.857-.738-6.624-2.826-6.166l-.002.107.002-.108c-2.105.44-4.237 3.924-4.766 7.8-.547 3.858.739 6.625 2.826 6.168 2.105-.44 4.238-3.924 4.767-7.8Zm-4.596 6.55c-1.727.358-2.773-1.903-2.33-5.064.442-3.161 2.204-6.044 3.93-6.402 1.728-.358 2.773 1.903 2.331 5.064-.442 3.161-2.204 6.044-3.931 6.402Z" fill="#FFDF6B"/><path d="m92.764 64.584-.17 1.25c-1.726.358-3.488 3.241-3.93 6.402l-.666.147c.528-3.875 2.661-7.36 4.766-7.8Z" fill="#F4EF89"/><path d="M126.283 43.136c-2.182-1.02-2.576-1.534-3.707-1.501l2.411 1.234c.471-.034.916.073 1.296.267ZM116.961 52.156l-2.411-1.234c-.889 2.916-1.245 6.91.81 8.348.324.231.712.378 2.697 1.41-2.326-1.17-2.058-5.474-1.096-8.524Z" fill="#D77D14"/><path d="m124.987 42.869-2.411-1.234c-.076.01-.151.02-.245.003-3.08.377-6.412 4.842-7.801 9.255l2.412 1.235c.962-3.05 3.115-6.708 5.603-8.37.777-.491 1.603-.85 2.442-.89Z" fill="#E99709"/><path d="M118.881 59.176c1.983.902 5.066-1.61 6.885-5.612 1.819-4 1.686-7.975-.297-8.877-1.984-.902-5.066 1.61-6.885 5.611-1.82 4.002-1.687 7.976.297 8.878Z" fill="#FFDF6B"/><path d="M126.464 51.71c1.279-4.092.399-7.364-1.976-7.221a2.792 2.792 0 0 0-1.129.278c.179-.04.33-.06.5-.053 2.366-.096 3.255 3.13 1.975 7.22-1.089 3.466-3.363 6.465-5.484 7.34 2.248-.508 4.906-3.73 6.114-7.565Z" fill="#EB9D35"/><path d="M127.378 51.66c1.57-4.991.475-8.94-2.391-8.79l-.027.141.027-.142c-2.885.12-6.475 4.268-8.026 9.287-1.571 4.99-.475 8.94 2.391 8.79 2.885-.12 6.475-4.268 8.026-9.286Zm-7.527 7.667c-2.367.096-3.255-3.129-1.976-7.22 1.28-4.09 4.246-7.523 6.613-7.619 2.367-.095 3.255 3.13 1.976 7.22-1.28 4.092-4.247 7.524-6.613 7.62Z" fill="#FFDF6B"/><path d="m124.987 42.87-.499 1.619c-2.367.095-5.333 3.527-6.613 7.618l-.914.05c1.551-5.02 5.141-9.167 8.026-9.288Z" fill="#F4EF89"/><path d="M130.634 72.183c-1.554 1.704-2.135 1.917-2.427 2.96l1.814-1.852c.103-.44.328-.816.613-1.108ZM136.223 83.27l-1.815 1.851c2.413 1.643 5.962 3.106 7.86 1.636.304-.23.548-.543 2.056-2.062-1.73 1.792-5.588.322-8.101-1.426Z" fill="#D77D14"/><path d="m130.021 73.29-1.814 1.853c-.012.072-.024.144-.067.225-.532 2.922 2.6 7.238 6.237 9.764l1.815-1.852c-2.513-1.748-5.243-4.757-6.054-7.505-.227-.85-.32-1.706-.117-2.484Z" fill="#E99709"/><path d="M143.184 83.514c1.389-1.556-.029-5.089-3.168-7.89-3.138-2.802-6.808-3.812-8.197-2.256-1.389 1.555.029 5.088 3.168 7.89 3.138 2.801 6.808 3.811 8.197 2.256Z" fill="#FFDF6B"/><path d="M138.52 74.458c-3.374-2.334-6.615-2.462-7.161-.25-.101.337-.12.718-.067 1.11.014-.175.038-.318.093-.471.587-2.19 3.787-2.084 7.161.25 2.857 1.982 4.951 4.914 5.147 7.102.175-2.2-2.012-5.546-5.173-7.741Z" fill="#EB9D35"/><path d="M138.735 73.608c-4.113-2.856-8.034-2.979-8.714-.318l.122.065-.122-.065c-.711 2.671 2.057 7.133 6.202 9.98 4.114 2.856 8.034 2.978 8.714.317.712-2.67-2.057-7.133-6.202-9.98Zm4.865 9.062c-.587 2.19-3.787 2.084-7.161-.25-3.375-2.334-5.667-6.023-5.08-8.213.587-2.19 3.787-2.084 7.161.25 3.374 2.335 5.666 6.023 5.08 8.213Z" fill="#FFDF6B"/><path d="m130.021 73.29 1.338.917c-.587 2.19 1.705 5.879 5.08 8.213l-.216.85c-4.145-2.847-6.913-7.308-6.202-9.98Z" fill="#F4EF89"/><path d="M145.227 114.33c-1.843-2.604-7.263-5.21-12.095-5.802l.027.045-.027-.045c-4.823-.628-7.255.993-5.412 3.596 1.844 2.604 7.263 5.21 12.096 5.803 4.832.592 7.255-.994 5.411-3.597Zm-5.996 2.762c-3.984-.489-8.414-2.652-9.956-4.797-1.507-2.137.467-3.457 4.451-2.968 3.984.488 8.414 2.651 9.956 4.797 1.507 2.136-.503 3.447-4.451 2.968Z" fill="#FFDF6B"/><path d="m133.141 108.492.585.835c-3.984-.489-5.958.831-4.451 2.968l-1.545-.206c-1.853-2.568.579-4.189 5.411-3.597Z" fill="#F4EF89"/><path d="M133.717 109.362c3.984.489 8.413 2.651 9.956 4.797 1.507 2.136-.468 3.457-4.451 2.968-3.984-.489-8.414-2.652-9.956-4.797-1.498-2.172.476-3.492 4.451-2.968Z" fill="#FFDF6B"/><path d="M133.366 109.843c3.983.488 8.413 2.651 9.956 4.797.469.691.617 1.3.418 1.781.593-.533.607-1.328-.067-2.262-1.507-2.136-5.981-4.273-9.956-4.797-2.688-.347-4.452.152-4.87 1.187.746-.684 2.348-.996 4.519-.706Z" fill="#EB9D35"/><path d="m127.17 109.967-1.199 3.193c-.227.589-.07 1.314.515 2.148l1.199-3.193c-.549-.825-.697-1.586-.515-2.148Z" fill="#F0AE64"/><path d="M145.742 116.478c-.845 2.257-5.856 1.619-8.498.942-3.177-.815-7.733-2.782-9.55-5.34l-1.199 3.193c2.766 3.904 12.802 7.2 16.817 5.49.555-.238 1.022-.575 1.195-1.101l1.235-3.184Z" fill="#DD9A50"/><path d="M104.602 33.768c-1.729-2.32-6.684-4.561-11.077-5.036l.016.04-.016-.04c-4.393-.474-6.565 1.057-4.863 3.367 1.73 2.32 6.684 4.561 11.077 5.036 4.404.446 6.565-1.057 4.863-3.367Zm-5.425 2.61c-3.62-.378-7.688-2.247-9.107-4.145-1.418-1.897.37-3.133 3.99-2.756 3.618.378 7.687 2.247 9.106 4.145 1.418 1.897-.37 3.134-3.99 2.756Z" fill="#FFDF6B"/><path d="m93.497 28.72.562.757c-3.619-.378-5.407.859-3.989 2.756l-1.436-.146c-1.69-2.337.47-3.84 4.863-3.366Z" fill="#F4EF89"/><path d="M94.06 29.477c3.618.378 7.687 2.247 9.106 4.145 1.418 1.897-.37 3.134-3.99 2.756-3.618-.378-7.687-2.247-9.106-4.145-1.407-1.925.382-3.161 3.99-2.756Z" fill="#FFDF6B"/><path d="M93.751 29.902c3.62.378 7.688 2.247 9.106 4.144.459.616.589 1.159.403 1.602.505-.505.511-1.219-.11-2.066-1.419-1.897-5.488-3.766-9.107-4.144-2.439-.241-4.036.229-4.392 1.154.674-.596 2.095-.88 4.1-.69Z" fill="#EB9D35"/><path d="m88.142 30.154-1.019 2.895c-.193.538-.042 1.187.52 1.944l1.019-2.895c-.562-.756-.713-1.406-.52-1.944Z" fill="#F0AE64"/><path d="M105.094 35.7c-.725 2.041-5.291 1.592-7.697 1.039-2.912-.668-7.077-2.382-8.735-4.64l-1.019 2.894c2.575 3.49 11.765 6.269 15.373 4.655.483-.22.918-.559 1.088-1.041l.99-2.907Z" fill="#DD9A50"/><path d="M142.676 17.206c-1.629-.229-4.513.878-6.459 2.462l.023.01-.023-.01c-1.946 1.585-2.195 3.074-.583 3.309 1.629.229 4.512-.878 6.459-2.462 1.939-1.6 2.195-3.074.583-3.31Zm-1.114 3.233c-1.598 1.311-3.977 2.208-5.311 2.023-1.333-.185-1.118-1.401.481-2.712 1.598-1.31 3.978-2.207 5.311-2.023 1.333.185 1.118 1.402-.481 2.712Z" fill="#FFDF6B"/><path d="m136.201 19.675.531.075c-1.599 1.31-1.814 2.527-.481 2.712l-.633.521c-1.619-.25-1.363-1.724.583-3.308Z" fill="#F4EF89"/><path d="M136.732 19.75c1.598-1.311 3.978-2.208 5.311-2.023 1.333.185 1.118 1.401-.481 2.712-1.598 1.31-3.978 2.207-5.311 2.023-1.339-.201-1.124-1.417.481-2.712Z" fill="#FFDF6B"/><path d="M136.78 20.044c1.598-1.31 3.978-2.207 5.311-2.023.432.061.703.225.808.477-.002-.405-.288-.693-.879-.78-1.333-.185-3.713.712-5.311 2.023-1.071.888-1.519 1.721-1.288 2.235.028-.51.482-1.198 1.359-1.932Z" fill="#EB9D35"/><path d="m134.641 22.41.763 1.567c.14.293.462.491.992.567l-.762-1.568c-.53-.075-.853-.274-.993-.566Z" fill="#F0AE64"/><path d="M143.652 17.778c.535 1.108-1.47 2.773-2.655 3.524-1.432.909-3.788 1.907-5.363 1.674l.762 1.568c2.438.354 7.231-2.248 8.021-4.35.103-.283.141-.594.013-.855l-.778-1.56Z" fill="#DD9A50"/><path d="M104.882 8.245c-.082-1.643-1.71-4.267-3.632-5.88l-.005.023.005-.024c-1.923-1.613-3.432-1.578-3.36.05.082 1.642 1.71 4.267 3.633 5.88 1.936 1.604 3.431 1.579 3.359-.05Zm-3.385-.486c-1.588-1.323-2.916-3.492-2.985-4.836-.069-1.344 1.166-1.361 2.754-.038s2.916 3.492 2.985 4.836c.069 1.344-1.166 1.362-2.754.038Z" fill="#FFDF6B"/><path d="m101.24 2.35.026.535c-1.588-1.323-2.823-1.306-2.754.039l-.631-.524c-.058-1.637 1.437-1.663 3.359-.05Z" fill="#F4EF89"/><path d="M101.266 2.885c1.588 1.323 2.916 3.492 2.985 4.836.069 1.344-1.166 1.362-2.754.039-1.588-1.324-2.916-3.492-2.985-4.836-.055-1.354 1.18-1.371 2.754-.039Z" fill="#FFDF6B"/><path d="M100.986 2.988c1.588 1.323 2.916 3.492 2.985 4.836.022.435-.089.733-.317.883.398-.078.627-.413.602-1.01-.069-1.343-1.397-3.512-2.985-4.835-1.075-.886-1.977-1.17-2.437-.845.506-.069 1.266.247 2.152.97Z" fill="#EB9D35"/><path d="m98.26 1.332-1.396 1.043c-.261.193-.395.547-.37 1.082l1.396-1.043c-.025-.535.109-.89.37-1.082Z" fill="#F0AE64"/><path d="M104.503 9.312c-.988.733-3-.923-3.96-1.945-1.162-1.236-2.585-3.363-2.653-4.953l-1.396 1.043c.11 2.461 3.567 6.68 5.78 7.06.297.049.61.027.842-.147l1.387-1.058Z" fill="#DD9A50"/><path d="M68.308 108.46c-3.713.823-4.708.527-6.03 1.665l4.213-.756a4.064 4.064 0 0 1 1.817-.909ZM65.323 128.677l-4.214.756c1.643 4.499 5.089 9.862 9.04 9.665.633-.025 1.273-.213 4.72-.851-3.988.797-7.782-4.839-9.546-9.57Z" fill="#BC762A"/><path d="m66.491 109.369-4.214.756c-.084.078-.217.171-.3.249-3.481 3.433-3.354 12.235-.819 19.044l4.214-.756c-1.764-4.732-2.536-11.362-1.016-15.827.44-1.414 1.1-2.626 2.135-3.466Z" fill="#CF893D"/><path d="M77.687 121.96c-1.57-6.747-5.548-11.587-8.886-10.811-3.338.776-4.77 6.874-3.201 13.62 1.57 6.746 5.548 11.587 8.886 10.811 3.338-.776 4.771-6.874 3.201-13.62Z" fill="#FFDF6B"/><path d="M76.763 119.048c-2.34-6.33-6.544-9.542-9.37-7.158-.435.342-.825.832-1.138 1.406.154-.206.37-.377.538-.533 2.827-2.384 7.08.813 9.372 7.157 1.952 5.373 1.986 11.309.236 14.448 2.372-2.839 2.573-9.434.362-15.32Z" fill="#EB9D35"/><path d="M77.918 118.066c-2.86-7.732-7.963-11.643-11.427-8.697l.058.197-.058-.197c-3.463 2.946-3.978 11.562-1.104 19.342 2.859 7.732 7.963 11.643 11.426 8.697 3.414-2.932 3.915-11.597 1.105-19.342Zm-2.055 16.835c-2.827 2.384-7.08-.813-9.371-7.157-2.34-6.33-1.927-13.47.9-15.854 2.827-2.384 7.08.813 9.371 7.158 2.341 6.33 1.927 13.469-.9 15.853Z" fill="#FFDF6B"/><path d="m66.492 109.37.9 2.521c-2.826 2.384-3.24 9.523-.9 15.854l-1.105.967c-2.874-7.78-2.373-16.445 1.105-19.342Z" fill="#FFDF6B"/><path d="M96.773 111.788c-1.516 1.899-2.13 2.151-2.33 3.248l1.791-2.067c.08-.462.288-.877.539-1.181ZM103.402 123.036l-1.791 2.067c2.622 1.577 6.487 2.86 8.372 1.177.305-.267.547-.617 2.005-2.318-1.663 1.997-5.81.718-8.586-.926Z" fill="#BC762A"/><path d="m96.234 112.969-1.791 2.067c-.01.072-.04.172-.05.244-.352 3.104 3.243 7.428 7.236 9.795l1.791-2.066c-2.775-1.644-5.82-4.63-6.856-7.46-.35-.88-.508-1.747-.33-2.58Z" fill="#CF893D"/><path d="M106.852 114.734c-3.487-2.723-7.407-3.533-8.755-1.808-1.348 1.726.387 5.332 3.874 8.056 3.488 2.723 7.408 3.533 8.756 1.807 1.348-1.725-.387-5.331-3.875-8.055Z" fill="#FFDF6B"/><path d="M105.225 113.658c-3.704-2.207-7.083-2.117-7.531.203a2.92 2.92 0 0 0-.001 1.155c-.007-.164.033-.336.053-.481.449-2.32 3.846-2.437 7.531-.203 3.127 1.887 5.526 4.824 5.916 7.087.04-2.364-2.507-5.722-5.968-7.761Z" fill="#EB9D35"/><path d="M105.404 112.706c-4.524-2.695-8.63-2.591-9.17.263l.108.075-.108-.075c-.54 2.855 2.662 7.344 7.214 10.058 4.524 2.696 8.63 2.592 9.17-.262.52-2.828-2.708-7.336-7.214-10.059Zm5.735 9.194c-.448 2.32-3.845 2.437-7.53.203-3.704-2.207-6.364-5.923-5.915-8.242.448-2.32 3.845-2.437 7.53-.203 3.705 2.207 6.364 5.922 5.915 8.242Z" fill="#FFDF6B"/><path d="m96.234 112.969 1.46.892c-.448 2.319 2.211 6.035 5.915 8.242l-.161.925c-4.551-2.715-7.78-7.223-7.213-10.059Z" fill="#FFDF6B"/><path d="M95.623 84.883c-2.985 2.918-4.086 3.218-4.659 5.046l3.49-3.146a4.442 4.442 0 0 1 1.169-1.9ZM104.551 105.461l-3.49 3.145c4.138 3.244 10.457 6.247 14.027 3.775.576-.391 1.063-.937 3.907-3.528-3.256 3.053-10.058-.003-14.444-3.392Z" fill="#BC762A"/><path d="m94.455 86.783-3.491 3.146c-.033.122-.103.285-.136.407-1.256 5.217 3.962 13.349 10.27 18.228l3.49-3.146c-4.386-3.389-8.947-9.123-10.115-14.166-.41-1.574-.498-3.086-.018-4.469Z" fill="#CF893D"/><path d="M112.187 92.035c-5.372-5.38-11.885-7.588-14.548-4.931-2.662 2.656-.465 9.172 4.906 14.552 5.372 5.38 11.886 7.588 14.548 4.931 2.663-2.657.466-9.172-4.906-14.552Z" fill="#FFDF6B"/><path d="M109.639 89.856c-5.85-4.546-11.63-5.105-12.884-1.244-.206.57-.287 1.253-.245 1.969.023-.281.127-.566.192-.81 1.255-3.86 7.072-3.343 12.884 1.245 4.933 3.878 8.404 9.392 8.591 13.333.566-4.022-3.067-10.286-8.538-14.493Z" fill="#EB9D35"/><path d="M110.146 88.271c-7.145-5.551-14.17-6.24-15.691-1.487l.168.15-.168-.15c-1.522 4.753 2.989 13.083 10.176 18.672 7.144 5.552 14.169 6.241 15.691 1.488 1.485-4.711-3.069-13.08-10.176-18.673Zm7.838 16.887c-1.254 3.86-7.071 3.344-12.884-1.244-5.85-4.546-9.6-11.442-8.345-15.302 1.255-3.86 7.071-3.344 12.884 1.244 5.849 4.545 9.599 11.441 8.345 15.302Z" fill="#FFDF6B"/><path d="m94.455 86.783 2.3 1.829c-1.253 3.86 2.497 10.756 8.346 15.302l-.47 1.542c-7.187-5.589-11.74-13.957-10.176-18.673Z" fill="#FFDF6B"/><path d="M77.315 93.85c-1.086-.532-1.274-.804-1.828-.783l1.196.648c.233-.01.457.045.632.135ZM72.564 98.28l-1.197-.649c-.485 1.444-.692 3.459.328 4.194.163.12.359.2 1.342.725-1.149-.593-.974-2.745-.473-4.27Z" fill="#BC762A"/><path d="m76.683 93.714-1.197-.647c-.036.002-.087-.001-.124.002-1.545.162-3.26 2.374-3.98 4.568l1.197.648c.5-1.525 1.623-3.325 2.886-4.133.39-.264.794-.434 1.218-.438Z" fill="#CF893D"/><path d="M76.967 99.063c.948-1.987.92-3.978-.063-4.448-.983-.469-2.548.762-3.496 2.749-.949 1.987-.92 3.978.063 4.448.983.469 2.548-.761 3.496-2.749Z" fill="#FFDF6B"/><path d="M77.315 98.156c.674-2.036.267-3.668-.908-3.636a1.45 1.45 0 0 0-.561.123c.079-.02.166-.02.24-.025 1.174-.032 1.597 1.606.907 3.636-.58 1.722-1.75 3.203-2.806 3.636 1.152-.235 2.51-1.833 3.128-3.734Z" fill="#EB9D35"/><path d="M77.797 98.141c.823-2.487.33-4.471-1.114-4.426l-.025.06.025-.06c-1.445.045-3.281 2.083-4.11 4.585-.824 2.488-.332 4.472 1.113 4.427 1.43-.051 3.272-2.104 4.11-4.586Zm-3.85 3.775c-1.175.031-1.597-1.606-.908-3.637.674-2.036 2.193-3.728 3.368-3.76 1.175-.03 1.597 1.607.908 3.637-.674 2.037-2.193 3.728-3.368 3.76Z" fill="#FFDF6B"/><path d="m76.683 93.715-.276.805c-1.175.031-2.694 1.723-3.368 3.76l-.467.02c.83-2.502 2.672-4.555 4.111-4.585Z" fill="#FFDF6B"/><path d="M88.568 128.121c-1.137.412-1.463.359-1.834.772l1.298-.411c.154-.175.35-.297.536-.361ZM88.453 134.616l-1.297.411c.702 1.351 2.008 2.901 3.245 2.677.199-.034.393-.119 1.453-.461-1.225.414-2.65-1.207-3.4-2.627Z" fill="#BC762A"/><path d="m88.031 128.482-1.297.411c-.023.028-.061.062-.085.091-.956 1.224-.556 3.994.522 6.036l1.297-.41c-.75-1.42-1.264-3.478-.968-4.948.08-.464.24-.873.531-1.18Z" fill="#CF893D"/><path d="M92.076 131.993c-.77-2.062-2.222-3.425-3.243-3.044-1.02.381-1.223 2.362-.452 4.424.77 2.062 2.223 3.425 3.243 3.044 1.021-.381 1.223-2.362.453-4.424Z" fill="#FFDF6B"/><path d="M91.666 131.113c-.997-1.9-2.454-2.74-3.247-1.873a1.456 1.456 0 0 0-.301.49c.04-.071.101-.134.148-.19.793-.868 2.265-.034 3.247 1.873.835 1.613 1.088 3.483.665 4.544.632-.992.425-3.079-.512-4.844Z" fill="#EB9D35"/><path d="M91.99 130.756c-1.218-2.32-2.987-3.344-3.958-2.274l.026.06-.026-.06c-.972 1.07-.781 3.807.443 6.142 1.217 2.321 2.986 3.345 3.958 2.274.956-1.063.76-3.815-.444-6.142Zm.04 5.391c-.793.867-2.265.034-3.246-1.873-.997-1.899-1.159-4.167-.365-5.034.793-.867 2.265-.034 3.247 1.873.996 1.899 1.158 4.167.364 5.034Z" fill="#FFDF6B"/><path d="m88.032 128.483.387.757c-.794.868-.632 3.135.365 5.035l-.31.35c-1.224-2.335-1.42-5.087-.442-6.142Z" fill="#FFDF6B"/><path d="M152.79 131.075H57.925c-5.657 0-10.242 3.866-10.242 8.635v72.421c0 4.769 4.585 8.635 10.242 8.635h94.865c5.657 0 10.242-3.866 10.242-8.635V139.71c0-4.769-4.585-8.635-10.242-8.635Z" fill="#058A72"/><path d="M150.107 133.793H55.243c-5.657 0-10.243 3.866-10.243 8.635v72.421c0 4.769 4.586 8.635 10.243 8.635h94.864c5.657 0 10.243-3.866 10.243-8.635v-72.421c0-4.769-4.586-8.635-10.243-8.635Z" fill="#6EE8D2"/><path d="M131.061 163.799h33.315c.869 0 1.703.35 2.318.973s.961 1.468.961 2.349v21.448c0 .881-.346 1.726-.961 2.349a3.254 3.254 0 0 1-2.318.974h-33.315a8.587 8.587 0 0 1-6.113-2.566 8.817 8.817 0 0 1-2.533-6.194v-10.575a8.824 8.824 0 0 1 2.533-6.193 8.593 8.593 0 0 1 6.113-2.565Z" fill="#047762"/><path d="M131.061 160.841h33.315c.869 0 1.703.35 2.318.973s.961 1.468.961 2.35v21.448c0 .881-.346 1.726-.961 2.349a3.257 3.257 0 0 1-2.318.973h-33.315a8.587 8.587 0 0 1-6.113-2.566 8.817 8.817 0 0 1-2.533-6.194v-10.573c0-2.323.911-4.551 2.533-6.194a8.587 8.587 0 0 1 6.113-2.566Z" fill="#ECFFFC"/><path d="M139.928 183.513c4.567 0 8.27-3.752 8.27-8.379 0-4.628-3.703-8.379-8.27-8.379-4.568 0-8.27 3.751-8.27 8.379 0 4.627 3.702 8.379 8.27 8.379Z" fill="#058A72"/><path d="M147.071 176.483c.992-4.258-1.611-8.524-5.813-9.529-4.202-1.005-8.413 1.632-9.405 5.89-.992 4.257 1.611 8.523 5.813 9.528 4.202 1.005 8.413-1.632 9.405-5.889Z" fill="#00D3AE"/><path d="M194.659 212h-32.517c-.706 0-1.283.577-1.283 1.283v5.131c0 .705.577 1.282 1.283 1.282h32.517c.706 0 1.283-.577 1.283-1.282v-5.131c0-.706-.577-1.283-1.283-1.283Z" fill="#FFD257"/><path d="M194.659 219.761h-32.581c-.642 0-1.155-.513-1.219-1.155h24.18c2.052 0 3.72-1.732 3.72-3.912V212h6.157s0 .064 0 0c.641.064 1.09.641 1.09 1.347v5.067c-.064.769-.641 1.347-1.347 1.347Z" fill="#F3B96D"/><path fill-rule="evenodd" clip-rule="evenodd" d="M178.304 213.193c.263 0 .475.212.475.475v4.297a.474.474 0 1 1-.949 0v-4.297c0-.263.212-.475.474-.475ZM175.739 213.193c.262 0 .475.212.475.475v4.297a.475.475 0 0 1-.95 0v-4.297c0-.263.213-.475.475-.475ZM173.109 213.193c.262 0 .475.212.475.475v4.297a.475.475 0 0 1-.949 0v-4.297c0-.263.212-.475.474-.475ZM170.544 213.193c.262 0 .474.212.474.475v4.297a.474.474 0 1 1-.949 0v-4.297c0-.263.213-.475.475-.475ZM167.978 213.193c.262 0 .475.212.475.475v4.297a.475.475 0 0 1-.949 0v-4.297c0-.263.212-.475.474-.475ZM165.413 213.193c.262 0 .474.212.474.475v4.297a.474.474 0 1 1-.949 0v-4.297c0-.263.213-.475.475-.475ZM162.783 213.193c.262 0 .475.212.475.475v4.297a.475.475 0 0 1-.949 0v-4.297c0-.263.212-.475.474-.475ZM193.826 213.193c.262 0 .474.212.474.475v4.297a.474.474 0 1 1-.949 0v-4.297c0-.263.213-.475.475-.475ZM191.26 213.193c.262 0 .475.212.475.475v4.297a.475.475 0 0 1-.949 0v-4.297c0-.263.212-.475.474-.475ZM188.631 213.193c.262 0 .474.212.474.475v4.297a.474.474 0 1 1-.949 0v-4.297c0-.263.212-.475.475-.475ZM186.065 213.193c.262 0 .475.212.475.475v4.297a.475.475 0 0 1-.95 0v-4.297c0-.263.213-.475.475-.475ZM183.5 213.193c.262 0 .474.212.474.475v4.297a.474.474 0 1 1-.949 0v-4.297c0-.263.212-.475.475-.475ZM180.87 213.193c.262 0 .475.212.475.475v4.297a.475.475 0 0 1-.95 0v-4.297c0-.263.213-.475.475-.475Z" fill="#DB9F4F"/><path opacity=".5" d="M175.739 212h-8.017c-.706 0-1.219.577-1.219 1.219v5.259c0 .705.577 1.218 1.219 1.218h8.017c.705 0 1.219-.577 1.219-1.218v-5.259c0-.642-.514-1.219-1.219-1.219Z" fill="#FCED99"/><path d="M197.033 219.826h-32.518c-.706 0-1.283.577-1.283 1.282v5.131c0 .706.577 1.283 1.283 1.283h32.518c.705 0 1.282-.577 1.282-1.283v-5.131c.064-.705-.577-1.282-1.282-1.282Z" fill="#FFD257"/><path d="M197.098 227.521h-32.582c-.642 0-1.155-.513-1.219-1.154h24.18c2.052 0 3.72-1.732 3.72-3.912v-2.694h6.157s0 .064 0 0c.641.064 1.09.641 1.09 1.347v5.066c-.064.77-.641 1.347-1.346 1.347Z" fill="#F3B96D"/><path fill-rule="evenodd" clip-rule="evenodd" d="M180.742 221.018c.262 0 .474.213.474.475v4.297a.475.475 0 1 1-.949 0v-4.297c0-.262.212-.475.475-.475ZM178.112 221.018c.262 0 .475.213.475.475v4.297a.475.475 0 0 1-.95 0v-4.297c0-.262.213-.475.475-.475ZM175.547 221.018c.262 0 .474.213.474.475v4.297a.475.475 0 1 1-.949 0v-4.297c0-.262.212-.475.475-.475ZM172.981 221.018c.262 0 .475.213.475.475v4.297a.475.475 0 0 1-.95 0v-4.297c0-.262.213-.475.475-.475ZM170.351 221.018c.263 0 .475.213.475.475v4.297a.475.475 0 1 1-.949 0v-4.297c0-.262.212-.475.474-.475ZM167.786 221.018c.262 0 .475.213.475.475v4.297a.475.475 0 0 1-.95 0v-4.297c0-.262.213-.475.475-.475ZM165.22 221.018c.263 0 .475.213.475.475v4.297a.475.475 0 1 1-.949 0v-4.297c0-.262.212-.475.474-.475ZM196.199 220.954c.262 0 .474.212.474.474v4.297a.474.474 0 1 1-.949 0v-4.297c0-.262.213-.474.475-.474ZM193.633 220.954c.262 0 .475.212.475.474v4.297a.475.475 0 1 1-.949 0v-4.297c0-.262.212-.474.474-.474ZM191.068 220.954c.262 0 .474.212.474.474v4.297a.474.474 0 1 1-.949 0v-4.297c0-.262.213-.474.475-.474ZM188.502 220.954c.262 0 .475.212.475.474v4.297a.475.475 0 1 1-.949 0v-4.297c0-.262.212-.474.474-.474ZM185.873 220.954c.262 0 .474.212.474.474v4.297a.474.474 0 1 1-.949 0v-4.297c0-.262.212-.474.475-.474ZM183.307 220.954c.262 0 .475.212.475.474v4.297a.475.475 0 1 1-.95 0v-4.297c0-.262.213-.474.475-.474Z" fill="#DB9F4F"/><path opacity=".5" d="M178.176 219.825h-8.017c-.706 0-1.219.577-1.219 1.219v5.259c0 .706.578 1.219 1.219 1.219h8.017c.706 0 1.219-.578 1.219-1.219v-5.259c0-.706-.577-1.219-1.219-1.219Z" fill="#FCED99"/><path d="M192.799 227.458h-32.517c-.706 0-1.283.577-1.283 1.282v5.131c0 .706.577 1.283 1.283 1.283h32.517c.706 0 1.283-.577 1.283-1.283v-5.131c0-.705-.577-1.282-1.283-1.282Z" fill="#FFD257"/><path d="M192.799 235.218h-32.581c-.642 0-1.155-.513-1.219-1.154h24.18c2.052 0 3.72-1.732 3.72-3.913v-2.693h6.157s0 .064 0 0c.641.064 1.09.641 1.09 1.346v5.067c-.064.77-.641 1.347-1.347 1.347Z" fill="#F3B96D"/><path fill-rule="evenodd" clip-rule="evenodd" d="M176.444 228.65c.263 0 .475.213.475.475v4.297a.475.475 0 1 1-.949 0v-4.297c0-.262.212-.475.474-.475ZM173.879 228.65c.262 0 .475.213.475.475v4.297a.475.475 0 0 1-.95 0v-4.297c0-.262.213-.475.475-.475ZM171.249 228.65c.262 0 .475.213.475.475v4.297a.475.475 0 0 1-.949 0v-4.297c0-.262.212-.475.474-.475ZM168.684 228.65c.262 0 .474.213.474.475v4.297a.475.475 0 1 1-.949 0v-4.297c0-.262.213-.475.475-.475ZM166.118 228.65c.262 0 .475.213.475.475v4.297a.475.475 0 0 1-.949 0v-4.297c0-.262.212-.475.474-.475ZM163.489 228.65c.262 0 .474.213.474.475v4.297a.475.475 0 1 1-.949 0v-4.297c0-.262.213-.475.475-.475ZM160.923 228.65c.262 0 .475.213.475.475v4.297a.475.475 0 0 1-.949 0v-4.297c0-.262.212-.475.474-.475ZM191.966 228.65c.262 0 .474.213.474.475v4.297a.475.475 0 1 1-.949 0v-4.297c0-.262.213-.475.475-.475ZM189.336 228.65c.262 0 .475.213.475.475v4.297a.475.475 0 0 1-.95 0v-4.297c0-.262.213-.475.475-.475ZM186.771 228.65c.262 0 .474.213.474.475v4.297a.475.475 0 1 1-.949 0v-4.297c0-.262.212-.475.475-.475ZM184.205 228.65c.262 0 .475.213.475.475v4.297a.475.475 0 0 1-.95 0v-4.297c0-.262.213-.475.475-.475ZM181.64 228.65c.262 0 .474.213.474.475v4.297a.475.475 0 1 1-.949 0v-4.297c0-.262.212-.475.475-.475ZM179.01 228.65c.262 0 .475.213.475.475v4.297a.475.475 0 0 1-.95 0v-4.297c0-.262.213-.475.475-.475Z" fill="#DB9F4F"/><path opacity=".5" d="M173.879 227.458h-8.017c-.706 0-1.219.577-1.219 1.218v5.259c0 .706.577 1.219 1.219 1.219h8.017c.705 0 1.219-.577 1.219-1.219v-5.259c0-.641-.514-1.218-1.219-1.218Z" fill="#FCED99"/><path opacity=".3" d="M180.357 219.825c-.064-.642-.128-1.219-.193-1.86a20.557 20.557 0 0 1 .706-5.965h-18.921v23.218H188.823v-.193c-4.618-3.591-7.697-9.107-8.466-15.2Z" fill="#977140"/><path d="M140.66 212h-32.581c-.706 0-1.283.577-1.283 1.283v5.131c0 .705.577 1.282 1.283 1.282h32.517c.706 0 1.283-.577 1.283-1.282v-5.131c.064-.706-.513-1.283-1.219-1.283Z" fill="#FFD257"/><path d="M140.661 219.761h-32.582c-.641 0-1.154-.513-1.218-1.155h24.18c2.052 0 3.72-1.732 3.72-3.912V212h6.157s0 .064 0 0c.641.064 1.09.641 1.09 1.347v5.067c-.064.769-.641 1.347-1.347 1.347Z" fill="#F3B96D"/><path fill-rule="evenodd" clip-rule="evenodd" d="M124.305 213.193c.262 0 .475.212.475.475v4.297a.475.475 0 0 1-.949 0v-4.297c0-.263.212-.475.474-.475ZM121.74 213.193c.262 0 .474.212.474.475v4.297a.474.474 0 1 1-.949 0v-4.297c0-.263.213-.475.475-.475ZM119.174 213.193c.262 0 .475.212.475.475v4.297a.475.475 0 0 1-.949 0v-4.297c0-.263.212-.475.474-.475ZM116.545 213.193c.262 0 .474.212.474.475v4.297a.474.474 0 1 1-.949 0v-4.297c0-.263.213-.475.475-.475ZM113.979 213.193c.262 0 .475.212.475.475v4.297a.475.475 0 0 1-.949 0v-4.297c0-.263.212-.475.474-.475ZM111.414 213.193c.262 0 .474.212.474.475v4.297a.474.474 0 1 1-.949 0v-4.297c0-.263.213-.475.475-.475ZM108.784 213.193c.262 0 .475.212.475.475v4.297a.475.475 0 0 1-.95 0v-4.297c0-.263.213-.475.475-.475ZM139.827 213.193c.262 0 .474.212.474.475v4.297a.474.474 0 1 1-.949 0v-4.297c0-.263.212-.475.475-.475ZM137.261 213.193c.262 0 .475.212.475.475v4.297a.475.475 0 0 1-.95 0v-4.297c0-.263.213-.475.475-.475ZM134.631 213.193c.263 0 .475.212.475.475v4.297a.474.474 0 1 1-.949 0v-4.297c0-.263.212-.475.474-.475ZM132.066 213.193c.262 0 .475.212.475.475v4.297a.475.475 0 0 1-.95 0v-4.297c0-.263.213-.475.475-.475ZM129.5 213.193c.263 0 .475.212.475.475v4.297a.474.474 0 1 1-.949 0v-4.297c0-.263.212-.475.474-.475ZM126.935 213.193c.262 0 .475.212.475.475v4.297a.475.475 0 0 1-.95 0v-4.297c0-.263.213-.475.475-.475Z" fill="#DB9F4F"/><path opacity=".5" d="M121.74 212h-8.017c-.706 0-1.219.577-1.219 1.219v5.259c0 .705.577 1.218 1.219 1.218h8.017c.705 0 1.218-.577 1.218-1.218v-5.259c.065-.642-.513-1.219-1.218-1.219Z" fill="#FCED99"/><path d="M150.66 204h-32.581c-.706 0-1.283.577-1.283 1.283v5.131c0 .705.577 1.282 1.283 1.282h32.517c.706 0 1.283-.577 1.283-1.282v-5.131c.064-.706-.513-1.283-1.219-1.283Z" fill="#FFD257"/><path d="M150.661 211.761h-32.582c-.641 0-1.154-.513-1.218-1.155h24.18c2.052 0 3.72-1.732 3.72-3.912V204h6.157s0 .064 0 0c.641.064 1.09.641 1.09 1.347v5.067c-.064.769-.641 1.347-1.347 1.347Z" fill="#F3B96D"/><path fill-rule="evenodd" clip-rule="evenodd" d="M134.305 205.193c.262 0 .475.212.475.475v4.297a.475.475 0 0 1-.949 0v-4.297c0-.263.212-.475.474-.475ZM131.74 205.193c.262 0 .474.212.474.475v4.297a.474.474 0 1 1-.949 0v-4.297c0-.263.213-.475.475-.475ZM129.174 205.193c.262 0 .475.212.475.475v4.297a.475.475 0 0 1-.949 0v-4.297c0-.263.212-.475.474-.475ZM126.545 205.193c.262 0 .474.212.474.475v4.297a.474.474 0 1 1-.949 0v-4.297c0-.263.213-.475.475-.475ZM123.979 205.193c.262 0 .475.212.475.475v4.297a.475.475 0 0 1-.949 0v-4.297c0-.263.212-.475.474-.475ZM121.414 205.193c.262 0 .474.212.474.475v4.297a.474.474 0 1 1-.949 0v-4.297c0-.263.213-.475.475-.475ZM118.784 205.193c.262 0 .475.212.475.475v4.297a.475.475 0 0 1-.95 0v-4.297c0-.263.213-.475.475-.475ZM149.827 205.193c.262 0 .474.212.474.475v4.297a.474.474 0 1 1-.949 0v-4.297c0-.263.212-.475.475-.475ZM147.261 205.193c.262 0 .475.212.475.475v4.297a.475.475 0 0 1-.95 0v-4.297c0-.263.213-.475.475-.475ZM144.631 205.193c.263 0 .475.212.475.475v4.297a.474.474 0 1 1-.949 0v-4.297c0-.263.212-.475.474-.475ZM142.066 205.193c.262 0 .475.212.475.475v4.297a.475.475 0 0 1-.95 0v-4.297c0-.263.213-.475.475-.475ZM139.5 205.193c.263 0 .475.212.475.475v4.297a.474.474 0 1 1-.949 0v-4.297c0-.263.212-.475.474-.475ZM136.935 205.193c.262 0 .475.212.475.475v4.297a.475.475 0 0 1-.95 0v-4.297c0-.263.213-.475.475-.475Z" fill="#DB9F4F"/><path opacity=".5" d="M131.74 204h-8.017c-.706 0-1.219.577-1.219 1.219v5.259c0 .705.577 1.218 1.219 1.218h8.017c.705 0 1.218-.577 1.218-1.218v-5.259c.065-.642-.513-1.219-1.218-1.219Z" fill="#FCED99"/><path d="M144.188 219.826h-32.582c-.705 0-1.283.577-1.283 1.282v5.131c0 .706.578 1.283 1.283 1.283h32.518c.705 0 1.283-.577 1.283-1.283v-5.131c.064-.705-.514-1.282-1.219-1.282Z" fill="#FFD257"/><path d="M144.189 227.521h-32.582c-.641 0-1.154-.513-1.219-1.154h24.18c2.053 0 3.72-1.732 3.72-3.912v-2.694h6.093s0 .064 0 0c.642.064 1.091.641 1.091 1.347v5.066c0 .77-.578 1.347-1.283 1.347Z" fill="#F3B96D"/><path fill-rule="evenodd" clip-rule="evenodd" d="M127.833 221.018c.262 0 .475.213.475.475v4.297a.475.475 0 0 1-.95 0v-4.297c0-.262.213-.475.475-.475ZM125.267 221.018c.263 0 .475.213.475.475v4.297a.475.475 0 1 1-.949 0v-4.297c0-.262.212-.475.474-.475ZM122.638 221.018c.262 0 .474.213.474.475v4.297a.475.475 0 1 1-.949 0v-4.297c0-.262.213-.475.475-.475ZM120.072 221.018c.262 0 .475.213.475.475v4.297a.475.475 0 0 1-.949 0v-4.297c0-.262.212-.475.474-.475ZM117.507 221.018c.262 0 .474.213.474.475v4.297a.475.475 0 1 1-.949 0v-4.297c0-.262.213-.475.475-.475ZM114.941 221.018c.262 0 .475.213.475.475v4.297a.475.475 0 0 1-.949 0v-4.297c0-.262.212-.475.474-.475ZM112.312 221.018c.262 0 .474.213.474.475v4.297a.475.475 0 1 1-.949 0v-4.297c0-.262.213-.475.475-.475ZM143.354 220.954c.262 0 .475.212.475.474v4.297a.475.475 0 1 1-.95 0v-4.297c0-.262.213-.474.475-.474ZM140.789 220.954c.262 0 .474.212.474.474v4.297a.474.474 0 1 1-.949 0v-4.297c0-.262.212-.474.475-.474ZM138.159 220.954c.262 0 .475.212.475.474v4.297a.475.475 0 1 1-.95 0v-4.297c0-.262.213-.474.475-.474ZM135.593 220.954c.263 0 .475.212.475.474v4.297a.474.474 0 1 1-.949 0v-4.297c0-.262.212-.474.474-.474ZM133.028 220.954c.262 0 .475.212.475.474v4.297a.475.475 0 1 1-.95 0v-4.297c0-.262.213-.474.475-.474ZM130.398 220.954c.263 0 .475.212.475.474v4.297a.474.474 0 1 1-.949 0v-4.297c0-.262.212-.474.474-.474Z" fill="#DB9F4F"/><path opacity=".5" d="M125.267 219.825h-8.017c-.705 0-1.218.577-1.218 1.219v5.259c0 .706.577 1.219 1.218 1.219h8.017c.706 0 1.219-.578 1.219-1.219v-5.259c0-.706-.513-1.219-1.219-1.219Z" fill="#FCED99"/><path d="M138.865 227.586h-32.582c-.706 0-1.283.577-1.283 1.283V234c0 .705.577 1.282 1.283 1.282H138.8c.706 0 1.283-.577 1.283-1.282v-5.131c.064-.706-.513-1.283-1.218-1.283Z" fill="#FFD257"/><path d="M138.865 235.346h-32.581c-.642 0-1.155-.513-1.219-1.154h24.18c2.052 0 3.72-1.732 3.72-3.913v-2.694h6.157s0 .065 0 0c.641.065 1.09.642 1.09 1.347v5.067c-.064.77-.641 1.347-1.347 1.347Z" fill="#F3B96D"/><path fill-rule="evenodd" clip-rule="evenodd" d="M122.509 228.778c.263 0 .475.213.475.475v4.297a.475.475 0 1 1-.949 0v-4.297c0-.262.212-.475.474-.475ZM119.944 228.778c.262 0 .475.213.475.475v4.297a.475.475 0 0 1-.95 0v-4.297c0-.262.213-.475.475-.475ZM117.314 228.778c.263 0 .475.213.475.475v4.297a.475.475 0 1 1-.949 0v-4.297c0-.262.212-.475.474-.475ZM114.749 228.778c.262 0 .475.213.475.475v4.297a.475.475 0 0 1-.95 0v-4.297c0-.262.213-.475.475-.475ZM112.183 228.778c.263 0 .475.213.475.475v4.297a.475.475 0 1 1-.949 0v-4.297c0-.262.212-.475.474-.475ZM109.618 228.778c.262 0 .475.213.475.475v4.297a.475.475 0 0 1-.95 0v-4.297c0-.262.213-.475.475-.475ZM106.988 228.778c.262 0 .475.213.475.475v4.297a.475.475 0 0 1-.949 0v-4.297c0-.262.212-.475.474-.475ZM138.031 228.778c.262 0 .474.213.474.475v4.297a.475.475 0 1 1-.949 0v-4.297c0-.262.213-.475.475-.475ZM135.401 228.778c.262 0 .475.213.475.475v4.297a.475.475 0 0 1-.95 0v-4.297c0-.262.213-.475.475-.475ZM132.836 228.778c.262 0 .474.213.474.475v4.297a.475.475 0 1 1-.949 0v-4.297c0-.262.212-.475.475-.475ZM130.27 228.778c.262 0 .475.213.475.475v4.297a.475.475 0 0 1-.95 0v-4.297c0-.262.213-.475.475-.475ZM127.705 228.778c.262 0 .474.213.474.475v4.297a.475.475 0 1 1-.949 0v-4.297c0-.262.212-.475.475-.475ZM125.075 228.778c.262 0 .475.213.475.475v4.297a.475.475 0 0 1-.95 0v-4.297c0-.262.213-.475.475-.475Z" fill="#DB9F4F"/><path opacity=".5" d="M119.944 227.585h-8.017c-.706 0-1.219.578-1.219 1.219v5.259c0 .706.577 1.219 1.219 1.219h8.017c.706 0 1.219-.577 1.219-1.219v-5.259c0-.641-.513-1.219-1.219-1.219Z" fill="#FCED99"/><path d="M168.876 227.458h-32.517c-.706 0-1.283.577-1.283 1.282v5.131c0 .706.577 1.283 1.283 1.283h32.517c.706 0 1.283-.577 1.283-1.283v-5.131c0-.705-.577-1.282-1.283-1.282Z" fill="#FFD257"/><path d="M168.876 235.218h-32.582c-.641 0-1.154-.513-1.218-1.154h24.18c2.052 0 3.72-1.732 3.72-3.913v-2.693h6.157s0 .064 0 0c.641.064 1.09.641 1.09 1.346v5.067c-.064.77-.641 1.347-1.347 1.347Z" fill="#F3B96D"/><path fill-rule="evenodd" clip-rule="evenodd" d="M152.521 228.65c.262 0 .475.213.475.475v4.297a.475.475 0 0 1-.949 0v-4.297c0-.262.212-.475.474-.475ZM149.956 228.65c.262 0 .474.213.474.475v4.297a.475.475 0 1 1-.949 0v-4.297c0-.262.213-.475.475-.475ZM147.326 228.65c.262 0 .475.213.475.475v4.297a.475.475 0 0 1-.95 0v-4.297c0-.262.213-.475.475-.475ZM144.761 228.65c.262 0 .474.213.474.475v4.297a.475.475 0 1 1-.949 0v-4.297c0-.262.212-.475.475-.475ZM142.195 228.65c.262 0 .475.213.475.475v4.297a.475.475 0 0 1-.95 0v-4.297c0-.262.213-.475.475-.475ZM139.565 228.65c.263 0 .475.213.475.475v4.297a.475.475 0 1 1-.949 0v-4.297c0-.262.212-.475.474-.475ZM137 228.65c.262 0 .475.213.475.475v4.297a.475.475 0 0 1-.95 0v-4.297c0-.262.213-.475.475-.475ZM168.042 228.65c.263 0 .475.213.475.475v4.297a.475.475 0 1 1-.949 0v-4.297c0-.262.212-.475.474-.475ZM165.413 228.65c.262 0 .474.213.474.475v4.297a.475.475 0 1 1-.949 0v-4.297c0-.262.213-.475.475-.475ZM162.847 228.65c.262 0 .475.213.475.475v4.297a.475.475 0 0 1-.949 0v-4.297c0-.262.212-.475.474-.475ZM160.282 228.65c.262 0 .474.213.474.475v4.297a.475.475 0 1 1-.949 0v-4.297c0-.262.213-.475.475-.475ZM157.716 228.65c.262 0 .475.213.475.475v4.297a.475.475 0 0 1-.949 0v-4.297c0-.262.212-.475.474-.475ZM155.087 228.65c.262 0 .474.213.474.475v4.297a.475.475 0 1 1-.949 0v-4.297c0-.262.213-.475.475-.475Z" fill="#DB9F4F"/><path opacity=".5" d="M149.956 227.458h-8.017c-.706 0-1.219.577-1.219 1.218v5.259c0 .706.577 1.219 1.219 1.219h8.017c.705 0 1.218-.577 1.218-1.219v-5.259c0-.641-.513-1.218-1.218-1.218Z" fill="#FCED99"/><path d="M164.451 219.696h-32.518c-.705 0-1.283.578-1.283 1.283v5.131c0 .706.578 1.283 1.283 1.283h32.518c.705 0 1.282-.577 1.282-1.283v-5.131c0-.705-.577-1.283-1.282-1.283Z" fill="#FFD257"/><path d="M164.516 227.457h-32.582c-.641 0-1.154-.513-1.219-1.155h24.18c2.053 0 3.72-1.731 3.72-3.912v-2.694h6.157s0 .064 0 0c.642.064 1.091.642 1.091 1.347v5.067c-.129.706-.642 1.347-1.347 1.347Z" fill="#F3B96D"/><path fill-rule="evenodd" clip-rule="evenodd" d="M148.096 220.889c.262 0 .474.213.474.475v4.297a.475.475 0 1 1-.949 0v-4.297c0-.262.213-.475.475-.475ZM145.53 220.889c.262 0 .475.213.475.475v4.297a.475.475 0 0 1-.949 0v-4.297c0-.262.212-.475.474-.475ZM142.965 220.889c.262 0 .474.213.474.475v4.297a.475.475 0 1 1-.949 0v-4.297c0-.262.213-.475.475-.475ZM140.399 220.889c.262 0 .475.213.475.475v4.297a.475.475 0 0 1-.949 0v-4.297c0-.262.212-.475.474-.475ZM137.77 220.889c.262 0 .474.213.474.475v4.297a.475.475 0 1 1-.949 0v-4.297c0-.262.212-.475.475-.475ZM135.204 220.889c.262 0 .475.213.475.475v4.297a.475.475 0 0 1-.95 0v-4.297c0-.262.213-.475.475-.475ZM132.639 220.889c.262 0 .474.213.474.475v4.297a.475.475 0 1 1-.949 0v-4.297c0-.262.213-.475.475-.475ZM163.617 220.889c.262 0 .475.213.475.475v4.297a.475.475 0 0 1-.95 0v-4.297c0-.262.213-.475.475-.475ZM161.051 220.889c.263 0 .475.213.475.475v4.297a.475.475 0 1 1-.949 0v-4.297c0-.262.212-.475.474-.475ZM158.486 220.889c.262 0 .475.213.475.475v4.297a.475.475 0 0 1-.95 0v-4.297c0-.262.213-.475.475-.475ZM155.856 220.889c.263 0 .475.213.475.475v4.297a.475.475 0 1 1-.949 0v-4.297c0-.262.212-.475.474-.475ZM153.291 220.889c.262 0 .475.213.475.475v4.297a.475.475 0 0 1-.95 0v-4.297c0-.262.213-.475.475-.475ZM150.725 220.889c.263 0 .475.213.475.475v4.297a.475.475 0 1 1-.949 0v-4.297c0-.262.212-.475.474-.475Z" fill="#DB9F4F"/><path opacity=".5" d="M145.594 219.696h-8.017c-.705 0-1.218.578-1.218 1.219v5.259c0 .706.577 1.219 1.218 1.219h8.017c.706 0 1.219-.577 1.219-1.219v-5.259c0-.641-.577-1.219-1.219-1.219Z" fill="#FCED99"/><path d="M177.086 212h-32.518c-.705 0-1.283.577-1.283 1.283v5.131c0 .705.578 1.282 1.283 1.282h32.518c.705 0 1.283-.577 1.283-1.282v-5.131c0-.706-.578-1.283-1.283-1.283Z" fill="#FFD257"/><path d="M177.086 219.761h-32.582c-.641 0-1.154-.513-1.219-1.155h24.18c2.053 0 3.72-1.732 3.72-3.912V212h6.157s0 .064 0 0c.642.064 1.091.641 1.091 1.347v5.067c-.064.769-.642 1.347-1.347 1.347Z" fill="#F3B96D"/><path fill-rule="evenodd" clip-rule="evenodd" d="M160.731 213.193c.262 0 .474.212.474.475v4.297a.474.474 0 1 1-.949 0v-4.297c0-.263.213-.475.475-.475ZM158.165 213.193c.262 0 .475.212.475.475v4.297a.475.475 0 0 1-.949 0v-4.297c0-.263.212-.475.474-.475ZM155.6 213.193c.262 0 .474.212.474.475v4.297a.474.474 0 1 1-.949 0v-4.297c0-.263.213-.475.475-.475ZM152.97 213.193c.262 0 .475.212.475.475v4.297a.475.475 0 0 1-.949 0v-4.297c0-.263.212-.475.474-.475ZM150.405 213.193c.262 0 .474.212.474.475v4.297a.474.474 0 1 1-.949 0v-4.297c0-.263.213-.475.475-.475ZM147.839 213.193c.262 0 .475.212.475.475v4.297a.475.475 0 0 1-.949 0v-4.297c0-.263.212-.475.474-.475ZM145.21 213.193c.262 0 .474.212.474.475v4.297a.474.474 0 1 1-.949 0v-4.297c0-.263.212-.475.475-.475ZM176.252 213.193c.262 0 .475.212.475.475v4.297a.475.475 0 0 1-.95 0v-4.297c0-.263.213-.475.475-.475ZM173.687 213.193c.262 0 .474.212.474.475v4.297a.474.474 0 1 1-.949 0v-4.297c0-.263.212-.475.475-.475ZM171.057 213.193c.262 0 .475.212.475.475v4.297a.475.475 0 0 1-.95 0v-4.297c0-.263.213-.475.475-.475ZM168.491 213.193c.263 0 .475.212.475.475v4.297a.474.474 0 1 1-.949 0v-4.297c0-.263.212-.475.474-.475ZM165.926 213.193c.262 0 .475.212.475.475v4.297a.475.475 0 0 1-.95 0v-4.297c0-.263.213-.475.475-.475ZM163.296 213.193c.262 0 .475.212.475.475v4.297a.475.475 0 0 1-.949 0v-4.297c0-.263.212-.475.474-.475Z" fill="#DB9F4F"/><path opacity=".5" d="M158.165 212h-8.017c-.705 0-1.218.577-1.218 1.219v5.259c0 .705.577 1.218 1.218 1.218h8.017c.706 0 1.219-.577 1.219-1.218v-5.195c0-.706-.513-1.283-1.219-1.283Z" fill="#FCED99"/><path d="M35.209 221.564s-2.35-14.009 12.168-19.142c0 0-2.35-.302-3.433-.362-.06 0-1.326 0-1.687.06-.904.121-1.145.181-1.325.181-.06 0-.181.06-.482.121-8.133 1.872-12.711 11.231-11.145 19.625a17.39 17.39 0 0 0 2.048 5.616c2.169 3.623 5.663 6.159 9.76 6.642l3.493.362c-2.59-.301-8.313-5.676-9.397-13.103Z" fill="#CF893D"/><path d="M36.233 204.234h7.229c1.144-.724 2.47-1.328 3.975-1.872 0 0-2.349-.302-3.433-.362-.06 0-1.325 0-1.687.06-.904.121-1.145.182-1.325.182-.06 0-.181.06-.482.12a13.024 13.024 0 0 0-4.277 1.872Z" fill="#BC762A"/><path d="M33.28 206.83a17.445 17.445 0 0 0-3.011 5.133h6.265c.723-1.751 1.867-3.503 3.494-5.133H33.28Z" fill="#DA984F"/><path d="M35.33 222.289h-5.965c.362 1.932 1.085 3.744 1.988 5.314 2.169 3.623 5.663 6.159 9.76 6.642l3.493.363c-2.47-.242-7.952-5.254-9.277-12.319Z" fill="#BC762A"/><path d="M44.546 207.736c1.205-.302 2.35-.422 3.494-.302l.361 1.631c1.446 8.333-3.253 16.606-10.482 18.538h-.12c-1.265-1.63-2.229-3.744-2.65-6.099 0-.06 0-.181-.06-.241.12-6.28 3.975-12.017 9.457-13.527Z" fill="#FFDF6B"/><path d="m43.703 202.785.481 2.838c-6.144 1.631-10.18 8.816-8.975 15.942l-2.41.664c-1.506-8.695 3.373-17.391 10.904-19.444Z" fill="#FFDF6B"/><path d="M44.184 205.624c1.025-.302 2.109-.363 3.133-.363.301.664.542 1.389.723 2.174-1.145-.121-2.29 0-3.494.302-5.482 1.51-9.337 7.246-9.398 13.587-1.084-7.065 2.952-14.07 9.036-15.7Z" fill="#FAEC97"/><path d="M44.064 205.622s-.06.061 0 0c-.06.061 0 0 0 0Zm-.12.061h-.06.06Zm-.181.06h-.06.06Zm-.12.06c-.06 0-.06 0 0 0-.06 0-.06 0 0 0Zm-.181 0h-.06c.06.061.06 0 .06 0Zm-.12.061h-.061.06Zm-.121.06s-.06 0 0 0c-.06 0 0 0 0 0Zm-.12.061h-.061.06Zm-.182.06h-.06.06Zm-.12.06s-.06 0 0 0c-.06 0 0 0 0 0Zm-.12.061h-.06.06Zm-.121.06c-.06 0-.06 0 0 0-.06 0-.06 0 0 0Zm-.301.121s-.06 0 0 0c-.06 0 0 0 0 0Zm-.12.06s-.06 0 0 0c-.06 0 0 0 0 0Zm-.121.061s-.06 0-.06.06c0-.06 0-.06.06-.06Zm-.12.06c-.06 0-.06.06 0 0-.06.06-.06 0 0 0Zm-.181.06c0 .061 0 .061 0 0 0 .061 0 .061 0 0Zm-.362.242s-.06 0 0 0c-.06 0 0 0 0 0Zm-.12.06c0 .061-.06.061 0 0-.06.061 0 .061 0 0Zm-.12.121s-.061 0 0 0c-.061 0 0 0 0 0Zm-.121.061s-.06 0 0 0c-.06 0 0 0 0 0Zm-.12.06c0 .06-.061.06 0 0-.061.06 0 .06 0 0Zm-.121.121s-.06 0 0 0c-.06 0 0 0 0 0Zm-.12.06s-.061.06 0 0c-.061.06 0 0 0 0Zm-.121.121s-.06 0 0 0c-.06 0 0 0 0 0Zm-.12.06s-.06.061 0 0c-.06.061 0 0 0 0Zm-.121.121s-.06 0 0 0c-.06 0 0 0 0 0Zm-.12.06s-.06.061 0 0c-.06.061 0 0 0 0Zm-.242.182c0 .06 0 .06 0 0 0 .06 0 .06 0 0Zm-.3.301c-.061 0-.061.061 0 0-.061.061-.061 0 0 0Zm-.121.121s-.06 0 0 0c-.06 0 0 0 0 0Zm-.12.121s-.061 0 0 0c-.061 0 0 0 0 0Zm-.121.06c0 .061 0 .061 0 0 0 .061 0 .061 0 0Zm-.12.121s0 .061 0 0c0 .061 0 0 0 0Zm-.061.121c-.06 0-.06 0 0 0-.06 0-.06 0 0 0Zm-.12.121s-.06 0 0 0c-.06 0 0 0 0 0Zm-.12.06c0 .06 0 .06 0 0 0 .06 0 .06 0 0Zm-.061.121c-.06 0-.06.06 0 0-.06.06-.06 0 0 0Zm-.12.121s-.06.06 0 0c-.06.06 0 0 0 0Zm-.181.241c-.06 0-.06 0 0 0-.06 0-.06 0 0 0Zm7.228-6.944c-.542.06-1.144.121-1.686.302h-.12c-.06 0-.121 0-.181.06l.481 2.838c1.025-.302 2.109-.362 3.133-.362a11.96 11.96 0 0 0-1.627-2.838Zm-10.542 18.9c0-.12-.06-.241-.06-.302.06.061.06.182.06.302Zm0-.302v-.181c-.06.061 0 .121 0 .181Zm.06.544c0-.06 0-.181-.06-.242.06.061.06.182.06.242Zm-2.409.664c0 .061 0 .121.06.181.362 2.053 1.084 3.986 2.048 5.616.964 0 1.988-.121 2.952-.362-1.265-1.631-2.229-3.744-2.65-6.099l-2.41.664Zm2.29-1.57v-.181.181Zm0-.181v-.181.181Zm-.061-.121v-.181.181Zm0-.181v-.181.181Zm0-.181v-.181.181Zm0-.181v-.181.181Zm0-.121v-.181.181Zm0-.181v-.181.181Zm0-.181v-.181c-.06.06 0 .12 0 .181Zm-.06-.181v-.182.182Zm0-.121v-.181.181Zm0-.181v-.483c.06.181 0 .301 0 .483Zm.06-.483v-.484.484Zm0-.484c.06-.905.24-1.811.422-2.657-.181.846-.362 1.752-.422 2.657Zm.422-2.717v-.121c.06.061 0 .121 0 .121Zm.06-.121v-.12.12Zm.06-.181v-.121.121Zm0-.121c0-.06 0-.06.06-.12 0 .06 0 .06-.06.12Zm.06-.181c0-.06 0-.06.06-.121-.06.061-.06.121-.06.121Zm.06-.121v-.12.12Zm.06-.181v-.06.06Zm.061-.12v-.061.061Zm0-.182v-.06c.06 0 .06.06 0 .06Zm.06-.12v-.061c.06 0 0 0 0 .061Zm.06-.182v-.06.06Zm.06-.12v-.061.061Zm.061-.181v-.061.061Zm.06-.121v-.061.061Zm.06-.121c0-.06 0-.06 0 0 0-.06 0-.06 0 0Zm.12-.302c0-.06 0-.06 0 0 0-.06 0-.06 0 0Zm.121-.302v-.06.06Zm.06-.121c0-.06.06-.06 0 0 .06-.06 0-.06 0 0Zm.06-.181c.061 0 .061 0 0 0 .061 0 .061 0 0 0Zm.121-.121s0-.06 0 0c0-.06 0 0 0 0Zm.06-.12s0-.061 0 0c0-.061 0 0 0 0Zm.06-.121c0-.06 0-.06 0 0 0-.06 0-.06 0 0Zm.121-.302c.06 0 .06-.06 0 0 .06-.06.06 0 0 0Zm.12-.121s0-.06 0 0c0-.06 0 0 0 0Zm.061-.121c0-.06 0-.06 0 0 0-.06 0-.06 0 0Zm.06-.181s.06 0 0 0c.06 0 0 0 0 0Zm.241-.362c.06 0 .06-.06 0 0 .06-.06.06 0 0 0Zm.12-.121s0-.06 0 0c0-.06 0 0 0 0Zm.061-.121c0-.06.06-.06 0 0 .06-.06 0-.06 0 0Zm.12-.12c0-.061 0-.061 0 0 0-.061 0-.061 0 0Zm.06-.121c0-.06 0-.06 0 0 0-.06 0-.06 0 0Zm.121-.121c0-.06 0-.06 0 0 0-.06 0-.06 0 0Zm.301-.423s-.06 0 0 0c-.06 0 0 0 0 0Zm.06-.06c0-.06 0-.06 0 0 0-.06 0-.06 0 0Zm-3.132 10.99v.181-.181Z" fill="#FFDF6B"/><path d="M44.245 202.664c7.35-1.63 14.397 3.684 15.843 12.198 1.506 8.695-3.373 17.391-10.964 19.383-7.41 1.993-14.638-3.2-16.265-11.714a16.383 16.383 0 0 0 2.048 5.434c.964 0 1.988-.12 2.952-.362 2.59 3.321 6.687 4.952 10.783 3.865 6.205-1.631 10.241-8.817 8.976-15.942 0-.06 0-.181-.06-.241-1.084-5.797-5.361-9.783-10.301-10.024a14.272 14.272 0 0 0-1.566-2.838c-.482.06-.964.12-1.446.241Z" fill="#FFDF6B"/><path d="M57.618 215.527c0-.061 0-.181-.06-.242-1.084-5.797-5.361-9.782-10.301-10.024.301.664.542 1.389.723 2.174l.361 1.63c1.446 8.334-3.253 16.606-10.482 18.539h-.12c2.59 3.321 6.687 4.951 10.783 3.864 6.325-1.63 10.361-8.816 9.096-15.941Z" fill="#F2D15C"/><path d="M57.618 215.527c0-.061 0-.181-.06-.242-1.084-5.797-5.361-9.782-10.301-10.024 0 .061.06.121.06.181 4.277.906 7.831 4.65 8.795 9.843 0 .061 0 .181.06.242 1.205 7.125-2.83 14.311-8.975 15.941-.663.181-1.266.242-1.928.302 1.084.061 2.169 0 3.313-.302 6.265-1.63 10.301-8.816 9.036-15.941Z" fill="#EB9D35"/><path d="M64.665 202.484c-4.039-.274-4.967-.875-6.659-.109l4.53.492a4.308 4.308 0 0 1 2.13-.383ZM55.55 222.236l-4.53-.492c.327 5.088 2.237 11.599 6.331 12.584.655.164 1.365.164 5.076.547-4.312-.383-6.495-7.277-6.877-12.639Z" fill="#BC762A"/><path d="m62.536 202.867-4.53-.492c-.11.054-.273.109-.382.164-4.585 2.462-7.096 11.49-6.55 19.205l4.53.492c-.382-5.362.82-12.366 3.712-16.469.873-1.313 1.91-2.353 3.22-2.9Z" fill="#CF893D"/><path d="M70.194 219.086c.42-7.361-2.19-13.499-5.832-13.708-3.642-.209-6.936 5.589-7.357 12.95-.42 7.362 2.19 13.499 5.832 13.708 3.642.209 6.935-5.588 7.356-12.95Z" fill="#FFDF6B"/><path d="M70.124 215.835c-.492-7.168-3.821-11.709-7.424-10.122-.546.219-1.091.602-1.583 1.094.219-.164.492-.274.71-.383 3.603-1.587 6.987 2.955 7.423 10.122.382 6.074-1.364 12.147-4.094 14.828 3.276-2.189 5.459-8.864 4.968-15.539Z" fill="#EB9D35"/><path d="M71.597 215.178c-.6-8.755-4.64-14.281-9.06-12.311v.219-.219c-4.422 1.969-7.533 10.614-6.933 19.423.6 8.755 4.64 14.281 9.061 12.311 4.367-1.97 7.478-10.669 6.932-19.423Zm-7.15 16.578c-3.603 1.587-6.987-2.955-7.424-10.122-.49-7.168 2.075-14.335 5.677-15.922 3.603-1.587 6.987 2.954 7.424 10.122.49 7.168-2.075 14.335-5.677 15.922Z" fill="#FFDF6B"/><path d="m62.536 202.868.164 2.845c-3.602 1.587-6.168 8.754-5.677 15.922l-1.419.656c-.6-8.809 2.511-17.508 6.932-19.423Z" fill="#FFDF6B"/></svg>