<svg width="200" height="189" fill="none" xmlns="http://www.w3.org/2000/svg"><path d="M170.552 38.04s-.966-5.757 5.001-7.867c0 0-.966-.124-1.411-.149-.025 0-.545 0-.693.025-.372.05-.471.075-.545.075-.025 0-.074.024-.198.05-3.343.769-5.224 4.615-4.581 8.065a7.16 7.16 0 0 0 .842 2.308c.892 1.49 2.328 2.532 4.011 2.73l1.436.15c-1.064-.125-3.417-2.334-3.862-5.386Z" fill="#CF893D"/><path d="M170.973 30.918h2.971c.47-.297 1.015-.546 1.634-.77 0 0-.966-.123-1.412-.148-.024 0-.544 0-.693.025-.371.05-.47.074-.544.074-.025 0-.075.025-.199.05a5.336 5.336 0 0 0-1.757.77Z" fill="#BC762A"/><path d="M169.759 31.985c-.52.62-.94 1.315-1.238 2.11h2.575a6.55 6.55 0 0 1 1.436-2.11h-2.773Z" fill="#DA984F"/><path d="M170.601 38.339h-2.451c.149.794.446 1.539.817 2.184.891 1.489 2.327 2.531 4.011 2.73l1.436.149c-1.015-.1-3.268-2.16-3.813-5.063Z" fill="#BC762A"/><path d="M174.389 32.358c.496-.124.966-.174 1.436-.124l.149.67c.594 3.425-1.337 6.825-4.308 7.62h-.05a5.773 5.773 0 0 1-1.089-2.508c0-.024 0-.074-.025-.099.05-2.58 1.634-4.939 3.887-5.559Z" fill="#FFDF6B"/><path d="m174.043 30.323.198 1.166c-2.526.67-4.184 3.624-3.689 6.552l-.991.273c-.619-3.574 1.387-7.147 4.482-7.991Z" fill="#FFDF6B"/><path d="M174.241 31.49c.421-.124.866-.15 1.287-.15.124.274.223.572.297.894-.47-.05-.94 0-1.436.124-2.253.62-3.837 2.979-3.862 5.585-.446-2.904 1.213-5.783 3.714-6.453Z" fill="#FAEC97"/><path d="M174.191 31.49s-.025.024 0 0c-.025.024 0 0 0 0Zm-.049.024h-.025.025Zm-.075.025h-.024.024Zm-.049.025c-.025 0-.025 0 0 0-.025 0-.025 0 0 0Zm-.074 0h-.025c.025.024.025 0 .025 0Zm-.05.024h-.025.025Zm-.049.025s-.025 0 0 0c-.025 0 0 0 0 0Zm-.05.025h-.025.025Zm-.074.025h-.025.025Zm-.05.025s-.024 0 0 0c-.024 0 0 0 0 0Zm-.049.025h-.025.025Zm-.05.024c-.025 0-.025 0 0 0-.025 0-.025 0 0 0Zm-.124.05s-.024 0 0 0c-.024 0 0 0 0 0Zm-.049.025s-.025 0 0 0c-.025 0 0 0 0 0Zm-.05.025s-.024 0-.024.024c0-.024 0-.024.024-.024Zm-.049.024c-.025 0-.025.025 0 0-.025.025-.025 0 0 0Zm-.074.025c0 .025 0 .025 0 0 0 .025 0 .025 0 0Zm-.149.1s-.025 0 0 0c-.025 0 0 0 0 0Zm-.049.024c0 .025-.025.025 0 0-.025.025 0 .025 0 0Zm-.05.05s-.025 0 0 0c-.025 0 0 0 0 0Zm-.049.025s-.025 0 0 0c-.025 0 0 0 0 0Zm-.05.025c0 .025-.025.025 0 0-.025.025 0 .025 0 0Zm-.05.05s-.024 0 0 0c-.024 0 0 0 0 0Zm-.049.024s-.025.025 0 0c-.025.025 0 0 0 0Zm-.05.05s-.024 0 0 0c-.024 0 0 0 0 0Zm-.049.025s-.025.024 0 0c-.025.024 0 0 0 0Zm-.05.05s-.024 0 0 0c-.024 0 0 0 0 0Zm-.049.024s-.025.025 0 0c-.025.025 0 0 0 0Zm-.099.075c0 .024 0 .024 0 0 0 .024 0 .024 0 0Zm-.124.124c-.025 0-.025.024 0 0-.025.024-.025 0 0 0Zm-.049.05s-.025 0 0 0c-.025 0 0 0 0 0Zm-.05.049s-.025 0 0 0c-.025 0 0 0 0 0Zm-.049.025c0 .025 0 .025 0 0 0 .025 0 .025 0 0Zm-.05.05s0 .024 0 0c0 .024 0 0 0 0Zm-.025.049c-.025 0-.025 0 0 0-.025 0-.025 0 0 0Zm-.049.05s-.025 0 0 0c-.025 0 0 0 0 0Zm-.05.024c0 .025 0 .025 0 0 0 .025 0 .025 0 0Zm-.025.05c-.024 0-.024.025 0 0-.024.025-.024 0 0 0Zm-.049.05s-.025.024 0 0c-.025.024 0 0 0 0Zm-.074.099c-.025 0-.025 0 0 0-.025 0-.025 0 0 0Zm2.971-2.854c-.223.025-.471.05-.694.124h-.049c-.025 0-.05 0-.074.025l.198 1.166c.421-.124.866-.149 1.287-.149a4.924 4.924 0 0 0-.668-1.166Zm-4.333 7.768c0-.05-.025-.1-.025-.124.025.025.025.074.025.124Zm0-.124v-.075c-.025.025 0 .05 0 .075Zm.025.223c0-.025 0-.074-.025-.099.025.025.025.074.025.1Zm-.991.273c0 .025 0 .05.025.075.149.843.446 1.638.842 2.308.396 0 .817-.05 1.213-.15a5.773 5.773 0 0 1-1.089-2.506l-.991.273Zm.941-.645v-.075.075Zm0-.075v-.074.074Zm-.025-.05v-.074.075Zm0-.074v-.074.074Zm0-.074v-.075.075Zm0-.075v-.074.075Zm0-.05v-.074.075Zm0-.074v-.074.074Zm0-.074v-.075c-.024.025 0 .05 0 .075Zm-.024-.075v-.074.075Zm0-.05v-.074V37Zm0-.074v-.198c.024.074 0 .124 0 .198Zm.024-.198v-.199.199Zm0-.199Zm.174-1.117v-.05c.024.026 0 .05 0 .05Zm.024-.05v-.049.05Zm.025-.074v-.05.05Zm0-.05c0-.024 0-.024.025-.049 0 .025 0 .025-.025.05Zm.025-.074c0-.024 0-.024.025-.05-.025.026-.025.05-.025.05Zm.025-.05v-.049.05Zm.024-.074v-.025.025Zm.025-.05v-.024.025Zm0-.074v-.025c.025 0 .025.025 0 .025Zm.025-.05v-.024c.025 0 0 0 0 .024Zm.025-.074v-.025.025Zm.025-.05v-.024.024Zm.024-.074v-.025.025Zm.025-.05v-.024.024Zm.025-.05c0-.024 0-.024 0 0 0-.024 0-.024 0 0Zm.049-.123c0-.025 0-.025 0 0 0-.025 0-.025 0 0Zm.05-.124v-.025.025Zm.025-.05c0-.025.024-.025 0 0 .024-.025 0-.025 0 0Zm.024-.075c.025 0 .025 0 0 0 .025 0 .025 0 0 0Zm.05-.05s0-.024 0 0c0-.024 0 0 0 0Zm.025-.049s0-.025 0 0c0-.025 0 0 0 0Zm.024-.05c0-.024 0-.024 0 0 0-.024 0-.024 0 0Zm.05-.124c.025 0 .025-.024 0 0 .025-.024.025 0 0 0Zm.049-.05s0-.024 0 0c0-.024 0 0 0 0Zm.025-.049c0-.025 0-.025 0 0 0-.025 0-.025 0 0Zm.025-.074s.025 0 0 0c.025 0 0 0 0 0Zm.099-.15c.025 0 .025-.024 0 0 .025-.024.025 0 0 0Zm.049-.049s0-.025 0 0c0-.025 0 0 0 0Zm.025-.05c0-.024.025-.024 0 0 .025-.024 0-.024 0 0Zm.05-.05c0-.024 0-.024 0 0 0-.024 0-.024 0 0Zm.025-.049c0-.025 0-.025 0 0 0-.025 0-.025 0 0Zm.049-.05c0-.024 0-.024 0 0 0-.024 0-.024 0 0Zm.124-.173s-.025 0 0 0c-.025 0 0 0 0 0Zm.025-.025c0-.025 0-.025 0 0 0-.025 0-.025 0 0Zm-1.288 4.517v.074-.074Z" fill="#FFDF6B"/><path d="M174.266 30.273c3.02-.67 5.917 1.514 6.511 5.013.619 3.574-1.386 7.148-4.506 7.967-3.045.819-6.016-1.315-6.685-4.815.149.82.446 1.564.842 2.234.396 0 .817-.05 1.213-.15 1.065 1.366 2.748 2.036 4.432 1.59 2.55-.67 4.209-3.624 3.689-6.553 0-.025 0-.074-.025-.099-.445-2.383-2.203-4.02-4.234-4.12a5.885 5.885 0 0 0-.643-1.166c-.198.024-.396.05-.594.099Z" fill="#FFDF6B"/><path d="M179.762 35.56c0-.025 0-.075-.025-.1-.445-2.382-2.203-4.02-4.234-4.12.124.274.223.572.298.894l.148.67c.594 3.425-1.337 6.825-4.308 7.62h-.049c1.064 1.365 2.748 2.035 4.431 1.588 2.6-.67 4.259-3.623 3.739-6.552Z" fill="#F2D15C"/><path d="M179.762 35.56c0-.025 0-.075-.025-.1-.445-2.382-2.203-4.02-4.234-4.12 0 .026.025.05.025.075 1.758.373 3.219 1.911 3.615 4.046 0 .025 0 .074.025.099.495 2.928-1.164 5.882-3.689 6.552a4.4 4.4 0 0 1-.793.124c.446.025.892 0 1.362-.124 2.575-.67 4.234-3.623 3.714-6.552Z" fill="#EB9D35"/><path d="M67.305 150.86c-52.176 3.621-79.837 14.052-61.78 23.295 18.056 9.244 74.99 13.799 127.168 10.172 52.178-3.626 79.839-14.053 61.783-23.296-18.057-9.244-74.992-13.794-127.17-10.171Z" fill="#009E82"/><path d="M88.25 36.084c-39.49 0-71.504 32.013-71.504 71.504 0 20.822 8.904 39.563 23.108 52.631L140.882 59.191c-13.068-14.204-31.81-23.107-52.632-23.107Z" fill="#168C77"/><path d="M140.882 59.19 39.854 160.22a71.247 71.247 0 0 0 48.397 18.872c39.49 0 71.503-32.013 71.503-71.503a71.247 71.247 0 0 0-18.872-48.397Z" fill="#1F9781"/><path d="M88.25 173.343c-36.258 0-65.755-29.497-65.755-65.755 0-36.259 29.497-65.756 65.755-65.756 36.258 0 65.756 29.5 65.756 65.756 0 36.254-29.498 65.755-65.756 65.755Zm0-129.882c-35.36 0-64.127 28.767-64.127 64.127 0 35.359 28.767 64.126 64.127 64.126s64.127-28.767 64.127-64.126c0-35.36-28.767-64.127-64.127-64.127Z" fill="#C6FFF5"/><path d="M40.959 111.966c0-29.855 24.202-54.058 54.057-54.058a53.808 53.808 0 0 1 25.852 6.573 53.812 53.812 0 0 0-32.62-10.95c-29.855 0-54.057 24.202-54.057 54.057 0 20.49 11.4 38.316 28.204 47.484-13.022-9.87-21.436-25.504-21.436-43.106Z" fill="#C6FFF5"/><path d="M142.307 107.587c0-17.602-8.414-33.236-21.438-43.107a53.815 53.815 0 0 0-25.852-6.572c-29.855 0-54.057 24.202-54.057 54.058 0 17.601 8.414 33.236 21.439 43.106a53.807 53.807 0 0 0 25.852 6.572c29.853 0 54.056-24.202 54.056-54.057Z" fill="#C6FFF5"/><path d="M88.304 53.543a54.1 54.1 0 0 0-54.099 54.099h54.1V53.543Z" fill="#00D3AE"/><path d="M83.733 108.006a5.17 5.17 0 0 1 7.632-4.536 5.17 5.17 0 1 0-5.584 8.653 5.158 5.158 0 0 1-2.048-4.117Z" fill="#047762"/><path d="M93.409 107.588a5.17 5.17 0 0 0-3.187-4.78 5.167 5.167 0 0 0-6.758 6.75 5.167 5.167 0 0 0 4.776 3.193 5.149 5.149 0 0 0 4.778-3.185c.26-.627.392-1.3.39-1.978Z" fill="#047762"/><path d="M89.065 108.402H73.112a.813.813 0 0 1 0-1.629h14.324V75.491a.814.814 0 0 1 1.629 0v32.911Z" fill="#047762"/><path d="m88.537 107.3-.575.575 34.278 34.279.576-.576L88.537 107.3Z" fill="#FF5C00"/><path d="M90.27 56.762h-3.986a.338.338 0 0 0-.338.337v11.403c0 .186.151.337.338.337h3.987a.338.338 0 0 0 .337-.337V57.099a.338.338 0 0 0-.337-.337ZM90.27 144.531h-3.986a.338.338 0 0 0-.338.338v11.402c0 .187.151.338.338.338h3.987a.338.338 0 0 0 .337-.338v-11.402a.338.338 0 0 0-.337-.338ZM138.2 108.679v-3.987a.338.338 0 0 0-.338-.338H126.46a.338.338 0 0 0-.338.338v3.987c0 .186.152.337.338.337h11.402a.337.337 0 0 0 .338-.337ZM50.43 108.679v-3.987a.338.338 0 0 0-.337-.338H38.69a.338.338 0 0 0-.337.338v3.987c0 .186.15.337.337.337h11.403a.337.337 0 0 0 .337-.337Z" fill="#047762"/><path d="M90.27 56.762h-3.986a.338.338 0 0 0-.338.337v11.403c0 .186.151.337.338.337h3.987a.338.338 0 0 0 .337-.337V57.099a.338.338 0 0 0-.337-.337ZM90.27 144.531h-3.986a.338.338 0 0 0-.338.338v11.402c0 .187.151.338.338.338h3.987a.338.338 0 0 0 .337-.338v-11.402a.338.338 0 0 0-.337-.338ZM136.108 104.354h-7.892a2.093 2.093 0 0 0-2.093 2.093v.476c0 1.156.937 2.093 2.093 2.093h7.892a2.093 2.093 0 0 0 2.093-2.093v-.476a2.093 2.093 0 0 0-2.093-2.093ZM50.43 108.679v-3.987a.338.338 0 0 0-.337-.338H38.69a.338.338 0 0 0-.337.338v3.987c0 .186.15.337.337.337h11.403a.337.337 0 0 0 .337-.337ZM112.424 66.51l-1.695-.97a.166.166 0 0 0-.226.06l-2.777 4.85a.166.166 0 0 0 .061.225l1.696.971c.079.046.18.018.226-.061l2.777-4.85a.165.165 0 0 0-.062-.225ZM68.802 142.677l-1.696-.971a.165.165 0 0 0-.225.061l-2.778 4.849a.166.166 0 0 0 .062.226l1.695.971c.08.045.18.018.226-.061l2.777-4.85a.164.164 0 0 0-.061-.225ZM52.272 87.177l.971-1.696a.165.165 0 0 0-.061-.225l-4.849-2.778a.165.165 0 0 0-.225.061l-.972 1.695a.165.165 0 0 0 .062.226l4.848 2.778c.08.045.18.018.226-.061ZM128.944 83.45l-1.006-1.675a.166.166 0 0 0-.227-.057l-4.791 2.877a.165.165 0 0 0-.056.227l1.005 1.675a.165.165 0 0 0 .227.056l4.791-2.876a.166.166 0 0 0 .057-.227ZM53.69 128.63l-1.006-1.675a.165.165 0 0 0-.227-.057l-4.79 2.876a.165.165 0 0 0-.057.227l1.005 1.676a.165.165 0 0 0 .227.056l4.791-2.876a.165.165 0 0 0 .057-.227ZM66.365 72.148l1.675-1.006a.165.165 0 0 0 .056-.227l-2.876-4.79a.165.165 0 0 0-.227-.057l-1.675 1.005a.165.165 0 0 0-.056.227l2.876 4.791a.166.166 0 0 0 .227.057Z" fill="#047762"/><path d="M90.997 107.588a2.755 2.755 0 0 0-4.704-1.957 2.754 2.754 0 0 0-.6 3.004 2.758 2.758 0 0 0 3.603 1.497 2.747 2.747 0 0 0 1.7-2.544Z" fill="#FF5C00"/><path d="M162.175 140.03c-8.233-1.872-23.542 2.496-34.249 9.831l.156.081-.156-.081c-10.707 7.336-12.688 14.82-4.378 16.733 8.233 1.872 23.542-2.496 34.249-9.831 10.63-7.376 12.611-14.86 4.378-16.733Zm-7.081 16.031c-8.725 5.984-21.391 9.638-28.134 8.138-6.822-1.54-5.133-7.691 3.632-13.754 8.725-5.984 21.391-9.638 28.094-8.06 6.821 1.54 5.132 7.691-3.592 13.676Z" fill="#FFDF6B"/><path d="m127.926 149.861 2.666.584c-8.724 5.984-10.414 12.135-3.632 13.754l-3.49 2.354c-8.192-1.951-6.211-9.435 4.456-16.692Z" fill="#F4EF89"/><path d="M130.592 150.445c8.725-5.984 21.391-9.639 28.094-8.061 6.743 1.5 5.132 7.692-3.633 13.754-8.724 5.984-21.39 9.639-28.134 8.139-6.741-1.697-5.051-7.848 3.673-13.832Z" fill="#FFDF6B"/><path d="M130.769 152.02c8.724-5.984 21.39-9.639 28.212-8.098 2.195.538 3.48 1.498 4.015 2.763.183-2.082-1.173-3.671-4.152-4.416-6.821-1.541-19.369 2.076-28.212 8.098-5.948 4.053-8.595 8.227-7.607 10.913.229-2.553 2.866-5.94 7.744-9.26Z" fill="#EB9D35"/><path d="m118.677 163.19 3.275 8.415c.57 1.58 2.168 2.701 4.794 3.363l-3.276-8.415c-2.625-.662-4.223-1.783-4.793-3.363Z" fill="#F0AE64"/><path d="M167.009 143.314c2.284 5.926-8.781 13.572-15.152 16.912-7.718 4.031-20.31 8.119-28.268 6.289l3.275 8.415c12.388 2.829 38.122-8.327 43.051-18.841.647-1.447.942-2.976.447-4.319l-3.353-8.456Z" fill="#DD9A50"/><path d="M123.325 128.47c-3.246 2.449-4.323 2.63-5.168 4.344l3.746-2.622a4.15 4.15 0 0 1 1.422-1.722ZM129.416 149.5l-3.746 2.622c3.649 3.629 9.326 7.316 13.093 5.385.601-.3 1.126-.764 4.233-2.909-3.581 2.546-9.791-1.254-13.58-5.098Z" fill="#D77D14"/><path d="m121.903 130.192-3.746 2.621c-.044.121-.088.242-.189.369-1.87 4.892 2.16 13.389 7.645 18.946l3.746-2.622c-3.788-3.844-7.545-9.945-8.059-14.97-.119-1.547-.002-3.062.603-4.344Z" fill="#E99709"/><path d="M141.403 152.179c2.911-2.246 1.599-8.829-2.932-14.703-4.531-5.874-10.565-8.815-13.477-6.568-2.912 2.246-1.599 8.828 2.932 14.702 4.531 5.874 10.565 8.815 13.477 6.569Z" fill="#FFDF6B"/><path d="M136.255 134.97c-5.092-5.14-10.667-6.412-12.331-2.756-.284.553-.441 1.206-.477 1.903.082-.298.17-.539.315-.787 1.727-3.605 7.239-2.384 12.331 2.756 4.31 4.363 6.988 10.124 6.618 13.98 1.017-3.756-1.689-10.265-6.456-15.096Z" fill="#EB9D35"/><path d="M136.904 133.569c-6.204-6.285-12.959-7.769-15.001-3.376l.191.151-.191-.151c-2.099 4.398 1.252 13.03 7.513 19.308 6.204 6.284 12.96 7.768 15.002 3.376 2.099-4.399-1.253-13.03-7.514-19.308Zm5.492 17.285c-1.727 3.605-7.239 2.384-12.331-2.756-5.091-5.14-7.868-12.277-6.141-15.882 1.728-3.606 7.24-2.384 12.331 2.756 5.092 5.14 7.869 12.277 6.141 15.882Z" fill="#EECE5B"/><path d="m121.903 130.192 2.021 2.023c-1.727 3.605 1.05 10.742 6.141 15.882l-.649 1.403c-6.261-6.278-9.612-14.91-7.513-19.308Z" fill="#F4EF89"/><path d="M27.427.427c-1.791 1.057-2.35 1.086-2.878 1.908l2.056-1.115c.205-.353.499-.617.822-.793ZM29.306 11.467l-2.055 1.116c1.644 2.055 4.316 4.257 6.342 3.494.323-.118.616-.323 2.32-1.234-1.968 1.087-4.904-1.203-6.607-3.376Z" fill="#D77D14"/><path d="m26.605 1.22-2.056 1.115a.613.613 0 0 1-.117.176c-1.233 2.378.323 6.93 2.79 10.071l2.055-1.115c-1.703-2.173-3.26-5.491-3.23-8.075.03-.793.176-1.556.558-2.173Z" fill="#E99709"/><path d="M35.243 13.522c1.61-.973 1.323-4.395-.64-7.642-1.963-3.247-4.859-5.091-6.469-4.118-1.61.973-1.323 4.394.64 7.642 1.962 3.247 4.859 5.091 6.469 4.118Z" fill="#FFDF6B"/><path d="M33.622 4.478c-2.29-2.907-5.05-3.876-6.107-2.114a2.407 2.407 0 0 0-.352.94 1.58 1.58 0 0 1 .205-.382c1.086-1.732 3.817-.793 6.107 2.114 1.938 2.466 2.966 5.55 2.555 7.487.734-1.85-.264-5.314-2.408-8.045Z" fill="#EB9D35"/><path d="M34.033 3.804C31.243.25 27.897-.894 26.605 1.22l.088.088-.088-.088c-1.322 2.114-.118 6.694 2.701 10.247 2.79 3.553 6.137 4.698 7.429 2.584 1.32-2.114.117-6.695-2.702-10.247Zm1.791 9.102c-1.086 1.732-3.817.793-6.107-2.114s-3.288-6.695-2.202-8.427c1.086-1.733 3.817-.793 6.107 2.114s3.289 6.694 2.202 8.427Z" fill="#FFDF6B"/><path d="m26.605 1.22.91 1.144c-1.087 1.733-.088 5.52 2.202 8.427l-.411.676c-2.819-3.553-4.023-8.134-2.701-10.248Z" fill="#F4EF89"/></svg>