<svg width="224" height="212" fill="none" xmlns="http://www.w3.org/2000/svg"><path d="M72.305 177.084c-52.176 3.622-79.837 14.052-61.78 23.295 18.056 9.244 74.99 13.8 127.168 10.173 52.178-3.627 79.839-14.053 61.783-23.297-18.057-9.244-74.992-13.794-127.17-10.171Z" fill="#009E82"/><path d="M149.016 177.631c-4.135-.465-5.571-.271-5.402.292 1.772-.114 3.583-.21 5.433-.288l-.031-.004Z" fill="#F6F5F7"/><path d="M149.944 65.204a1.857 1.857 0 0 1 1.769 1.33c.48 1.393.816 2.785.816 2.785h-6.384s2.702-4.34 3.799-4.115Z" fill="#63C8B6"/><path d="M124.014 190.918v-18.99H86.768v18.99a22.442 22.442 0 0 1-12.16 3.576 1.531 1.531 0 0 0 1.534 1.533h58.498a1.532 1.532 0 0 0 1.534-1.533 22.452 22.452 0 0 1-12.16-3.576Z" fill="#056755"/><path d="M185.361 162.531V78.257a9.205 9.205 0 0 0-9.202-9.203H34.623a9.202 9.202 0 0 0-9.202 9.203v84.274h159.94Z" fill="#1F9781"/><path d="M185.361 162.531v1.17a9.203 9.203 0 0 1-9.202 9.201H34.623a9.2 9.2 0 0 1-9.202-9.201v-1.174l159.94.004Z" fill="#168C77"/><path d="M177.147 77.271H33.639v77.045h143.508V77.271Z" fill="#C6FFF5"/><path d="M169.872 87.835h-58.7a1.1 1.1 0 0 0-1.101 1.1v2.79a1.1 1.1 0 0 0 1.101 1.1h58.7a1.1 1.1 0 0 0 1.101-1.1v-2.79a1.1 1.1 0 0 0-1.101-1.1ZM169.872 98.368h-58.7a1.1 1.1 0 0 0-1.101 1.1v2.79a1.1 1.1 0 0 0 1.101 1.1h58.7a1.1 1.1 0 0 0 1.101-1.1v-2.79a1.1 1.1 0 0 0-1.101-1.1ZM169.872 108.903h-58.7a1.1 1.1 0 0 0-1.101 1.1v2.79a1.1 1.1 0 0 0 1.101 1.1h58.7a1.1 1.1 0 0 0 1.101-1.1v-2.79a1.1 1.1 0 0 0-1.101-1.1ZM170.096 121.654h-59.223a1.1 1.1 0 0 0-1.1 1.1v2.79a1.1 1.1 0 0 0 1.1 1.1h59.223a1.1 1.1 0 0 0 1.1-1.1v-2.79a1.1 1.1 0 0 0-1.1-1.1Z" fill="#6EE8D2"/><path d="M170.096 132.188h-59.223a1.1 1.1 0 0 0-1.1 1.1v2.789a1.1 1.1 0 0 0 1.1 1.1h59.223a1.1 1.1 0 0 0 1.1-1.1v-2.789a1.1 1.1 0 0 0-1.1-1.1Z" fill="#ADCCE9"/><path d="m150.179 65.204-39.973-.269c-1.866 1.09-3.283 3.363-4.352 6.444h40.631c1.463-5.161 3.694-6.175 3.694-6.175Z" fill="#C4ECE5"/><path d="M146.482 71.38h-40.631c-5.596 16.123-1.616 54.463-1.815 62.281-.237 9.316-6.64 16.364-6.64 16.364h42.14c12.096-7.048 5.692-52.867 5.692-67.719 0-4.88.536-8.401 1.254-10.927Z" fill="#ECFFFC"/><path d="M118.72 99.783h9.226c.163 0 .312-.263.312-.574v-.128c0-.311-.143-.574-.312-.574h-9.226c-.163 0-.312.263-.312.574v.128c0 .311.142.574.312.574ZM118.72 102.382h9.226c.163 0 .312-.263.312-.574v-.134c0-.312-.143-.575-.312-.575h-9.226c-.163 0-.312.263-.312.575v.127c0 .318.142.581.312.581ZM117.334 124.902h9.226c.163 0 .312-.262.312-.572v-.131c0-.31-.144-.573-.312-.573h-9.226c-.163 0-.311.263-.311.573v.129c0 .312.142.574.311.574ZM117.334 127.501h9.226c.163 0 .312-.262.312-.573v-.129c0-.31-.144-.572-.312-.572h-9.226c-.163 0-.311.262-.311.572v.129c0 .311.142.573.311.573ZM117.471 131.282h18.445a.61.61 0 0 0 .624-.573v-.129a.61.61 0 0 0-.624-.573h-18.445a.61.61 0 0 0-.622.573v.129a.607.607 0 0 0 .622.573ZM117.471 133.977h18.445a.609.609 0 0 0 .624-.573v-.128a.609.609 0 0 0-.624-.574h-18.445a.607.607 0 0 0-.622.574v.128a.609.609 0 0 0 .622.573ZM118.511 107.375h18.445a.605.605 0 0 0 .428-.161.606.606 0 0 0 .196-.413v-.128a.606.606 0 0 0-.196-.413.605.605 0 0 0-.428-.161h-18.445a.61.61 0 0 0-.622.574v.128a.608.608 0 0 0 .622.574ZM118.511 110.07h18.445a.61.61 0 0 0 .624-.575v-.127a.614.614 0 0 0-.196-.413.615.615 0 0 0-.428-.16h-18.445a.607.607 0 0 0-.622.573v.127a.61.61 0 0 0 .622.575ZM112.267 110.863v-1.066a3.06 3.06 0 0 1-1.619-.468l.256-.713c.454.293.982.452 1.523.458.756 0 1.267-.437 1.267-1.044 0-.608-.415-.947-1.203-1.267-1.087-.426-1.758-.927-1.758-1.853 0-.885.628-1.555 1.598-1.715v-1.065h.671v1.032a2.91 2.91 0 0 1 1.384.374l-.266.702a2.55 2.55 0 0 0-1.342-.372c-.816 0-1.128.489-1.128.927 0 .543.394.816 1.321 1.214 1.097.447 1.65.989 1.65 1.938 0 .852-.586 1.64-1.683 1.81v1.108h-.671ZM112.491 135.496v-1.065a3.06 3.06 0 0 1-1.619-.469l.256-.713c.454.293.982.452 1.523.458.756 0 1.267-.437 1.267-1.044s-.415-.947-1.203-1.267c-1.086-.426-1.757-.927-1.757-1.853 0-.884.629-1.555 1.597-1.715v-1.064h.671v1.026c.485.008.962.136 1.385.374l-.267.702a2.553 2.553 0 0 0-1.342-.372c-.816 0-1.128.49-1.128.927 0 .544.393.816 1.321 1.214 1.096.448 1.65.99 1.65 1.938 0 .852-.586 1.64-1.683 1.81v1.109l-.671.004Z" fill="#06A98B"/><path d="M98.46 82.778H42.456v11.684h56.002V82.778Z" fill="#fff"/><path d="M56.74 99.246H42.534v14.204h14.204V99.246ZM77.734 99.246H63.529v14.204h14.205V99.246ZM98.727 99.246H84.523v14.204h14.204V99.246ZM56.74 115.786H42.534v14.204h14.204v-14.204ZM77.734 115.786H63.529v14.204h14.205v-14.204ZM56.74 133.232H42.534v14.205h14.204v-14.205ZM77.734 133.232H63.529v14.205h14.205v-14.205ZM98.727 133.232H84.523v14.205h14.204v-14.205ZM98.727 115.788H84.523v14.204h14.204v-14.204Z" fill="#00D3AE"/><path d="M97.395 150.025c-2.876.289-6.95-.49-7.531-4.037h43.382s1.67 4.037 6.291 4.037H97.395Z" fill="#77CBBC"/><path d="M210.006 161.178a5.917 5.917 0 0 1-4.262-1.684 5.898 5.898 0 0 1-1.777-4.223 5.908 5.908 0 0 1 6.039-5.907h.327v-2.963h-.327a5.916 5.916 0 0 1-4.262-1.683 5.892 5.892 0 0 1-1.777-4.224 5.908 5.908 0 0 1 6.039-5.907h.327v-2.523h-75.444v47.249h75.444v-3.379h-.327a5.905 5.905 0 0 1 0-11.811h.327v-2.954a5.867 5.867 0 0 1-.327.009Z" fill="#FFD257"/><path d="M167.841 146.959a8.503 8.503 0 0 1-.815 3.758 9.335 9.335 0 0 1-2.162 2.91 9.663 9.663 0 0 1-3.134 1.885c-1.189.445-2.45.67-3.72.665a11.092 11.092 0 0 1-3.919-.665 9.171 9.171 0 0 1-3.087-1.885 8.542 8.542 0 0 1-2.024-2.91 9.356 9.356 0 0 1-.731-3.758 9.856 9.856 0 0 1 .731-3.856 8.592 8.592 0 0 1 2.024-2.963 9.26 9.26 0 0 1 3.087-1.908 10.914 10.914 0 0 1 3.919-.676 11.132 11.132 0 0 1 3.946.679 9.234 9.234 0 0 1 3.119 1.908 8.673 8.673 0 0 1 2.023 2.963 9.846 9.846 0 0 1 .743 3.853Zm12.863-7.868a5.023 5.023 0 0 1 1.038-.809 3.343 3.343 0 0 1 1.714-.37h6.359l-30.851 36.221a3.241 3.241 0 0 1-2.584 1.13h-6.515l30.839-36.172Zm-19.549 7.868a8.225 8.225 0 0 0-.24-2.165 3.674 3.674 0 0 0-.659-1.37 2.25 2.25 0 0 0-.997-.72 3.71 3.71 0 0 0-1.249-.205 3.593 3.593 0 0 0-1.237.205c-.38.143-.712.393-.954.72a3.81 3.81 0 0 0-.618 1.37 8.713 8.713 0 0 0-.226 2.165 7.878 7.878 0 0 0 .226 2.052c.114.474.325.918.618 1.307.248.314.579.554.954.693.397.141.816.21 1.237.206.425.003.848-.066 1.249-.206.388-.139.732-.378.997-.693a3.43 3.43 0 0 0 .659-1.307c.175-.669.256-1.36.24-2.052Zm30.221 19.534a8.618 8.618 0 0 1-.815 3.758 9.3 9.3 0 0 1-2.162 2.922 9.695 9.695 0 0 1-3.131 1.885 10.607 10.607 0 0 1-3.723.665 11.175 11.175 0 0 1-3.917-.665 9.184 9.184 0 0 1-3.09-1.885 8.535 8.535 0 0 1-2.023-2.922 9.425 9.425 0 0 1-.731-3.758 9.802 9.802 0 0 1 .731-3.856 8.636 8.636 0 0 1 2.023-2.963 9.239 9.239 0 0 1 3.09-1.907 10.907 10.907 0 0 1 3.917-.68 11.122 11.122 0 0 1 3.948.68 9.213 9.213 0 0 1 3.117 1.907 8.678 8.678 0 0 1 2.037 2.963 9.858 9.858 0 0 1 .729 3.856Zm-6.683 0a8.157 8.157 0 0 0-.24-2.139 3.727 3.727 0 0 0-.659-1.361 2.282 2.282 0 0 0-.997-.717 3.731 3.731 0 0 0-1.252-.205 3.576 3.576 0 0 0-1.234.205c-.382.141-.714.39-.957.717a3.861 3.861 0 0 0-.616 1.373 8.6 8.6 0 0 0-.225 2.139 7.92 7.92 0 0 0 .225 2.052c.114.473.323.918.616 1.307.249.315.58.555.957.693.396.14.814.21 1.234.206.426.003.849-.066 1.252-.206.387-.141.73-.38.997-.693.311-.384.535-.829.659-1.307a7.48 7.48 0 0 0 .24-2.064Z" fill="#FFF8F5"/><path d="m68.514 64.047.027-.01-.028.009.001.001Z" fill="#784F18"/><path d="M146.758 41.034c-1.791 1.057-2.349 1.086-2.877 1.908l2.055-1.115c.206-.353.499-.617.822-.793ZM148.638 52.074l-2.056 1.116c1.645 2.055 4.317 4.257 6.343 3.494.323-.118.616-.323 2.319-1.234-1.967 1.087-4.903-1.204-6.606-3.376Z" fill="#D77D14"/><path d="m145.936 41.826-2.055 1.116a.618.618 0 0 1-.117.176c-1.234 2.378.323 6.93 2.789 10.071l2.055-1.115c-1.703-2.173-3.259-5.491-3.23-8.075.03-.793.177-1.556.558-2.173Z" fill="#E99709"/><path d="M154.574 54.129c1.61-.973 1.324-4.395-.639-7.642-1.963-3.247-4.859-5.091-6.469-4.118-1.61.973-1.324 4.394.639 7.642 1.963 3.247 4.859 5.091 6.469 4.118Z" fill="#FFDF6B"/><path d="M152.954 45.085c-2.29-2.907-5.05-3.876-6.107-2.114a2.398 2.398 0 0 0-.353.94c.059-.147.118-.265.206-.382 1.086-1.733 3.817-.793 6.107 2.114 1.938 2.466 2.966 5.55 2.555 7.487.734-1.85-.265-5.314-2.408-8.045Z" fill="#EB9D35"/><path d="M153.365 44.41c-2.789-3.552-6.137-4.697-7.429-2.583l.088.088-.088-.088c-1.321 2.114-.117 6.694 2.702 10.247 2.789 3.553 6.136 4.698 7.428 2.584 1.322-2.114.118-6.695-2.701-10.248Zm1.791 9.103c-1.086 1.732-3.817.793-6.107-2.114s-3.289-6.695-2.202-8.427c1.086-1.733 3.817-.793 6.107 2.114s3.288 6.694 2.202 8.427Z" fill="#FFDF6B"/><path d="m145.936 41.826.911 1.145c-1.087 1.733-.088 5.52 2.202 8.427l-.411.675c-2.819-3.552-4.023-8.133-2.702-10.247Z" fill="#F4EF89"/><path d="M209.398 92.446s-1.325-7.902 6.864-10.797c0 0-1.325-.17-1.937-.205-.034 0-.747 0-.951.034-.51.069-.646.103-.748.103-.034 0-.102.034-.271.068-4.588 1.055-7.17 6.335-6.286 11.07a9.778 9.778 0 0 0 1.155 3.167c1.223 2.043 3.194 3.474 5.504 3.746l1.971.205c-1.461-.17-4.689-3.202-5.301-7.391Z" fill="#CF893D"/><path d="M209.976 82.67h4.077c.646-.408 1.394-.749 2.243-1.055 0 0-1.325-.17-1.937-.204-.034 0-.747 0-.951.034-.51.068-.646.102-.748.102-.034 0-.102.034-.272.068a7.339 7.339 0 0 0-2.412 1.056Z" fill="#BC762A"/><path d="M208.311 84.135a9.859 9.859 0 0 0-1.699 2.895h3.534c.408-.988 1.053-1.976 1.971-2.895h-3.806Z" fill="#DA984F"/><path d="M209.466 92.855h-3.364a9.595 9.595 0 0 0 1.122 2.997c1.223 2.043 3.194 3.474 5.504 3.746l1.971.205c-1.393-.137-4.485-2.963-5.233-6.948Z" fill="#BC762A"/><path d="M214.665 84.647c.68-.17 1.325-.239 1.971-.17l.204.919c.815 4.7-1.835 9.366-5.913 10.456h-.068c-.713-.92-1.257-2.112-1.495-3.44 0-.034 0-.102-.034-.136.068-3.542 2.243-6.778 5.335-7.63Z" fill="#FFDF6B"/><path d="m214.189 81.853.272 1.601c-3.466.92-5.742 4.973-5.063 8.992l-1.359.375c-.849-4.905 1.903-9.81 6.15-10.968Z" fill="#FFDF6B"/><path d="M214.461 83.455c.578-.17 1.189-.204 1.767-.204.17.374.306.783.408 1.226-.646-.069-1.291 0-1.971.17-3.092.851-5.267 4.087-5.301 7.663-.611-3.985 1.665-7.936 5.097-8.855Z" fill="#FAEC97"/><path d="M214.393 83.454s-.034.034 0 0c-.034.034 0 0 0 0Zm-.068.034h-.034.034Zm-.102.034h-.034.034Zm-.068.034c-.034 0-.034 0 0 0-.034 0-.034 0 0 0Zm-.102 0h-.034c.034.034.034 0 .034 0Zm-.068.034h-.033.033Zm-.067.034s-.034 0 0 0c-.034 0 0 0 0 0Zm-.068.035h-.034.034Zm-.102.033h-.034.034Zm-.068.035s-.034 0 0 0c-.034 0 0 0 0 0Zm-.068.034h-.034.034Zm-.068.034c-.034 0-.034 0 0 0-.034 0-.034 0 0 0Zm-.17.068s-.034 0 0 0c-.034 0 0 0 0 0Zm-.068.034s-.034 0 0 0c-.034 0 0 0 0 0Zm-.068.034s-.034 0-.034.034c0-.034 0-.034.034-.034Zm-.068.034c-.034 0-.034.034 0 0-.034.034-.034 0 0 0Zm-.102.034c0 .034 0 .034 0 0 0 .034 0 .034 0 0Zm-.204.136s-.034 0 0 0c-.034 0 0 0 0 0Zm-.068.034c0 .034-.034.034 0 0-.034.034 0 .034 0 0Zm-.068.069s-.034 0 0 0c-.034 0 0 0 0 0Zm-.068.034s-.034 0 0 0c-.034 0 0 0 0 0Zm-.068.034c0 .034-.034.034 0 0-.034.034 0 .034 0 0Zm-.068.068s-.034 0 0 0c-.034 0 0 0 0 0Zm-.068.034s-.034.034 0 0c-.034.034 0 0 0 0Zm-.068.068s-.033 0 0 0c-.033 0 0 0 0 0Zm-.067.034s-.034.034 0 0c-.034.034 0 0 0 0Zm-.068.068s-.034 0 0 0c-.034 0 0 0 0 0Zm-.068.034s-.034.034 0 0c-.034.034 0 0 0 0Zm-.136.102c0 .034 0 .034 0 0 0 .034 0 .034 0 0Zm-.17.17c-.034 0-.034.035 0 0-.034.035-.034 0 0 0Zm-.068.069s-.034 0 0 0c-.034 0 0 0 0 0Zm-.068.068s-.034 0 0 0c-.034 0 0 0 0 0Zm-.068.034c0 .034 0 .034 0 0 0 .034 0 .034 0 0Zm-.068.068s0 .034 0 0c0 .034 0 0 0 0Zm-.034.068c-.034 0-.034 0 0 0-.034 0-.034 0 0 0Zm-.068.068s-.034 0 0 0c-.034 0 0 0 0 0Zm-.068.034c0 .034 0 .034 0 0 0 .034 0 .034 0 0Zm-.034.068c-.034 0-.034.034 0 0-.034.034-.034 0 0 0Zm-.068.069s-.034.034 0 0c-.034.034 0 0 0 0Zm-.102.136c-.034 0-.034 0 0 0-.034 0-.034 0 0 0Zm4.078-3.917c-.306.034-.646.068-.952.17h-.068c-.034 0-.068 0-.102.034l.272 1.601c.578-.17 1.189-.204 1.767-.204a6.788 6.788 0 0 0-.917-1.601Zm-5.947 10.66c0-.067-.034-.136-.034-.17.034.034.034.103.034.17Zm0-.17v-.102c-.034.034 0 .068 0 .102Zm.034.307c0-.034 0-.102-.034-.136.034.034.034.102.034.136Zm-1.359.374c0 .035 0 .069.034.103a9.54 9.54 0 0 0 1.155 3.167c.544 0 1.122-.068 1.665-.204-.713-.92-1.257-2.112-1.495-3.44l-1.359.374Zm1.291-.885v-.102.102Zm0-.102v-.102.102Zm-.034-.068v-.103.103Zm0-.103v-.102.102Zm0-.102v-.102.102Zm0-.102v-.102.102Zm0-.068v-.102.102Zm0-.102v-.102.102Zm0-.102v-.103c-.034.035 0 .069 0 .103Zm-.034-.103v-.102.103Zm0-.068v-.102.102Zm0-.102v-.272c.034.102 0 .17 0 .272Zm.034-.272v-.273.273Zm0-.273c.034-.51.136-1.022.238-1.498-.102.476-.204.987-.238 1.498Zm.238-1.532v-.069c.034.035 0 .069 0 .069Zm.034-.069V88.7v.068Zm.034-.102v-.068.068Zm0-.068c0-.034 0-.034.034-.068 0 .034 0 .034-.034.068Zm.034-.102c0-.034 0-.034.034-.068-.034.034-.034.068-.034.068Zm.034-.068v-.068.068Zm.034-.102v-.034.034Zm.034-.069v-.034.035Zm0-.102v-.034c.034 0 .034.034 0 .034Zm.034-.068v-.034c.034 0 0 0 0 .034Zm.034-.102v-.034.034Zm.034-.068v-.034.034Zm.034-.102v-.034.034Zm.034-.068v-.034.034Zm.034-.069c0-.034 0-.034 0 0 0-.034 0-.034 0 0Zm.068-.17c0-.034 0-.034 0 0 0-.034 0-.034 0 0Zm.068-.17v-.034.034Zm.034-.068c0-.034.034-.034 0 0 .034-.034 0-.034 0 0Zm.034-.102c.034 0 .034 0 0 0 .034 0 .034 0 0 0Zm.068-.069s0-.034 0 0c0-.034 0 0 0 0Zm.034-.068s0-.034 0 0c0-.034 0 0 0 0Zm.034-.068c0-.034 0-.034 0 0 0-.034 0-.034 0 0Zm.068-.17c.034 0 .034-.034 0 0 .034-.034.034 0 0 0Zm.068-.068s0-.034 0 0c0-.034 0 0 0 0Zm.034-.068c0-.034 0-.034 0 0 0-.034 0-.034 0 0Zm.034-.103s.034 0 0 0c.034 0 0 0 0 0Zm.136-.204c.034 0 .034-.034 0 0 .034-.034.034 0 0 0Zm.068-.068s0-.034 0 0c0-.034 0 0 0 0Zm.034-.068c0-.034.034-.034 0 0 .034-.034 0-.034 0 0Zm.068-.068c0-.034 0-.034 0 0 0-.034 0-.034 0 0Zm.033-.068c0-.034 0-.034 0 0 0-.034 0-.034 0 0Zm.068-.068c0-.034 0-.034 0 0 0-.034 0-.034 0 0Zm.17-.239s-.034 0 0 0c-.034 0 0 0 0 0Zm.034-.034c0-.034 0-.034 0 0 0-.034 0-.034 0 0Zm-1.767 6.199v.102-.102Z" fill="#FFDF6B"/><path d="M214.495 81.785c4.146-.92 8.121 2.078 8.936 6.88.85 4.905-1.902 9.81-6.184 10.933-4.179 1.124-8.256-1.805-9.174-6.607a9.259 9.259 0 0 0 1.155 3.065c.544 0 1.122-.068 1.665-.204 1.461 1.873 3.772 2.793 6.083 2.18 3.499-.92 5.776-4.973 5.062-8.992 0-.034 0-.102-.034-.136-.611-3.27-3.024-5.518-5.81-5.654a8.108 8.108 0 0 0-.883-1.601c-.272.034-.544.068-.816.136Z" fill="#FFDF6B"/><path d="M222.038 89.04c0-.033 0-.102-.034-.136-.611-3.27-3.024-5.517-5.81-5.653.17.374.306.783.408 1.226l.204.92c.815 4.7-1.835 9.366-5.913 10.456h-.067c1.461 1.873 3.771 2.793 6.082 2.18 3.567-.92 5.844-4.973 5.13-8.992Z" fill="#F2D15C"/><path d="M222.038 89.04c0-.033 0-.102-.034-.136-.611-3.27-3.024-5.517-5.81-5.653 0 .033.034.068.034.102 2.413.51 4.417 2.622 4.961 5.551 0 .035 0 .103.034.137.679 4.019-1.597 8.072-5.063 8.991-.374.103-.713.137-1.087.17.611.035 1.223 0 1.869-.17 3.533-.92 5.81-4.972 5.096-8.991Z" fill="#EB9D35"/><path d="M4.984 81.585c-1.473-.104-1.805-.311-2.428-.041l1.64.166c.249-.104.54-.146.788-.125ZM1.663 88.766.024 88.6c.125 1.847.81 4.213 2.305 4.587.228.062.498.062 1.847.207-1.598-.166-2.387-2.677-2.511-4.628Z" fill="#D77D14"/><path d="m4.196 81.73-1.64-.166c-.042.021-.083.042-.145.063C.75 82.519-.163 85.798.024 88.6l1.64.166c-.125-1.95.29-4.504 1.349-5.998.332-.456.705-.85 1.183-1.037Z" fill="#E99709"/><path d="M4.258 82.747c1.328-.58 2.532 1.08 2.719 3.674.166 2.615-.748 5.21-2.076 5.79-1.328.581-2.532-1.079-2.719-3.673-.186-2.615.748-5.21 2.076-5.79Z" fill="#FFDF6B"/><path d="M6.977 86.441c-.166-2.615-1.39-4.254-2.72-3.673-.207.083-.394.228-.58.394.083-.062.166-.104.27-.145 1.328-.581 2.532 1.08 2.718 3.673.146 2.221-.498 4.421-1.494 5.397 1.162-.81 1.972-3.217 1.806-5.646Z" fill="#EB9D35"/><path d="M7.495 86.213c-.207-3.175-1.701-5.188-3.3-4.483v.083-.083c-1.618.706-2.739 3.86-2.531 7.057.207 3.175 1.701 5.188 3.3 4.483 1.618-.727 2.739-3.881 2.531-7.057Zm-2.594 6.019c-1.328.581-2.532-1.08-2.719-3.674-.166-2.615.748-5.209 2.076-5.79 1.328-.581 2.532 1.08 2.719 3.674.166 2.615-.768 5.209-2.076 5.79Z" fill="#FFDF6B"/><path d="m4.196 81.73.062 1.038c-1.328.581-2.262 3.175-2.076 5.79l-.518.229c-.208-3.196.913-6.35 2.532-7.056Z" fill="#F4EF89"/><path d="M37.53 1.292C28.145 4.254 15.313 17.66 8.857 31.342l.205-.01-.205.01c-6.455 13.683-4.043 22.379 5.444 19.412 9.386-2.962 22.218-16.367 28.673-30.05C49.327 7.027 46.916-1.669 37.53 1.292Zm2.31 20.297c-5.256 11.156-15.849 22.288-23.516 24.748-7.77 2.465-9.691-4.718-4.44-15.977C17.138 19.204 27.731 8.072 35.404 5.715c7.77-2.465 9.691 4.718 4.435 15.874Z" fill="#FFDF6B"/><path d="m8.857 31.342 3.026-.982c-5.256 11.156-3.335 18.34 4.44 15.977L14.2 50.759c-9.391 2.86-11.803-5.837-5.342-19.417Z" fill="#F4EF89"/><path d="M11.883 30.36C17.14 19.204 27.732 8.072 35.405 5.715c7.668-2.46 9.69 4.718 4.44 15.976C34.59 32.847 23.998 43.98 16.33 46.44c-7.78 2.26-9.702-4.923-4.446-16.079Z" fill="#FFDF6B"/><path d="M12.988 31.84C18.244 20.686 28.837 9.554 36.606 7.089c2.526-.75 4.384-.541 5.666.417-1.04-2.202-3.34-3.004-6.776-2-7.77 2.465-18.266 13.49-23.619 24.753-3.598 7.58-3.805 13.336-1.23 15.457-1.272-2.703-.613-7.663 2.34-13.874Z" fill="#EB9D35"/><path d="m7.397 50.197 8.248 6.539c1.504 1.254 3.77 1.441 6.803.562l-8.25-6.54c-3.03.88-5.298.693-6.801-.561Z" fill="#F0AE64"/><path d="M44.327 1.752c5.786 4.617-.847 18.822-5.292 25.934-5.391 8.597-15.656 20.122-24.74 22.965l8.25 6.54c14.128-4.446 33.454-30.818 32.224-44.297-.2-1.836-.804-3.548-2.091-4.609l-8.351-6.533Z" fill="#DD9A50"/><path d="M89.286 25.024s-.865-5.145 4.48-7.03c0 0-.865-.111-1.264-.134-.022 0-.488 0-.621.023-.333.044-.422.066-.488.066-.022 0-.067.022-.178.044-2.994.688-4.68 4.126-4.103 7.186.133.755.4 1.442.754 2.063.799 1.33 2.085 2.262 3.593 2.44l1.287.133c-.954-.089-3.06-2.063-3.46-4.79Z" fill="#E99709"/><path d="M89.64 18.659h2.662c.422-.266.91-.488 1.464-.688 0 0-.865-.11-1.264-.133-.022 0-.488 0-.621.023-.333.044-.422.066-.488.066-.022 0-.067.022-.178.044a5.234 5.234 0 0 0-1.574.688Z" fill="#D77D14"/><path d="M88.576 19.612a6.406 6.406 0 0 0-1.109 1.886h2.307a5.831 5.831 0 0 1 1.286-1.886h-2.484Z" fill="#F7A00A"/><path d="M89.33 25.29h-2.195c.132.71.399 1.376.731 1.952.799 1.331 2.085 2.262 3.593 2.44l1.287.133c-.91-.089-2.928-1.93-3.416-4.524Z" fill="#D77D14"/><path d="M92.724 19.945c.443-.11.865-.155 1.286-.11l.133.598c.532 3.06-1.198 6.1-3.86 6.81h-.043a5.156 5.156 0 0 1-.976-2.24c0-.023 0-.067-.022-.09.044-2.306 1.441-4.413 3.482-4.968Z" fill="#FFDF6B"/><path d="m92.413 18.127.178 1.042c-2.285.599-3.77 3.238-3.305 5.855l-.887.244c-.555-3.216 1.242-6.387 4.014-7.142Z" fill="#F4EF89"/><path d="M92.59 19.17c.377-.112.777-.134 1.154-.134.11.244.2.51.266.799-.422-.045-.843 0-1.287.11-2.04.555-3.46 2.662-3.46 4.99-.399-2.594 1.087-5.167 3.328-5.766Z" fill="#FFDF6B"/><path d="M92.546 19.17c-.022 0-.022 0 0 0-.022 0-.022 0 0 0Zm-.066.021h-.023.023Zm-.045.023h-.022.022Zm-.044 0c-.022.022-.022.022 0 0-.022.022-.022.022 0 0Zm-.067.022h-.022.022Zm-.044.022h-.022.022Zm-.044.022c-.023 0-.023 0 0 0-.023 0-.023 0 0 0Zm-.067.022h-.022.022Zm-.044.022h-.022.022Zm-.045.023s-.022 0 0 0c-.022 0 0 0 0 0Zm-.044.022h-.022.022Zm-.155.066s-.022 0 0 0c-.022 0 0 0 0 0Zm-.045.023c-.022 0-.022 0 0 0-.022 0-.022 0 0 0Zm-.044.022s-.022 0-.022.022c0-.022 0-.022.022-.022Zm-.11.044s0 .022 0 0c0 .022 0 0 0 0Zm-.045.022c0 .022 0 .022 0 0 0 .022 0 .022 0 0Zm-.044.044s-.023 0 0 0c-.023 0 0 0 0 0Zm-.045.023s-.022 0 0 0c-.022 0 0 0 0 0Zm-.044.022s-.022.022 0 0c-.022.022 0 0 0 0Zm-.045.044s-.022 0 0 0c-.022 0 0 0 0 0Zm-.044.022c-.022 0-.022 0 0 0-.022 0-.022 0 0 0Zm-.044.023c-.022 0-.022.022 0 0-.022.022-.022 0 0 0Zm-.045.044c-.022 0-.022 0 0 0-.022 0-.022 0 0 0Zm-.044.022c-.022 0-.022 0 0 0-.022 0-.022 0 0 0Zm-.044.044c-.023 0-.023 0 0 0-.023 0-.023 0 0 0Zm-.045.023c-.022 0-.022 0 0 0-.022 0-.022 0 0 0Zm-.044.044s-.022 0 0 0c-.022 0 0 0 0 0Zm-.044.022s-.023 0 0 0c-.023 0 0 0 0 0Zm-.045.045s-.022 0 0 0c-.022 0 0 0 0 0Zm-.044.022s0 .022 0 0c0 .022 0 0 0 0Zm-.089.066c0 .022 0 .022 0 0 0 .022 0 .022 0 0Zm-.044.045s0 .022 0 0c0 .022 0 0 0 0Zm-.022.044c-.023 0-.023 0 0 0-.023 0-.023 0 0 0Zm-.045.022c0 .022-.022.022 0 0-.022.022 0 .022 0 0Zm-.044.045s0 .022 0 0c0 .022 0 0 0 0Zm-.067.088c-.022 0-.022 0 0 0-.022 0-.022 0 0 0Zm-.044.023c0 .022-.022.022 0 0-.022.022 0 .022 0 0Zm-.044.044c0 .022 0 .022 0 0 0 .022 0 .022 0 0Zm-.045.044s0 .022 0 0c0 .022 0 0 0 0Zm-.022.044c-.022 0-.022 0 0 0-.022 0-.022 0 0 0Zm-.11.134s-.023 0 0 0c-.023 0 0 0 0 0Zm2.705-2.595c-.2.022-.421.044-.621.11h-.044c-.023 0-.045 0-.067.023l.178 1.042c.377-.11.776-.133 1.153-.133a4.393 4.393 0 0 0-.599-1.042Zm-3.881 6.942c0-.045-.022-.089-.022-.111.022.022.022.066.022.11Zm0-.133v-.067c-.022.044-.022.067 0 .067Zm.022.221c0-.022 0-.066-.022-.088.022.022.022.044.022.088Zm-.887.222c0 .022 0 .045.022.067.133.754.4 1.464.754 2.062.355 0 .732-.044 1.087-.133a5.158 5.158 0 0 1-.976-2.24l-.887.244Zm.843-.554v-.067.067Zm0-.067v-.066c-.023.022-.023.044 0 .066Zm-.023-.066v-.067.067Zm0-.045v-.066.066Zm0-.066v-.067.067Zm0-.067v-.066.066Zm0-.066v-.067.067Zm-.022-.045v-.066.066Zm0-.066v-.067.067Zm0-.067v-.066.066Zm0-.044v-.067.067Zm0-.067v-.177.177Zm.022-.177v-.177.177Zm0-.177c.023-.333.089-.666.156-.976-.09.31-.133.643-.156.976Zm.156-.999v-.044.044Zm.022-.044v-.044.044Zm.022-.067v-.044.044Zm0-.044c0-.022 0-.022.022-.044 0 0-.022.022-.022.044Zm.022-.066c0-.023 0-.023.022-.045-.022.023-.022.045-.022.045Zm.022-.045v-.044.044Zm.023-.066v-.022.022Zm0-.045v-.022c.022 0 .022 0 0 .022Zm.022-.066v-.022c.022 0 0 .022 0 .022Zm.022-.044v-.023.023Zm.022-.067v-.022.022Zm.022-.044v-.023.023Zm.022-.067v-.022.022Zm.022-.044v-.022.022Zm.045-.111s0-.022 0 0c0-.022 0 0 0 0Zm.022-.045c0-.022 0-.022 0 0 0-.022 0-.022 0 0Zm.044-.11v-.023.023Zm.023-.045c0-.022 0-.022 0 0 0-.022 0-.022 0 0Zm.022-.066s.022 0 0 0c.022 0 0 0 0 0Zm.022-.045c.022 0 .022-.022 0 0 .022-.022.022 0 0 0Zm.044-.044c0-.022 0-.022 0 0 0-.022 0-.022 0 0Zm.067-.155s.022-.023 0 0c.022-.023 0 0 0 0Zm.044-.045c0-.022 0-.022 0 0 0-.022 0-.022 0 0Zm.067-.155c.022 0 .022 0 0 0 .022 0 .022 0 0 0Zm.044-.044s0-.023 0 0c0-.023 0 0 0 0Zm.022-.045s.022-.022 0 0c.022-.022 0 0 0 0Zm.045-.044c0-.022 0-.022 0 0 0-.022 0-.022 0 0Zm.022-.044c0-.023 0-.023 0 0 0-.023 0-.023 0 0Zm.022-.067c.022 0 .022 0 0 0 .022 0 .022 0 0 0Zm.067-.089c.022 0 .022 0 0 0 .022 0 .022 0 0 0Zm.066-.088c.022 0 .022 0 0 0 .022 0 .022 0 0 0Zm.067-.045c-.023 0-.023 0 0 0-.023 0-.023 0 0 0Zm-1.132 4.015v.066-.066Z" fill="#F4EF89"/><path d="M92.613 18.082c2.706-.598 5.3 1.353 5.833 4.48.554 3.194-1.242 6.388-4.037 7.12-2.728.732-5.39-1.175-5.988-4.303.133.732.4 1.398.754 1.996a4.55 4.55 0 0 0 1.087-.133c.954 1.22 2.462 1.819 3.97 1.42 2.284-.599 3.77-3.238 3.305-5.855 0-.023 0-.067-.023-.09-.399-2.128-1.974-3.592-3.792-3.68a5.247 5.247 0 0 0-.577-1.043c-.177.022-.355.044-.532.088Z" fill="#F4EF89"/><path d="M97.536 22.807c0-.023 0-.067-.022-.09-.399-2.128-1.974-3.592-3.792-3.68.11.243.2.51.266.798l.133.598c.532 3.061-1.198 6.1-3.86 6.81h-.044c.954 1.22 2.462 1.818 3.97 1.419 2.33-.599 3.815-3.238 3.35-5.855Z" fill="#F8D454"/><path d="M97.537 22.807c0-.023 0-.067-.023-.09-.399-2.128-1.974-3.592-3.792-3.68 0 .021.022.044.022.066 1.575.332 2.883 1.707 3.238 3.615 0 .022 0 .066.022.089.444 2.617-1.042 5.256-3.305 5.855a3.921 3.921 0 0 1-.71.11c.4.023.8 0 1.22-.11 2.307-.599 3.793-3.238 3.328-5.855Z" fill="#EB9D35"/></svg>