<svg width="76" height="76" viewBox="0 0 76 76" fill="none" xmlns="http://www.w3.org/2000/svg">
    <defs>
        <linearGradient id="paint0_linear_2140:334" x1="53.2728" y1="48.0126" x2="53.2728"
            y2="54.3451" gradientUnits="userSpaceOnUse">
            <stop stop-color="white" />
            <stop offset="1" />
        </linearGradient>
    </defs>
    <rect width="76" height="76" rx="5" fill="#DDECE9" />
    <path d="M44.6506 25.6226H19.0981V47.0142H44.6506V25.6226Z" fill="#2E0F05" />
    <path d="M36.72 39.1821H26.6851V44.9584H36.72V39.1821Z" fill="#EFBFA5" />
    <path
        d="M29.5242 43.6367C31.1396 43.5877 32.706 43.0493 33.9298 42.2661C34.9578 41.6297 35.741 40.8465 36.3774 39.9653C36.4753 39.7695 36.6221 39.5737 36.769 39.3779V39.1821H26.6851V43.5388C27.6151 43.6367 28.5942 43.6367 29.5242 43.6367Z"
        fill="#D8AD96" />
    <path
        d="M44.1609 23.4197C44.1609 14.119 38.5805 8.78333 31.7273 8.73438H31.6783H31.6294C24.7273 8.78333 19.1958 14.119 19.1958 23.4197C19.1958 35.4617 27.8602 42.5107 31.7273 42.5107C35.4476 42.4617 44.1609 35.4617 44.1609 23.4197Z"
        fill="#EFBFA5" />
    <path
        d="M42.888 26.8461L42.2026 32.3286C44.9929 33.5524 45.4334 27.1398 45.4334 27.1398C44.797 25.5244 42.888 26.8461 42.888 26.8461Z"
        fill="#EFBFA5" />
    <path
        d="M18.1187 27.091C18.1187 27.091 18.5592 33.5526 21.3494 32.2799L20.6641 26.8463C20.6641 26.8463 18.755 25.5246 18.1187 27.091Z"
        fill="#EFBFA5" />
    <path
        d="M26.6856 44.5176L14.5946 48.2379C14.5946 48.2379 10.3848 48.9721 9.3079 53.3777L7.44775 61.4057H31.5317H31.7275H55.8115L53.9513 53.4267C52.8744 49.0211 48.6646 48.2868 48.6646 48.2868L36.5737 44.5665H26.6856V44.5176Z"
        fill="#EFBFA5" />
    <path
        d="M43.5246 46.6714L48.6155 48.2378C48.6155 48.2378 52.8253 48.9721 53.9022 53.3777L58.2099 76H31.7273H31.5315H5L9.30772 53.3777C10.3846 48.9721 14.5944 48.2378 14.5944 48.2378L19.7343 46.6714C19.7343 46.6714 19.7343 57.9791 31.6294 58.2728C31.6294 58.2728 43.2798 59.4966 43.5246 46.6714Z"
        fill="#09A085" />
    <path
        d="M25.5597 13.2382C25.5597 13.2382 28.0072 22.9795 44.1611 25.8676C44.1611 25.8676 43.28 44.4201 37.259 53.3781C37.259 53.3781 44.1121 54.6019 45.9723 49.9515C45.9723 49.9515 48.7135 25.2802 45.3359 16.0773C45.3359 16.0773 41.4688 1.24515 26.7834 7.65775C26.6855 7.7067 23.1611 8.73468 25.5597 13.2382Z"
        fill="#52231C" />
    <path
        d="M39.1189 13.2378C39.1189 13.2378 25.6083 5.99305 21.3985 25.1329C21.3985 25.1329 21.4475 44.4197 27.4685 53.3288C27.4685 53.3288 20.6153 54.5526 18.7552 49.9022C18.7552 49.9022 16.0139 25.2308 19.3915 16.028C19.3915 16.028 23.2587 1.19584 37.944 7.60844C37.944 7.70634 41.5175 8.73431 39.1189 13.2378Z"
        fill="#52231C" />
    <path
        d="M38.0112 54.2834V34.7671C38.0112 34.246 38.4376 33.8315 38.9468 33.8315H67.5936C68.1147 33.8315 68.5291 34.2579 68.5291 34.7671V54.2834H38.0112Z"
        fill="#560900" />
    <path d="M66.6701 39.9897H39.9062V40.1082H66.6701V39.9897Z" fill="#ACC3CC" />
    <path
        d="M68.5409 54.2832V73.7995C68.5409 74.3206 68.1145 74.7351 67.6053 74.7351H38.9585C38.4374 74.7351 38.0229 74.3087 38.0229 73.7995V54.2832H68.5409Z"
        fill="#002D4F" />
    <path
        d="M67.5936 34.2935H38.9468C38.6863 34.2935 38.4731 34.5066 38.4731 34.7672V54.2835H68.0673V34.7672C68.0673 34.5066 67.8542 34.2935 67.5936 34.2935Z"
        fill="#EBE4EB" />
    <path opacity="0.1" d="M68.0673 47.9238H38.4731V54.2714H68.0673V47.9238Z"
        fill="url(#paint0_linear_2140:334)" />
    <path
        d="M38.9468 74.2614H67.5936C67.8542 74.2614 68.0673 74.0482 68.0673 73.7877V54.2832H38.4731V73.7995C38.4731 74.0482 38.6863 74.2614 38.9468 74.2614Z"
        fill="#EBE4EB" />
    <path d="M65.8408 58.2271L65.8408 70.0695" stroke="#B61617" stroke-width="0.23589"
        stroke-miterlimit="10" />
    <path d="M39.894 55.3965H66.6579" stroke="#B61617" stroke-width="0.0294862"
        stroke-miterlimit="10" />
    <path d="M39.894 36.437H66.6579" stroke="#B61617" stroke-width="0.0294862"
        stroke-miterlimit="10" />
    <path d="M47.8402 59.0557H39.8364V69.2725H47.8402V59.0557Z" fill="white" />
    <mask id="mask0_2140:334" style="mask-type:alpha" maskUnits="userSpaceOnUse" x="39" y="59"
        width="9" height="11">
        <path d="M47.8402 59.0557H39.8364V69.2725H47.8402V59.0557Z" fill="white" />
    </mask>
    <path d="M45.9023 63.6221H41.8062V67.0513H45.9023V63.6221Z" fill="#2E0F05" />
    <path d="M44.6311 65.7959H43.0225V66.7219H44.6311V65.7959Z" fill="#EFBFA5" />
    <path
        d="M43.4776 66.51C43.7365 66.5021 43.9877 66.4158 44.1838 66.2903C44.3486 66.1883 44.4742 66.0627 44.5762 65.9215C44.5919 65.8901 44.6154 65.8587 44.639 65.8273V65.7959H43.0225V66.4943C43.1716 66.51 43.3285 66.51 43.4776 66.51Z"
        fill="#D8AD96" />
    <path
        d="M45.8238 63.2692C45.8238 61.7782 44.9292 60.9229 43.8306 60.915H43.8228H43.8149C42.7085 60.9229 41.8218 61.7782 41.8218 63.2692C41.8218 65.1996 43.2107 66.3295 43.8306 66.3295C44.427 66.3217 45.8238 65.1996 45.8238 63.2692Z"
        fill="#EFBFA5" />
    <path
        d="M45.6201 63.8184L45.5103 64.6973C45.9575 64.8935 46.0282 63.8655 46.0282 63.8655C45.9262 63.6066 45.6201 63.8184 45.6201 63.8184Z"
        fill="#EFBFA5" />
    <path
        d="M41.6494 63.8576C41.6494 63.8576 41.72 64.8934 42.1673 64.6894L42.0575 63.8184C42.0575 63.8184 41.7514 63.6065 41.6494 63.8576Z"
        fill="#EFBFA5" />
    <path
        d="M43.0224 66.6514L41.0842 67.2477C41.0842 67.2477 40.4093 67.3655 40.2367 68.0717L39.9385 69.3586H43.7992H43.8306H47.6914L47.3932 68.0795C47.2206 67.3733 46.5457 67.2556 46.5457 67.2556L44.6075 66.6592H43.0224V66.6514Z"
        fill="#EFBFA5" />
    <path
        d="M45.7218 66.9966L46.5379 67.2477C46.5379 67.2477 47.2127 67.3654 47.3854 68.0716L47.6836 69.3507H43.8306H43.7992H39.9385L40.2367 68.0716C40.4093 67.3654 41.0842 67.2477 41.0842 67.2477L41.9081 66.9966C41.9081 66.9966 41.9081 68.8093 43.8149 68.8563C43.8149 68.8563 45.6826 69.0525 45.7218 66.9966Z"
        fill="#09A085" />
    <path
        d="M42.8418 61.6368C42.8418 61.6368 43.2341 63.1984 45.8237 63.6613C45.8237 63.6613 45.6824 66.6354 44.7172 68.0714C44.7172 68.0714 45.8158 68.2676 46.114 67.5221C46.114 67.5221 46.5535 63.5672 46.012 62.0919C46.012 62.0919 45.3921 59.7142 43.038 60.7422C43.0223 60.7501 42.4573 60.9149 42.8418 61.6368Z"
        fill="#52231C" />
    <path
        d="M45.0157 61.6368C45.0157 61.6368 42.8499 60.4754 42.175 63.5437C42.175 63.5437 42.1829 66.6354 43.148 68.0636C43.148 68.0636 42.0495 68.2598 41.7513 67.5143C41.7513 67.5143 41.3118 63.5594 41.8533 62.0841C41.8533 62.0841 42.4732 59.7064 44.8273 60.7344C44.8273 60.7501 45.4002 60.9149 45.0157 61.6368Z"
        fill="#52231C" />
    <path d="M59.7726 59.0557H49.1431V59.2562H59.7726V59.0557Z" fill="#AEAEC7" />
    <path d="M59.7726 60.3584H49.1431V60.559H59.7726V60.3584Z" fill="#AEAEC7" />
    <path d="M59.7726 61.6611H49.1431V61.8617H59.7726V61.6611Z" fill="#AEAEC7" />
    <path d="M59.7726 62.9639H49.1431V63.1644H59.7726V62.9639Z" fill="#AEAEC7" />
    <path d="M53.88 64.2661H49.1431V64.503H53.88V64.2661Z" fill="#AEAEC7" />
    <path d="M58.143 64.2661H54.8271V64.503H58.143V64.2661Z" fill="#AEAEC7" />
    <path d="M63.9461 66.6348H49.1431V66.7532H63.9461V66.6348Z" fill="#BBADAC" />
    <path d="M63.9461 67.8188H49.1431V67.9373H63.9461V67.8188Z" fill="#BBADAC" />
    <path d="M63.9461 69.0034H49.1431V69.1218H63.9461V69.0034Z" fill="#BBADAC" />
    <path d="M66.6701 38.687H39.9062V38.8054H66.6701V38.687Z" fill="#BBADAC" />
    <path d="M66.6701 40.937H39.9062V41.0554H66.6701V40.937Z" fill="#BBADAC" />
    <path d="M66.6701 43.187H39.9062V43.3054H66.6701V43.187Z" fill="#BBADAC" />
    <path d="M66.67 45.437H55.0645V45.5554H66.67V45.437Z" fill="#BBADAC" />
    <path
        d="M41.6033 47.6229C41.5616 47.5503 41.5199 47.4777 41.4627 47.3985C41.1571 47.3037 40.8955 47.1913 40.6647 47.0922C40.4339 46.993 40.3086 46.9028 40.2669 46.8302C40.245 46.7752 40.2582 46.7444 40.3022 46.7268C40.3462 46.7093 40.4099 46.7093 40.4979 46.738C40.5858 46.7666 40.6848 46.7909 40.7969 46.8482C40.9046 46.8945 41.0211 46.9627 41.1464 47.053C41.2716 47.1432 41.3749 47.2423 41.4672 47.3457C41.7266 47.4207 41.9619 47.4671 42.1708 47.5112C42.3906 47.551 42.5226 47.5621 42.5666 47.5445C42.6326 47.5182 42.6414 47.4764 42.6151 47.4104C42.5887 47.3444 42.5096 47.274 42.3953 47.1793C42.2811 47.0847 42.1602 47.0054 42.0327 46.9416C41.9008 46.8667 41.7733 46.8028 41.6436 46.7653C41.5139 46.7278 41.4193 46.7145 41.3643 46.7365C41.3093 46.7584 41.3005 46.8002 41.3312 46.8772C41.3729 46.9498 41.4411 47.0246 41.5576 47.0929C41.6784 47.1722 41.7664 47.2008 41.8191 47.2053C41.8301 47.2009 41.8345 47.2119 41.8389 47.2229C41.8433 47.2339 41.8433 47.2339 41.8323 47.2383C41.7773 47.2602 41.674 47.2249 41.5289 47.1171C41.3883 47.0202 41.285 46.9212 41.2455 46.8222C41.2148 46.7452 41.2236 46.7034 41.2896 46.6771C41.3556 46.6507 41.4611 46.6596 41.6062 46.7037C41.7513 46.7478 41.8898 46.8073 42.0371 46.8888C42.1844 46.9703 42.3251 47.0671 42.4437 47.1728C42.5734 47.2741 42.6503 47.3709 42.692 47.4435C42.7425 47.5381 42.7161 47.5996 42.6171 47.6391C42.5621 47.6611 42.4301 47.65 42.2213 47.6058C42.0124 47.5617 41.7837 47.4999 41.5243 47.4249C41.5814 47.5041 41.6187 47.5658 41.6363 47.6097C41.6539 47.6537 41.6714 47.6977 41.6692 47.7241C41.667 47.7505 41.6604 47.7659 41.6494 47.7703C41.6164 47.7835 41.579 47.7856 41.5328 47.7658C41.4866 47.746 41.4625 47.7174 41.4383 47.6888C41.4339 47.6778 41.4339 47.6778 41.4339 47.6778C41.4449 47.6734 41.4603 47.68 41.4801 47.6976C41.5153 47.7218 41.5416 47.724 41.5746 47.7109C41.6142 47.6823 41.6209 47.6669 41.6033 47.6229ZM40.3813 46.7973C40.3593 46.806 40.3527 46.8214 40.3658 46.8544C40.3922 46.9204 40.5131 46.9997 40.6977 47.079C40.8824 47.1583 41.1198 47.2421 41.3946 47.3237C41.2826 47.2026 41.1639 47.097 41.0122 47.0045C40.8606 46.912 40.7331 46.8481 40.6188 46.8173C40.5044 46.7864 40.4253 46.7797 40.3813 46.7973Z"
        fill="#231F20" />
    <path
        d="M41.7714 47.3875C41.7597 47.3858 41.7597 47.3858 41.7614 47.3741L41.7748 47.3641C41.8017 47.3441 41.8268 47.3357 41.8285 47.324C41.8302 47.3123 41.8202 47.2989 41.7967 47.2955C41.7381 47.287 41.6627 47.312 41.5605 47.357C41.4582 47.402 41.4028 47.4538 41.3978 47.489C41.3944 47.5124 41.4061 47.5141 41.4412 47.5192C41.4764 47.5243 41.5133 47.5177 41.5635 47.501C41.6138 47.4844 41.6524 47.466 41.6792 47.446C41.7178 47.4276 41.7312 47.4176 41.7312 47.4176C41.7429 47.4193 41.7546 47.421 41.7529 47.4327C41.7529 47.4327 41.7378 47.4545 41.711 47.4745C41.6841 47.4945 41.669 47.5163 41.6673 47.528C41.6656 47.5397 41.6773 47.5414 41.7008 47.5448C41.7242 47.5482 41.7728 47.5433 41.8482 47.5183C41.9219 47.5051 41.9739 47.4767 42.0359 47.4618L42.1113 47.4368L42.1096 47.4485C42.1079 47.4602 42.0962 47.4585 42.0828 47.4686C41.8548 47.5552 41.7057 47.5934 41.622 47.5932C41.5868 47.5881 41.5651 47.573 41.5685 47.5496C41.5702 47.5379 41.5719 47.5261 41.5853 47.5161C41.5719 47.5261 41.535 47.5328 41.4847 47.5494C41.4227 47.5644 41.3741 47.5693 41.339 47.5642C41.2921 47.5574 41.2821 47.544 41.2855 47.5205C41.2957 47.4502 41.3645 47.3884 41.5053 47.325C41.6461 47.2617 41.7566 47.2418 41.8521 47.2437C41.899 47.2505 41.9324 47.2673 41.9274 47.3024C41.924 47.3259 41.9105 47.3359 41.872 47.3542C41.8083 47.3809 41.7831 47.3892 41.7714 47.3875Z"
        fill="#231F20" />
    <path
        d="M42.7108 47.5954C42.6739 47.602 42.6354 47.6204 42.5834 47.6487C42.4543 47.7138 42.3906 47.7404 42.3789 47.7388C42.3554 47.7354 42.3437 47.7337 42.3471 47.7102C42.3488 47.6985 42.3639 47.6768 42.3925 47.645C42.421 47.6132 42.4495 47.5815 42.4898 47.5514C42.53 47.5213 42.5452 47.4996 42.5452 47.4996C42.5452 47.4996 42.5452 47.4996 42.5334 47.4979C42.5334 47.4979 42.4949 47.5162 42.4329 47.5312C42.3692 47.5579 42.3055 47.5845 42.2418 47.6112C42.1781 47.6379 42.1395 47.6562 42.1261 47.6662C42.1144 47.6645 42.101 47.6746 42.0893 47.6729C42.0658 47.6695 42.0675 47.6577 42.0692 47.646C42.0692 47.646 42.0978 47.6143 42.1649 47.5641C42.2319 47.514 42.2605 47.4823 42.2622 47.4706C42.2639 47.4588 42.2522 47.4571 42.217 47.452C42.1818 47.4469 42.1333 47.4519 42.0578 47.4768C41.9841 47.4901 41.9322 47.5185 41.8702 47.5334L41.7947 47.5584L41.7964 47.5467C41.7981 47.5349 41.8099 47.5366 41.8233 47.5266C42.0512 47.44 42.2003 47.4018 42.2841 47.4019C42.331 47.4087 42.3527 47.4238 42.3493 47.4473C42.3459 47.4707 42.3308 47.4925 42.3023 47.5242C42.2754 47.5443 42.2603 47.566 42.2352 47.5743C42.2218 47.5844 42.2083 47.5944 42.2083 47.5944C42.2854 47.5577 42.3743 47.5227 42.4883 47.4794C42.5905 47.4344 42.6542 47.4077 42.6659 47.4094C42.6776 47.4111 42.6759 47.4228 42.6742 47.4345C42.6725 47.4463 42.6306 47.488 42.5618 47.5499C42.493 47.6117 42.4528 47.6418 42.4511 47.6535L42.4494 47.6652L42.4745 47.6569L42.6019 47.6035C42.6136 47.6052 42.627 47.5952 42.6522 47.5869C42.6773 47.5786 42.6907 47.5685 42.6907 47.5685C42.7242 47.5854 42.7242 47.5854 42.7108 47.5954C42.7225 47.5971 42.7225 47.5971 42.7108 47.5954Z"
        fill="#231F20" />
    <path
        d="M43.2002 47.5338C43.2919 47.5603 43.3308 47.5899 43.3168 47.6225C43.3027 47.6551 43.2296 47.6753 43.1083 47.6876C42.987 47.7 42.8798 47.6797 42.788 47.6532C42.7445 47.6345 42.7228 47.6251 42.7321 47.6034C42.7368 47.5925 42.7523 47.5863 42.7788 47.5847C42.8099 47.5723 42.841 47.5599 42.8628 47.5693C42.8892 47.5677 42.9001 47.5724 42.9001 47.5724C42.9109 47.5771 42.9109 47.5771 42.9172 47.5926C42.9125 47.6035 42.9125 47.6035 42.886 47.605C42.8643 47.5957 42.8487 47.6019 42.8441 47.6128C42.8394 47.6237 42.8611 47.633 42.8829 47.6424C42.9155 47.6564 42.9793 47.658 43.0633 47.6425C43.1426 47.6379 43.2001 47.624 43.2095 47.6022C43.2142 47.5913 43.1971 47.5711 43.1427 47.5477C43.1318 47.543 43.1209 47.5384 43.0991 47.529C43.0774 47.5197 43.0665 47.515 43.0665 47.515C43.0665 47.515 43.1085 47.5073 43.2034 47.4965C43.2935 47.4965 43.3402 47.4779 43.3496 47.4561C43.3589 47.4344 43.3418 47.4142 43.2983 47.3955C43.2548 47.3768 43.1957 47.3643 43.1211 47.358C43.0091 47.3486 42.9034 47.3547 42.8085 47.3655L42.7556 47.3686L42.7603 47.3577C42.765 47.3468 42.7758 47.3515 42.7914 47.3453C42.8863 47.3345 42.992 47.3283 43.0978 47.3222C43.2035 47.3161 43.2999 47.3317 43.3761 47.3644C43.4522 47.3971 43.4802 47.422 43.4662 47.4547C43.4366 47.4935 43.3479 47.5199 43.2002 47.5338Z"
        fill="#231F20" />
    <path
        d="M44.3535 46.6198C44.3722 46.5762 44.4297 46.5623 44.5106 46.5841C44.5106 46.5841 44.5215 46.5888 44.5168 46.5997C44.5168 46.5997 44.5121 46.6106 44.5012 46.6059C44.4484 46.609 44.4328 46.6152 44.4235 46.6369C44.4094 46.6696 44.4389 46.7209 44.5213 46.7692C44.7048 46.732 44.8837 46.7057 45.0641 46.7059C45.2444 46.706 45.4046 46.7233 45.546 46.784C45.6486 46.8152 45.6937 46.8603 45.6703 46.9147C45.647 46.9691 45.5847 46.994 45.4634 47.0063C45.353 47.0233 45.2146 47.0154 45.0856 46.9858C44.941 46.9623 44.8228 46.9374 44.7249 46.8953C44.6223 46.8641 44.557 46.8361 44.5182 46.8065C44.33 46.8546 44.1635 46.912 44.0251 46.9943C43.8866 47.0766 43.801 47.1558 43.7683 47.232C43.7356 47.3081 43.7355 47.3983 43.8039 47.4792C43.8722 47.5601 43.9873 47.6224 44.166 47.6863C44.3448 47.7502 44.5329 47.7924 44.7459 47.8065C44.9543 47.8316 45.1393 47.8209 45.3026 47.8008C45.4659 47.7807 45.5639 47.7326 45.5966 47.6564C45.6153 47.6129 45.5874 47.588 45.5221 47.5599C45.4195 47.5287 45.3122 47.5084 45.2065 47.5146C45.0898 47.516 44.9374 47.5408 44.743 47.5733C44.7119 47.5857 44.701 47.581 44.6901 47.5764C44.6793 47.5717 44.6684 47.567 44.6731 47.5561C44.6731 47.5561 44.6777 47.5453 44.6933 47.539C44.74 47.5204 44.8084 47.5111 44.9032 47.5003C44.9872 47.4849 45.0665 47.4803 45.135 47.471C45.1925 47.457 45.2718 47.4524 45.3573 47.4634C45.4428 47.4743 45.5175 47.4806 45.5719 47.504C45.6745 47.5352 45.7149 47.5912 45.6868 47.6565C45.6541 47.7326 45.5406 47.787 45.3617 47.8133C45.1782 47.8504 44.9605 47.8471 44.721 47.8345C44.4816 47.8219 44.2717 47.7704 44.0774 47.7127C43.8877 47.6441 43.7618 47.5772 43.6935 47.4962C43.6251 47.4153 43.6096 47.3314 43.647 47.2443C43.6844 47.1573 43.7747 47.0671 43.924 46.9895C44.0734 46.9119 44.2445 46.8436 44.4482 46.7893C44.3596 46.7255 44.3301 46.6742 44.3535 46.6198ZM44.5757 46.7926C44.6192 46.8113 44.6845 46.8393 44.7607 46.872C44.8415 46.8938 44.9441 46.925 45.067 46.9391C45.1851 46.9641 45.2862 46.9688 45.3811 46.958C45.4759 46.9472 45.5381 46.9224 45.5568 46.8789C45.5709 46.8462 45.5476 46.8104 45.4776 46.7933C45.3641 46.7574 45.2304 46.7387 45.0656 46.7323C44.9116 46.7306 44.7437 46.7616 44.5757 46.7926ZM44.2299 47.5978C44.2299 47.5978 44.3683 47.5155 44.6406 47.3617C44.9128 47.208 45.0871 47.1024 45.1586 47.0558C45.1742 47.0496 45.1897 47.0434 45.2162 47.0419C45.2426 47.0403 45.2644 47.0497 45.2752 47.0544C45.2861 47.059 45.297 47.0637 45.2923 47.0746C45.2923 47.0746 45.2052 47.1274 45.0512 47.2159C44.5783 47.4768 44.348 47.6227 44.348 47.6227C44.3325 47.6289 44.3169 47.6351 44.2951 47.6258L44.2314 47.6242L44.2299 47.5978Z"
        fill="#231F20" />
    <path fill-rule="evenodd" clip-rule="evenodd"
        d="M62.4863 48.7821C63.0691 49.0015 63.6219 49.2565 64.0307 49.468C64.0578 49.482 64.071 49.5144 64.0616 49.5443C64.0522 49.5741 64.0231 49.5924 63.9932 49.5872L61.9134 49.2286C61.9052 49.2333 61.8944 49.2392 61.8813 49.2463C61.8484 49.264 61.8006 49.2885 61.7404 49.316C61.6203 49.371 61.4503 49.4381 61.251 49.4867C60.8534 49.5838 60.3312 49.6091 59.8566 49.3069C59.6909 49.2014 59.529 49.1402 59.3735 49.113C59.3748 49.1416 59.3806 49.1659 59.3891 49.1868C59.4235 49.2704 59.5142 49.3276 59.6505 49.3808C59.7013 49.4006 59.755 49.4186 59.8107 49.4373C59.8278 49.4431 59.8451 49.4489 59.8626 49.4548C59.9358 49.4798 60.0112 49.5069 60.0806 49.5401C60.2187 49.6062 60.3462 49.7028 60.386 49.872C60.4034 49.9459 60.4101 50.0096 60.4003 50.0597C60.3952 50.0858 60.385 50.1112 60.3668 50.132C60.3481 50.1534 60.3243 50.1658 60.299 50.171C60.2524 50.1807 60.2005 50.1661 60.1522 50.1453C60.1017 50.1234 60.0444 50.0899 59.9825 50.0486C59.7929 49.9219 59.5396 49.7072 59.2713 49.4799C59.1924 49.413 59.1121 49.345 59.0318 49.2778C58.9758 49.231 58.9199 49.1846 58.8643 49.1392C58.7987 49.1572 58.7351 49.1802 58.674 49.2071C58.3335 49.357 58.066 49.6291 57.9251 49.8333C57.9054 49.8618 57.8671 49.8684 57.8396 49.848C57.812 49.8277 57.8056 49.7881 57.8253 49.7596C57.9762 49.541 58.2602 49.2515 58.626 49.0904C58.665 49.0732 58.7049 49.0575 58.7457 49.0435C58.4888 48.839 58.2449 48.6645 58.0501 48.5773C57.914 48.5165 57.8215 48.5074 57.7668 48.5346C57.719 48.5584 57.6738 48.6255 57.6738 48.8C57.6738 48.8351 57.6464 48.8634 57.6126 48.8634C57.5787 48.8634 57.5513 48.8351 57.5513 48.8C57.5513 48.6123 57.5994 48.4773 57.7136 48.4204C57.8209 48.367 57.9593 48.3986 58.0987 48.4609C58.3259 48.5626 58.6083 48.7708 58.8934 49.0015C59.0126 48.9746 59.1378 48.9632 59.2674 48.9725C59.2894 48.8851 59.3329 48.787 59.3988 48.6762C59.5547 48.4142 59.8547 48.3027 60.2148 48.2827C60.5765 48.2626 61.0146 48.3334 61.4708 48.4533C61.7538 48.5276 62.0454 48.6213 62.3321 48.7252C62.4501 48.6525 62.5831 48.59 62.7188 48.565C62.8687 48.5372 63.0244 48.5551 63.1635 48.6579C63.191 48.6782 63.1974 48.7178 63.1777 48.7463C63.1581 48.7748 63.1198 48.7814 63.0922 48.7611C62.9862 48.6827 62.8661 48.6666 62.7403 48.6898C62.6556 48.7054 62.5696 48.7388 62.4863 48.7821ZM62.2022 48.8129C61.9476 48.7229 61.6906 48.6419 61.4407 48.5762C60.9893 48.4575 60.5651 48.3902 60.2214 48.4093C59.876 48.4285 59.6274 48.5338 59.5032 48.7427C59.4447 48.841 59.4094 48.9213 59.3906 48.9874C59.5618 49.0168 59.7396 49.0836 59.9208 49.1989C60.3567 49.4765 60.8413 49.4565 61.2228 49.3633C61.4131 49.3169 61.5758 49.2527 61.6909 49.2C61.7484 49.1737 61.7939 49.1504 61.8248 49.1338C61.8402 49.1255 61.852 49.1188 61.8599 49.1143C61.8614 49.1134 61.8628 49.1126 61.8641 49.1119C61.8648 49.1111 61.8657 49.1102 61.8666 49.1092C61.8724 49.103 61.8808 49.0941 61.8917 49.083C61.9134 49.0607 61.9448 49.0296 61.984 48.9933C62.0415 48.9402 62.1163 48.8758 62.2022 48.8129ZM62.0312 49.1203C62.0418 49.1101 62.0533 49.0993 62.0656 49.0879C62.137 49.022 62.2351 48.939 62.3467 48.8649C62.7901 49.0278 63.2206 49.2141 63.5871 49.3886L62.0312 49.1203ZM59.2504 49.0984C59.1723 49.0934 59.096 49.0967 59.0219 49.1068C59.0509 49.1309 59.0799 49.155 59.1088 49.1792C59.1916 49.2485 59.2736 49.3179 59.3536 49.3857C59.6205 49.6118 59.8658 49.8197 60.049 49.9421C60.1081 49.9816 60.1585 50.0106 60.1994 50.0282C60.2426 50.0469 60.2658 50.0486 60.2749 50.0467C60.2756 50.0466 60.2761 50.0464 60.2764 50.0463C60.2771 50.0452 60.2788 50.0419 60.2802 50.0346C60.2845 50.0124 60.2831 49.9709 60.2669 49.902C60.2404 49.7893 60.1552 49.7156 60.0292 49.6552C59.9666 49.6252 59.897 49.6001 59.8243 49.5753C59.8079 49.5697 59.7914 49.5642 59.7747 49.5586C59.7184 49.5397 59.661 49.5204 59.6073 49.4994C59.4712 49.4464 59.3329 49.3738 59.2764 49.2364C59.259 49.1942 59.2503 49.1484 59.2504 49.0984Z"
        fill="#231F20" />
    <path
        d="M54.2424 49.2529C54.2906 48.67 54.1465 48.0874 53.8321 47.5942C53.5177 47.1011 53.0503 46.7245 52.5016 46.5221C51.9528 46.3198 51.3529 46.3029 50.7936 46.4739C50.2343 46.6449 49.7464 46.9945 49.4047 47.4691C49.0629 47.9438 48.8861 48.5173 48.9013 49.102C48.9165 49.6867 49.1228 50.2503 49.4888 50.7065C49.8547 51.1628 50.3601 51.4866 50.9275 51.6283C51.4949 51.7701 52.0932 51.722 52.6307 51.4914L52.5994 51.4184C52.0778 51.6421 51.4973 51.6888 50.9468 51.5512C50.3962 51.4137 49.9058 51.0995 49.5508 50.6568C49.1957 50.2141 48.9955 49.6672 48.9807 49.0999C48.966 48.5326 49.1375 47.9761 49.4691 47.5156C49.8007 47.055 50.2741 46.7158 50.8168 46.5499C51.3595 46.3839 51.9416 46.4004 52.4741 46.5967C53.0066 46.793 53.46 47.1584 53.7651 47.637C54.0701 48.1155 54.21 48.6808 54.1632 49.2464L54.2424 49.2529Z"
        fill="#B4B4CC" />
    <path
        d="M53.1463 50.7952C53.4023 50.5639 53.6049 50.2797 53.7399 49.9622C53.875 49.6447 53.9392 49.3015 53.9281 48.9567C53.9171 48.6118 53.831 48.2735 53.676 47.9653C53.5209 47.6571 53.3005 47.3864 53.0302 47.172C52.7599 46.9576 52.4461 46.8047 52.1107 46.7238C51.7753 46.643 51.4263 46.6363 51.088 46.704C50.7497 46.7718 50.4302 46.9125 50.1518 47.1162C49.8733 47.32 49.6427 47.582 49.4758 47.884L49.5583 47.9296C49.7185 47.6396 49.9401 47.388 50.2074 47.1923C50.4748 46.9966 50.7816 46.8615 51.1065 46.7965C51.4313 46.7314 51.7665 46.7379 52.0886 46.8155C52.4107 46.8931 52.7121 47.04 52.9716 47.2459C53.2312 47.4517 53.4428 47.7117 53.5917 48.0077C53.7407 48.3037 53.8233 48.6286 53.8339 48.9597C53.8445 49.2909 53.7828 49.6204 53.6532 49.9253C53.5235 50.2302 53.329 50.5031 53.0831 50.7252L53.1463 50.7952Z"
        fill="#B4B4CC" />
    <path
        d="M49.2944 48.3021C49.1879 48.6316 49.1547 48.9803 49.1972 49.3239C49.2397 49.6675 49.3567 49.9977 49.5402 50.2912C49.7237 50.5848 49.9692 50.8348 50.2594 51.0235C50.5496 51.2123 50.8776 51.3353 51.2204 51.3839L51.2303 51.314C50.8977 51.2668 50.5795 51.1475 50.2979 50.9643C50.0163 50.7812 49.7781 50.5387 49.6001 50.2538C49.4221 49.969 49.3085 49.6486 49.2673 49.3152C49.2261 48.9819 49.2582 48.6435 49.3616 48.3239L49.2944 48.3021Z"
        fill="#B4B4CC" />
    <path
        d="M50.4388 47.2866C50.1613 47.4646 49.9302 47.7061 49.7647 47.9911C49.5992 48.2762 49.504 48.5966 49.487 48.9258C49.47 49.255 49.5317 49.5835 49.667 49.8841C49.8023 50.1847 50.0073 50.4487 50.265 50.6543C50.5227 50.8599 50.8257 51.0011 51.1488 51.0662C51.4719 51.1313 51.8059 51.1185 52.1231 51.0287C52.4403 50.939 52.7316 50.775 52.9727 50.5503C53.2139 50.3255 53.398 50.0466 53.5099 49.7365L53.4123 49.7013C53.306 49.9959 53.1311 50.2609 52.902 50.4744C52.6729 50.6879 52.3962 50.8437 52.0949 50.9289C51.7936 51.0142 51.4763 51.0264 51.1693 50.9645C50.8623 50.9026 50.5745 50.7685 50.3297 50.5732C50.0849 50.3779 49.8901 50.1271 49.7616 49.8416C49.6331 49.556 49.5744 49.2439 49.5906 48.9312C49.6067 48.6184 49.6972 48.314 49.8544 48.0432C50.0117 47.7724 50.2312 47.543 50.4948 47.3739L50.4388 47.2866Z"
        fill="#B4B4CC" />

</svg>
