<svg width="76" height="76" viewBox="0 0 76 76" fill="none" xmlns="http://www.w3.org/2000/svg">
    <defs>
        <linearGradient id="paint0_linear_2140:295" x1="28.1485" y1="38.2403" x2="37.5922"
            y2="38.2403" gradientUnits="userSpaceOnUse">
            <stop stop-color="white" />
            <stop offset="1" />
        </linearGradient>
    </defs>
    <rect width="76" height="76" rx="5" fill="#DDECE9" />
    <path
        d="M37.5 61L8.39519 61C7.61812 61 7 60.3642 7 59.6048L7 16.8836C7 16.1065 7.63578 15.4884 8.39519 15.4884L37.5 15.4884L37.5 61Z"
        fill="#560900" />
    <path d="M16.1836 18.2612L16.1836 58.1743L16.3602 58.1743L16.3602 18.2612L16.1836 18.2612Z"
        fill="#ACC3CC" />
    <path
        d="M37.5 15.4708L66.6048 15.4708C67.3819 15.4708 68 16.1066 68 16.866L68 59.5872C68 60.3643 67.3642 60.9824 66.6048 60.9824L37.5 60.9824L37.5 15.4708Z"
        fill="#002D4F" />
    <path
        d="M7.68896 16.8834L7.68896 59.6046C7.68896 59.9931 8.00686 60.311 8.39539 60.311L37.5002 60.311L37.5002 16.177L8.39539 16.177C8.00686 16.177 7.68896 16.4949 7.68896 16.8834Z"
        fill="#EBE4EB" />
    <path opacity="0.1"
        d="M28.0161 16.177L28.0161 60.311L37.4822 60.311L37.4822 16.177L28.0161 16.177Z"
        fill="url(#paint0_linear_2140:295)" />
    <path
        d="M67.2936 59.6046L67.2936 16.8834C67.2936 16.4949 66.9757 16.177 66.5871 16.177L37.5 16.177L37.5 60.311L66.6048 60.311C66.9757 60.311 67.2936 59.9931 67.2936 59.6046Z"
        fill="#EBE4EB" />
    <path d="M43.3809 19.4976L61.0415 19.4976" stroke="#B61617" stroke-width="0.353214"
        stroke-miterlimit="10" />
    <path d="M39.1602 58.1919L39.1602 18.2788" stroke="#B61617" stroke-width="0.0441517"
        stroke-miterlimit="10" />
    <path d="M61.0113 26.1855H43.2822V26.5201H61.0113V26.1855Z" fill="#AEAEC7" />
    <path d="M61.0113 28.3584H43.2822V28.6929H61.0113V28.3584Z" fill="#AEAEC7" />
    <path d="M61.0113 30.5308H43.2822V30.8653H61.0113V30.5308Z" fill="#AEAEC7" />
    <path d="M61.0113 32.7036H43.2822V33.0381H61.0113V32.7036Z" fill="#AEAEC7" />
    <path d="M54.188 34.8765H43.2822V35.2715H54.188V34.8765Z" fill="#AEAEC7" />
    <path d="M61.1331 34.8765H55.6025V35.2715H61.1331V34.8765Z" fill="#AEAEC7" />
    <path d="M61.0113 55.2134H43.2822V55.3552H61.0113V55.2134Z" fill="#BBADAC" />
    <path d="M61.0113 56.6318H43.2822V56.7737H61.0113V56.6318Z" fill="#BBADAC" />
    <path d="M61.0113 58.0498H43.2822V58.1916H61.0113V58.0498Z" fill="#BBADAC" />
    <path d="M11.1294 31.4272H35.1581" stroke="#B61617" stroke-width="0.0441517"
        stroke-miterlimit="10" />
    <path d="M35.1689 34.7827H11.1401V34.9593H35.1689V34.7827Z" fill="#BBADAC" />
    <path d="M35.1689 38.1382H11.1401V38.3148H35.1689V38.1382Z" fill="#BBADAC" />
    <path d="M35.1689 41.4937H11.1401V41.6703H35.1689V41.4937Z" fill="#BBADAC" />
    <path d="M35.1686 44.8496H24.749V45.0262H35.1686V44.8496Z" fill="#BBADAC" />

</svg>
