<svg width="76" height="76" viewBox="0 0 76 76" fill="none" xmlns="http://www.w3.org/2000/svg">
    <defs>
        <linearGradient id="paint0_linear_2140:230" x1="37.8952" y1="28.9407" x2="37.8952"
            y2="38.2915" gradientUnits="userSpaceOnUse">
            <stop stop-color="white" />
            <stop offset="1" />
        </linearGradient>
    </defs>
    <rect width="76" height="76" rx="5" fill="#DDECE9" />
    <path
        d="M15.3594 38.2V9.38147C15.3594 8.61204 15.9889 8 16.7408 8H59.0418C59.8113 8 60.4233 8.62953 60.4233 9.38147V38.2H15.3594Z"
        fill="#560900" />
    <path d="M57.6778 17.0933H18.1572V17.2681H57.6778V17.0933Z" fill="#ACC3CC" />
    <path
        d="M60.4409 38.2002V67.0187C60.4409 67.7881 59.8114 68.4002 59.0594 68.4002H16.7584C15.989 68.4002 15.377 67.7707 15.377 67.0187V38.2002H60.4409Z"
        fill="#002D4F" />
    <path
        d="M59.042 8.68213H16.741C16.3563 8.68213 16.0415 8.99689 16.0415 9.38161V38.2001H59.7414V9.38161C59.7414 8.99689 59.4267 8.68213 59.042 8.68213Z"
        fill="#EBE4EB" />
    <path opacity="0.1" d="M59.7414 28.8096H16.0415V38.1826H59.7414V28.8096Z"
        fill="url(#paint0_linear_2140:230)" />
    <path
        d="M16.741 67.7007H59.042C59.4267 67.7007 59.7414 67.386 59.7414 67.0012V38.2002H16.0415V67.0187C16.0415 67.386 16.3563 67.7007 16.741 67.7007Z"
        fill="#EBE4EB" />
    <path d="M56.4536 44.0229L56.4536 61.5099" stroke="#B61617" stroke-width="0.349739"
        stroke-miterlimit="10" />
    <path d="M18.1396 39.8438H57.6602" stroke="#B61617" stroke-width="0.0437174"
        stroke-miterlimit="10" />
    <path d="M18.1396 11.8472H57.6602" stroke="#B61617" stroke-width="0.0437174"
        stroke-miterlimit="10" />
    <path d="M29.8734 45.2471H18.0547V60.3336H29.8734V45.2471Z" fill="white" />
    <mask id="mask0_2140:230" style="mask-type:alpha" x="18" y="45" width="12" height="16">
        <path d="M29.8734 45.2471H18.0547V60.3336H29.8734V45.2471Z" fill="white" />
    </mask>
    <path d="M27.012 51.9907H20.9634V57.0544H27.012V51.9907Z" fill="#2E0F05" />
    <path d="M25.1347 55.2002H22.7593V56.5675H25.1347V55.2002Z" fill="#EFBFA5" />
    <path
        d="M23.4313 56.2546C23.8137 56.2431 24.1845 56.1156 24.4742 55.9302C24.7175 55.7796 24.9029 55.5942 25.0536 55.3856C25.0767 55.3392 25.1115 55.2929 25.1463 55.2465V55.2002H22.7593V56.2315C22.9794 56.2546 23.2112 56.2546 23.4313 56.2546Z"
        fill="#D8AD96" />
    <path
        d="M26.8959 51.4694C26.8959 49.2678 25.5749 48.0048 23.9527 47.9932H23.9411H23.9295C22.2957 48.0048 20.9863 49.2678 20.9863 51.4694C20.9863 54.3198 23.0373 55.9884 23.9527 55.9884C24.8333 55.9768 26.8959 54.3198 26.8959 51.4694Z"
        fill="#EFBFA5" />
    <path
        d="M26.5948 52.2802L26.4326 53.578C27.0931 53.8677 27.1974 52.3497 27.1974 52.3497C27.0467 51.9673 26.5948 52.2802 26.5948 52.2802Z"
        fill="#EFBFA5" />
    <path
        d="M20.7314 52.338C20.7314 52.338 20.8357 53.8676 21.4962 53.5663L21.334 52.2801C21.334 52.2801 20.8821 51.9672 20.7314 52.338Z"
        fill="#EFBFA5" />
    <path
        d="M22.7594 56.4634L19.8973 57.344C19.8973 57.344 18.9008 57.5178 18.6459 58.5607L18.2056 60.461H23.9065H23.9529H29.6538L29.2135 58.5723C28.9586 57.5294 27.9621 57.3556 27.9621 57.3556L25.1 56.475H22.7594V56.4634Z"
        fill="#EFBFA5" />
    <path
        d="M26.7454 56.9731L27.9505 57.3439C27.9505 57.3439 28.947 57.5177 29.2019 58.5606L29.6423 60.4493H23.9529H23.9065H18.2056L18.6459 58.5606C18.9008 57.5177 19.8973 57.3439 19.8973 57.3439L21.114 56.9731C21.114 56.9731 21.114 59.6498 23.9297 59.7193C23.9297 59.7193 26.6875 60.009 26.7454 56.9731Z"
        fill="#2A337C" />
    <path
        d="M22.493 49.0591C22.493 49.0591 23.0723 51.365 26.8961 52.0486C26.8961 52.0486 26.6876 56.4402 25.2623 58.5607C25.2623 58.5607 26.8846 58.8504 27.3249 57.7496C27.3249 57.7496 27.9738 51.9096 27.1742 49.7312C27.1742 49.7312 26.2588 46.2202 22.7826 47.7382C22.7595 47.7497 21.9252 47.9931 22.493 49.0591Z"
        fill="#52231C" />
    <path
        d="M25.7026 49.059C25.7026 49.059 22.5045 47.3441 21.508 51.8747C21.508 51.8747 21.5195 56.4401 22.9448 58.549C22.9448 58.549 21.3226 58.8387 20.8822 57.7379C20.8822 57.7379 20.2334 51.8979 21.0329 49.7195C21.0329 49.7195 21.9483 46.2085 25.4245 47.7264C25.4245 47.7496 26.2704 47.9929 25.7026 49.059Z"
        fill="#52231C" />
    <path d="M47.4928 45.2471H31.7969V45.5432H47.4928V45.2471Z" fill="#AEAEC7" />
    <path d="M47.4928 47.1704H31.7969V47.4666H47.4928V47.1704Z" fill="#AEAEC7" />
    <path d="M47.4928 49.0942H31.7969V49.3904H47.4928V49.0942Z" fill="#AEAEC7" />
    <path d="M47.4928 51.0176H31.7969V51.3137H47.4928V51.0176Z" fill="#AEAEC7" />
    <path d="M38.7917 52.9414H31.7969V53.2911H38.7917V52.9414Z" fill="#AEAEC7" />
    <path d="M45.0868 52.9414H40.1904V53.2911H45.0868V52.9414Z" fill="#AEAEC7" />
    <path d="M53.6556 56.439H31.7969V56.6138H53.6556V56.439Z" fill="#BBADAC" />
    <path d="M53.6556 58.1875H31.7969V58.3624H53.6556V58.1875Z" fill="#BBADAC" />
    <path d="M53.6556 59.9365H31.7969V60.1114H53.6556V59.9365Z" fill="#BBADAC" />
    <path d="M57.6778 15.1694H18.1572V15.3443H57.6778V15.1694Z" fill="#BBADAC" />
    <path d="M57.6778 18.4922H18.1572V18.6671H57.6778V18.4922Z" fill="#BBADAC" />
    <path d="M57.6778 21.8149H18.1572V21.9898H57.6778V21.8149Z" fill="#BBADAC" />
    <path d="M57.6778 25.1372H40.5405V25.3121H57.6778V25.1372Z" fill="#BBADAC" />
    <path
        d="M20.6633 28.3643C20.6017 28.2571 20.5401 28.1499 20.4558 28.0329C20.0045 27.8929 19.6182 27.727 19.2774 27.5806C18.9365 27.4342 18.7516 27.3009 18.69 27.1937C18.6575 27.1125 18.6771 27.067 18.742 27.0411C18.807 27.0152 18.9012 27.0152 19.031 27.0576C19.1609 27.0999 19.307 27.1357 19.4725 27.2203C19.6316 27.2886 19.8036 27.3894 19.9886 27.5227C20.1736 27.656 20.3261 27.8022 20.4623 27.955C20.8454 28.0657 21.1928 28.1342 21.5013 28.1994C21.8259 28.2581 22.0208 28.2745 22.0857 28.2485C22.1832 28.2096 22.1962 28.148 22.1573 28.0505C22.1184 27.9531 22.0016 27.8491 21.8329 27.7093C21.6641 27.5695 21.4856 27.4525 21.2974 27.3581C21.1026 27.2476 20.9143 27.1533 20.7228 27.0979C20.5313 27.0425 20.3916 27.0229 20.3104 27.0554C20.2292 27.0878 20.2162 27.1494 20.2616 27.2631C20.3232 27.3703 20.4237 27.4808 20.5958 27.5816C20.7743 27.6987 20.9041 27.741 20.9821 27.7476C20.9983 27.7411 21.0048 27.7573 21.0113 27.7736C21.0177 27.7898 21.0177 27.7898 21.0015 27.7963C20.9203 27.8287 20.7677 27.7766 20.5535 27.6173C20.3458 27.4743 20.1933 27.328 20.135 27.1819C20.0896 27.0682 20.1027 27.0065 20.2001 26.9676C20.2976 26.9287 20.4534 26.9418 20.6677 27.0069C20.8819 27.0721 21.0864 27.1599 21.3039 27.2802C21.5214 27.4005 21.7291 27.5436 21.9043 27.6996C22.0958 27.8491 22.2093 27.9921 22.2709 28.0993C22.3455 28.239 22.3065 28.3299 22.1603 28.3882C22.0791 28.4206 21.8843 28.4042 21.5758 28.339C21.2674 28.2738 20.9297 28.1827 20.5467 28.0719C20.631 28.1889 20.6861 28.2799 20.7121 28.3448C20.738 28.4098 20.7639 28.4748 20.7606 28.5137C20.7573 28.5527 20.7476 28.5754 20.7313 28.5819C20.6826 28.6013 20.6274 28.6045 20.5592 28.5753C20.4911 28.546 20.4554 28.5037 20.4197 28.4615C20.4132 28.4453 20.4132 28.4453 20.4132 28.4453C20.4295 28.4388 20.4522 28.4485 20.4814 28.4745C20.5333 28.5103 20.5723 28.5136 20.621 28.4941C20.6795 28.452 20.6893 28.4292 20.6633 28.3643ZM18.8588 27.1451C18.8264 27.1581 18.8166 27.1808 18.836 27.2295C18.8749 27.327 19.0534 27.444 19.3261 27.5611C19.5988 27.6782 19.9494 27.8019 20.3552 27.9224C20.1897 27.7437 20.0145 27.5877 19.7906 27.4511C19.5666 27.3145 19.3783 27.2202 19.2095 27.1746C19.0407 27.129 18.9238 27.1192 18.8588 27.1451Z"
        fill="#231F20" />
    <path
        d="M20.9119 28.0166C20.8946 28.0141 20.8946 28.0141 20.8971 27.9968L20.9169 27.982C20.9565 27.9524 20.9936 27.9401 20.9961 27.9228C20.9987 27.9055 20.9839 27.8857 20.9492 27.8807C20.8627 27.8682 20.7513 27.905 20.6004 27.9715C20.4494 28.038 20.3676 28.1145 20.3601 28.1664C20.3551 28.201 20.3724 28.2035 20.4243 28.211C20.4762 28.2185 20.5306 28.2088 20.6049 28.1842C20.6791 28.1596 20.7361 28.1325 20.7757 28.1029C20.8326 28.0758 20.8524 28.061 20.8524 28.061C20.8697 28.0635 20.887 28.066 20.8845 28.0833C20.8845 28.0833 20.8622 28.1155 20.8226 28.1451C20.783 28.1746 20.7606 28.2068 20.7581 28.2241C20.7556 28.2414 20.7729 28.2439 20.8075 28.2489C20.8422 28.2539 20.9139 28.2466 21.0252 28.2098C21.1341 28.1902 21.2108 28.1483 21.3024 28.1262L21.4138 28.0894L21.4112 28.1067C21.4087 28.124 21.3914 28.1215 21.3716 28.1363C21.035 28.2642 20.8148 28.3206 20.6912 28.3204C20.6392 28.3128 20.6071 28.2905 20.6122 28.2559C20.6147 28.2386 20.6172 28.2213 20.637 28.2065C20.6172 28.2213 20.5627 28.2311 20.4885 28.2557C20.397 28.2777 20.3252 28.285 20.2733 28.2775C20.2041 28.2675 20.1893 28.2476 20.1943 28.213C20.2093 28.1092 20.3109 28.0179 20.5188 27.9243C20.7268 27.8308 20.89 27.8014 21.031 27.8042C21.1002 27.8142 21.1496 27.8391 21.1421 27.891C21.1371 27.9256 21.1173 27.9404 21.0604 27.9675C20.9663 28.0068 20.9292 28.0191 20.9119 28.0166Z"
        fill="#231F20" />
    <path
        d="M22.2986 28.3238C22.2442 28.3335 22.1873 28.3606 22.1105 28.4025C21.9199 28.4986 21.8258 28.538 21.8085 28.5355C21.7739 28.5304 21.7566 28.5279 21.7616 28.4933C21.7641 28.476 21.7865 28.4439 21.8286 28.397C21.8707 28.3501 21.9129 28.3032 21.9723 28.2588C22.0318 28.2144 22.0541 28.1823 22.0541 28.1823C22.0541 28.1823 22.0541 28.1823 22.0368 28.1798C22.0368 28.1798 21.9798 28.2069 21.8883 28.229C21.7942 28.2683 21.7002 28.3077 21.6061 28.3471C21.5121 28.3865 21.4551 28.4136 21.4353 28.4284C21.418 28.4259 21.3982 28.4407 21.3809 28.4381C21.3463 28.4331 21.3488 28.4158 21.3513 28.3985C21.3513 28.3985 21.3934 28.3516 21.4925 28.2776C21.5916 28.2036 21.6337 28.1567 21.6362 28.1394C21.6387 28.1221 21.6214 28.1196 21.5695 28.1121C21.5176 28.1046 21.4459 28.1118 21.3345 28.1487C21.2256 28.1683 21.1489 28.2102 21.0573 28.2322L20.946 28.2691L20.9485 28.2518C20.951 28.2345 20.9683 28.237 20.9881 28.2222C21.3247 28.0943 21.5449 28.0378 21.6686 28.0381C21.7378 28.0481 21.7699 28.0704 21.7649 28.1051C21.7599 28.1397 21.7376 28.1718 21.6954 28.2187C21.6558 28.2483 21.6335 28.2804 21.5963 28.2927C21.5765 28.3075 21.5567 28.3223 21.5567 28.3223C21.6706 28.2681 21.8018 28.2164 21.9701 28.1525C22.121 28.086 22.2151 28.0466 22.2324 28.0491C22.2497 28.0516 22.2472 28.0689 22.2447 28.0862C22.2422 28.1035 22.1802 28.1652 22.0787 28.2565C21.9771 28.3478 21.9176 28.3922 21.9151 28.4095L21.9126 28.4269L21.9497 28.4146L22.1379 28.3358C22.1552 28.3383 22.175 28.3235 22.2121 28.3112C22.2492 28.2989 22.269 28.2841 22.269 28.2841C22.3184 28.309 22.3184 28.309 22.2986 28.3238C22.3159 28.3263 22.3159 28.3263 22.2986 28.3238Z"
        fill="#231F20" />
    <path
        d="M23.0214 28.2328C23.1568 28.2719 23.2142 28.3156 23.1935 28.3638C23.1728 28.412 23.0648 28.4418 22.8857 28.46C22.7066 28.4782 22.5482 28.4482 22.4128 28.4091C22.3485 28.3815 22.3163 28.3677 22.3302 28.3355C22.3371 28.3195 22.36 28.3103 22.3991 28.3081C22.445 28.2897 22.4909 28.2714 22.5231 28.2852C22.5621 28.2829 22.5782 28.2898 22.5782 28.2898C22.5942 28.2967 22.5942 28.2967 22.6034 28.3197C22.5965 28.3358 22.5965 28.3358 22.5575 28.338C22.5253 28.3242 22.5024 28.3334 22.4955 28.3495C22.4886 28.3655 22.5207 28.3793 22.5528 28.3931C22.601 28.4138 22.6952 28.4162 22.8192 28.3934C22.9363 28.3866 23.0213 28.366 23.0351 28.3338C23.042 28.3178 23.0167 28.2879 22.9364 28.2534C22.9203 28.2465 22.9043 28.2396 22.8721 28.2258C22.84 28.212 22.8239 28.2051 22.8239 28.2051C22.8239 28.2051 22.8859 28.1936 23.026 28.1777C23.1592 28.1778 23.2281 28.1503 23.2419 28.1182C23.2557 28.086 23.2305 28.0561 23.1662 28.0285C23.1019 28.0009 23.0147 27.9825 22.9045 27.9732C22.7392 27.9593 22.583 27.9684 22.4429 27.9843L22.3649 27.9889L22.3718 27.9728C22.3787 27.9567 22.3947 27.9636 22.4177 27.9545C22.5578 27.9385 22.7139 27.9294 22.8701 27.9204C23.0262 27.9113 23.1686 27.9344 23.281 27.9827C23.3935 28.031 23.4348 28.0678 23.4141 28.116C23.3704 28.1734 23.2395 28.2123 23.0214 28.2328Z"
        fill="#231F20" />
    <path
        d="M24.7244 26.883C24.7521 26.8187 24.837 26.7982 24.9564 26.8304C24.9564 26.8304 24.9725 26.8373 24.9656 26.8534C24.9656 26.8534 24.9587 26.8694 24.9426 26.8625C24.8645 26.8671 24.8416 26.8762 24.8278 26.9084C24.8071 26.9566 24.8506 27.0324 24.9723 27.1036C25.2432 27.0488 25.5073 27.0099 25.7737 27.0102C26.04 27.0104 26.2765 27.0358 26.4854 27.1255C26.6369 27.1716 26.7034 27.2382 26.6689 27.3186C26.6344 27.3989 26.5426 27.4356 26.3634 27.4538C26.2004 27.4789 25.996 27.4673 25.8055 27.4235C25.592 27.3889 25.4175 27.352 25.2729 27.2899C25.1214 27.2438 25.025 27.2024 24.9676 27.1588C24.6897 27.2297 24.444 27.3145 24.2395 27.436C24.0351 27.5575 23.9087 27.6745 23.8604 27.787C23.8121 27.8995 23.8119 28.0326 23.9129 28.1521C24.0138 28.2716 24.1836 28.3636 24.4476 28.458C24.7116 28.5523 24.9894 28.6145 25.304 28.6355C25.6116 28.6724 25.8849 28.6566 26.126 28.6269C26.3671 28.5973 26.5118 28.5262 26.5601 28.4137C26.5877 28.3495 26.5464 28.3127 26.45 28.2713C26.2985 28.2252 26.1401 28.1953 25.984 28.2043C25.8117 28.2065 25.5867 28.243 25.2996 28.291C25.2537 28.3094 25.2376 28.3025 25.2216 28.2956C25.2055 28.2887 25.1894 28.2818 25.1963 28.2657C25.1963 28.2657 25.2032 28.2496 25.2262 28.2405C25.2951 28.213 25.3962 28.1993 25.5362 28.1833C25.6602 28.1604 25.7774 28.1536 25.8784 28.14C25.9634 28.1194 26.0805 28.1126 26.2068 28.1287C26.333 28.1449 26.4432 28.1542 26.5236 28.1887C26.6751 28.2347 26.7347 28.3174 26.6933 28.4139C26.645 28.5263 26.4773 28.6066 26.2132 28.6454C25.9422 28.7003 25.6208 28.6954 25.2672 28.6768C24.9136 28.6581 24.6037 28.5821 24.3167 28.4969C24.0367 28.3956 23.8508 28.2967 23.7498 28.1773C23.6489 28.0578 23.626 27.9338 23.6812 27.8052C23.7365 27.6767 23.8697 27.5436 24.0903 27.429C24.3108 27.3144 24.5634 27.2135 24.8643 27.1334C24.7335 27.0392 24.6899 26.9634 24.7244 26.883ZM25.0526 27.1382C25.1169 27.1658 25.2133 27.2072 25.3257 27.2555C25.4451 27.2877 25.5966 27.3338 25.778 27.3546C25.9525 27.3915 26.1017 27.3985 26.2418 27.3825C26.3819 27.3666 26.4738 27.3299 26.5014 27.2656C26.5221 27.2174 26.4877 27.1646 26.3844 27.1392C26.2168 27.0863 26.0193 27.0586 25.776 27.0492C25.5486 27.0467 25.3006 27.0924 25.0526 27.1382ZM24.5419 28.3271C24.5419 28.3271 24.7463 28.2056 25.1483 27.9786C25.5504 27.7516 25.8077 27.5957 25.9133 27.5269C25.9363 27.5177 25.9593 27.5086 25.9983 27.5063C26.0373 27.504 26.0695 27.5178 26.0855 27.5247C26.1016 27.5317 26.1177 27.5386 26.1108 27.5546C26.1108 27.5546 25.9821 27.6326 25.7547 27.7633C25.0564 28.1485 24.7164 28.364 24.7164 28.364C24.6934 28.3732 24.6704 28.3824 24.6383 28.3686L24.5441 28.3662L24.5419 28.3271Z"
        fill="#231F20" />
    <path fill-rule="evenodd" clip-rule="evenodd"
        d="M51.5002 30.0765C52.3607 30.4005 53.1771 30.777 53.7807 31.0892C53.8207 31.1099 53.8401 31.1578 53.8263 31.2019C53.8124 31.246 53.7695 31.2729 53.7253 31.2653L50.6542 30.7357C50.642 30.7426 50.6262 30.7515 50.6069 30.7619C50.5582 30.7881 50.4876 30.8243 50.3988 30.8649C50.2213 30.946 49.9703 31.0451 49.676 31.117C49.0889 31.2603 48.3178 31.2977 47.617 30.8514C47.3723 30.6956 47.1333 30.6052 46.9036 30.5651C46.9056 30.6073 46.9141 30.6432 46.9268 30.674C46.9776 30.7975 47.1115 30.882 47.3127 30.9604C47.3877 30.9897 47.467 31.0163 47.5492 31.044C47.5745 31.0525 47.6001 31.0611 47.6259 31.0698C47.734 31.1067 47.8453 31.1467 47.9479 31.1958C48.1517 31.2933 48.34 31.436 48.3987 31.6858C48.4244 31.795 48.4344 31.889 48.4199 31.963C48.4124 32.0015 48.3974 32.0391 48.3704 32.0698C48.3427 32.1013 48.3076 32.1197 48.2704 32.1274C48.2015 32.1417 48.1248 32.1201 48.0535 32.0893C47.9789 32.0571 47.8943 32.0076 47.803 31.9466C47.523 31.7595 47.1489 31.4425 46.7528 31.1069C46.6362 31.0081 46.5176 30.9076 46.399 30.8084C46.3164 30.7393 46.2338 30.6708 46.1517 30.6037C46.0548 30.6303 45.961 30.6642 45.8707 30.704C45.3679 30.9254 44.973 31.3272 44.7648 31.6286C44.7358 31.6707 44.6793 31.6805 44.6386 31.6504C44.5979 31.6203 44.5885 31.5619 44.6176 31.5198C44.8403 31.1971 45.2598 30.7695 45.7998 30.5317C45.8574 30.5064 45.9164 30.4832 45.9767 30.4625C45.5973 30.1604 45.2372 29.9028 44.9494 29.7741C44.7486 29.6842 44.612 29.6708 44.5311 29.711C44.4605 29.7462 44.3939 29.8451 44.3939 30.1029C44.3939 30.1546 44.3534 30.1966 44.3034 30.1966C44.2534 30.1966 44.2129 30.1546 44.2129 30.1029C44.2129 29.8257 44.2839 29.6263 44.4526 29.5423C44.611 29.4634 44.8154 29.5101 45.0213 29.6022C45.3568 29.7523 45.7738 30.0597 46.1947 30.4005C46.3707 30.3607 46.5556 30.3438 46.7471 30.3575C46.7795 30.2286 46.8437 30.0837 46.941 29.9201C47.1712 29.5331 47.6142 29.3686 48.146 29.339C48.6801 29.3093 49.327 29.4138 50.0007 29.5909C50.4186 29.7007 50.849 29.8391 51.2725 29.9924C51.4467 29.8851 51.6431 29.7928 51.8434 29.7558C52.0649 29.7149 52.2948 29.7412 52.5001 29.893C52.5408 29.923 52.5502 29.9815 52.5211 30.0236C52.4921 30.0657 52.4356 30.0754 52.3949 30.0454C52.2383 29.9296 52.061 29.9058 51.8752 29.9401C51.7502 29.9632 51.6231 30.0125 51.5002 30.0765ZM51.0806 30.1219C50.7047 29.9891 50.3252 29.8694 49.9561 29.7724C49.2897 29.5972 48.6632 29.4978 48.1557 29.526C47.6457 29.5544 47.2787 29.7097 47.0952 30.0183C47.0089 30.1634 46.9566 30.282 46.9289 30.3796C47.1817 30.423 47.4443 30.5216 47.7119 30.692C48.3555 31.1018 49.071 31.0723 49.6345 30.9347C49.9154 30.8661 50.1556 30.7713 50.3256 30.6936C50.4105 30.6548 50.4777 30.6203 50.5233 30.5957C50.5461 30.5835 50.5636 30.5736 50.5752 30.567C50.5774 30.5657 50.5795 30.5645 50.5813 30.5634C50.5825 30.5622 50.5837 30.5609 50.5851 30.5594C50.5936 30.5503 50.6061 30.5372 50.6221 30.5207C50.6541 30.4879 50.7005 30.4418 50.7584 30.3884C50.8434 30.3099 50.9538 30.2148 51.0806 30.1219ZM50.8281 30.5759C50.8438 30.5608 50.8608 30.5448 50.8789 30.5281C50.9844 30.4307 51.1292 30.3081 51.294 30.1988C51.9488 30.4393 52.5844 30.7143 53.1256 30.9721L50.8281 30.5759ZM46.7219 30.5435C46.6066 30.5361 46.4939 30.5409 46.3845 30.5559C46.4274 30.5914 46.4702 30.6271 46.5128 30.6628C46.6351 30.7651 46.7562 30.8676 46.8743 30.9678C47.2684 31.3016 47.6306 31.6085 47.9012 31.7893C47.9884 31.8476 48.0628 31.8905 48.1232 31.9165C48.1869 31.944 48.2212 31.9466 48.2348 31.9438C48.2357 31.9436 48.2364 31.9434 48.2369 31.9433C48.2379 31.9416 48.2404 31.9367 48.2425 31.9259C48.2489 31.8931 48.2468 31.8318 48.2229 31.7301C48.1837 31.5637 48.058 31.4548 47.8719 31.3657C47.7794 31.3214 47.6766 31.2843 47.5693 31.2477C47.5451 31.2395 47.5207 31.2313 47.4961 31.223C47.413 31.1951 47.3283 31.1666 47.2488 31.1357C47.0479 31.0573 46.8437 30.9502 46.7602 30.7473C46.7346 30.685 46.7217 30.6173 46.7219 30.5435Z"
        fill="#231F20" />
    <path
        d="M39.3272 30.7719C39.3984 29.9112 39.1855 29.0509 38.7213 28.3227C38.257 27.5944 37.5669 27.0383 36.7566 26.7396C35.9463 26.4408 35.0604 26.4157 34.2345 26.6683C33.4086 26.9208 32.6882 27.4371 32.1836 28.1379C31.6789 28.8388 31.4179 29.6857 31.4403 30.5491C31.4627 31.4124 31.7674 32.2447 32.3078 32.9184C32.8482 33.5921 33.5944 34.0702 34.4323 34.2795C35.2702 34.4888 36.1536 34.4178 36.9473 34.0774L36.901 33.9695C36.1309 34.2999 35.2737 34.3688 34.4607 34.1657C33.6477 33.9626 32.9236 33.4987 32.3993 32.845C31.875 32.1913 31.5794 31.3837 31.5576 30.546C31.5358 29.7083 31.7892 28.8866 32.2788 28.2065C32.7685 27.5264 33.4675 27.0256 34.2688 26.7805C35.0702 26.5355 35.9298 26.5598 36.716 26.8497C37.5023 27.1396 38.1719 27.6791 38.6223 28.3857C39.0728 29.0924 39.2793 29.9271 39.2103 30.7623L39.3272 30.7719Z"
        fill="#B4B4CC" />
    <path
        d="M37.7084 33.0488C38.0865 32.7074 38.3857 32.2876 38.585 31.8187C38.7844 31.3499 38.8793 30.8432 38.863 30.334C38.8467 29.8248 38.7196 29.3253 38.4906 28.8701C38.2616 28.415 37.9362 28.0153 37.5371 27.6987C37.1379 27.3821 36.6746 27.1562 36.1793 27.0369C35.684 26.9176 35.1686 26.9076 34.669 27.0077C34.1695 27.1077 33.6977 27.3154 33.2866 27.6163C32.8755 27.9172 32.5349 28.3041 32.2884 28.75L32.4103 28.8173C32.6469 28.3891 32.974 28.0176 33.3688 27.7287C33.7636 27.4397 34.2167 27.2403 34.6964 27.1442C35.1761 27.0481 35.671 27.0577 36.1466 27.1723C36.6223 27.2869 37.0672 27.5037 37.4506 27.8077C37.8339 28.1118 38.1464 28.4957 38.3662 28.9327C38.5861 29.3698 38.7082 29.8495 38.7238 30.3385C38.7395 30.8275 38.6484 31.314 38.4569 31.7643C38.2655 32.2145 37.9782 32.6176 37.6151 32.9455L37.7084 33.0488Z"
        fill="#B4B4CC" />
    <path
        d="M32.0206 29.3679C31.8634 29.8544 31.8144 30.3693 31.8772 30.8767C31.9399 31.384 32.1127 31.8716 32.3837 32.3051C32.6546 32.7386 33.0171 33.1077 33.4456 33.3864C33.8742 33.6651 34.3585 33.8468 34.8647 33.9186L34.8793 33.8154C34.3882 33.7457 33.9183 33.5694 33.5025 33.299C33.0867 33.0286 32.735 32.6705 32.4721 32.2498C32.2092 31.8292 32.0415 31.3562 31.9806 30.8639C31.9198 30.3716 31.9673 29.872 32.1199 29.4L32.0206 29.3679Z"
        fill="#B4B4CC" />
    <path
        d="M33.7101 27.868C33.3004 28.1307 32.9592 28.4873 32.7148 28.9083C32.4704 29.3292 32.3298 29.8024 32.3047 30.2885C32.2796 30.7746 32.3707 31.2597 32.5705 31.7035C32.7703 32.1474 33.073 32.5373 33.4535 32.8408C33.834 33.1444 34.2814 33.3528 34.7586 33.449C35.2357 33.5452 35.7289 33.5262 36.1973 33.3937C36.6657 33.2612 37.0958 33.019 37.4519 32.6872C37.808 32.3553 38.0798 31.9434 38.245 31.4855L38.1009 31.4336C37.944 31.8686 37.6857 32.2599 37.3474 32.5751C37.0091 32.8904 36.6006 33.1205 36.1556 33.2464C35.7107 33.3722 35.2421 33.3902 34.7888 33.2989C34.3355 33.2075 33.9105 33.0095 33.549 32.7211C33.1875 32.4327 32.9 32.0623 32.7102 31.6407C32.5204 31.219 32.4338 30.7582 32.4576 30.2964C32.4815 29.8346 32.615 29.3851 32.8472 28.9852C33.0794 28.5853 33.4036 28.2465 33.7928 27.9969L33.7101 27.868Z"
        fill="#B4B4CC" />

</svg>
