<svg width="72" height="72" viewBox="0 0 72 72" fill="none" xmlns="http://www.w3.org/2000/svg">
<path d="M53.9955 50.5718L5.36064 71.7133C2.19038 72.9738 -0.960186 69.8534 0.273932 66.6755L21.527 17.3232" fill="#FF5C00"/>
<path d="M0.273588 66.6745L1.96264 62.7523C2.10748 62.5317 2.25188 62.3108 2.39687 62.0903C10.7979 49.3045 19.3221 36.5967 28.1374 24.0918L38.0216 34.2134C30.5638 39.3283 6.34821 64.3287 1.27594 70.9601C0.171778 69.9454 -0.364839 68.3185 0.273588 66.6745Z" fill="#FF9153"/>
<path d="M43.1769 28.5372C52.1989 37.5504 57.1335 47.234 54.1986 50.1661C51.2638 53.0981 41.5708 48.1683 32.5487 39.1551C23.5265 30.1418 18.5921 20.4583 21.5269 17.5262C24.4618 14.594 34.1547 19.5238 43.1769 28.5372Z" fill="#A06C33"/>
<path d="M21.4764 46.4807C21.4764 47.3567 20.7655 48.0668 19.8887 48.0668C19.0119 48.0668 18.301 47.3567 18.301 46.4807C18.301 45.6046 19.0118 44.8945 19.8887 44.8945C20.7656 44.8945 21.4764 45.6046 21.4764 46.4807Z" fill="#FFC5A5"/>
<path d="M72 29.8077C72 31.0649 70.9799 32.0841 69.7214 32.0841C68.4629 32.0841 67.4428 31.0649 67.4428 29.8077C67.4428 28.5504 68.4629 27.5312 69.7214 27.5312C70.9799 27.5312 72 28.5504 72 29.8077ZM56.7835 60.1202C55.525 60.1202 54.5049 61.1393 54.5049 62.3966C54.5049 63.6538 55.525 64.673 56.7835 64.673C58.042 64.673 59.0621 63.6538 59.0621 62.3966C59.0621 61.1393 58.0418 60.1202 56.7835 60.1202Z" fill="#FFC5A5"/>
<path d="M50.6984 10.3352C50.503 11.6561 49.6487 12.8229 48.3545 13.5363C47.4609 14.0289 46.4102 14.2849 45.3196 14.2849C44.9721 14.2847 44.6252 14.2591 44.2815 14.2083C43.5102 14.0943 42.7382 14.2106 42.1636 14.5272C41.906 14.6692 41.4635 14.9797 41.3916 15.4654C41.3198 15.951 41.6535 16.3762 41.8588 16.5865C42.3048 17.0433 42.9855 17.3706 43.7329 17.4929C43.7535 17.4951 43.7739 17.4958 43.7945 17.4989C46.9478 17.9646 49.2002 20.4598 48.8151 23.0613C48.6197 24.3824 47.7654 25.5492 46.471 26.2626C45.5775 26.7551 44.5268 27.0112 43.4362 27.0112C43.0888 27.011 42.7418 26.9854 42.3982 26.9345C41.627 26.8204 40.8547 26.9367 40.2801 27.2535C40.0225 27.3954 39.58 27.706 39.5081 28.1916C39.3929 28.9711 40.3509 30.0001 41.9104 30.2304C42.7589 30.3557 43.3451 31.1445 43.2196 31.9922C43.1056 32.7631 42.4425 33.3171 41.6852 33.3171C41.6095 33.3171 41.5331 33.3116 41.4561 33.3002C38.3027 32.8345 36.0505 30.3391 36.4354 27.7377C36.6309 26.4166 37.4852 25.2499 38.7795 24.5364C39.9544 23.8889 41.4009 23.6502 42.8525 23.8645C43.6238 23.9783 44.3957 23.8622 44.9704 23.5456C45.228 23.4036 45.6705 23.0931 45.7424 22.6074C45.8558 21.8407 44.929 20.8339 43.4141 20.5822C43.3893 20.5798 43.3643 20.5777 43.3394 20.5741C41.8879 20.3596 40.5723 19.7132 39.6353 18.7536C38.603 17.6966 38.1232 16.3327 38.3188 15.0114C38.5142 13.6905 39.3685 12.5238 40.6627 11.8103C41.8376 11.1627 43.2841 10.9241 44.7357 11.1384C45.5067 11.2521 46.279 11.1361 46.8536 10.8194C47.1112 10.6775 47.5537 10.367 47.6256 9.88131C47.6974 9.39563 47.3637 8.97042 47.1584 8.76015C46.7001 8.29094 45.9949 7.95637 45.2233 7.84257C44.3748 7.71725 43.7886 6.92848 43.9141 6.08069C44.0394 5.23291 44.8292 4.64799 45.6777 4.77258C47.1291 4.98708 48.4448 5.63348 49.3818 6.59304C50.4142 7.65022 50.894 9.01414 50.6984 10.3352Z" fill="#00856E"/>
<path d="M10.7007 22.0165C10.7007 23.4412 9.5446 24.5961 8.11853 24.5961C6.69246 24.5961 5.53638 23.4412 5.53638 22.0165C5.53638 20.5918 6.69246 19.4369 8.11853 19.4369C9.5446 19.4369 10.7007 20.5917 10.7007 22.0165ZM56.8572 19.0361C55.2096 19.0361 53.8741 20.3705 53.8741 22.0164C53.8741 23.6622 55.2098 24.9966 56.8572 24.9966C58.5047 24.9966 59.8404 23.6622 59.8404 22.0164C59.8404 20.3705 58.5049 19.0361 56.8572 19.0361ZM30.2164 56.4365C28.5688 56.4365 27.2333 57.7709 27.2333 59.4167C27.2333 61.0626 28.5689 62.397 30.2164 62.397C31.864 62.397 33.1995 61.0626 33.1995 59.4167C33.1995 57.7709 31.864 56.4365 30.2164 56.4365ZM69.7886 42.7906C70.2397 41.9179 69.8972 40.845 69.0237 40.3943C68.6754 40.2148 68.2597 39.9764 67.7783 39.7005C63.5494 37.2768 54.7503 32.2337 44.3895 40.5907C43.6244 41.2077 43.5051 42.3275 44.1227 43.0917C44.7401 43.856 45.8609 43.9755 46.6261 43.3582C55.091 36.5304 61.9241 40.446 66.0066 42.7858C66.5029 43.0703 66.9717 43.339 67.3898 43.5546C67.5975 43.6618 67.8243 43.7271 68.0573 43.7467C68.2903 43.7663 68.5248 43.7399 68.7476 43.669C68.9703 43.598 69.1769 43.484 69.3555 43.3332C69.5341 43.1825 69.6813 42.9981 69.7886 42.7906Z" fill="#26FF6F"/>
<path d="M62.2038 7.89493C62.2038 8.77098 61.4929 9.48107 60.6162 9.48107C59.7393 9.48107 59.0285 8.77098 59.0285 7.89493C59.0285 7.01887 59.7393 6.30879 60.6162 6.30879C61.4931 6.30864 62.2038 7.01887 62.2038 7.89493ZM5.53592 0.480512C4.65902 0.480512 3.94824 1.1906 3.94824 2.06665C3.94824 2.94271 4.65902 3.65279 5.53592 3.65279C6.41283 3.65279 7.12375 2.94271 7.12375 2.06665C7.12375 1.1906 6.41283 0.480512 5.53592 0.480512ZM30.4314 21.1808C30.6109 20.829 30.8324 20.4284 31.0668 20.0044C32.2561 17.852 33.8848 14.9044 33.9828 11.4713C34.1005 7.34688 31.9504 3.60223 27.5924 0.341352C26.8358 -0.224762 25.7634 -0.0707383 25.1972 0.684809C24.6307 1.4405 24.7846 2.51182 25.541 3.07764C29.0052 5.66967 30.6476 8.38338 30.5622 11.3738C30.4878 13.9781 29.1478 16.4034 28.0709 18.3521C27.8228 18.8013 27.5883 19.2255 27.3835 19.6267C26.954 20.4676 27.2881 21.4971 28.1297 21.9262C28.37 22.0493 28.6361 22.1134 28.9061 22.1135C29.2218 22.1137 29.5313 22.0267 29.8005 21.8621C30.0696 21.6974 30.288 21.4616 30.4314 21.1808Z" fill="#FF5C00"/>
</svg>
