<svg width="70" height="70" viewBox="0 0 70 70" fill="none" xmlns="http://www.w3.org/2000/svg">
    <path
        d="M52.4962 49.168L5.21201 69.7224C2.12979 70.9478 -0.933284 67.9141 0.266562 64.8245L20.9294 16.8428"
        fill="#FF5C00" />
    <path
        d="M0.266228 64.823L1.90838 61.0098C2.04919 60.7953 2.18958 60.5805 2.33054 60.3662C10.4983 47.9354 18.7858 35.5805 27.3563 23.4229L36.966 33.2633C29.7153 38.2363 6.17215 62.5424 1.24074 68.9895C0.167245 68.0031 -0.35447 66.4213 0.266228 64.823Z"
        fill="#FF9153" />
    <path
        d="M41.9779 27.744C50.7493 36.507 55.5469 45.9216 52.6936 48.7723C49.8402 51.6228 40.4164 46.83 31.6448 38.067C22.8732 29.3041 18.0758 19.8895 20.9292 17.0388C23.7825 14.1881 33.2063 18.981 41.9779 27.744Z"
        fill="#A06C33" />
    <path
        d="M20.8802 45.19C20.8802 46.0418 20.189 46.7321 19.3366 46.7321C18.4841 46.7321 17.793 46.0418 17.793 45.19C17.793 44.3383 18.484 43.6479 19.3366 43.6479C20.1891 43.6479 20.8802 44.3383 20.8802 45.19Z"
        fill="#FFC5A5" />
    <path
        d="M70.0005 28.9798C70.0005 30.2021 69.0087 31.193 67.7852 31.193C66.5616 31.193 65.5698 30.2021 65.5698 28.9798C65.5698 27.7575 66.5616 26.7666 67.7852 26.7666C69.0087 26.7666 70.0005 27.7575 70.0005 28.9798ZM55.2066 58.4505C53.983 58.4505 52.9912 59.4413 52.9912 60.6637C52.9912 61.886 53.983 62.8769 55.2066 62.8769C56.4301 62.8769 57.4219 61.886 57.4219 60.6637C57.4219 59.4413 56.4299 58.4505 55.2066 58.4505Z"
        fill="#FFC5A5" />
    <path
        d="M49.2904 10.0484C49.1004 11.3327 48.2698 12.467 47.0115 13.1607C46.1428 13.6395 45.1212 13.8884 44.0609 13.8884C43.7231 13.8883 43.3858 13.8634 43.0517 13.8139C42.3018 13.7031 41.5512 13.8162 40.9926 14.124C40.7422 14.262 40.3119 14.5639 40.242 15.0361C40.1722 15.5083 40.4967 15.9217 40.6962 16.1261C41.1299 16.5703 41.7917 16.8885 42.5183 17.0073C42.5383 17.0095 42.5582 17.0102 42.5782 17.0131C45.6439 17.4659 47.8338 19.8919 47.4594 22.4211C47.2694 23.7055 46.4388 24.8399 45.1804 25.5335C44.3116 26.0124 43.2902 26.2613 42.2299 26.2613C41.8921 26.2611 41.5548 26.2362 41.2206 26.1868C40.4709 26.0758 39.72 26.1889 39.1614 26.4969C38.911 26.6349 38.4807 26.9368 38.4108 27.409C38.2988 28.1668 39.2302 29.1672 40.7464 29.3911C41.5713 29.5129 42.1413 30.2798 42.0193 31.104C41.9084 31.8535 41.2637 32.3921 40.5275 32.3921C40.4539 32.3921 40.3796 32.3867 40.3047 32.3757C37.2389 31.9229 35.0493 29.4968 35.4235 26.9677C35.6135 25.6833 36.4441 24.5489 37.7025 23.8553C38.8448 23.2257 40.2511 22.9936 41.6624 23.202C42.4123 23.3127 43.1627 23.1998 43.7214 22.8919C43.9719 22.7539 44.4021 22.452 44.472 21.9798C44.5822 21.2344 43.6812 20.2556 42.2083 20.0109C42.1842 20.0085 42.16 20.0065 42.1357 20.003C40.7246 19.7944 39.4455 19.166 38.5345 18.2331C37.5309 17.2054 37.0644 15.8793 37.2545 14.5948C37.4445 13.3106 38.2751 12.1762 39.5334 11.4826C40.6757 10.853 42.082 10.6209 43.4933 10.8293C44.2429 10.9398 44.9937 10.8271 45.5523 10.5192C45.8028 10.3812 46.233 10.0793 46.3029 9.60713C46.3727 9.13494 46.0482 8.72155 45.8487 8.51711C45.4032 8.06093 44.7175 7.73566 43.9673 7.62501C43.1424 7.50317 42.5725 6.73631 42.6945 5.91207C42.8163 5.08782 43.5842 4.51915 44.4091 4.64028C45.8202 4.84882 47.0993 5.47728 48.0103 6.41018C49.014 7.43801 49.4806 8.76405 49.2904 10.0484Z"
        fill="#00856E" />
    <path
        d="M10.4037 21.4054C10.4037 22.7905 9.27972 23.9134 7.89326 23.9134C6.50679 23.9134 5.38281 22.7905 5.38281 21.4054C5.38281 20.0203 6.50679 18.8974 7.89326 18.8974C9.27972 18.8974 10.4037 20.0202 10.4037 21.4054ZM55.2785 18.5078C53.6766 18.5078 52.3782 19.8051 52.3782 21.4053C52.3782 23.0054 53.6767 24.3027 55.2785 24.3027C56.8802 24.3027 58.1787 23.0054 58.1787 21.4053C58.1787 19.8051 56.8803 18.5078 55.2785 18.5078ZM29.3775 54.8696C27.7756 54.8696 26.4772 56.1668 26.4772 57.767C26.4772 59.3672 27.7757 60.6645 29.3775 60.6645C30.9793 60.6645 32.2777 59.3672 32.2777 57.767C32.2777 56.1668 30.9793 54.8696 29.3775 54.8696ZM67.8507 41.6026C68.2893 40.7542 67.9563 39.711 67.107 39.2728C66.7684 39.0983 66.3642 38.8665 65.8963 38.5983C61.7848 36.2419 53.23 31.3388 43.1569 39.4638C42.4131 40.0636 42.2971 41.1524 42.8975 41.8953C43.4978 42.6384 44.5875 42.7546 45.3314 42.1544C53.5613 35.5163 60.2046 39.3231 64.1737 41.5979C64.6563 41.8745 65.1121 42.1357 65.5185 42.3454C65.7204 42.4496 65.941 42.5131 66.1675 42.5322C66.394 42.5513 66.622 42.5256 66.8386 42.4566C67.0551 42.3876 67.256 42.2767 67.4296 42.1302C67.6033 41.9837 67.7464 41.8044 67.8507 41.6026Z"
        fill="#26FF6F" />
    <path
        d="M60.4767 7.67568C60.4767 8.52741 59.7855 9.21777 58.9331 9.21777C58.0805 9.21777 57.3895 8.52741 57.3895 7.67568C57.3895 6.82395 58.0805 6.13359 58.9331 6.13359C59.7856 6.13345 60.4767 6.82395 60.4767 7.67568ZM5.38246 0.467168C4.5299 0.467168 3.83887 1.15753 3.83887 2.00926C3.83887 2.86099 4.5299 3.55135 5.38246 3.55135C6.23501 3.55135 6.92619 2.86099 6.92619 2.00926C6.92619 1.15753 6.23501 0.467168 5.38246 0.467168ZM29.5866 20.5925C29.7611 20.2506 29.9764 19.8611 30.2043 19.4488C31.3606 17.3562 32.944 14.4905 33.0393 11.1527C33.1538 7.14285 31.0634 3.50219 26.8264 0.331872C26.0908 -0.21852 25.0482 -0.0687738 24.4977 0.665791C23.947 1.4005 24.0966 2.44206 24.832 2.99217C28.2 5.51222 29.7967 8.15056 29.7138 11.0579C29.6414 13.5899 28.3386 15.9479 27.2917 17.8424C27.0504 18.2792 26.8224 18.6916 26.6233 19.0816C26.2057 19.8992 26.5306 20.9001 27.3488 21.3173C27.5824 21.4369 27.8412 21.4993 28.1037 21.4994C28.4105 21.4996 28.7114 21.415 28.9731 21.2549C29.2349 21.0949 29.4472 20.8656 29.5866 20.5925Z"
        fill="#FF5C00" />
</svg>
