<svg width="25" height="25" viewBox="0 0 25 25" fill="none" xmlns="http://www.w3.org/2000/svg">
<path d="M4.05273 16.3207C4.13696 16.388 6.14116 17.9688 8.59375 17.9688C11.0463 17.9688 13.0505 16.388 13.1348 16.3207C13.1805 16.2841 13.2174 16.2377 13.2428 16.1849C13.2681 16.1321 13.2813 16.0742 13.2812 16.0157C13.2812 13.7734 11.9327 11.8661 10.0684 11.1951C10.445 10.8903 10.7179 10.4763 10.8495 10.01C10.9811 9.54364 10.965 9.048 10.8033 8.59124C10.6416 8.13448 10.3424 7.73905 9.94671 7.45938C9.55105 7.17971 9.07843 7.02954 8.5939 7.02954C8.10937 7.02954 7.63675 7.17971 7.24108 7.45938C6.84541 7.73905 6.54615 8.13448 6.38447 8.59124C6.2228 9.048 6.20666 9.54364 6.33827 10.01C6.46989 10.4763 6.7428 10.8903 7.11943 11.1951C5.25479 11.8661 3.90625 13.7734 3.90625 16.0157C3.90624 16.0742 3.91939 16.1321 3.94475 16.1849C3.97011 16.2377 4.00701 16.2841 4.05273 16.3207ZM7.03125 9.37502C7.03125 9.06599 7.12289 8.7639 7.29458 8.50694C7.46627 8.24999 7.7103 8.04972 7.99581 7.93146C8.28132 7.8132 8.59548 7.78225 8.89858 7.84254C9.20167 7.90283 9.48008 8.05165 9.6986 8.27017C9.91712 8.48869 10.0659 8.7671 10.1262 9.07019C10.1865 9.37329 10.1556 9.68746 10.0373 9.97297C9.91905 10.2585 9.71878 10.5025 9.46183 10.6742C9.20488 10.8459 8.90278 10.9375 8.59375 10.9375C8.17949 10.9371 7.78233 10.7723 7.48941 10.4794C7.19648 10.1864 7.03172 9.78928 7.03125 9.37502ZM8.59375 11.7188C10.6885 11.7188 12.4034 13.5419 12.496 15.8214C12.0098 16.1652 10.4106 17.1875 8.59375 17.1875C6.7769 17.1875 5.17769 16.1652 4.69146 15.8214C4.78408 13.5419 6.49902 11.7188 8.59375 11.7188Z" fill="#93A8C6"/>
<path d="M3.51562 21.0938H21.4844C22.0022 21.0932 22.4986 20.8872 22.8648 20.5211C23.231 20.1549 23.4369 19.6584 23.4375 19.1406V5.85938C23.4369 5.34155 23.231 4.84511 22.8648 4.47895C22.4986 4.11279 22.0022 3.90683 21.4844 3.90625H3.51562C2.9978 3.90683 2.50136 4.11279 2.1352 4.47895C1.76904 4.84511 1.56308 5.34155 1.5625 5.85938V19.1406C1.56308 19.6584 1.76904 20.1549 2.1352 20.5211C2.50136 20.8872 2.9978 21.0932 3.51562 21.0938ZM2.34375 5.85938C2.3441 5.54868 2.46768 5.25081 2.68737 5.03112C2.90706 4.81143 3.20493 4.68785 3.51562 4.6875H21.4844C21.7951 4.68786 22.0929 4.81144 22.3126 5.03113C22.5323 5.25082 22.6559 5.54869 22.6562 5.85938V19.1406C22.6559 19.4513 22.5323 19.7492 22.3126 19.9689C22.0929 20.1886 21.7951 20.3121 21.4844 20.3125H3.51562C3.20493 20.3122 2.90706 20.1886 2.68737 19.9689C2.46768 19.7492 2.3441 19.4513 2.34375 19.1406V5.85938Z" fill="#93A8C6"/>
<path d="M15.2344 9.375H20.7031C20.8067 9.375 20.9061 9.33385 20.9793 9.26059C21.0526 9.18733 21.0938 9.08798 21.0938 8.98438C21.0938 8.88077 21.0526 8.78142 20.9793 8.70816C20.9061 8.6349 20.8067 8.59375 20.7031 8.59375H15.2344C15.1308 8.59375 15.0314 8.6349 14.9582 8.70816C14.8849 8.78142 14.8438 8.88077 14.8438 8.98438C14.8438 9.08798 14.8849 9.18733 14.9582 9.26059C15.0314 9.33385 15.1308 9.375 15.2344 9.375Z" fill="#93A8C6"/>
<path d="M15.2344 11.7188H20.7031C20.8067 11.7188 20.9061 11.6776 20.9793 11.6043C21.0526 11.5311 21.0938 11.4317 21.0938 11.3281C21.0938 11.2245 21.0526 11.1252 20.9793 11.0519C20.9061 10.9787 20.8067 10.9375 20.7031 10.9375H15.2344C15.1308 10.9375 15.0314 10.9787 14.9582 11.0519C14.8849 11.1252 14.8438 11.2245 14.8438 11.3281C14.8438 11.4317 14.8849 11.5311 14.9582 11.6043C15.0314 11.6776 15.1308 11.7188 15.2344 11.7188Z" fill="#93A8C6"/>
<path d="M15.2344 14.0625H20.7031C20.8067 14.0625 20.9061 14.0213 20.9793 13.9481C21.0526 13.8748 21.0938 13.7755 21.0938 13.6719C21.0938 13.5683 21.0526 13.4689 20.9793 13.3957C20.9061 13.3224 20.8067 13.2812 20.7031 13.2812H15.2344C15.1308 13.2812 15.0314 13.3224 14.9582 13.3957C14.8849 13.4689 14.8438 13.5683 14.8438 13.6719C14.8438 13.7755 14.8849 13.8748 14.9582 13.9481C15.0314 14.0213 15.1308 14.0625 15.2344 14.0625Z" fill="#93A8C6"/>
<path d="M15.2344 16.4062H20.7031C20.8067 16.4062 20.9061 16.3651 20.9793 16.2918C21.0526 16.2186 21.0938 16.1192 21.0938 16.0156C21.0938 15.912 21.0526 15.8127 20.9793 15.7394C20.9061 15.6662 20.8067 15.625 20.7031 15.625H15.2344C15.1308 15.625 15.0314 15.6662 14.9582 15.7394C14.8849 15.8127 14.8438 15.912 14.8438 16.0156C14.8438 16.1192 14.8849 16.2186 14.9582 16.2918C15.0314 16.3651 15.1308 16.4062 15.2344 16.4062Z" fill="#93A8C6"/>
</svg>
