<svg width="130" height="130" viewBox="0 0 130 130" fill="none"
    xmlns="http://www.w3.org/2000/svg">
    <path d="M107.736 112.993C119.725 101.653 127.207 85.5972 127.207 67.7925C127.207 33.4364 99.3557 5.58521 64.9996 5.58521C30.6435 5.58521 2.7923 33.4364 2.7923 67.7925C2.7923 102.149 30.6435 130 64.9996 130C67.6918 130 70.3441 129.828 72.9461 129.497L107.736 112.993Z" fill="#C1E3DD"/>
    <path d="M100.759 92.8182C100.213 90.8121 100.021 88.7263 100.19 86.6542L101.206 77.0857C101.702 71.0821 100.787 65.067 98.1293 59.6611C91.2624 45.693 92.8379 44.6794 92.6244 30.8164C92.6244 27.9843 90.3286 25.6885 87.4965 25.6885C84.6644 25.6885 82.3686 27.9843 82.3686 30.8164C82.3686 87.1917 82.4735 83.0548 82.1259 84.7077V92.0898C82.1259 98.3095 77.0658 103.37 70.8461 103.37C66.7153 103.37 52.4699 103.37 42.7762 103.37C47.0886 109.367 52.9881 114.063 59.8344 116.906C59.8768 116.924 59.9192 116.942 59.9616 116.96C65.2513 119.194 71.1574 123.652 72.1443 129.183L72.2398 129.579C86.1693 127.964 98.6948 121.75 108.259 112.491L100.759 92.8182Z" fill="#F9BA8F"/>
    <path d="M23.731 25.8682L22.1692 24.4212C19.7614 22.1904 15.9663 22.3351 13.7354 24.7426C11.5046 27.1502 11.6493 30.9456 14.0571 33.1764L23.7312 42.14V25.8682H23.731Z" fill="#F9BA8F"/>
    <path d="M73.5349 103.613H32.3424C27.4712 103.613 23.5085 99.6498 23.5085 94.7786V8.83416C23.5085 3.96297 27.4712 0 32.3424 0H73.5349C78.4058 0 82.3688 3.96297 82.3688 8.83416V94.7789C82.3688 99.6498 78.4058 103.613 73.5349 103.613Z" fill="#006E5B"/>
    <path d="M46.431 6.33082H45.5489C44.7057 6.33082 44.0222 5.6473 44.0222 4.80408C44.0222 3.96086 44.7057 3.27734 45.5489 3.27734H46.431C47.2742 3.27734 47.9577 3.96086 47.9577 4.80408C47.9577 5.6473 47.2739 6.33082 46.431 6.33082Z" fill="#025345"/>
    <path d="M60.1174 6.33082H51.6415C50.7983 6.33082 50.1147 5.6473 50.1147 4.80408C50.1147 3.96086 50.7983 3.27734 51.6415 3.27734H60.1174C60.9606 3.27734 61.6441 3.96086 61.6441 4.80408C61.6441 5.6473 60.9606 6.33082 60.1174 6.33082Z" fill="#025345"/>
    <path d="M73.5347 5.49585H67.3437C66.1895 5.49585 65.2541 6.43149 65.2541 7.5855C65.2541 8.92892 64.1549 10.0283 62.8115 10.0283H43.066C41.7226 10.0283 40.6231 8.92917 40.6231 7.5855C40.6231 6.43149 39.6875 5.49585 38.5335 5.49585H32.3422C30.4989 5.49585 29.0044 6.99034 29.0044 8.8337V94.7784C29.0044 96.6218 30.4989 98.1163 32.3422 98.1163H73.5347C75.3781 98.1163 76.8726 96.6218 76.8726 94.7784C76.8726 85.9377 76.8726 11.1933 76.8726 8.8337C76.8726 6.99034 75.3781 5.49585 73.5347 5.49585Z" fill="white"/>
    <rect x="31.9998" y="78.9998" width="42" height="7" rx="3.5" fill="#FF5C00"/>
    <path d="M61.9876 82.9664H44.4833C44.2141 82.9664 43.9999 82.7522 43.9999 82.4831C43.9999 82.214 44.2196 81.9998 44.4833 81.9998H61.9876C62.2567 81.9998 62.4709 82.214 62.4709 82.4831C62.4709 82.7467 62.2567 82.9664 61.9876 82.9664Z" fill="white"/>
    <rect x="34.5477" y="41.0117" width="18.4347" height="0.449627" fill="#00856E"/>
    <circle cx="52.7575" cy="41.2367" r="0.824318" fill="#225AAC"/>
    <ellipse cx="33.7238" cy="41.2363" rx="1.5737" ry="1.5737" fill="#00856E"/>
    <line x1="33.0495" y1="41.2368" x2="34.3984" y2="41.2368" stroke="white" stroke-width="0.149876"/>
    <path d="M44.5301 34.9671H32.4831C32.214 34.9671 31.9998 34.7529 31.9998 34.4838C31.9998 34.2147 32.2195 34.0005 32.4831 34.0005H44.5301C44.7992 34.0005 45.0134 34.2147 45.0134 34.4838C45.0134 34.7475 44.7992 34.9671 44.5301 34.9671Z" fill="#BAC4C6"/>
    <path d="M72.4399 20.0102H33.5597C32.6911 20.0102 31.9998 19.3189 31.9998 18.4503C31.9998 17.5817 32.7089 16.8904 33.5597 16.8904H72.4399C73.3085 16.8904 73.9998 17.5817 73.9998 18.4503C73.9998 19.3011 73.3085 20.0102 72.4399 20.0102Z" fill="#BAC4C6"/>
    <path d="M39.9874 45.7823H32.4831C32.214 45.7823 31.9998 45.5681 31.9998 45.299C31.9998 45.0299 32.2195 44.8157 32.4831 44.8157H39.9874C40.2566 44.8157 40.4708 45.0299 40.4708 45.299C40.4708 45.5626 40.2566 45.7823 39.9874 45.7823Z" fill="#BAC4C6"/>
    <path d="M69.9874 57.9667H32.4831C32.214 57.9667 31.9998 57.7525 31.9998 57.4833C31.9998 57.2142 32.2195 57 32.4831 57H69.9874C70.2566 57 70.4708 57.2142 70.4708 57.4833C70.4708 57.747 70.2566 57.9667 69.9874 57.9667Z" fill="#BAC4C6"/>
    <path d="M69.9874 60.9671H32.4831C32.214 60.9671 31.9998 60.7529 31.9998 60.4838C31.9998 60.2147 32.2195 60.0005 32.4831 60.0005H69.9874C70.2566 60.0005 70.4708 60.2147 70.4708 60.4838C70.4708 60.7474 70.2566 60.9671 69.9874 60.9671Z" fill="#BAC4C6"/>
    <path d="M69.9874 63.9669H32.4831C32.214 63.9669 31.9998 63.7527 31.9998 63.4836C31.9998 63.2144 32.2195 63.0002 32.4831 63.0002H69.9874C70.2566 63.0002 70.4708 63.2144 70.4708 63.4836C70.4708 63.7472 70.2566 63.9669 69.9874 63.9669Z" fill="#BAC4C6"/>
    <path d="M32.4151 57.3432C30.4521 59.4615 27.1437 59.5877 25.0254 57.6247L16.2664 49.5089C14.1481 47.5462 14.0219 44.2375 15.9848 42.1192C17.9475 40.0008 21.2562 39.8747 23.3745 41.8376L32.1335 49.9535C34.2518 51.9164 34.3778 55.2248 32.4151 57.3432Z" fill="#F9BA8F"/>
    <path d="M32.4151 85.8683C30.4521 87.9866 27.1437 88.1128 25.0254 86.1499L16.2664 78.034C14.1481 76.0713 14.0219 72.7627 15.9848 70.6443C17.9475 68.526 21.2562 68.3998 23.3745 70.3628L32.1335 78.4786C34.2518 80.4416 34.3778 83.75 32.4151 85.8683Z" fill="#F9BA8F"/>
    <path d="M32.4151 71.6056C30.4521 73.7239 27.1437 73.8501 25.0254 71.8872L16.2664 63.7713C14.1481 61.8084 14.0219 58.5 15.9848 56.3816C17.9475 54.2633 21.2562 54.1371 23.3745 56.1001L32.1335 64.2159C34.2518 66.1789 34.3778 69.4873 32.4151 71.6056Z" fill="#F9BA8F"/>
    <path d="M101.43 18.0281H60.3033C55.9282 18.0281 52.3484 21.6076 52.3484 25.983V58.6378C52.3484 63.0129 55.928 66.5927 60.3033 66.5927C61.4217 66.5927 62.0415 67.877 61.3575 68.7619C60.629 69.7044 59.812 70.5834 58.9053 71.3822C57.2135 72.8723 58.1651 75.9273 60.3106 75.9207C65.7633 75.9037 70.8731 73.1362 74.3509 68.6283C75.3284 67.3613 76.8161 66.5927 78.4162 66.5927H101.43C105.805 66.5927 109.385 63.0132 109.385 58.6378V25.983C109.385 21.6076 105.805 18.0281 101.43 18.0281Z" fill="#FF2E00"/>
    <path d="M69.7238 53.5344C68.7589 52.5696 68.7589 51.0208 69.7238 50.0559L88.0304 31.7493C88.9952 30.7844 90.544 30.7844 91.5089 31.7493C92.4737 32.7141 92.4737 34.2629 91.5089 35.2278L73.2023 53.5344C72.2628 54.4739 70.6886 54.4739 69.7238 53.5344Z" fill="white"/>
    <path d="M69.7243 31.7239C70.6891 30.759 72.238 30.759 73.2028 31.7239L91.5095 50.0305C92.4743 50.9954 92.4743 52.5442 91.5095 53.509C90.5446 54.4739 88.9958 54.4739 88.0309 53.509L69.7243 35.2024C68.7849 34.2375 68.7849 32.6887 69.7243 31.7239Z" fill="white"/>
</svg>
