<svg width="25" height="25" viewBox="0 0 25 25" fill="none" xmlns="http://www.w3.org/2000/svg">
<g clip-path="url(#clip0)">
<path d="M19.1667 11.2296H17.9167V10.4625L19.3655 9.86375C20.2215 9.52363 20.6397 8.55396 20.2996 7.69792C19.9595 6.84188 18.9898 6.42363 18.1338 6.76375L17.9167 6.85V1.66667C17.9167 0.746192 17.1705 0 16.25 0H8.33338C7.4129 0 6.66671 0.746192 6.66671 1.66667V9.98708C5.30781 10.0691 4.25153 11.2016 4.26421 12.5629C4.32262 13.8387 4.31566 15.1166 4.24338 16.3917C4.19796 17.225 4.14171 18.2642 4.17879 18.7604C4.18689 19.5114 4.4497 20.2374 4.92421 20.8196C5.35088 21.4296 5.27588 21.3533 5.62088 21.8783C6.31338 22.9317 6.25004 23.0833 6.25004 23.75C6.25004 24.4404 6.80969 25 7.50004 25H12.5C13.1904 25 13.75 24.4404 13.75 23.75V22.8962C13.7498 22.7476 13.8293 22.6102 13.9584 22.5363C14.7741 22.1187 15.4906 21.5308 16.0596 20.8125H16.25C17.0099 20.8098 17.6717 20.2934 17.8592 19.5571C17.8788 19.5571 17.8971 19.5629 17.9167 19.5629H18.3459C18.9956 19.564 19.5863 19.1861 19.8575 18.5957C20.1288 18.0053 20.0308 17.311 19.6067 16.8188C20.0272 16.5705 20.3158 16.1484 20.3945 15.6665C20.4733 15.1846 20.3341 14.6926 20.0146 14.3233C20.6587 13.9411 20.9679 13.1756 20.7699 12.4533C20.572 11.7309 19.9157 11.23 19.1667 11.2296ZM19.1667 12.0629C19.6269 12.0629 20 12.436 20 12.8962C20 13.3565 19.6269 13.7296 19.1667 13.7296H17.9167C17.4565 13.7296 17.0834 13.3565 17.0834 12.8962C17.0834 12.436 17.4565 12.0629 17.9167 12.0629H19.1667ZM18.75 16.2296H17.9167C17.4565 16.2296 17.0834 15.8565 17.0834 15.3962C17.0834 14.936 17.4565 14.5629 17.9167 14.5629H18.75C19.2103 14.5629 19.5834 14.936 19.5834 15.3962C19.5834 15.8565 19.2103 16.2296 18.75 16.2296ZM18.4409 7.53875C18.8696 7.36973 19.3541 7.58025 19.5232 8.00896C19.6922 8.43767 19.4817 8.92223 19.053 9.09125L17.9167 9.56125V7.74667L18.4409 7.53875ZM10.515 1.66667C10.3571 1.66727 10.2125 1.57787 10.1425 1.43625L9.84088 0.833333H14.7425L14.4409 1.43625C14.3709 1.57787 14.2264 1.66727 14.0684 1.66667H10.515ZM13.55 21.8112C13.1598 22.0326 12.9181 22.446 12.9167 22.8946V23.75C12.9167 23.9801 12.7302 24.1667 12.5 24.1667H7.50004C7.26992 24.1667 7.08338 23.9801 7.08338 23.75V23.3333C7.08338 22.4387 6.50463 21.7379 6.10171 21.0833C5.36129 19.8829 5.10171 19.9071 5.00963 18.6971C4.96129 18.0475 5.10254 16.1633 5.12129 15.475C5.13171 15.0583 5.10963 13.5317 5.09754 12.5517C5.09433 12.0931 5.27351 11.652 5.59564 11.3256C5.91778 10.9991 6.35644 10.8141 6.81504 10.8112C7.77046 10.8112 8.08921 11.4113 9.05338 11.6862C9.65454 11.8518 10.2674 11.9714 10.8867 12.0442C11.092 12.0657 11.2488 12.2373 11.2517 12.4437V12.5133C11.2488 12.6587 11.1659 13.93 9.16838 13.93C9.14255 13.9276 9.1165 13.9303 9.09171 13.9379C8.77296 13.9642 7.31546 13.6675 7.04129 13.1187C6.93774 12.9128 6.68683 12.8298 6.48088 12.9333C6.27492 13.0369 6.19191 13.2878 6.29546 13.4937C6.3877 13.6702 6.51387 13.8266 6.66671 13.9542V19.1458C6.66671 20.0663 7.4129 20.8125 8.33338 20.8125H14.9442C14.521 21.1998 14.0529 21.5351 13.55 21.8112ZM14.1334 7.09083L13.1413 6.66667C13.325 6.47958 13.5055 6.28042 13.6796 6.06417C13.9209 6.35904 14.0776 6.71388 14.133 7.09083H14.1334ZM10.425 7.38708C10.4913 5.83958 11.8321 5.06042 13.0138 5.56333C12.3696 6.43362 11.4621 7.07314 10.4259 7.38708H10.425ZM12.4546 7.28042L14.1305 7.99667C13.7655 10.6012 11.0105 10.6771 10.493 8.23208C11.2098 8.06496 11.8803 7.73982 12.4555 7.28042H12.4546ZM15 13.6667V15.8333H14.1667V14.1667C14.1667 13.9365 13.9802 13.75 13.75 13.75C13.5199 13.75 13.3334 13.9365 13.3334 14.1667V15.8333H11.25C11.25 13.7675 11.25 14.2208 11.2463 14.1488C11.7596 13.7294 12.0651 13.1076 12.0834 12.445C12.0803 11.7931 11.5742 11.2543 10.9238 11.2104C11.7814 10.7215 12.8363 10.7343 13.6818 11.2438C14.5274 11.7533 15.0316 12.68 15 13.6667ZM9.58338 15.8333V14.745C9.86631 14.7239 10.1459 14.6705 10.4167 14.5858V15.8333H9.58338ZM16.25 19.9792H8.33338C7.87314 19.9792 7.50004 19.6061 7.50004 19.1458V14.4375C7.90183 14.5938 8.32186 14.6984 8.75004 14.7487V15.8333C8.75004 16.2936 9.12314 16.6667 9.58338 16.6667H15C15.4603 16.6667 15.8334 16.2936 15.8334 15.8333V13.6667C15.8354 12.2511 15.0313 10.9578 13.7609 10.3333C14.5186 9.67951 14.9654 8.73634 14.9913 7.73583C14.9913 7.73583 14.9913 7.73167 14.9913 7.72958C15.0892 6.72171 14.6702 5.7328 13.878 5.10208C12.1063 3.81833 9.58338 5 9.58338 7.5C9.55454 8.57662 10.0035 9.61083 10.8096 10.325C10.4419 10.4977 10.1071 10.733 9.82004 11.0204C9.64421 10.9817 9.46296 10.9371 9.28088 10.8858C8.60754 10.6937 8.28088 10.2546 7.50004 10.0604V1.66667C7.50004 1.20643 7.87314 0.833333 8.33338 0.833333H8.90921L9.39713 1.80917C9.60776 2.23358 10.0412 2.50146 10.515 2.5H14.0684C14.5422 2.50146 14.9757 2.23358 15.1863 1.80917L15.6742 0.833333H16.25C16.7103 0.833333 17.0834 1.20643 17.0834 1.66667V11.4612C16.617 11.7268 16.309 12.2027 16.2578 12.7369C16.2066 13.2711 16.4185 13.7969 16.8259 14.1462C16.461 14.4595 16.2507 14.9162 16.25 15.3971C16.2493 15.8779 16.4582 16.3353 16.8221 16.6496C16.4195 16.9972 16.2092 17.5176 16.2572 18.0474C16.3052 18.5771 16.6057 19.0512 17.0642 19.3208C16.9818 19.7047 16.6426 19.9789 16.25 19.9792ZM18.3459 18.7292H17.9167C17.4565 18.7292 17.0834 18.3561 17.0834 17.8958C17.0834 17.4356 17.4565 17.0625 17.9167 17.0625H18.3459C18.8061 17.0625 19.1792 17.4356 19.1792 17.8958C19.1792 18.3561 18.8061 18.7292 18.3459 18.7292Z" fill="#93A8C6"/>
<path d="M14.5835 18.3333H10.0002C9.77004 18.3333 9.5835 18.5198 9.5835 18.7499C9.5835 18.98 9.77004 19.1666 10.0002 19.1666H14.5835C14.8136 19.1666 15.0002 18.98 15.0002 18.7499C15.0002 18.5198 14.8136 18.3333 14.5835 18.3333Z" fill="#93A8C6"/>
</g>
<defs>
<clipPath id="clip0">
<rect width="25" height="25" fill="white"/>
</clipPath>
</defs>
</svg>
