<svg width="320" height="249" viewBox="0 0 320 249" fill="none" xmlns="http://www.w3.org/2000/svg">
<path d="M793.981 170.648V188.629H769.492L760.213 120.795H758.778V112.742H753.899V120.89H752.655V117.858H749.212V120.89H742.133V113.784H740.22V108.857H726.54V113.784H724.627V120.89H722.714V161.628H710.374V58.2658H706.356V35.6226H705.017V58.2658H701.956V26.8117H700.616V58.2658H697.938V41.2124H696.599V58.2658H672.684V131.595H646.186V179.155H621.314L601.608 143.154C604.956 141.259 608.017 138.985 610.887 136.332L614.905 140.596C614.044 141.354 613.47 142.491 613.47 143.722C613.47 145.996 615.288 147.796 617.583 147.796C619.879 147.796 621.697 145.996 621.697 143.722C621.697 141.448 619.879 139.648 617.583 139.648C616.723 139.648 615.862 139.933 615.192 140.406L611.079 136.143C611.461 135.859 611.748 135.48 612.131 135.196C616.436 130.932 619.784 126.1 622.271 120.89L626.767 122.974C626.671 123.258 626.671 123.637 626.671 124.016C626.671 126.29 628.489 128.09 630.785 128.09C633.08 128.09 634.898 126.29 634.898 124.016C634.898 121.742 633.08 119.942 630.785 119.942C628.967 119.942 627.532 121.079 626.958 122.595L622.558 120.605C625.332 114.637 626.862 108.194 627.054 101.468L631.932 101.657C632.028 103.836 633.846 105.636 636.046 105.636C638.342 105.636 640.159 103.836 640.159 101.562C640.159 99.2886 638.342 97.4886 636.046 97.4886C633.846 97.4886 632.124 99.0992 631.932 101.278L627.054 101.089C627.054 100.615 627.054 100.141 627.054 99.6676C627.054 93.6989 626.002 87.9197 623.993 82.4247L628.01 80.9089C628.68 82.33 630.115 83.3721 631.837 83.3721C634.133 83.3721 635.95 81.5721 635.95 79.2983C635.95 77.0245 634.133 75.2244 631.837 75.2244C629.541 75.2244 627.724 77.0245 627.724 79.2983C627.724 79.6772 627.819 80.1509 627.915 80.5299L623.897 82.0458C621.601 75.8876 618.062 70.2979 613.47 65.3713L616.627 62.4344C617.392 63.0975 618.349 63.5713 619.497 63.5713C621.792 63.5713 623.61 61.7712 623.61 59.4974C623.61 57.2236 621.792 55.4235 619.497 55.4235C617.201 55.4235 615.383 57.2236 615.383 59.4974C615.383 60.5395 615.766 61.3922 616.34 62.1501L613.183 65.0871C612.896 64.7081 612.513 64.4239 612.227 64.045C607.443 59.3079 601.895 55.613 595.773 53.1497L597.495 48.9811C597.878 49.0759 598.356 49.1706 598.739 49.1706C601.034 49.1706 602.852 47.3705 602.852 45.0967C602.852 42.823 601.034 41.0229 598.739 41.0229C596.443 41.0229 594.625 42.823 594.625 45.0967C594.625 46.8021 595.677 48.2232 597.112 48.8864L595.39 53.055C589.938 50.876 584.102 49.6443 578.076 49.4548L578.267 43.6756H578.363C580.659 43.6756 582.476 41.8755 582.476 39.6018C582.476 37.328 580.659 35.5279 578.363 35.5279C576.067 35.5279 574.25 37.328 574.25 39.6018C574.25 41.6861 575.78 43.3914 577.789 43.6756L577.598 49.4548C577.119 49.4548 576.641 49.4548 576.163 49.4548C570.423 49.4548 564.779 50.4022 559.422 52.2023L557.796 47.56C559.327 46.9916 560.379 45.4757 560.379 43.7704C560.379 41.4966 558.561 39.6965 556.265 39.6965C553.97 39.6965 552.152 41.4966 552.152 43.7704C552.152 46.0442 553.97 47.8442 556.265 47.8442C556.648 47.8442 557.031 47.7495 557.413 47.6548L559.04 52.2971C552.63 54.5709 546.699 58.171 541.534 62.9081L538.473 59.6869C539.142 58.9289 539.525 57.9815 539.525 56.9394C539.525 54.6656 537.707 52.8655 535.412 52.8655C533.116 52.8655 531.298 54.6656 531.298 56.9394C531.298 59.2132 533.116 61.0133 535.412 61.0133C536.464 61.0133 537.42 60.6343 538.09 59.9711L541.151 63.1923C540.769 63.4765 540.482 63.8555 540.099 64.1397C535.794 68.4031 532.446 73.2348 529.959 78.4456L526.133 76.6455C526.228 76.2666 526.324 75.7929 526.324 75.3191C526.324 73.0454 524.506 71.2453 522.211 71.2453C519.915 71.2453 518.097 73.0454 518.097 75.3191C518.097 77.5929 519.915 79.393 522.211 79.393C523.837 79.393 525.272 78.4456 525.941 77.0245L529.768 78.7298C526.993 84.6985 525.463 91.1409 525.272 97.8675L520.297 97.678C520.202 95.499 518.384 93.6989 516.184 93.6989C513.888 93.6989 512.07 95.499 512.07 97.7728C512.07 100.047 513.888 101.847 516.184 101.847C518.384 101.847 520.106 100.236 520.297 98.057L525.272 98.2465C525.272 98.7202 525.272 99.1939 525.272 99.6676C525.272 105.636 526.324 111.415 528.333 116.91L524.315 118.426C523.645 117.005 522.21 115.963 520.489 115.963C518.193 115.963 516.375 117.763 516.375 120.037C516.375 122.311 518.193 124.111 520.489 124.111C522.784 124.111 524.602 122.311 524.602 120.037C524.602 119.658 524.506 119.184 524.411 118.805L528.428 117.289C530.724 123.448 534.264 129.037 538.855 133.964L535.699 136.901C534.933 136.238 533.977 135.764 532.829 135.764C530.533 135.764 528.715 137.564 528.715 139.838C528.715 142.112 530.533 143.912 532.829 143.912C535.125 143.912 536.942 142.112 536.942 139.838C536.942 138.796 536.56 137.943 535.986 137.185L539.142 134.248C539.429 134.627 539.812 134.911 540.099 135.29C543.351 138.511 546.891 141.164 550.813 143.438L531.107 179.44H515.132V155.091H508.627V108.763H511.114V107.721H455.249V108.763H457.736V132.164H452.283L447.022 158.786V71.0558H444.726V39.507H433.151V27.4749H427.124V17.3376H424.924V0H424.35V17.3376H422.15V27.4749H415.932V39.507H404.453V71.0558H402.253V128.469H384.46V179.061H325.534V81.1931H330.317V79.6772H325.534V76.9297H319.507V72.3822H270.338V76.9297H264.311V79.6772H259.528V81.1931H264.311V142.112H256.276V130.743H206.724V144.67H195.914V170.629H178.409V85.7407H172.573V79.9615H167.982V64.6134H167.025V79.8667H164.825V60.8238H163.868V79.9615H161.19V85.7407H159.755V170.723H123.5V120.89H125.222V117.479H114.029V108.289H108.672V117.479H103.794V108.289H98.9151V117.479H89.4448V108.289H60.5555V117.479H53.7636V120.89H57.59V139.648H46.9717V181.998H32.2401V170.723H15.8822V195.356H-3.82371V183.857H-33V369H820V170.648H793.981ZM600.939 141.922L594.147 129.416C596.347 128.185 598.356 126.669 600.269 124.963L610.026 135.29C607.252 137.848 604.191 140.122 600.939 141.922ZM575.397 101.941C575.589 102.036 575.78 102.036 575.876 102.036L574.823 133.585C570.71 133.395 566.884 132.543 563.249 131.122L575.397 101.941ZM562.866 130.932C561.718 130.458 560.57 129.89 559.518 129.322L574.728 101.562C574.823 101.657 574.919 101.657 575.015 101.752L562.866 130.932ZM576.45 102.131C576.641 102.131 576.832 102.131 577.024 102.036L587.642 131.785C584.102 133.016 580.276 133.68 576.354 133.68C576.067 133.68 575.78 133.68 575.493 133.68L576.45 102.131ZM577.406 101.847C577.598 101.752 577.693 101.657 577.885 101.562L593.095 129.322C591.468 130.174 589.842 130.932 588.025 131.595L577.406 101.847ZM579.989 103.552L599.791 124.49C597.973 126.195 595.964 127.616 593.86 128.848L579.989 103.552ZM579.128 102.036L578.554 100.994C578.65 100.899 578.65 100.804 578.746 100.71L607.635 113.974C605.817 117.858 603.234 121.363 600.173 124.206L579.128 102.036ZM578.841 100.236C578.937 100.047 578.937 99.8571 579.033 99.5729L610.887 100.615C610.696 105.163 609.644 109.521 607.826 113.405L578.841 100.236ZM579.033 99.1939C579.033 99.0044 579.033 98.8149 578.937 98.6255L608.878 87.7302C610.218 91.3304 610.887 95.3095 610.887 99.3834C610.887 99.6676 610.887 99.9518 610.887 100.236L579.033 99.1939ZM578.746 98.1517C578.65 97.9623 578.554 97.7728 578.363 97.5833L601.608 75.9823C604.574 79.2035 607.061 82.9932 608.591 87.1618L578.746 98.1517ZM578.172 97.2991C577.98 97.1096 577.789 97.0149 577.598 96.9201L589.651 67.7399C594.147 69.6347 598.069 72.3822 601.417 75.7929L578.172 97.2991ZM577.119 96.7306C576.928 96.6359 576.737 96.6359 576.641 96.6359L577.693 65.0871C581.807 65.2766 585.633 66.1293 589.268 67.5504L577.119 96.7306ZM576.163 96.6359C575.971 96.6359 575.78 96.6359 575.589 96.7306L564.971 66.9819C568.51 65.7503 572.336 65.0871 576.258 65.0871C576.545 65.0871 576.832 65.0871 577.119 65.0871L576.163 96.6359ZM575.111 96.8254C574.919 96.9201 574.728 97.0148 574.536 97.2043L552.726 74.1823C556.074 71.0558 560.092 68.6873 564.492 67.0767L575.111 96.8254ZM574.25 97.4886C574.154 97.678 573.963 97.7728 573.867 97.9623L544.978 84.6985C546.795 80.8141 549.378 77.3087 552.439 74.4665L574.25 97.4886ZM573.676 98.436C573.58 98.6255 573.58 98.8149 573.484 99.0992L541.63 98.057C541.821 93.5094 542.873 89.1513 544.691 85.267L573.676 98.436ZM573.484 99.4781C573.484 99.6676 573.484 99.8571 573.58 100.047L543.734 110.942C542.395 107.342 541.725 103.363 541.725 99.2886C541.725 99.0044 541.725 98.7202 541.725 98.436L573.484 99.4781ZM573.771 100.52C573.867 100.71 573.963 100.804 574.058 100.994L573.867 101.373L550.909 122.69C547.943 119.468 545.456 115.679 543.925 111.51L573.771 100.52ZM573.102 102.605L558.753 128.848C555.978 127.237 553.396 125.248 551.195 122.879L573.102 102.605ZM559.135 129.89C560.283 130.458 561.431 131.027 562.579 131.595L557.126 144.67C555.5 144.006 553.874 143.249 552.248 142.396L559.135 129.89ZM563.057 131.785C566.692 133.301 570.71 134.153 574.919 134.248L574.441 148.365C568.606 148.175 562.962 146.943 557.605 144.859L563.057 131.785ZM575.302 134.343C575.589 134.343 575.876 134.343 576.258 134.343C580.276 134.343 584.198 133.68 587.738 132.448L592.521 145.807C587.355 147.607 581.902 148.459 576.258 148.459C575.78 148.459 575.302 148.459 574.919 148.459L575.302 134.343ZM588.216 132.259C590.033 131.595 591.755 130.837 593.382 129.985L600.173 142.396C597.878 143.627 595.486 144.764 592.999 145.617L588.216 132.259ZM611.366 134.059C611.079 134.343 610.696 134.722 610.409 135.006L600.652 124.679C603.809 121.742 606.391 118.142 608.305 114.163L621.314 120.132C618.827 125.248 615.479 129.985 611.366 134.059ZM621.41 119.753L608.4 113.784C610.218 109.805 611.366 105.352 611.557 100.71L625.81 101.183C625.619 107.626 624.088 113.974 621.41 119.753ZM625.81 99.3834C625.81 99.8571 625.81 100.331 625.81 100.71L611.557 100.236C611.557 99.9518 611.557 99.6676 611.557 99.2886C611.557 95.12 610.792 91.1409 609.452 87.446L622.845 82.5195C624.854 87.9197 625.81 93.5094 625.81 99.3834ZM612.609 65.9398C617.105 70.6768 620.549 76.1718 622.749 82.1405L609.357 87.067C607.731 82.8037 605.243 78.9193 602.182 75.6034L612.609 65.9398ZM611.366 64.6134C611.653 64.8976 612.035 65.2766 612.322 65.5608L601.895 75.2244C598.547 71.719 594.434 68.8768 589.938 66.9819L595.39 53.9077C601.226 56.3709 606.678 59.9711 611.366 64.6134ZM578.076 50.3075C583.911 50.497 589.555 51.7286 594.912 53.8129L589.459 66.8872C585.824 65.3713 581.807 64.5187 577.598 64.4239L578.076 50.3075ZM576.258 50.2128C576.737 50.2128 577.215 50.2128 577.598 50.2128L577.215 64.4239C576.928 64.4239 576.641 64.4239 576.258 64.4239C572.241 64.4239 568.319 65.0871 564.779 66.3187L559.996 52.9603C565.162 51.1602 570.615 50.2128 576.258 50.2128ZM559.518 53.055L564.301 66.4135C559.805 68.0241 555.691 70.4873 552.248 73.6138L542.49 63.287C547.56 58.7395 553.3 55.3288 559.518 53.055ZM541.247 64.6134C541.534 64.3292 541.916 63.9502 542.203 63.666L551.961 73.9928C548.804 76.9297 546.221 80.5299 544.308 84.509L531.298 78.5404C533.69 73.4243 537.038 68.6873 541.247 64.6134ZM531.107 78.9193L544.117 84.888C542.299 88.8671 541.151 93.32 540.96 97.9623L526.706 97.4886C526.993 91.0462 528.428 84.6985 531.107 78.9193ZM526.706 99.3834C526.706 98.9097 526.706 98.436 526.706 98.057L540.96 98.5307C540.96 98.8149 540.96 99.0992 540.96 99.4781C540.96 103.647 541.725 107.626 543.064 111.321L529.672 116.247C527.663 110.847 526.706 105.163 526.706 99.3834ZM539.908 132.732C535.412 127.995 531.968 122.5 529.768 116.532L543.16 111.605C544.786 115.868 547.273 119.753 550.335 123.069L539.908 132.732ZM541.247 134.059C540.96 133.774 540.577 133.395 540.29 133.111L550.717 123.448C553.013 125.816 555.596 127.9 558.466 129.511L551.674 142.017C547.847 139.838 544.308 137.185 541.247 134.059ZM551.674 143.627C553.3 144.48 554.926 145.333 556.648 145.996L554.926 150.165C554.544 150.07 554.065 149.975 553.683 149.975C551.387 149.975 549.569 151.775 549.569 154.049C549.569 156.323 551.387 158.123 553.683 158.123C555.978 158.123 557.796 156.323 557.796 154.049C557.796 152.344 556.744 150.923 555.309 150.259L557.031 146.091C562.483 148.27 568.319 149.501 574.345 149.691L574.25 153.954C572.049 154.049 570.232 155.849 570.232 158.028C570.232 160.302 572.049 162.102 574.345 162.102C576.641 162.102 578.459 160.302 578.459 158.028C578.459 155.849 576.832 154.144 574.728 153.954L574.823 149.691C575.302 149.691 575.78 149.691 576.258 149.691C581.998 149.691 587.642 148.743 592.999 146.943L594.529 151.112C593.095 151.775 592.138 153.196 592.138 154.807C592.138 157.081 593.956 158.881 596.251 158.881C598.547 158.881 600.365 157.081 600.365 154.807C600.365 152.533 598.547 150.733 596.251 150.733C595.773 150.733 595.295 150.828 594.912 150.923L593.477 146.754C596.06 145.806 598.547 144.764 600.843 143.438L620.262 178.966H532.159L551.674 143.627Z" fill="url(#paint0_linear_4_7)"/>
<defs>
<linearGradient id="paint0_linear_4_7" x1="393.5" y1="0" x2="393.5" y2="236" gradientUnits="userSpaceOnUse">
<stop stop-color="#B9CEED" stop-opacity="0"/>
<stop offset="1" stop-color="#B9CEED" stop-opacity="0.15"/>
</linearGradient>
</defs>
</svg>
