<svg width="556" height="249" xmlns="http://www.w3.org/2000/svg">
 <defs>
  <linearGradient y2="0.63957" x2="0.5" y1="0" x1="0.5" id="paint0_linear">
   <stop stop-opacity="0" stop-color="#B9CEED"/>
   <stop stop-opacity="0.15" stop-color="#B9CEED" offset="1"/>
  </linearGradient>
 </defs>
 <g>
  <title>background</title>
  <rect fill="none" id="canvas_background" height="251" width="558" y="-1" x="-1"/>
 </g>
 <g>
  <title>Layer 1</title>
  <path stroke="#000000" stroke-opacity="0" id="svg_1" fill="url(#paint0_linear)" d="m539.04901,115.15272l0,12.13352l-15.95668,0l-6.04606,-45.77416l-0.93503,0l0,-5.43414l-3.17909,0l0,5.49824l-0.81057,0l0,-2.04598l-2.24341,0l0,2.04598l-4.61258,0l0,-4.79511l-1.24648,0l0,-3.32472l-8.91369,0l0,3.32472l-1.24648,0l0,4.79511l-1.24648,0l0,27.48987l-8.04057,0l0,-69.74848l-2.61807,0l0,-15.27956l-0.87247,0l0,15.27956l-1.9945,0l0,-21.22512l-0.87312,0l0,21.22512l-1.74495,0l0,-11.50758l-0.87247,0l0,11.50758l-15.58267,0l0,49.48231l-17.26572,0l0,32.09333l-16.20624,0l-12.84015,-24.29336c2.18151,-1.27874 4.17601,-2.81323 6.04606,-4.60346l2.61807,2.87733c-0.56102,0.5115 -0.93503,1.27874 -0.93503,2.10941c0,1.53449 1.18458,2.74912 2.67997,2.74912c1.49604,0 2.68062,-1.21463 2.68062,-2.74912c0,-1.53449 -1.18458,-2.74912 -2.68062,-2.74912c-0.56036,0 -1.12138,0.19232 -1.55794,0.5115l-2.67997,-2.87666c0.24891,-0.19164 0.43591,-0.44739 0.68547,-0.63903c2.80508,-2.87733 4.98659,-6.13795 6.60708,-9.65364l2.92953,1.40628c-0.06255,0.19164 -0.06255,0.44739 -0.06255,0.70314c0,1.53449 1.18458,2.74912 2.68062,2.74912c1.49539,0 2.67997,-1.21463 2.67997,-2.74912c0,-1.53449 -1.18458,-2.74912 -2.67997,-2.74912c-1.18458,0 -2.11961,0.76724 -2.49362,1.79024l-2.86698,-1.34285c1.8075,-4.02719 2.80442,-8.3749 2.92953,-12.91359l3.17844,0.12754c0.06255,1.47038 1.24714,2.68502 2.68062,2.68502c1.49604,0 2.67997,-1.21463 2.67997,-2.74912c0,-1.53408 -1.18393,-2.74872 -2.67997,-2.74872c-1.43349,0 -2.55552,1.08683 -2.68062,2.55707l-3.17844,-0.12754c0,-0.31985 0,-0.63971 0,-0.95916c0,-4.02766 -0.68547,-7.92744 -1.9945,-11.63545l2.61742,-1.02286c0.43656,0.95895 1.37159,1.66216 2.49362,1.66216c1.49604,0 2.67997,-1.21463 2.67997,-2.74899c0,-1.53435 -1.18393,-2.74905 -2.67997,-2.74905c-1.49604,0 -2.67997,1.2147 -2.67997,2.74905c0,0.25568 0.0619,0.57533 0.12445,0.83108l-2.61807,1.02292c-1.49604,-4.15553 -3.802,-7.92744 -6.79408,-11.2519l2.05706,-1.98181c0.49846,0.44746 1.12203,0.76718 1.87005,0.76718c1.49539,0 2.67997,-1.2147 2.67997,-2.74905c0,-1.53435 -1.18458,-2.74905 -2.67997,-2.74905c-1.49604,0 -2.68062,1.2147 -2.68062,2.74905c0,0.70321 0.24956,1.2786 0.62357,1.79003l-2.05706,1.98188c-0.18701,-0.25575 -0.43656,-0.44753 -0.62292,-0.70321c-3.11719,-3.19658 -6.73218,-5.68989 -10.72119,-7.35211l1.12203,-2.81296c0.24956,0.06397 0.56102,0.12787 0.81057,0.12787c1.49539,0 2.67997,-1.2147 2.67997,-2.74905c0,-1.53429 -1.18458,-2.74899 -2.67997,-2.74899c-1.49604,0 -2.68062,1.2147 -2.68062,2.74899c0,1.1508 0.68547,2.10975 1.62049,2.55728l-1.12203,2.81296c-3.55245,-1.47038 -7.3551,-2.30153 -11.28155,-2.4294l0.12445,-3.89979l0.06255,0c1.49604,0 2.67997,-1.2147 2.67997,-2.74899c0,-1.53435 -1.18393,-2.74905 -2.67997,-2.74905c-1.49604,0 -2.67997,1.2147 -2.67997,2.74905c0,1.40648 0.99693,2.55721 2.30596,2.74899l-0.12445,3.89979c-0.31211,0 -0.62357,0 -0.93503,0c-3.7401,0 -7.41765,0.6393 -10.9082,1.854l-1.05948,-3.13261c0.99758,-0.38355 1.68305,-1.40648 1.68305,-2.55721c0,-1.53435 -1.18458,-2.74905 -2.68062,-2.74905c-1.49539,0 -2.67997,1.2147 -2.67997,2.74905c0,1.53435 1.18458,2.74899 2.67997,2.74899c0.24956,0 0.49911,-0.0639 0.74802,-0.12781l1.06013,3.13261c-4.17666,1.53435 -8.04122,3.96369 -11.40666,7.16027l-1.9945,-2.17366c0.43591,-0.5115 0.68547,-1.1508 0.68547,-1.854c0,-1.53435 -1.18458,-2.74905 -2.67997,-2.74905c-1.49604,0 -2.68062,1.2147 -2.68062,2.74905c0,1.53435 1.18458,2.74905 2.68062,2.74905c0.68547,0 1.30838,-0.25575 1.74495,-0.70327l1.9945,2.17366c-0.24891,0.19178 -0.43591,0.44753 -0.68547,0.6393c-2.80508,2.87693 -4.98659,6.13734 -6.60708,9.65357l-2.49297,-1.2147c0.0619,-0.25568 0.12445,-0.57533 0.12445,-0.89505c0,-1.53429 -1.18458,-2.74899 -2.67997,-2.74899c-1.49604,0 -2.68062,1.2147 -2.68062,2.74899c0,1.53435 1.18458,2.74905 2.68062,2.74905c1.05948,0 1.9945,-0.6393 2.43041,-1.59826l2.49362,1.15073c-1.80815,4.02766 -2.80508,8.37497 -2.92953,12.91406l-3.24164,-0.12787c-0.0619,-1.47038 -1.24648,-2.68508 -2.67997,-2.68508c-1.49604,0 -2.68062,1.2147 -2.68062,2.74905c0,1.53462 1.18458,2.74926 2.68062,2.74926c1.43349,0 2.55552,-1.0871 2.67997,-2.55748l3.24164,0.12787c0,0.31965 0,0.6393 0,0.95895c0,4.02746 0.68547,7.92711 1.9945,11.63512l-2.61807,1.02299c-0.43656,-0.95889 -1.37159,-1.66202 -2.49297,-1.66202c-1.49604,0 -2.68062,1.21463 -2.68062,2.74912c0,1.53449 1.18458,2.74912 2.68062,2.74912c1.49539,0 2.67997,-1.21463 2.67997,-2.74912c0,-0.25575 -0.06255,-0.5756 -0.12445,-0.83135l2.61742,-1.02299c1.49604,4.15607 3.80265,7.92751 6.79408,11.25224l-2.0564,1.98188c-0.49911,-0.44739 -1.12203,-0.76724 -1.87005,-0.76724c-1.49604,0 -2.68062,1.21463 -2.68062,2.74912c0,1.53449 1.18458,2.74912 2.68062,2.74912c1.49604,0 2.67997,-1.21463 2.67997,-2.74912c0,-0.70314 -0.24891,-1.27874 -0.62292,-1.79024l2.0564,-1.98188c0.18701,0.25575 0.43656,0.44739 0.62357,0.70314c2.11896,2.17352 4.42557,3.96376 6.98109,5.49824l-12.84015,24.29403l-10.40908,0l0,-16.43063l-4.23857,0l0,-31.26198l1.62049,0l0,-0.70314l-36.40084,0l0,0.70314l1.62049,0l0,15.79092l-3.5531,0l-3.42799,17.96444l0,-59.20005l-1.49604,0l0,-21.28903l-7.5421,0l0,-8.11922l-3.92711,0l0,-6.84062l-1.43349,0l0,-11.69936l-0.37401,0l0,11.69936l-1.43349,0l0,6.84062l-4.05156,0l0,8.11922l-7.47955,0l0,21.28903l-1.43349,0l0,38.74224l-11.59366,0l0,34.13932l-38.39534,0l0,-66.04094l3.11653,0l0,-1.02292l-3.11653,0l0,-1.854l-3.92711,0l0,-3.06864l-32.03782,0l0,3.06864l-3.92711,0l0,1.854l-3.11653,0l0,1.02292l3.11653,0l0,41.10788l-5.23549,0l0,-7.67176l-32.28738,0l0,9.39789l-7.04364,0l0,17.51705l-11.40601,0l0,-57.28235l-3.80265,0l0,-3.89979l-2.99143,0l0,-10.35685l-0.62357,0l0,10.29288l-1.43349,0l0,-12.85009l-0.62357,0l0,12.91406l-1.74495,0l0,3.89979l-0.93503,0l0,57.34578l-23.62324,0l0,-33.62715l1.12203,0l0,-2.30173l-7.2932,0l0,-6.20138l-3.49054,0l0,6.20138l-3.17844,0l0,-6.20138l-3.17902,0l0,6.20138l-6.17071,0l0,-6.20138l-18.82386,0l0,6.20138l-4.4255,0l0,2.30173l2.49323,0l0,12.65784l-6.91873,0l0,28.57764l-9.5989,0l0,-7.60833l-10.65857,0l0,16.62227l-12.84009,0l0,-7.75949l-19.01085,0l0,124.9339l555.80261,0l0,-133.84729l-16.95361,0zm-125.78341,-19.38421l-4.42557,-8.43901c1.43349,-0.83067 2.74252,-1.85367 3.98901,-3.00487l6.35752,6.96863c-1.8075,1.72613 -3.802,3.26062 -5.92096,4.47525zm-16.6428,-26.97905c0.1251,0.06411 0.24956,0.06411 0.31211,0.06411l-0.68612,21.28916c-2.67997,-0.12821 -5.17294,-0.70314 -7.54145,-1.66202l7.91546,-19.69124zm-8.16502,19.56303c-0.74802,-0.31985 -1.49604,-0.70314 -2.18151,-1.08642l9.91062,-18.73236c0.0619,0.06411 0.12445,0.06411 0.18701,0.12821l-7.91611,19.69057zm8.85114,-19.43482c0.12445,0 0.24891,0 0.37401,-0.06411l6.91854,20.07453c-2.30661,0.83067 -4.79958,1.27874 -7.3551,1.27874c-0.18701,0 -0.37401,0 -0.56102,0l0.62357,-21.28916zm0.62292,-0.19164c0.1251,-0.06411 0.18701,-0.12821 0.31211,-0.19232l9.91062,18.73236c-1.06013,0.57493 -2.11961,1.08642 -3.30354,1.53381l-6.91919,-20.07385zm1.68305,1.15053l12.9027,14.12889c-1.18458,1.15053 -2.49362,2.10941 -3.86455,2.94076l-9.03815,-17.06966zm-0.56102,-1.02299l-0.37401,-0.70314c0.06255,-0.06411 0.06255,-0.12821 0.1251,-0.19164l18.82366,8.9505c-1.18458,2.62091 -2.86763,4.98607 -4.86213,6.90452l-13.71262,-14.96024zm-0.18701,-1.21463c0.06255,-0.12754 0.06255,-0.25568 0.1251,-0.44746l20.75561,0.70321c-0.12445,3.06898 -0.80992,6.00974 -1.9945,8.63065l-18.88621,-8.8864zm0.1251,-0.70321c0,-0.12787 0,-0.25575 -0.06255,-0.38355l19.50913,-7.35211c0.87312,2.4294 1.30904,5.11449 1.30904,7.86354c0,0.19178 0,0.38355 0,0.57533l-20.75561,-0.70321zm-0.18701,-0.70327c-0.06255,-0.12781 -0.1251,-0.25568 -0.24956,-0.38355l15.14611,-14.57628c1.9326,2.17366 3.5531,4.73093 4.55002,7.54389l-19.44658,7.41595zm-0.37401,-0.57533c-0.1251,-0.12787 -0.24956,-0.19178 -0.37401,-0.25575l7.85356,-19.6907c2.92953,1.2786 5.48505,3.13261 7.66656,5.43414l-15.14611,14.51231zm-0.68612,-0.38362c-0.12445,-0.0639 -0.24891,-0.0639 -0.31146,-0.0639l0.68547,-21.28903c2.68062,0.12787 5.17359,0.70327 7.5421,1.66223l-7.91611,19.6907zm-0.62292,-0.0639c-0.1251,0 -0.24956,0 -0.37401,0.0639l-6.91854,-20.07433c2.30596,-0.83108 4.79893,-1.2786 7.35445,-1.2786c0.18701,0 0.37401,0 0.56102,0l-0.62292,21.28903zm-0.68547,0.12787c-0.1251,0.0639 -0.24956,0.12781 -0.37466,0.25568l-14.21108,-15.53517c2.18151,-2.10975 4.79958,-3.70801 7.66656,-4.79484l6.91919,20.07433zm-0.56102,0.44753c-0.06255,0.12781 -0.18701,0.19178 -0.24956,0.31965l-18.82366,-8.95037c1.18393,-2.62118 2.86698,-4.98661 4.86148,-6.90452l14.21174,15.53524zm-0.37401,0.6393c-0.06255,0.12787 -0.06255,0.25568 -0.1251,0.44753l-20.75561,-0.70327c0.12445,-3.06871 0.80992,-6.00954 1.9945,-8.63065l18.88621,8.8864zm-0.1251,0.70321c0,0.12787 0,0.25575 0.06255,0.38389l-19.44723,7.35191c-0.87247,-2.42927 -1.30904,-5.11428 -1.30904,-7.86368c0,-0.19178 0,-0.38355 0,-0.57533l20.69371,0.70321zm0.18701,0.70307c0.06255,0.12821 0.1251,0.19164 0.18701,0.31985l-0.12445,0.25575l-14.9591,14.38464c-1.9326,-2.1742 -3.5531,-4.731 -4.55067,-7.54423l19.44723,-7.41602zm-0.43591,1.40695l-9.3496,17.70869c-1.80815,-1.0871 -3.49054,-2.42927 -4.92468,-4.02786l14.27429,-13.68083zm-9.1007,18.41183c0.74802,0.38328 1.49604,0.76724 2.24406,1.15053l-3.5531,8.82297c-1.05948,-0.44807 -2.11896,-0.95889 -3.17844,-1.53449l4.48747,-8.43901zm2.55552,1.27874c2.36851,1.02299 4.98659,1.59792 7.72911,1.66202l-0.31146,9.52611c-3.802,-0.12821 -7.47955,-0.95956 -10.9701,-2.36584l3.55245,-8.82229zm7.97867,1.72613c0.18701,0 0.37401,0 0.62292,0c2.61807,0 5.17359,-0.44739 7.4802,-1.27874l3.11653,9.01461c-3.36609,1.21463 -6.91919,1.78956 -10.59674,1.78956c-0.31146,0 -0.62292,0 -0.87247,0l0.24956,-9.52543zm8.41458,-1.40628c1.18393,-0.44807 2.30596,-0.95956 3.36609,-1.53449l4.42492,8.3749c-1.49539,0.83067 -3.05398,1.59792 -4.67448,2.17352l-3.11653,-9.01394zm15.08421,1.21463c-0.18701,0.19164 -0.43656,0.44739 -0.62357,0.63903l-6.35752,-6.96863c2.05706,-1.98188 3.73945,-4.41115 4.98659,-7.09616l8.47648,4.02786c-1.62049,3.45226 -3.802,6.64877 -6.48197,9.39789zm6.54453,-9.65364l-8.47713,-4.02786c1.18458,-2.68502 1.9326,-5.68989 2.05706,-8.82229l9.28705,0.31918c-0.12445,4.34772 -1.12203,8.63133 -2.86698,12.53098zm2.86698,-13.74534c0,0.31965 0,0.63944 0,0.89519l-9.28705,-0.31985c0,-0.19178 0,-0.38355 0,-0.6393c0,-2.81296 -0.49846,-5.49804 -1.37159,-7.99135l8.72669,-3.32439c1.30904,3.64404 1.93195,7.41595 1.93195,11.37971zm-8.60158,-22.56763c2.92953,3.19651 5.17359,6.90452 6.60708,10.93218l-8.72604,3.32439c-1.05948,-2.87686 -2.68062,-5.49804 -4.67513,-7.7356l6.79408,-6.52097zm-0.80992,-0.89505c0.18701,0.19178 0.43591,0.44753 0.62292,0.6393l-6.79408,6.52097c-2.18151,-2.36543 -4.86148,-4.28334 -7.79101,-5.56201l3.55245,-8.82243c3.80265,1.66216 7.3551,4.09156 10.40973,7.22417zm-21.69129,-9.65357c3.802,0.12787 7.47955,0.95895 10.9701,2.36543l-3.5531,8.8225c-2.36851,-1.02292 -4.98593,-1.59826 -7.72846,-1.66223l0.31146,-9.5257zm-1.18458,-0.0639c0.31211,0 0.62357,0 0.87312,0l-0.24956,9.5896c-0.18701,0 -0.37401,0 -0.62357,0c-2.61742,0 -5.17294,0.44753 -7.47955,1.2786l-3.11653,-9.01421c3.36609,-1.2147 6.91919,-1.854 10.59609,-1.854zm-10.90754,1.91791l3.11653,9.01427c-2.92953,1.08683 -5.61015,2.74899 -7.85356,4.85874l-6.35817,-6.96849c3.30354,-3.06864 7.04364,-5.37017 11.0952,-6.90452zm-11.90512,7.79957c0.18701,-0.19178 0.43591,-0.44753 0.62292,-0.6393l6.35817,6.96849c-2.05706,1.98181 -3.7401,4.41121 -4.98659,7.0963l-8.47713,-4.02759c1.55859,-3.45233 3.7401,-6.64884 6.48263,-9.39789zm-6.60708,9.65357l8.47713,4.02766c-1.18458,2.68508 -1.9326,5.68989 -2.05706,8.8225l-9.2877,-0.31965c0.18701,-4.34731 1.12203,-8.63072 2.86763,-12.5305zm-2.86763,13.80911c0,-0.31965 0,-0.6393 0,-0.89505l9.2877,0.31965c0,0.19178 0,0.38362 0,0.6393c0,2.81316 0.49846,5.49818 1.37094,7.99155l-8.72604,3.32405c-1.30904,-3.6439 -1.9326,-7.47945 -1.9326,-11.3795zm8.60223,22.50353c-2.92953,-3.19651 -5.17359,-6.90452 -6.60708,-10.93171l8.72604,-3.32472c1.05948,2.87666 2.67997,5.49824 4.67513,7.73587l-6.79408,6.52056zm0.87247,0.89546c-0.18701,-0.19232 -0.43656,-0.44807 -0.62357,-0.63971l6.79408,-6.52056c1.49604,1.59792 3.17909,3.0042 5.04914,4.09129l-4.42557,8.43901c-2.49362,-1.47038 -4.79958,-3.26062 -6.79408,-5.37003zm6.79408,6.45646c1.05948,0.5756 2.11896,1.1512 3.24099,1.59859l-1.12203,2.81323c-0.24891,-0.06411 -0.56102,-0.12821 -0.80992,-0.12821c-1.49604,0 -2.68062,1.21463 -2.68062,2.74912c0,1.53449 1.18458,2.74912 2.68062,2.74912c1.49539,0 2.67997,-1.21463 2.67997,-2.74912c0,-1.15053 -0.68547,-2.10941 -1.62049,-2.55748l1.12203,-2.81255c3.55245,1.47038 7.3551,2.30106 11.28155,2.42927l-0.0619,2.87666c-1.43414,0.06411 -2.61807,1.27874 -2.61807,2.74912c0,1.53449 1.18393,2.74912 2.67997,2.74912c1.49604,0 2.68062,-1.21463 2.68062,-2.74912c0,-1.47038 -1.06013,-2.62091 -2.43107,-2.74912l0.0619,-2.87666c0.31211,0 0.62357,0 0.93503,0c3.7401,0 7.41765,-0.63971 10.9082,-1.85434l0.99693,2.81323c-0.93437,0.44739 -1.55794,1.40628 -1.55794,2.49337c0,1.53449 1.18458,2.74912 2.67997,2.74912c1.49604,0 2.68062,-1.21463 2.68062,-2.74912c0,-1.53449 -1.18458,-2.74912 -2.68062,-2.74912c-0.31146,0 -0.62292,0.06411 -0.87247,0.12821l-0.93503,-2.81323c1.68305,-0.63971 3.30354,-1.34285 4.79958,-2.23763l12.65314,23.97418l-57.40666,0l12.7157,-23.84664z"/>
 </g>
</svg>